<?xml version="1.0" encoding="utf-8"?>
<!-- Generator: Adobe Illustrator 26.5.0, SVG Export Plug-In . SVG Version: 6.00 Build 0)  -->
<svg version="1.1" id="Layer_1" xmlns="http://www.w3.org/2000/svg" xmlns:xlink="http://www.w3.org/1999/xlink" x="0px" y="0px"
	 viewBox="0 0 720 720" style="enable-background:new 0 0 720 720;" xml:space="preserve">
<style type="text/css">
	.st0{fill:#FBB518;}
</style>
<g>
	<g>
		<g>
			<g>
				<g>
					<g>
						<path class="st0" d="M707.7,497.2L595.8,121.5c0-0.1-0.1-0.3-0.2-0.4c-0.1-0.4-0.3-0.8-0.5-1.1c-0.1-0.3-0.3-0.7-0.5-1
							c-0.2-0.3-0.4-0.6-0.6-1c-0.2-0.3-0.4-0.6-0.7-0.9c-0.2-0.3-0.5-0.6-0.8-0.8c-0.3-0.3-0.5-0.5-0.8-0.8
							c-0.3-0.2-0.6-0.5-0.9-0.7c-0.3-0.2-0.6-0.4-0.9-0.6c-0.3-0.2-0.6-0.3-1-0.5c-0.4-0.2-0.7-0.3-1.1-0.5c-0.3-0.1-0.6-0.2-1-0.3
							c-0.4-0.1-0.8-0.2-1.3-0.3c-0.1,0-0.3-0.1-0.4-0.1c-0.2,0-0.4,0-0.6,0c-0.4,0-0.8-0.1-1.3-0.1c-0.4,0-0.8,0-1.2,0.1
							c-0.2,0-0.4,0-0.7,0c-0.1,0-0.3,0.1-0.4,0.1c-0.4,0.1-0.8,0.2-1.2,0.3c-0.4,0.1-0.7,0.2-1,0.3c-0.3,0.1-0.7,0.3-1,0.5
							c-0.3,0.2-0.7,0.3-1,0.5c-0.3,0.2-0.6,0.4-0.9,0.6c-0.3,0.2-0.6,0.5-0.9,0.7c-0.3,0.2-0.5,0.5-0.8,0.8
							c-0.3,0.3-0.5,0.5-0.8,0.8c-0.2,0.3-0.4,0.6-0.6,0.9c-0.2,0.3-0.4,0.6-0.6,1c-0.2,0.3-0.3,0.6-0.5,1c-0.2,0.4-0.3,0.8-0.5,1.2
							c0,0.1-0.1,0.3-0.2,0.4l-86.6,291.3V126.2c0-5.7-3.8-10.8-9.4-12.3c-5.5-1.5-11.4,0.8-14.3,5.8l-100.9,169l-100.9-169
							c-0.1-0.2-0.3-0.4-0.4-0.5c-0.2-0.3-0.4-0.6-0.6-0.9c-0.2-0.3-0.4-0.5-0.7-0.8c-0.2-0.3-0.5-0.5-0.7-0.7
							c-0.3-0.2-0.5-0.4-0.8-0.7c-0.3-0.2-0.5-0.4-0.8-0.6c-0.3-0.2-0.6-0.4-0.9-0.5c-0.3-0.2-0.6-0.3-0.9-0.4
							c-0.3-0.1-0.7-0.3-1-0.4c-0.2-0.1-0.4-0.2-0.6-0.2c-0.1,0-0.2,0-0.3-0.1c-0.4-0.1-0.7-0.1-1.1-0.2c-0.3-0.1-0.6-0.1-1-0.1
							c-0.3,0-0.7,0-1,0s-0.7,0-1,0c-0.3,0-0.6,0.1-1,0.1c-0.4,0.1-0.7,0.1-1.1,0.2c-0.1,0-0.2,0-0.3,0.1c-0.2,0.1-0.4,0.2-0.6,0.2
							c-0.4,0.1-0.7,0.2-1,0.4c-0.3,0.1-0.6,0.3-0.9,0.4c-0.3,0.2-0.6,0.3-0.9,0.5c-0.3,0.2-0.6,0.4-0.8,0.6
							c-0.3,0.2-0.6,0.4-0.8,0.7c-0.3,0.2-0.5,0.5-0.7,0.7c-0.2,0.2-0.5,0.5-0.7,0.8c-0.2,0.3-0.4,0.6-0.6,0.9
							c-0.1,0.2-0.3,0.3-0.4,0.5l-141.5,237l-63.1-52.8c-3.8-3.2-9.1-3.9-13.6-1.8c-4.5,2.1-7.4,6.6-7.4,11.6v187.4
							c0,0.5,0,1,0.1,1.4c0,0.1,0,0.2,0,0.3c0.1,0.4,0.1,0.8,0.2,1.2c0,0.1,0.1,0.3,0.1,0.4c0.1,0.4,0.3,0.8,0.4,1.2
							c0,0.1,0,0.1,0.1,0.2c0.2,0.5,0.4,1,0.7,1.4c0,0,0,0,0,0.1c0,0.1,0.1,0.1,0.1,0.2c0.2,0.4,0.4,0.7,0.7,1.1
							c0.1,0.1,0.2,0.2,0.3,0.3c0.3,0.4,0.6,0.7,0.9,1c0,0,0.1,0.1,0.1,0.1c0.3,0.4,0.7,0.7,1.1,1c0.1,0.1,0.2,0.2,0.3,0.3
							c0.3,0.2,0.6,0.4,1,0.6c0.1,0.1,0.2,0.1,0.3,0.2c0.9,0.5,1.8,0.9,2.8,1.2c0.1,0,0.2,0.1,0.4,0.1c0.4,0.1,0.8,0.2,1.2,0.2
							c0.1,0,0.3,0,0.4,0.1c0.5,0.1,1,0.1,1.6,0.1h223.7H472c0.4,0,0.8,0,1.2-0.1h110.5h111.8c4,0,7.8-1.9,10.2-5.1
							C708.1,505.3,708.8,501.1,707.7,497.2z M459.3,172.5v282.2L375,313.6L459.3,172.5z M345.3,313.6L261,454.7V172.5L345.3,313.6z
							 M235.5,172.5v301.2L115.6,373.2L235.5,172.5z M82.6,378.8l-45.3,75.9V340.9L82.6,378.8z M47,488.2l55.4-92.8l110.8,92.8H47z
							 M270.7,488.2l89.4-149.7l89.4,149.7H270.7z M570.9,212.8l0,61.1l0,214.3H489L570.9,212.8z M596.4,488.1l0-213.7l0-61.7
							l82,275.4H596.4z"/>
					</g>
				</g>
			</g>
		</g>
		<g>
			<path class="st0" d="M184.7,559.2v34.5c0,4.3-1.3,7.7-3.9,10.1c-2.6,2.5-6,3.7-10.2,3.7c-4.2,0-7.6-1.2-10.2-3.7
				s-3.9-5.9-3.9-10.1h5.4c1.4,0,2.5,1,2.8,2.3c0.3,1.1,0.7,2,1.3,2.7c1,1.2,2.6,1.9,4.6,1.9s3.6-0.6,4.6-1.9c1.1-1.3,1.6-2.9,1.6-5
				V562c0-1.6,1.3-2.9,2.9-2.9H184.7z"/>
			<path class="st0" d="M247.9,559.2v47.9h-5.5c-1.3,0-2.4-1.1-2.4-2.4v-30.4l-14.6,32.8H220l-14.7-32.8v30.4c0,1.3-1.1,2.4-2.4,2.4
				h-5.5v-47.9h6.4c1.3,0,2.4,0.8,3,1.9l16,35.7l15.9-35.6c0.5-1.2,1.7-1.9,3-1.9H247.9z"/>
			<path class="st0" d="M287.2,597.3h-20.1l-3.4,9.8h-8.2l16.1-45.1c0.6-1.7,2.3-2.9,4.1-2.9h6l17.2,48h-8.3L287.2,597.3z
				 M285,590.9l-7.8-22.3l-7.9,22.3H285z"/>
			<path class="st0" d="M353.3,562.1c3.8,2,6.8,4.8,8.9,8.4c2.1,3.7,3.1,7.9,3.1,12.8c0,4.9-1,9.1-3.1,12.7
				c-2.1,3.6-5.1,6.3-8.9,8.2c-3.8,1.9-8.3,2.9-13.4,2.9h-15.7v-47.9h15.7C345,559.2,349.5,560.2,353.3,562.1z M352.8,596.1
				c3-3,4.5-7.3,4.5-12.8c0-5.6-1.5-9.9-4.5-13c-3-3.1-7.3-4.7-12.9-4.7h-7.8v35.1h7.8C345.5,600.7,349.8,599.2,352.8,596.1z"/>
			<path class="st0" d="M381,565.5v14.1h13.8c1.5,0,2.8,1.2,2.8,2.8v3.6H381v14.7h16.2c1.3,0,2.4,1.1,2.4,2.4v4h-26.5v-44.9
				c0-1.7,1.4-3.1,3.1-3.1h23.4v3.3c0,1.7-1.4,3.1-3.1,3.1H381z"/>
			<path class="st0" d="M416.4,605.9c-2.6-1.1-4.6-2.7-6.1-4.8c-1.5-2.1-2.2-4.5-2.2-7.2h5c1.7,0,3.3,1,4,2.5c0.4,1,1,1.8,1.8,2.6
				c1.4,1.3,3.5,2,6.1,2c2.7,0,4.8-0.7,6.3-2c1.5-1.3,2.3-3,2.3-5.1c0-1.6-0.5-2.9-1.4-3.9c-0.9-1-2.1-1.8-3.5-2.3
				c-1.4-0.6-3.3-1.1-5.8-1.8c-3.1-0.8-5.7-1.7-7.6-2.5c-2-0.8-3.6-2.2-5-4c-1.4-1.8-2.1-4.2-2.1-7.2c0-2.8,0.7-5.2,2.1-7.2
				c1.4-2.1,3.3-3.7,5.8-4.8c2.5-1.1,5.4-1.7,8.6-1.7c4.6,0,8.4,1.2,11.4,3.5c3,2.3,4.6,5.5,4.9,9.5h-5.5c-1.6,0-3.1-0.9-3.9-2.3
				c-0.4-0.8-1-1.5-1.8-2.2c-1.5-1.2-3.5-1.9-6-1.9c-2.3,0-4.1,0.6-5.5,1.7c-1.4,1.1-2.1,2.8-2.1,5c0,1.5,0.4,2.7,1.3,3.6
				s2,1.7,3.4,2.2c1.4,0.6,3.3,1.1,5.7,1.8c3.2,0.9,5.8,1.7,7.8,2.6c2,0.9,3.7,2.2,5.1,4s2.1,4.2,2.1,7.3c0,2.4-0.7,4.7-2,6.9
				c-1.3,2.2-3.2,3.9-5.7,5.2c-2.5,1.3-5.5,2-8.9,2C421.8,607.6,418.9,607,416.4,605.9z"/>
			<path class="st0" d="M458.8,559.2v47.9h-7.9v-45.5c0-1.3,1.1-2.4,2.4-2.4H458.8z"/>
			<path class="st0" d="M506.3,573c-1.5,0-2.9-0.8-3.8-2c-1.1-1.4-2.4-2.6-3.9-3.4c-2.2-1.2-4.8-1.8-7.7-1.8c-3.2,0-6,0.7-8.5,2.1
				c-2.5,1.4-4.4,3.4-5.8,6.1c-1.4,2.6-2.1,5.7-2.1,9.1c0,3.4,0.7,6.5,2.1,9.1c1.4,2.6,3.3,4.7,5.8,6.1c2.5,1.4,5.3,2.1,8.5,2.1
				c4.3,0,7.7-1.2,10.4-3.6c2.7-2.4,4.3-5.6,4.9-9.7h-14.7c-1.8,0-3.3-1.5-3.3-3.3v-3h26.4v6.1c-0.5,3.7-1.8,7.1-4,10.3
				c-2.1,3.1-4.9,5.6-8.3,7.5c-3.4,1.9-7.2,2.8-11.4,2.8c-4.5,0-8.6-1-12.3-3.1c-3.7-2.1-6.7-5-8.9-8.7c-2.2-3.7-3.3-7.9-3.3-12.6
				c0-4.7,1.1-8.9,3.3-12.6c2.2-3.7,5.1-6.6,8.9-8.7c3.7-2.1,7.8-3.1,12.3-3.1c5.1,0,9.6,1.3,13.6,3.8c4,2.5,6.9,6.1,8.7,10.7H506.3
				z"/>
			<path class="st0" d="M559.4,607.1h-5.5l-23.6-35.8v35.8h-7.9v-44.8c0-1.8,1.4-3.2,3.2-3.2h4.6l23.6,35.7v-35.7h7.9v45.7
				C561.8,606,560.7,607.1,559.4,607.1z"/>
		</g>
	</g>
</g>
</svg>
