<?xml version="1.0" encoding="utf-8"?>
<!-- Generator: Adobe Illustrator 26.5.0, SVG Export Plug-In . SVG Version: 6.00 Build 0)  -->
<svg version="1.1" id="Layer_1" xmlns="http://www.w3.org/2000/svg" xmlns:xlink="http://www.w3.org/1999/xlink" x="0px" y="0px"
	 viewBox="0 0 720 511.9" style="enable-background:new 0 0 720 511.9;" xml:space="preserve">
<style type="text/css">
	.st0{fill:#C43123;}
	.st1{fill:#E0E1DD;}
	.st2{fill:#D0C2B0;}
	.st3{fill:#242424;}
</style>
<g>
	<g>
		<g>
			<g>
				<g>
					<g>
						<path class="st3" d="M719.5,397.8L603.8,9.4c0-0.2-0.1-0.3-0.2-0.4c-0.1-0.4-0.3-0.8-0.5-1.2c-0.2-0.3-0.3-0.7-0.5-1
							c-0.2-0.3-0.4-0.7-0.6-1c-0.2-0.3-0.4-0.6-0.7-0.9c-0.2-0.3-0.5-0.6-0.8-0.9c-0.3-0.3-0.5-0.5-0.8-0.8
							c-0.3-0.3-0.6-0.5-0.9-0.7c-0.3-0.2-0.6-0.4-0.9-0.6c-0.3-0.2-0.7-0.4-1-0.5c-0.4-0.2-0.7-0.4-1.1-0.5c-0.3-0.1-0.7-0.2-1-0.3
							c-0.4-0.1-0.9-0.2-1.3-0.3c-0.1,0-0.3-0.1-0.4-0.1c-0.2,0-0.4,0-0.6,0C592,0,591.6,0,591.1,0c-0.4,0-0.8,0-1.2,0.1
							c-0.2,0-0.4,0-0.7,0c-0.2,0-0.3,0.1-0.4,0.1c-0.4,0.1-0.8,0.2-1.2,0.3c-0.4,0.1-0.7,0.2-1.1,0.3c-0.4,0.1-0.7,0.3-1.1,0.5
							c-0.4,0.2-0.7,0.3-1.1,0.6c-0.3,0.2-0.6,0.4-0.9,0.6c-0.3,0.2-0.6,0.5-0.9,0.7c-0.3,0.2-0.5,0.5-0.8,0.8
							c-0.3,0.3-0.5,0.6-0.8,0.9c-0.2,0.3-0.5,0.6-0.7,0.9c-0.2,0.3-0.4,0.7-0.6,1c-0.2,0.3-0.3,0.7-0.5,1c-0.2,0.4-0.3,0.8-0.5,1.2
							c0,0.1-0.1,0.3-0.2,0.4L489,310.6V14.3c0-5.9-4-11.1-9.7-12.7c-5.7-1.6-11.8,0.9-14.8,6L360.1,182.2L255.8,7.5
							c-0.1-0.2-0.3-0.4-0.4-0.6c-0.2-0.3-0.4-0.6-0.7-0.9c-0.2-0.3-0.5-0.5-0.7-0.8c-0.2-0.3-0.5-0.5-0.8-0.8
							c-0.3-0.2-0.6-0.5-0.8-0.7c-0.3-0.2-0.6-0.4-0.8-0.6c-0.3-0.2-0.6-0.4-1-0.5c-0.3-0.2-0.6-0.3-0.9-0.5
							c-0.4-0.2-0.7-0.3-1.1-0.4c-0.2-0.1-0.4-0.2-0.7-0.2c-0.1,0-0.2,0-0.3-0.1c-0.4-0.1-0.8-0.2-1.1-0.2c-0.3-0.1-0.7-0.1-1-0.1
							c-0.4,0-0.7,0-1.1,0c-0.4,0-0.7,0-1.1,0c-0.3,0-0.7,0.1-1,0.1c-0.4,0.1-0.8,0.1-1.1,0.2c-0.1,0-0.2,0-0.3,0.1
							c-0.2,0.1-0.4,0.2-0.7,0.2c-0.4,0.1-0.7,0.2-1.1,0.4c-0.3,0.1-0.6,0.3-0.9,0.5c-0.3,0.2-0.6,0.3-1,0.5
							c-0.3,0.2-0.6,0.4-0.8,0.6c-0.3,0.2-0.6,0.4-0.8,0.7c-0.3,0.2-0.5,0.5-0.8,0.8c-0.2,0.3-0.5,0.5-0.7,0.8
							c-0.2,0.3-0.5,0.6-0.7,0.9c-0.1,0.2-0.3,0.4-0.4,0.6l-146.3,245l-65.2-54.6c-3.9-3.3-9.4-4-14-1.8C3,198.2,0,202.8,0,208
							v193.7c0,0.5,0,1,0.1,1.5c0,0.1,0,0.2,0.1,0.3c0.1,0.4,0.1,0.8,0.2,1.2c0,0.1,0.1,0.3,0.1,0.4c0.1,0.4,0.3,0.9,0.4,1.3
							c0,0.1,0.1,0.1,0.1,0.2c0.2,0.5,0.4,1,0.7,1.5c0,0,0,0,0,0.1c0,0.1,0.1,0.1,0.1,0.2c0.2,0.4,0.5,0.7,0.7,1.1
							c0.1,0.1,0.2,0.2,0.3,0.4c0.3,0.4,0.6,0.7,0.9,1.1c0,0,0.1,0.1,0.1,0.1c0.4,0.4,0.7,0.7,1.2,1c0.1,0.1,0.2,0.2,0.3,0.3
							c0.3,0.2,0.7,0.5,1,0.7c0.1,0.1,0.2,0.1,0.3,0.2c0.9,0.5,1.9,0.9,2.9,1.2c0.1,0,0.2,0.1,0.4,0.1c0.4,0.1,0.8,0.2,1.2,0.2
							c0.1,0,0.3,0,0.4,0.1c0.5,0.1,1.1,0.1,1.6,0.1h231.3h231.3c0.4,0,0.8,0,1.3-0.1h114.2h115.6c4.2,0,8.1-2,10.6-5.3
							C719.9,406.2,720.6,401.8,719.5,397.8z M462.6,62.1v291.8L375.5,208L462.6,62.1z M344.8,208l-87.1,145.9V62.1L344.8,208z
							 M231.3,62.1v311.4L107.4,269.6L231.3,62.1z M73.2,275.4l-46.8,78.4V236.2L73.2,275.4z M36.4,388.5l57.3-95.9l114.5,95.9H36.4
							z M267.7,388.5l92.4-154.8l92.4,154.8H267.7z M578,103.7l0,63.1l0,221.6h-84.7L578,103.7z M604.4,388.4l0-220.9l0-63.8
							l84.8,284.7H604.4z"/>
					</g>
				</g>
			</g>
		</g>
		<g>
			<path class="st3" d="M178.8,461.9v35.7c0,4.4-1.3,7.9-4,10.5c-2.7,2.6-6.2,3.8-10.6,3.8c-4.4,0-7.9-1.3-10.6-3.8
				c-2.7-2.6-4-6.1-4-10.5h5.6c1.4,0,2.5,1,2.9,2.4c0.3,1.1,0.7,2,1.4,2.8c1.1,1.3,2.6,1.9,4.7,1.9s3.7-0.7,4.8-2
				c1.1-1.3,1.6-3,1.6-5.2v-32.7c0-1.6,1.3-3,3-3H178.8z"/>
			<path class="st3" d="M244.1,461.9v49.5h-5.6c-1.4,0-2.5-1.1-2.5-2.5v-31.4l-15.1,33.9h-5.6l-15.2-33.9v31.4
				c0,1.4-1.1,2.5-2.5,2.5H192v-49.5h6.6c1.3,0,2.5,0.8,3.1,2l16.5,36.9l16.4-36.9c0.5-1.2,1.7-2,3.1-2H244.1z"/>
			<path class="st3" d="M284.7,501.3H264l-3.6,10.1h-8.5l16.7-46.6c0.6-1.8,2.3-3,4.2-3h6.2l17.7,49.6h-8.6L284.7,501.3z
				 M282.4,494.7l-8.1-23l-8.1,23H282.4z"/>
			<path class="st3" d="M353.1,464.9c4,2,7,4.9,9.2,8.7c2.2,3.8,3.2,8.2,3.2,13.2c0,5-1.1,9.4-3.2,13.1c-2.2,3.7-5.2,6.5-9.2,8.5
				c-4,2-8.6,3-13.9,3H323v-49.5h16.2C344.5,461.9,349.1,462.9,353.1,464.9z M352.6,500.1c3.1-3.1,4.6-7.6,4.6-13.3
				c0-5.7-1.5-10.2-4.6-13.5c-3.1-3.2-7.5-4.8-13.3-4.8h-8.1v36.3h8.1C345,504.8,349.5,503.2,352.6,500.1z"/>
			<path class="st3" d="M381.7,468.4V483h14.2c1.6,0,2.9,1.3,2.9,2.9v3.8h-17.1v15.2h16.8c1.4,0,2.5,1.1,2.5,2.5v4.1h-27.4V465
				c0-1.8,1.4-3.2,3.2-3.2H401v3.4c0,1.8-1.4,3.2-3.2,3.2H381.7z"/>
			<path class="st3" d="M418.3,510.2c-2.7-1.2-4.8-2.8-6.3-5c-1.5-2.1-2.3-4.6-2.3-7.5h5.2c1.8,0,3.4,1,4.1,2.6
				c0.4,1,1.1,1.9,1.9,2.7c1.5,1.4,3.6,2.1,6.3,2.1c2.8,0,5-0.7,6.6-2c1.6-1.4,2.4-3.1,2.4-5.2c0-1.7-0.5-3-1.5-4.1
				s-2.2-1.9-3.6-2.4c-1.4-0.6-3.5-1.2-6-1.9c-3.2-0.9-5.9-1.7-7.9-2.6c-2-0.9-3.7-2.2-5.2-4.1c-1.4-1.9-2.1-4.3-2.1-7.4
				c0-2.9,0.7-5.3,2.1-7.5c1.4-2.1,3.4-3.8,6-4.9c2.6-1.1,5.5-1.7,8.9-1.7c4.8,0,8.7,1.2,11.8,3.6c3.1,2.4,4.8,5.7,5.1,9.9h-5.7
				c-1.7,0-3.2-0.9-4-2.4c-0.4-0.8-1.1-1.6-1.9-2.3c-1.6-1.3-3.6-1.9-6.2-1.9c-2.3,0-4.2,0.6-5.7,1.8c-1.5,1.2-2.2,2.9-2.2,5.1
				c0,1.5,0.5,2.8,1.4,3.7c0.9,1,2.1,1.7,3.5,2.3c1.4,0.6,3.4,1.2,5.8,1.9c3.3,0.9,6,1.8,8,2.7c2.1,0.9,3.8,2.3,5.3,4.2
				c1.4,1.9,2.2,4.4,2.2,7.5c0,2.5-0.7,4.9-2,7.1c-1.4,2.2-3.3,4-5.9,5.4c-2.6,1.4-5.6,2-9.2,2C423.9,511.9,420.9,511.3,418.3,510.2
				z"/>
			<path class="st3" d="M462.1,461.9v49.5H454v-47.1c0-1.4,1.1-2.5,2.5-2.5H462.1z"/>
			<path class="st3" d="M511.3,476.1c-1.6,0-3-0.8-3.9-2c-1.1-1.5-2.5-2.7-4.1-3.6c-2.3-1.3-4.9-1.9-7.9-1.9c-3.3,0-6.2,0.7-8.8,2.2
				c-2.6,1.5-4.6,3.6-6,6.3c-1.4,2.7-2.2,5.8-2.2,9.4c0,3.6,0.7,6.7,2.2,9.4c1.4,2.7,3.5,4.8,6,6.3c2.6,1.5,5.5,2.2,8.8,2.2
				c4.4,0,8-1.2,10.8-3.7c2.8-2.5,4.4-5.8,5.1-10H496c-1.9,0-3.4-1.5-3.4-3.4v-3.1h27.3v6.3c-0.5,3.8-1.9,7.4-4.1,10.6
				c-2.2,3.2-5.1,5.8-8.6,7.7s-7.5,2.9-11.8,2.9c-4.7,0-8.9-1.1-12.8-3.2c-3.8-2.2-6.9-5.2-9.2-9c-2.3-3.8-3.4-8.2-3.4-13
				c0-4.8,1.1-9.2,3.4-13c2.3-3.8,5.3-6.9,9.2-9c3.9-2.2,8.1-3.2,12.7-3.2c5.3,0,10,1.3,14.1,3.9c4.1,2.6,7.1,6.3,8.9,11H511.3z"/>
			<path class="st3" d="M566.2,511.4h-5.7l-24.4-37v37h-8.1v-46.3c0-1.8,1.5-3.3,3.3-3.3h4.8l24.4,36.9v-36.9h8.1V509
				C568.6,510.3,567.5,511.4,566.2,511.4z"/>
		</g>
	</g>
</g>
</svg>
