<?xml version="1.0" encoding="UTF-8"?>
<svg id="Layer_1" data-name="Layer 1" xmlns="http://www.w3.org/2000/svg" viewBox="0 0 696.43 495.15">
  <defs>
    <style>
      .cls-1 {
        fill: #1a1a1a;
      }
    </style>
  </defs>
  <path class="cls-1" d="M695.9,384.82L584.03,9.08c-.04-.15-.12-.27-.17-.42-.13-.39-.29-.76-.45-1.13-.15-.33-.3-.66-.47-.98-.19-.33-.39-.65-.61-.97-.21-.31-.42-.62-.65-.9-.24-.29-.49-.56-.75-.82-.26-.27-.52-.53-.8-.77-.28-.25-.59-.46-.89-.68-.3-.22-.6-.43-.92-.62-.31-.19-.64-.35-.97-.51-.36-.17-.71-.34-1.08-.48-.31-.12-.64-.21-.96-.3-.42-.12-.84-.23-1.27-.3-.13-.02-.26-.07-.39-.09-.2-.03-.4-.01-.6-.03-.42-.04-.84-.07-1.27-.07-.39,0-.78,.03-1.16,.06-.22,.02-.43,0-.65,.04-.15,.02-.28,.08-.43,.1-.4,.07-.8,.17-1.19,.29-.35,.1-.7,.2-1.04,.33-.35,.13-.68,.29-1.02,.45-.35,.17-.69,.34-1.02,.53-.31,.18-.59,.39-.88,.6-.31,.23-.63,.45-.92,.71-.27,.24-.52,.5-.78,.76-.26,.27-.53,.54-.77,.84-.23,.28-.44,.58-.64,.89-.22,.32-.43,.64-.62,.98-.17,.31-.32,.63-.46,.96-.17,.38-.33,.76-.46,1.16-.05,.14-.12,.26-.16,.4l-86.6,291.31V13.78c0-5.74-3.83-10.77-9.36-12.3-5.54-1.52-11.4,.83-14.34,5.76l-100.92,169.03L247.44,7.25c-.12-.19-.26-.36-.39-.54-.21-.31-.41-.62-.65-.9-.21-.27-.44-.51-.68-.75-.24-.25-.47-.5-.73-.73-.26-.23-.53-.44-.81-.65-.27-.2-.53-.4-.82-.59-.3-.19-.61-.36-.92-.52-.29-.16-.58-.31-.89-.44-.34-.15-.69-.27-1.04-.38-.21-.07-.41-.17-.63-.23-.1-.03-.19-.03-.29-.05-.36-.09-.73-.15-1.1-.21-.32-.05-.64-.11-.96-.14-.35-.03-.69-.02-1.04-.02s-.7,0-1.04,.02c-.32,.03-.64,.09-.96,.14-.37,.06-.74,.12-1.1,.21-.1,.02-.19,.03-.29,.05-.22,.06-.42,.16-.63,.23-.35,.12-.7,.24-1.04,.38-.31,.13-.6,.29-.89,.44-.31,.17-.62,.33-.92,.52-.28,.18-.55,.38-.82,.59-.28,.21-.55,.42-.81,.65-.26,.23-.49,.48-.73,.73-.23,.24-.46,.49-.67,.75-.23,.29-.44,.6-.65,.91-.12,.19-.27,.35-.39,.54L84.05,244.22l-63.11-52.85c-3.8-3.18-9.1-3.88-13.59-1.78-4.49,2.1-7.36,6.6-7.36,11.56v187.37c0,.49,.03,.96,.09,1.44,.01,.11,.03,.22,.05,.33,.06,.41,.13,.81,.23,1.21,.03,.13,.06,.26,.1,.38,.12,.42,.25,.84,.41,1.25,.03,.07,.05,.14,.08,.22,.2,.49,.43,.96,.68,1.41,.01,.02,.02,.05,.03,.07,.03,.06,.08,.11,.11,.17,.22,.37,.45,.72,.7,1.06,.08,.11,.17,.23,.25,.34,.28,.36,.58,.71,.9,1.04,.03,.03,.06,.07,.1,.11,.35,.35,.72,.67,1.11,.98,.11,.09,.22,.17,.34,.25,.31,.23,.63,.45,.96,.65,.11,.06,.21,.13,.32,.19,.88,.5,1.82,.9,2.81,1.18,.12,.03,.24,.06,.36,.09,.38,.1,.77,.18,1.17,.24,.13,.02,.27,.05,.4,.06,.51,.06,1.03,.1,1.55,.1H460.22c.41,0,.81-.02,1.21-.06h222.24c4.03,0,7.82-1.9,10.22-5.13,2.41-3.23,3.15-7.4,2-11.26ZM447.47,60.03V342.28l-84.26-141.12L447.47,60.03Zm-113.97,141.12l-84.26,141.12V60.03l84.26,141.12ZM223.73,60.03V361.2l-119.87-100.39L223.73,60.03ZM70.81,266.41l-45.3,75.87v-113.8l45.3,37.94Zm-35.58,109.36l55.39-92.77,110.78,92.77H35.23Zm223.73,0l89.4-149.73,89.4,149.73h-178.79ZM559.07,100.32v61.06s.06,214.32,.06,214.32h-81.93l81.87-275.38Zm25.57,275.38l-.05-213.67v-61.71s81.97,275.38,81.97,275.38h-81.93Z"/>
  <g>
    <path class="cls-1" d="M172.94,446.75v34.54c0,4.27-1.3,7.65-3.89,10.13-2.6,2.48-6.01,3.72-10.24,3.72s-7.64-1.24-10.24-3.72c-2.6-2.48-3.89-5.86-3.89-10.13h5.42c1.37,0,2.46,1,2.8,2.33,.26,1.06,.71,1.96,1.33,2.71,1.03,1.24,2.56,1.86,4.58,1.86s3.56-.63,4.62-1.9c1.06-1.26,1.59-2.93,1.59-5v-31.67c0-1.58,1.28-2.87,2.87-2.87h5.06Z"/>
    <path class="cls-1" d="M236.15,446.75v47.91h-5.45c-1.33,0-2.41-1.08-2.41-2.41v-30.41l-14.62,32.82h-5.45l-14.69-32.82v30.41c0,1.33-1.08,2.41-2.41,2.41h-5.45v-47.91h6.37c1.28,0,2.44,.75,2.97,1.92l15.96,35.65,15.89-35.65c.52-1.17,1.69-1.93,2.97-1.93h6.3Z"/>
    <path class="cls-1" d="M275.38,484.87h-20.06l-3.45,9.79h-8.2l16.14-45.11c.62-1.73,2.25-2.88,4.09-2.88h6.04l17.17,47.98h-8.27l-3.45-9.79Zm-2.21-6.41l-7.79-22.27-7.86,22.27h15.65Z"/>
    <path class="cls-1" d="M341.53,449.68c3.84,1.95,6.8,4.76,8.89,8.41,2.09,3.65,3.14,7.92,3.14,12.79s-1.05,9.1-3.14,12.69-5.05,6.33-8.89,8.24c-3.84,1.91-8.31,2.86-13.41,2.86h-15.65v-47.91h15.65c5.1,0,9.57,.98,13.41,2.93Zm-.52,34.02c2.99-3.03,4.48-7.31,4.48-12.82s-1.5-9.9-4.48-13.03c-2.99-3.13-7.29-4.69-12.89-4.69h-7.79v35.09h7.79c5.61,0,9.9-1.52,12.89-4.55Z"/>
    <path class="cls-1" d="M369.21,453.09v14.06h13.77c1.53,0,2.77,1.24,2.77,2.77v3.64h-16.55v14.69h16.21c1.33,0,2.41,1.08,2.41,2.41v4h-26.47v-44.9c0-1.7,1.38-3.08,3.08-3.08h23.39v3.33c0,1.7-1.38,3.08-3.08,3.08h-15.53Z"/>
    <path class="cls-1" d="M404.58,493.46c-2.58-1.13-4.6-2.72-6.07-4.79-1.47-2.07-2.21-4.48-2.21-7.24h5.03c1.71,0,3.33,.96,4,2.53,.41,.97,1.03,1.83,1.83,2.57,1.45,1.33,3.48,2,6.1,2s4.83-.66,6.34-1.97c1.52-1.31,2.28-3,2.28-5.07,0-1.61-.47-2.92-1.41-3.93s-2.11-1.79-3.51-2.34c-1.4-.55-3.34-1.15-5.83-1.79-3.13-.83-5.67-1.67-7.62-2.52-1.95-.85-3.62-2.17-5-3.96-1.38-1.79-2.07-4.18-2.07-7.17,0-2.76,.69-5.17,2.07-7.24,1.38-2.07,3.31-3.65,5.79-4.76,2.48-1.1,5.35-1.65,8.62-1.65,4.64,0,8.45,1.16,11.41,3.48,2.96,2.32,4.61,5.5,4.93,9.55h-5.47c-1.62,0-3.12-.87-3.87-2.3-.42-.8-1.03-1.53-1.83-2.18-1.52-1.24-3.52-1.86-6-1.86-2.25,0-4.09,.58-5.51,1.72-1.42,1.15-2.14,2.8-2.14,4.96,0,1.47,.45,2.68,1.34,3.62,.9,.94,2.03,1.69,3.41,2.24,1.38,.55,3.26,1.15,5.65,1.79,3.17,.87,5.76,1.75,7.76,2.62,2,.87,3.7,2.22,5.1,4.03,1.4,1.82,2.1,4.24,2.1,7.27,0,2.44-.66,4.73-1.97,6.89-1.31,2.16-3.22,3.9-5.72,5.21-2.51,1.31-5.46,1.96-8.86,1.96-3.22,0-6.11-.56-8.69-1.69Z"/>
    <path class="cls-1" d="M446.97,446.75v47.91h-7.86v-45.54c0-1.31,1.06-2.37,2.37-2.37h5.49Z"/>
    <path class="cls-1" d="M494.54,460.54c-1.5,0-2.87-.76-3.77-1.96-1.08-1.44-2.39-2.59-3.95-3.45-2.2-1.22-4.76-1.83-7.65-1.83-3.17,0-6,.71-8.48,2.14-2.48,1.43-4.42,3.45-5.83,6.07-1.4,2.62-2.1,5.65-2.1,9.1s.7,6.49,2.1,9.14c1.4,2.64,3.34,4.68,5.83,6.1,2.48,1.42,5.31,2.14,8.48,2.14,4.27,0,7.75-1.19,10.41-3.58,2.66-2.39,4.3-5.63,4.89-9.72h-14.74c-1.8,0-3.26-1.46-3.26-3.26v-3.02h26.4v6.14c-.51,3.72-1.83,7.15-3.96,10.27-2.14,3.13-4.92,5.62-8.34,7.48-3.42,1.86-7.23,2.79-11.41,2.79-4.5,0-8.62-1.04-12.34-3.14-3.72-2.09-6.68-5-8.86-8.72-2.18-3.72-3.28-7.93-3.28-12.62s1.09-8.89,3.28-12.62c2.18-3.72,5.15-6.63,8.89-8.72,3.74-2.09,7.85-3.14,12.3-3.14,5.1,0,9.64,1.25,13.62,3.76,3.97,2.51,6.86,6.06,8.65,10.65h-6.9Z"/>
    <path class="cls-1" d="M547.64,494.66h-5.53l-23.65-35.78v35.78h-7.86v-44.77c0-1.77,1.44-3.21,3.21-3.21h4.65l23.65,35.71v-35.71h7.86v45.65c0,1.29-1.04,2.33-2.33,2.33Z"/>
  </g>
</svg>