<?xml version="1.0" encoding="utf-8"?>
<!-- Generator: Adobe Illustrator 26.5.0, SVG Export Plug-In . SVG Version: 6.00 Build 0)  -->
<svg version="1.1" id="Layer_1" xmlns="http://www.w3.org/2000/svg" xmlns:xlink="http://www.w3.org/1999/xlink" x="0px" y="0px"
	 viewBox="0 0 4619.1 720" style="enable-background:new 0 0 4619.1 720;" xml:space="preserve">
<style type="text/css">
	.st0{fill:#C43123;}
	.st1{fill:#E0E1DD;}
	.st2{fill:#D0C2B0;}
	.st3{fill:#0C120C;}
	.st4{fill:#242424;}
</style>
<path class="st0" d="M620.4,0H99.6C44.6,0,0,44.6,0,99.6v520.8c0,55,44.6,99.6,99.6,99.6h520.8c55,0,99.6-44.6,99.6-99.6V99.6
	C720,44.6,675.4,0,620.4,0z"/>
<g>
	<g>
		<g>
			<g>
				<g>
					<g>
						<path class="st1" d="M525.4,109.3c0-0.1,0-0.3-0.1-0.4c-0.1-0.6-0.2-1.1-0.3-1.6c0-0.2-0.1-0.4-0.1-0.5
							c-0.2-0.6-0.3-1.1-0.5-1.7c0-0.1-0.1-0.2-0.1-0.3c-0.3-0.6-0.6-1.3-0.9-1.9c0,0,0-0.1,0-0.1c0-0.1-0.1-0.1-0.1-0.2
							c-0.2-0.3-0.4-0.6-0.6-0.9c-0.1-0.2-0.2-0.4-0.4-0.5c-0.2-0.2-0.3-0.5-0.5-0.7c-0.1-0.2-0.3-0.3-0.4-0.5
							c-0.2-0.2-0.4-0.5-0.6-0.7l-0.1-0.1c-0.2-0.2-0.5-0.5-0.7-0.7c-0.3-0.3-0.7-0.6-1-0.9c-0.4-0.3-0.7-0.5-1.1-0.8
							c-0.2-0.1-0.4-0.2-0.6-0.4c-0.1,0-0.1-0.1-0.2-0.1c-0.3-0.2-0.6-0.3-0.9-0.5c-0.2-0.1-0.5-0.3-0.7-0.4
							c-0.4-0.2-0.9-0.4-1.4-0.5c-0.3-0.1-0.6-0.2-0.8-0.3c-0.1,0-0.3,0-0.4-0.1c-0.5-0.1-1-0.2-1.5-0.3c-0.4-0.1-0.8-0.1-1.3-0.2
							c-0.1,0-0.2,0-0.4,0c-0.3,0-0.7,0-1,0c-0.5,0-0.9,0-1.4,0c-0.4,0-0.8,0.1-1.3,0.2c-0.5,0.1-1,0.2-1.5,0.3
							c-0.1,0-0.3,0-0.4,0.1c-0.3,0.1-0.6,0.2-0.8,0.3c-0.5,0.2-0.9,0.3-1.4,0.5c-0.4,0.2-0.8,0.4-1.2,0.6c-0.4,0.2-0.8,0.4-1.2,0.7
							c-0.4,0.3-0.7,0.5-1.1,0.8c-0.4,0.3-0.7,0.6-1.1,0.9c-0.3,0.3-0.7,0.6-1,1c-0.3,0.3-0.6,0.7-0.9,1c-0.3,0.4-0.6,0.8-0.8,1.2
							c-0.2,0.2-0.4,0.5-0.5,0.7L360,326.9l-19.7,33l-34.2,57.2l-77.8-65.1l-6.1-5.1c-5-4.2-12.1-5.1-18-2.4
							c-6,2.8-9.8,8.8-9.8,15.4v248.8c0,0.7,0,1.3,0.1,1.9c0,0.1,0,0.3,0.1,0.4c0.1,0.6,0.2,1.1,0.3,1.6c0,0.2,0.1,0.4,0.1,0.5
							c0.2,0.6,0.3,1.1,0.5,1.7c0,0.1,0.1,0.2,0.1,0.3c0.3,0.6,0.6,1.3,0.9,1.9c0,0,0,0.1,0,0.1c0,0.1,0.1,0.1,0.1,0.2
							c0.3,0.5,0.6,0.9,0.9,1.4c0.1,0.2,0.2,0.3,0.4,0.5c0.4,0.5,0.8,0.9,1.2,1.4l0.1,0.1c0.5,0.5,1,0.9,1.5,1.3
							c0.1,0.1,0.3,0.2,0.4,0.3c0.4,0.3,0.8,0.6,1.3,0.9c0.2,0.1,0.3,0.2,0.4,0.3c1.2,0.7,2.4,1.2,3.7,1.6c0.2,0,0.3,0.1,0.5,0.1
							c0.5,0.1,1,0.2,1.6,0.3c0.2,0,0.4,0.1,0.6,0.1c0.7,0.1,1.4,0.1,2.1,0.1h297.1c0.7,0,1.4-0.1,2.1-0.1c0.2,0,0.4-0.1,0.6-0.1
							c0.5-0.1,1-0.2,1.6-0.3c0.2,0,0.3-0.1,0.5-0.1c1.3-0.4,2.6-0.9,3.7-1.6c0.1-0.1,0.3-0.2,0.4-0.3c0.4-0.3,0.9-0.6,1.3-0.9
							c0.1-0.1,0.3-0.2,0.4-0.3c0.5-0.4,1-0.8,1.5-1.3l0.1-0.1c0.4-0.4,0.8-0.9,1.2-1.4c0.1-0.1,0.2-0.3,0.4-0.5
							c0.3-0.5,0.6-0.9,0.9-1.4c0-0.1,0.1-0.2,0.1-0.2c0,0,0-0.1,0-0.1c0.3-0.6,0.7-1.2,0.9-1.9c0-0.1,0.1-0.2,0.1-0.3
							c0.2-0.5,0.4-1.1,0.5-1.7c0-0.2,0.1-0.3,0.1-0.5c0.1-0.5,0.2-1,0.3-1.6c0-0.1,0-0.3,0.1-0.4c0.1-0.6,0.1-1.3,0.1-1.9V111.2
							C525.5,110.5,525.5,109.9,525.4,109.3z M228.4,396.3l60.2,50.4l-60.2,100.8V396.3z M241.3,591.9l36-60.3l37.5-62.9l18.8,15.7
							l26.4,22.1L462,591.9H241.3z M491.6,572.5l-48.9-41l-56.3-47.2L360,462.3l-27.6-23.1L360,393l19.7-33l111.9-187.4V572.5z"/>
					</g>
				</g>
			</g>
		</g>
	</g>
</g>
<path class="st0" d="M1193,116.3v352.3c0,43.6-13.3,78.1-39.7,103.4c-26.5,25.3-61.3,38-104.4,38s-77.9-12.7-104.4-38
	c-26.5-25.3-39.7-59.8-39.7-103.4h55.3c14,0,25.1,10.2,28.5,23.7c2.7,10.8,7.2,20,13.6,27.6c10.5,12.7,26.1,19,46.8,19
	s36.3-6.4,47.1-19.3c10.8-12.9,16.2-29.9,16.2-51V145.6c0-16.1,13.1-29.2,29.2-29.2H1193z"/>
<path class="st0" d="M1742.4,116.3v488.7h-55.6c-13.6,0-24.6-11-24.6-24.6V270.3l-149.1,334.7h-55.5l-149.8-334.7v310.2
	c0,13.6-11,24.6-24.6,24.6h-55.6V116.3h65c13.1,0,24.9,7.7,30.3,19.6l162.8,363.6L1647.9,136c5.3-12,17.2-19.7,30.3-19.7H1742.4z"/>
<path class="st0" d="M2100.6,505.2h-204.6l-35.2,99.9h-83.7L1941.7,145c6.3-17.6,23-29.4,41.7-29.4h61.6l175.1,489.4h-84.4
	L2100.6,505.2z M2078.1,439.8l-79.5-227.1l-80.2,227.1H2078.1z"/>
<path class="st0" d="M2738.1,146.2c39.1,19.9,69.4,48.5,90.7,85.8c21.3,37.3,32,80.7,32,130.4c0,49.7-10.7,92.8-32,129.4
	c-21.3,36.6-51.6,64.6-90.7,84c-39.2,19.5-84.7,29.2-136.8,29.2h-159.6V116.3h159.6C2653.3,116.3,2698.9,126.3,2738.1,146.2z
	 M2732.8,493.3c30.5-30.9,45.7-74.5,45.7-130.8c0-56.7-15.3-101-45.7-132.9c-30.5-31.9-74.3-47.8-131.5-47.8h-79.5v357.9h79.5
	C2658.5,539.7,2702.3,524.2,2732.8,493.3z"/>
<path class="st0" d="M2975.6,181v143.5h140.5c15.6,0,28.3,12.7,28.3,28.3v37.1h-168.8v149.8h165.3c13.6,0,24.6,11,24.6,24.6v40.8
	h-270v-458c0-17.4,14.1-31.5,31.5-31.5h238.6v33.9c0,17.4-14.1,31.5-31.5,31.5H2975.6z"/>
<path class="st0" d="M3284.5,592.8c-26.3-11.5-46.9-27.8-61.9-48.9c-15-21.1-22.5-45.7-22.5-73.8h51.3c17.4,0,33.9,9.8,40.8,25.8
	c4.2,9.9,10.5,18.6,18.7,26.2c14.8,13.6,35.5,20.4,62.2,20.4c27.6,0,49.2-6.7,64.7-20c15.5-13.4,23.2-30.6,23.2-51.7
	c0-16.4-4.8-29.8-14.4-40.1s-21.6-18.3-35.9-23.9c-14.3-5.6-34.1-11.7-59.4-18.3c-31.9-8.4-57.8-17-77.7-25.7
	c-19.9-8.7-36.9-22.2-51-40.4c-14.1-18.3-21.1-42.7-21.1-73.1c0-28.1,7-52.7,21.1-73.8c14.1-21.1,33.7-37.3,59.1-48.5
	s54.6-16.9,87.9-16.9c47.3,0,86.1,11.8,116.4,35.5c30.2,23.7,47,56.1,50.3,97.4h-55.8c-16.5,0-31.9-8.8-39.5-23.4
	c-4.3-8.1-10.5-15.6-18.6-22.3c-15.5-12.7-35.9-19-61.2-19c-23,0-41.7,5.9-56.2,17.6s-21.8,28.6-21.8,50.6c0,15,4.6,27.3,13.7,36.9
	c9.1,9.6,20.7,17.2,34.8,22.9c14.1,5.6,33.3,11.7,57.7,18.3c32.4,8.9,58.7,17.8,79.1,26.7c20.4,8.9,37.7,22.6,52,41.1
	s21.5,43.2,21.5,74.2c0,24.8-6.7,48.3-20.1,70.3c-13.3,22.1-32.8,39.7-58.4,53.1c-25.6,13.4-55.7,20-90.4,20
	C3340.3,610,3310.7,604.2,3284.5,592.8z"/>
<path class="st0" d="M3656.7,116.3v488.7h-80.2V140.5c0-13.4,10.8-24.2,24.2-24.2H3656.7z"/>
<path class="st0" d="M4097.7,257c-15.3,0-29.3-7.8-38.5-20c-11-14.7-24.4-26.4-40.2-35.2c-22.5-12.4-48.5-18.6-78.1-18.6
	c-32.3,0-61.2,7.3-86.5,21.8c-25.3,14.5-45.1,35.2-59.4,61.9c-14.3,26.7-21.5,57.7-21.5,92.8s7.2,66.2,21.5,93.2
	s34.1,47.7,59.4,62.2s54.1,21.8,86.5,21.8c43.6,0,79-12.2,106.2-36.6c27.2-24.4,43.8-57.4,49.9-99.2h-150.3
	c-18.3,0-33.2-14.9-33.2-33.2v-30.8h269.3v62.6c-5.2,38-18.6,72.9-40.4,104.8c-21.8,31.9-50.2,57.3-85.1,76.3
	c-34.9,19-73.7,28.5-116.4,28.5c-45.9,0-87.9-10.7-125.9-32c-38-21.3-68.1-51-90.4-89c-22.3-38-33.4-80.9-33.4-128.7
	s11.1-90.7,33.4-128.7c22.3-38,52.5-67.6,90.7-89c38.2-21.3,80-32,125.5-32c52,0,98.3,12.8,138.9,38.3s70,61.8,88.3,108.6H4097.7z"
	/>
<path class="st0" d="M4595.3,605.1h-56.4l-241.2-365v365h-80.2V148.4c0-18.1,14.7-32.7,32.7-32.7h47.4l241.2,364.3V115.6h80.2v465.6
	C4619.1,594.4,4608.4,605.1,4595.3,605.1z"/>
</svg>
