<?xml version="1.0" encoding="utf-8"?>
<!-- Generator: Adobe Illustrator 26.5.0, SVG Export Plug-In . SVG Version: 6.00 Build 0)  -->
<svg version="1.1" id="Layer_1" xmlns="http://www.w3.org/2000/svg" xmlns:xlink="http://www.w3.org/1999/xlink" x="0px" y="0px"
	 viewBox="0 0 720 720" style="enable-background:new 0 0 720 720;" xml:space="preserve">
<style type="text/css">
	.st0{clip-path:url(#SVGID_00000135657923873467322230000001847728892209752507_);}
	.st1{clip-path:url(#SVGID_00000088099229016066660820000010913152421078367402_);}
	.st2{clip-path:url(#SVGID_00000049199989156054334840000013182802541243466175_);}
	.st3{clip-path:url(#SVGID_00000142151803039211805770000003738759218509287852_);}
	.st4{clip-path:url(#SVGID_00000087397895395148675970000005128364181253754760_);}
	.st5{clip-path:url(#SVGID_00000157292655596004752760000016750706695958371459_);}
	.st6{clip-path:url(#SVGID_00000049188854148010157450000003207589196726614914_);}
	.st7{clip-path:url(#SVGID_00000068653734601324817290000002524183876879518113_);}
	.st8{clip-path:url(#SVGID_00000049904337460762417490000005038497654307905698_);}
	.st9{clip-path:url(#SVGID_00000089538695784767989260000013852142558121604486_);}
	.st10{clip-path:url(#SVGID_00000137843865208309180020000007604450851950258582_);}
	.st11{clip-path:url(#SVGID_00000062168984435366586790000017441346491123860925_);}
	.st12{clip-path:url(#SVGID_00000160170335067071483960000004229735422523784379_);}
	.st13{clip-path:url(#SVGID_00000035526138687207552940000017167300550548486791_);}
	.st14{clip-path:url(#SVGID_00000160898741781876629270000012773860735232991381_);}
	.st15{clip-path:url(#SVGID_00000155867826722395607140000001527133408489750202_);}
	.st16{fill:#BC1823;}
	.st17{opacity:0.36;fill:#BC1823;}
	.st18{fill:#030E19;}
	.st19{fill:#F79D27;}
	.st20{fill:#003556;}
	.st21{fill:#43ADD9;}
	.st22{fill:#83C8E4;}
	.st23{fill:#8E1E1E;}
	.st24{fill:#282828;}
	.st25{fill:#FFA800;}
	.st26{fill:#010F2C;}
	.st27{enable-background:new    ;}
	.st28{fill:#00618C;}
	.st29{fill:#FFFFFF;}
	.st30{fill:#5B0A0A;}
</style>
<g>
	<g>
		<g>
			<path class="st25" d="M244.1,175c1.1-1.5,1.5-3,1.3-4.5c-0.2-1.5,0-3,0.5-4.5v12.1c-0.1,1.2-0.2,2.5-0.3,3.7
				c-0.1,1.2-0.2,2.4-0.5,3.5c0,0.4,0,0.8,0.1,1.1c0.1,0.3-0.2,0.6-0.9,0.7v0.6v0.6c0.5,0.7,0.7,1.4,0.5,2c-0.2,0.7-0.4,1.4-0.7,2
				v0.2v-0.2c-0.1,0.3-0.3,0.5-0.4,0.8c-0.1,0.3-0.2,0.5-0.2,0.8c-0.3,1.5-0.4,2.9-0.5,4.2c-0.1,1.3-0.2,2.7-0.3,4.2
				c-0.3,1.9-0.4,3.8-0.4,5.5c0,1.8-0.1,3.6-0.2,5.5c-0.1,1.1-0.3,2.2-0.5,3.4c-0.2,1.2-0.4,2.3-0.7,3.4c-0.3,1.9-0.5,3.8-0.6,5.5
				c-0.1,1.8-0.3,3.6-0.4,5.5c-0.4,4-0.8,7.8-1.2,11.6c-0.4,3.8-0.9,7.6-1.4,11.6c-0.4,3.5-1,7-1.8,10.4c-0.1,0.8-0.4,1.6-0.7,2.3
				c-0.3,0.7-0.6,1.4-0.9,2c-0.1-0.5-0.3-1.1-0.4-1.5c-0.1-0.5-0.7-0.7-1.6-0.7c-0.3-1.5-0.2-3.1,0.3-4.7c0.5-1.6,0.4-3.3-0.3-5.1
				c-0.7,0.7-1.1,1.3-1.3,1.8c-0.2,0.5-0.4,1.2-0.5,1.8c-0.3,1.5-0.5,3.1-0.7,4.7c-0.2,1.6-0.5,3.2-0.9,4.7
				c-0.1,0.7-0.4,1.3-0.9,1.9c-0.5,0.6-1,1.3-1.5,2.1c-0.1-0.5-0.3-1-0.4-1.2c-0.1-0.3-0.2-0.5-0.2-0.8c-0.1-0.5-0.2-1.5-0.2-2.9
				c-1,0.7-1.8,1.3-2.5,1.8c-0.7,0.5-1.4,1.2-2,1.8c-0.3-0.7-0.6-0.9-1.1-0.7c-0.5,0.2-1,0.4-1.5,0.7c0-0.5,0-1-0.1-1.4
				c-0.1-0.4-0.1-0.9-0.1-1.4h-1.6c0.3-2.5,0.5-4.9,0.8-7.3c0.3-2.4,0.5-4.9,0.8-7.7c-1.9,1.5-2.9,3-3.1,4.5c0,0.4-0.1,0.8-0.2,1.1
				c-0.1,0.3-0.3,0.6-0.4,0.9c-0.8,0-1.4-0.1-1.6-0.2c0.8-1.2,0.7-2.5-0.2-3.9c-0.5,0.5-1.1,1-1.6,1.4c0-1.5,0-2.9-0.1-4.1
				c-0.1-1.2,0-2.5,0.3-3.7c0.4-1.4,0.7-2.7,0.8-4c0.1-1.3,0.3-2.6,0.6-4c0-0.3-0.1-0.7-0.4-1.2h0.2c-0.1-0.5-0.2-1.3-0.2-2.3v-0.8
				c0.3-2,0.6-4.1,0.9-6.1c0.3-2,0.6-4.2,0.7-6.5c-0.8,0.4-1.4,0.6-1.8,0.6c-0.3-1.1-1.3-1.8-3.1-2c-1.9-0.3-3.8-0.5-5.6-0.7
				c-1.8-0.2-3.7-0.4-5.6-0.7c-1-0.1-1.9-0.2-2.8-0.3c-0.9-0.1-1.8-0.1-2.8-0.1c-0.7-0.1-1.4-0.2-2.3-0.1c-0.8,0.1-1.6,0.1-2.3,0.1
				c-0.8,0-1.6,0.5-2.3,1.4c-0.3,0.5-0.6,1-1,1.3c-0.4,0.3-0.8,0.7-1.2,1.1c-0.3,0.8-0.5,1.4-0.6,1.6v0.2v-0.2
				c0.1-0.3,0.2-0.5,0.3-0.8c0.1-0.3,0.2-0.5,0.3-0.8c-0.1,0-0.2,0-0.2-0.1c0-0.1-0.1-0.1-0.2-0.1c-0.1,0-0.2-0.1-0.2-0.2
				c-0.5,0.5-0.9,1-1,1.4c-1,1.1-1.8,2.4-2.7,3.9v-0.2c-0.4,0.8-0.8,1.6-1.1,2.4c-0.3,0.8-0.7,1.5-1.1,2.4c-1.1,2.3-2.4,4.5-3.8,6.5
				c-1.4,2-2.9,4.2-4.4,6.3c-1.4,1.9-2.7,3.9-4,5.8c-1.3,2-2.8,3.8-4.6,5.4c-0.7,0.5-1.3,1.2-1.7,2s-1,1.6-1.5,2.3
				c-0.8,1.4-2,2.3-3.5,2.7c-1.6,0.4-2.5-0.2-2.5-1.8c0-3.1,0.4-6.3,1.2-9.4c0.3-0.7,0.4-1.3,0.4-1.9c0-0.6,0.1-1.3,0.2-1.9
				l-0.2,0.2v-0.2h0.2c0.3-0.3,0.5-0.6,0.7-0.9c0.2-0.3,0.4-0.7,0.5-1.1c0.5-1.1,1.1-2.3,1.5-3.5c0.5-1.2,0.9-2.5,1.3-3.7l-0.4-1.2
				c-0.3,0.7-0.7,1.4-1.2,2.3c-0.5,1.1-1.1,2.2-1.6,3.3c-0.5,1.1-1.1,2.2-1.6,3.3l0.6-4.9l0.2-0.2c-0.3-0.8-0.3-1.4-0.2-1.8
				c0.7-2.2,1.4-4.4,2.1-6.5c0.8-2.2,1.7-4.3,2.8-6.3c0.3-0.3,0.4-0.6,0.4-0.9c0-0.3,0.1-0.9,0.4-1.5c-1.1,0.8-1.7,1.3-1.8,1.4
				c-0.7,1.1-1.3,2.1-1.7,3.2c-0.5,1-1,2.1-1.5,3.2c-0.4,0.7-0.9,0.8-1.4,0.2V236v0.2c1-1.1,1.3-2.6,1-4.5l-0.2,0.2v-0.2
				c0.3-0.4,0.5-1.2,0.8-2.3c1.1-0.7,1.8-1.6,2.3-2.7c-0.7-0.4-0.8-1-0.4-1.8c0.4-0.8,0.9-1.7,1.3-2.6c0.5-0.9,0.9-1.7,1.3-2.6
				c0.3-0.3,0.4-0.6,0.4-1s0.1-0.7,0.4-1c1-0.7,1.5-1.1,1.5-1.3c0.1-0.2,0-0.8-0.3-1.7l0.2,0.2c-0.3-1.1-0.6-2-0.9-2.8
				c-0.3-0.7-1.1-1.3-2.4-1.5c-0.8-0.1-1.4-0.5-1.7-1.2c-0.3-0.7-0.6-1.4-0.9-2v-0.8c0.3-0.1,0.5-0.3,0.7-0.4
				c0.2-0.1,0.4-0.2,0.7-0.2c0.7-0.1,1.3-0.2,1.8-0.2c0.5,0,1.2-0.1,1.8-0.4c-1.4-0.3-2.7-0.6-4-1c-1.3-0.4-2.6-0.7-3.8-1
				c0.4-0.1,0.8-0.3,1.2-0.4c0.4-0.1,0.9-0.3,1.4-0.6c0.3,0,0.5,0,0.7,0.1c0.2,0.1,0.4,0.1,0.7,0.1c0.3-0.8,0.1-1.3-0.5-1.3
				c-0.6-0.1-1-0.3-1.1-0.7c0-0.1,0.1-0.3,0.2-0.4c1.8-0.8,3.5-1.6,5.1-2.4c1.6-0.7,3.3-1.5,4.9-2.1c0.5-0.3,1-0.5,1.4-0.7
				c0.4-0.2,0.8-0.3,1.2-0.3c1.1-0.1,2-0.4,2.9-0.9c0.8-0.5,1.6-1.1,2.3-1.7c0.1,0.1,0.3,0.2,0.4,0.3c0.1,0.1,0.3,0.2,0.6,0.5
				c0.3-0.7,0.5-1.3,0.6-1.9c0.1-0.6,0.5-1.2,1-1.7c-0.7-0.7-0.7-1.2,0-1.6c0.5-0.4,1-0.8,1.4-1.2c0.4-0.4,0.7-1,1-1.6l-0.2,0.2
				v-0.2h-0.6l0.6-0.6v-0.2l0.2,0.2c0-0.7,0.1-1.2,0.2-1.4c1,0,1.6-0.5,2-1.6l-0.2,0.2v-0.2c-0.7-0.3-1-0.5-1-0.6
				c0-0.1,0.1-0.6,0.4-1.4v-0.2v0.2l0.6,1.2l0.2,0.2c0.8-0.7,1.4-1.5,1.8-2.6c0.4-1,1-2,1.6-3c0.8-1.5,1.6-2.9,2.4-4.3
				c0.7-1.4,1.5-2.8,2.4-4.3l-0.2,0.2v-0.4c0,0.1,0.1,0.2,0.2,0.2c0.8-0.8,1.4-1.5,1.8-2c2.2-3.3,4.4-6.5,6.5-9.8
				c2.2-3.3,4.4-6.5,6.5-9.6c1.4-1.9,3.1-3.8,5.3-5.5c1.5-1.4,3-2.7,4.5-4.1c1.5-1.4,3-2.7,4.5-4.1c1.6-1.6,3.8-2.3,6.3-2
				c0.7,0,1.4,0,2,0.1c0.7,0.1,1.4,0.1,2,0.1l-0.2,0.2c1-0.7,1.8-0.8,2.7-0.4c1.1,0.5,2.3,0.8,3.6,0.8c1.3,0,2.3,0.5,3,1.6
				c0.1,0.3,0.2,0.4,0.3,0.5c0.1,0.1,0.2,0.2,0.3,0.5v-0.2c0.4,0.4,0.8,0.8,1.1,1.2c0.3,0.4,0.7,0.8,1.1,1.2
				c1.5,0.3,2.4,0.5,2.8,0.7c0.3,0.2,0.8,1,1.3,2.4c1,2,1.3,4.4,1,7.2c-0.1,1.8-0.1,3.5,0.1,5.1c0.2,1.6,0.4,3.3,0.5,5.1
				c0,0.7,0,1.3,0.1,1.8c0.1,0.5,0.1,1.2,0.1,1.8c0.1,1.4,0.2,2.7,0.1,4c-0.1,1.3-0.1,2.7-0.1,4.2V175z M150.8,234.2v1.8
				c-0.1-0.3-0.2-0.6-0.2-0.9c0-0.3-0.1-0.6-0.2-0.9H150.8z M151.6,252.4c-0.3-0.3-0.5-0.4-0.8-0.5c-0.3-0.1-0.2-0.4,0.2-0.9
				C151.3,251.5,151.5,252,151.6,252.4z M151.6,231.7c-0.4-0.7-0.4-1.4,0-2V231.7z M151.6,229.7v-0.2h0.2L151.6,229.7z M152.5,229.5
				h-0.6l0.6-1.2V228v0.2V229.5z M152.5,244.2c0.5-0.3,0.9-0.7,1-1.2c0.1-0.5,0.3-1.1,0.4-1.6C152.9,242.2,152.5,243.1,152.5,244.2z
				 M154.1,241.1c0.3-0.7,0.6-1.3,1-1.9c0.4-0.6,0.8-1.3,1-1.9C155,237.9,154.4,239.2,154.1,241.1z M156.3,237
				c0.5-1.1,0.9-1.8,0.9-2c0.1-0.3,0.1-0.8,0.1-1.6C156.7,234.5,156.3,235.7,156.3,237z M157.8,217.8h-0.2v-0.2L157.8,217.8z
				 M158.6,226.4c0.3-0.5,0.4-0.9,0.4-1c-0.1,0.1-0.3,0.2-0.4,0.3c-0.1,0.1-0.3,0.2-0.4,0.3L158.6,226.4z M160.6,206.4
				c0-0.1-0.1-0.2-0.2-0.2h-0.2l0.2,0.2H160.6z M171.7,247.9l0.2-0.2L171.7,247.9v0.2V247.9z M173.1,244.8h0.2l-0.2,0.2V244.8z
				 M175.4,184.5h-0.2l-0.2,0.2l0.2-0.2H175.4z M176.4,182.2v0.2c-0.1,0-0.2-0.1-0.2-0.2H176.4z M178.2,235.2c0.1-0.3,0.4-0.6,0.8-1
				V234v0.2C178.9,234.5,178.6,234.8,178.2,235.2c-0.1,0.3-0.2,0.5-0.3,0.8c-0.1,0.3-0.2,0.5-0.3,0.8l-0.2,0.2l0.2-0.2
				c0.1-0.3,0.2-0.5,0.3-0.8C178,235.8,178.1,235.5,178.2,235.2z M180.3,173.4l0.2,0.2c-0.1,0.3-0.3,0.5-0.4,0.6
				c-0.1,0.1-0.3,0.3-0.4,0.6v-0.2L180.3,173.4z M181.3,172.6c-0.1,0.3-0.3,0.4-0.4,0.5c-0.1,0.1-0.3,0.2-0.4,0.5l-0.2-0.2
				c0.3-0.1,0.4-0.3,0.5-0.4C180.9,172.9,181,172.7,181.3,172.6c0.1-0.3,0.2-0.5,0.2-0.7c0-0.2,0.1-0.4,0.2-0.7h0.2
				C181.8,171.6,181.6,172,181.3,172.6z M180.7,231.7v-0.2V231.7l-0.2,0.2L180.7,231.7z M184.4,167.5c-0.3,0.1-0.4,0.2-0.5,0.3
				c-0.1,0.1-0.2,0.2-0.5,0.3v0.2v-0.2c0.3-0.1,0.4-0.2,0.5-0.3C183.9,167.7,184.1,167.6,184.4,167.5z M186.4,165.8
				c-0.7-0.3-1-0.6-0.8-1C185.9,165.4,186.1,165.7,186.4,165.8z M186.6,163.8c-0.3,0.3-0.5,0.4-0.6,0.5c-0.1,0.1-0.3,0.2-0.4,0.3
				v0.2v-0.2l0.8-0.8H186.6z M187.9,161.5v-0.2h0.2h-0.2V161.5z M189.3,158.7l-0.2-0.2h0.2c0.1-0.1,0.5-0.3,1-0.6
				c0.3-0.3,0.5-0.5,0.6-0.8c0.3-0.5,0.5-1,0.8-1.2v0.2l-0.6,1.2c-0.4,0.1-0.7,0.4-0.8,0.8c-0.4,0-0.8,0.1-1,0.4V158.7z M196,149.1
				h-0.2H196v-0.2h0.2L196,149.1z M198.9,144.6h-0.2H198.9h0.2H198.9z M200.3,142.3c0.1,0,0.3-0.1,0.4-0.2
				C200.6,142.2,200.5,142.3,200.3,142.3h-0.2H200.3z M201.4,141.7c-0.1,0.1-0.2,0.2-0.3,0.2c-0.1,0-0.2,0.1-0.3,0.2
				C201,141.8,201.2,141.7,201.4,141.7v-0.2V141.7z M219.8,172.6c0.3-1.9,0.5-3.8,0.8-5.7c0.3-1.9,0.3-4,0-6.3
				c-0.4,0.7-0.7,1.2-0.9,1.4c-0.2,0.3-0.4,0.5-0.7,0.8c-2.7,4.4-5.4,8.6-8,12.8c-2.6,4.2-5.3,8.4-8,12.8c-0.5,0.8-1,1.7-1.2,2.6
				c-0.3,0.9-0.5,1.7-0.8,2.6c1.1,1.2,2.3,1.9,3.5,2c1.2,0.1,2.5,0.3,3.7,0.6c1.5,0.3,3,0.4,4.5,0.5c1.5,0.1,3.1,0,4.7-0.3
				c0.3-2,0.5-4.1,0.7-6c0.2-2,0.4-3.9,0.7-5.8c0.3-1.9,0.5-3.9,0.6-5.8C219.5,176.6,219.6,174.6,219.8,172.6z M210.6,235
				c0,0.1-0.1,0.2-0.2,0.2V235l0.2-0.2V235z M210.4,245v-0.2l0.2,0.2H210.4z M211.4,232.1c-0.3-1.1-0.4-2-0.4-2.7
				c0-0.7,0.1-1.4,0.4-2V232.1z M211.4,227v0.2v0.2V227z M211.6,239.9c0.8-0.3,0.8-0.5,0-0.8V239.9z M212,261.6h0.2l-0.2,0.2v0.8
				V261.6v0.2V261.6z M213.6,263.2c0.1-0.1,0.3-0.2,0.4-0.2v-0.2v0.2v0.2H213.6z M214,262.8c-0.1-0.1-0.2-0.5-0.2-1
				c0,0.3,0,0.5,0.1,0.6C214,262.6,214,262.7,214,262.8z M217.1,232.1l0.2-0.2l-0.2-0.2c-0.1,0.1-0.2,0.3-0.2,0.4H217.1z M221,228.5
				c0-0.1,0-0.2-0.1-0.2c-0.1,0-0.1-0.1-0.1-0.2c-0.1,0.1-0.2,0.3-0.2,0.4l0.2,0.2L221,228.5z M220.8,270.4l-0.2,0.2h0.2V270.4z
				 M223.9,184.9l-0.2-0.2v0.4L223.9,184.9z M223.7,187.9v-0.4v-0.2V187.9z M224.9,141.5c0-0.1,0.1-0.3,0.2-0.4h-0.6
				c-0.1,0-0.2,0.1-0.2,0.2C224.6,141.3,224.8,141.4,224.9,141.5z M224.5,180.2V180l-0.2,0.2c0,0.1,0,0.2,0.1,0.2
				c0.1,0,0.1,0.1,0.1,0.2V180.2z M225.1,173.2c0.7-2.7,1.1-5.4,1.2-8.1c0.1-2.7,0.1-5.4-0.2-8.3c-0.3,0.8-0.5,1.9-0.6,3.4
				c-0.1,1.4-0.3,2.9-0.4,4.4c-0.1,1.5-0.2,3-0.2,4.5C224.9,170.6,225,172,225.1,173.2z M239,141.3c0.1-0.1,0.3-0.2,0.4-0.2v-1.4
				H239V141.3z M244.5,177.3l-0.4,0.4c0.1,0.1,0.2,0.2,0.2,0.3c0,0.1,0.1,0.2,0.2,0.3V177.3z M244.1,195.3v-2.7
				c0.1,0.7,0.3,1.6,0.6,2.7H244.1z M246.4,160.7l-0.2,0.2v-0.2H246.4z"/>
		</g>
		<g>
			<path class="st25" d="M362.8,144c-0.9,0.7-1.8,1.4-2.7,2c-0.9,0.7-2.1,1.5-3.5,2.3c1.4,1,2.5,2,3.5,2.8c0.9,0.9,1.9,1.7,2.9,2.6
				c-0.3,0-0.7,0-1,0.1c-0.3,0.1-0.8,0.2-1.3,0.4c0.2,0.5,0.3,1,0.5,1.5c0.2,0.5,0.3,1.1,0.5,1.8c-2,0.2-4,0.3-5.9,0.4
				c-1.9,0.1-3.8,0.3-5.6,0.6c-1.9,0.3-3.7,0.9-5.4,1.5c-1.7,0.7-3.3,1.5-4.9,2.3c-0.9,0.9-1.7,1.6-2.6,2.3c-0.9,0.7-2,1.2-3.3,1.5
				c-1.4,0.2-2.6,0.8-3.8,1.8c-1.2,1-2.2,2-3.1,3.1c-1.9,2-3.7,4.1-5.5,6.1c-1.8,2-3.2,4.5-4.2,7.4c0.2,0.9,0.6,1.5,1.2,2
				c0.6,0.5,1.2,1,1.9,1.5c1.7,1.4,3.4,2.7,5,4c1.6,1.3,3.3,2.6,5,4c3.2,2.6,6.1,5.6,8.4,9.2c1.4,2.4,2.7,4.8,4.1,7.2
				c1.4,2.4,2.7,4.8,4.1,7.2c0.2,0.3,0.4,0.6,0.6,0.9c0.3,0.3,0.6,0.6,0.9,0.9c1.9,1.9,3.1,3.9,3.7,6c0.6,2.1,0.4,4.6-0.6,7.5
				c-0.5-2-1-4-1.5-5.8s-1.6-3.4-3.3-4.7c-0.2,0.3-0.3,0.7-0.5,1c-0.2,0.3-0.3,0.7-0.3,1c0.2,2,0.3,4.1,0.4,6.1
				c0.1,2,0.3,4.1,0.6,6.1c0.2,2.4,0.2,4.6,0.1,6.8c-0.1,2.1-0.8,4.3-2.2,6.5c-0.7,1-1.1,2.2-1.3,3.5c-0.2,1.3-0.7,2.3-1.5,3.2
				c-1,1-1.9,2.1-2.6,3.3c-6.1,3.6-12.8,6.1-20,7.4c-1.7,0.3-3.4,0.5-5.1,0.5c-1.7,0-3.4-0.1-5.1-0.3c-0.9,0-1.7,0.1-2.6,0.3
				c-0.9,0.2-1.7,0.3-2.6,0.3c-4.4-0.2-8.8-0.3-13-0.4c-4.3-0.1-8.5-0.5-12.8-1.2c-3.9-0.5-7.8-1.9-11.8-4.1c-1-0.5-1.9-1.2-2.7-1.9
				c-0.8-0.8-1-1.8-0.6-3.2c0.2-0.3-0.1-1.2-0.8-2.6c0.3-0.2,0.7-0.3,1.2-0.5c0.4-0.2,0.8-0.3,1.2-0.3l7.7,0.8
				c1.2,0.3,2,0.3,2.6-0.3c0.9-0.3,1.6-0.5,2.2-0.4c0.6,0.1,1.2,0.1,1.9,0.1c1.9,0.2,3.6,0.2,5.2,0.1c1.6-0.1,3.4-0.1,5.2-0.1
				c0.3,0,0.6-0.1,0.8-0.4c0.2-0.3,0.6-0.6,1.3-0.9c-0.7-0.2-1.2-0.3-1.5-0.4c-0.3-0.1-0.7-0.1-1-0.1c-2.7-0.3-5.4-0.6-8.1-0.8
				c-2.6-0.2-5.2-0.4-7.8-0.8c-1.4,0-2.4-0.3-3.1-1c-0.9-0.7-1.7-1.3-2.6-1.9c-0.9-0.6-1.7-1.3-2.6-2.2c-0.2-0.2-0.3-0.3-0.3-0.5v-1
				c0.2-0.5,0.3-1.4,0.3-2.6c1.5-1,3.2-1.6,4.9-1.8c1.7-0.2,3.3-0.4,4.9-0.8c1.9-0.3,3.8-0.5,5.8-0.5c2,0,4-0.2,6-0.5
				c1.4-0.3,2.8-0.4,4.3-0.1s3,0.5,4.3,0.6c2.9,0.2,5.8,0.1,8.8-0.1c3-0.3,6.1-0.9,9.3-1.9c-0.3-0.7-0.5-1.3-0.5-1.8
				s-0.2-0.9-0.5-1.3c-1-1-2-2-2.9-3.1c-0.9-1-2-2-3.2-2.8c-2.2-2-4.5-4-6.9-5.8c-2.4-1.8-4.7-3.8-6.9-6c-1.9-1.7-3.7-3.5-5.4-5.2
				c-1.7-1.8-3.3-3.8-4.9-6c-1.7-2.6-2.9-5.3-3.6-8.3c-0.7-3-0.6-6.2,0.3-9.6c1-5.5,1.2-10.5,0.5-15.1c0.2-0.7,0.3-1.3,0.3-1.8
				c0-0.5,0.3-1,1-1.5c0.7-0.3,1.2-0.9,1.4-1.7c0.3-0.8,0.6-1.6,0.9-2.4c1.9-6.7,4.9-12.4,9-17.4c4.1-4.9,9-9.3,14.8-13
				c5.1-3.1,10.1-4.7,15.1-4.9c1.9-0.2,3.7-0.3,5.5-0.5c1.8-0.2,3.6-0.3,5.5-0.5c2.7-0.2,5.5-0.3,8.2-0.5c2.7-0.2,5.5-0.3,8.2-0.3
				c1.9,0,3.7,0.2,5.5,0.5c1.8,0.3,3.5,1.1,5.2,2.3c-0.9,0.7-1.8,1-2.8,0.9c-1-0.1-1.8,0.5-2.3,1.7c0.3,0.9,0.9,1.3,1.5,1.3
				c0.7,0,1.4,0.1,2,0.3c0.9,0.7,1.8,0.7,2.8,0c0.2,0,0.8,0.7,1.8,2h-6.9c0.9,0.7,1.6,1.2,2.2,1.7c0.6,0.4,1.1,0.8,1.4,1.2
				C361.7,141.7,362.7,142.6,362.8,144z M273.1,251.4c0-0.2,0.1-0.3,0.3-0.3v-0.3c0-0.2-0.1-0.3-0.3-0.3V251.4z M302.2,252.7
				c0.2,0,0.3,0.2,0.3,0.5c0.3-0.3,0.6-0.5,0.8-0.5H302.2z M304,252.4c0.3,0,0.5-0.1,0.5-0.3l-0.3,0.3H304z M308.9,252.4l0.5-0.5
				l-0.3-0.3l-0.5,0.5L308.9,252.4z M359,136.3h-0.3V136L359,136.3z M363.1,153.7v0.3V153.7h0.3H363.1z M364.9,150.9l0.5-0.3
				l-0.3,0.3H364.9z M365.4,150.9c-0.2,0-0.3,0.1-0.3,0.3v-0.3H365.4z"/>
		</g>
		<g>
			<path class="st25" d="M478.5,146.2c-0.9,0.7-1.8,1.4-2.7,2c-0.9,0.7-2.1,1.5-3.5,2.3c1.4,1,2.5,2,3.5,2.8
				c0.9,0.9,1.9,1.7,2.9,2.6c-0.3,0-0.7,0-1,0.1c-0.3,0.1-0.8,0.2-1.3,0.4c0.2,0.5,0.3,1,0.5,1.5c0.2,0.5,0.3,1.1,0.5,1.8
				c-2,0.2-4,0.3-5.9,0.4c-1.9,0.1-3.8,0.3-5.6,0.6c-1.9,0.3-3.7,0.9-5.4,1.5c-1.7,0.7-3.3,1.5-4.9,2.3c-0.9,0.9-1.7,1.6-2.6,2.3
				c-0.9,0.7-2,1.2-3.3,1.5c-1.4,0.2-2.6,0.8-3.8,1.8c-1.2,1-2.2,2-3.1,3.1c-1.9,2-3.7,4.1-5.5,6.1c-1.8,2-3.2,4.5-4.2,7.4
				c0.2,0.9,0.6,1.5,1.2,2c0.6,0.5,1.2,1,1.9,1.5c1.7,1.4,3.4,2.7,5,4c1.6,1.3,3.3,2.6,5,4c3.2,2.6,6.1,5.6,8.4,9.2
				c1.4,2.4,2.7,4.8,4.1,7.2c1.4,2.4,2.7,4.8,4.1,7.2c0.2,0.3,0.4,0.6,0.6,0.9c0.3,0.3,0.6,0.6,0.9,0.9c1.9,1.9,3.1,3.9,3.7,6
				c0.6,2.1,0.4,4.6-0.6,7.5c-0.5-2-1-4-1.5-5.8s-1.6-3.4-3.3-4.7c-0.2,0.3-0.3,0.7-0.5,1c-0.2,0.3-0.3,0.7-0.3,1
				c0.2,2,0.3,4.1,0.4,6.1c0.1,2,0.3,4.1,0.6,6.1c0.2,2.4,0.2,4.6,0.1,6.8c-0.1,2.1-0.8,4.3-2.2,6.5c-0.7,1-1.1,2.2-1.3,3.5
				c-0.2,1.3-0.7,2.3-1.5,3.2c-1,1-1.9,2.1-2.6,3.3c-6.1,3.6-12.8,6.1-20,7.4c-1.7,0.3-3.4,0.5-5.1,0.5c-1.7,0-3.4-0.1-5.1-0.3
				c-0.9,0-1.7,0.1-2.6,0.3c-0.9,0.2-1.7,0.3-2.6,0.3c-4.4-0.2-8.8-0.3-13-0.4c-4.3-0.1-8.5-0.5-12.8-1.2c-3.9-0.5-7.8-1.9-11.8-4.1
				c-1-0.5-1.9-1.2-2.7-1.9c-0.8-0.8-1-1.8-0.6-3.2c0.2-0.3-0.1-1.2-0.8-2.6c0.3-0.2,0.7-0.3,1.2-0.5c0.4-0.2,0.8-0.3,1.2-0.3
				l7.7,0.8c1.2,0.3,2,0.3,2.6-0.3c0.9-0.3,1.6-0.5,2.2-0.4c0.6,0.1,1.2,0.1,1.9,0.1c1.9,0.2,3.6,0.2,5.2,0.1
				c1.6-0.1,3.4-0.1,5.2-0.1c0.3,0,0.6-0.1,0.8-0.4c0.2-0.3,0.6-0.6,1.3-0.9c-0.7-0.2-1.2-0.3-1.5-0.4c-0.3-0.1-0.7-0.1-1-0.1
				c-2.7-0.3-5.4-0.6-8.1-0.8c-2.6-0.2-5.2-0.4-7.8-0.8c-1.4,0-2.4-0.3-3.1-1c-0.9-0.7-1.7-1.3-2.6-1.9c-0.9-0.6-1.7-1.3-2.6-2.2
				c-0.2-0.2-0.3-0.3-0.3-0.5v-1c0.2-0.5,0.3-1.4,0.3-2.6c1.5-1,3.2-1.6,4.9-1.8c1.7-0.2,3.3-0.4,4.9-0.8c1.9-0.3,3.8-0.5,5.8-0.5
				c2,0,4-0.2,6-0.5c1.4-0.3,2.8-0.4,4.3-0.1s3,0.5,4.3,0.6c2.9,0.2,5.8,0.1,8.8-0.1c3-0.3,6.1-0.9,9.3-1.9
				c-0.3-0.7-0.5-1.3-0.5-1.8c0-0.5-0.2-0.9-0.5-1.3c-1-1-2-2-2.9-3.1c-0.9-1-2-2-3.2-2.8c-2.2-2-4.5-4-6.9-5.8
				c-2.4-1.8-4.7-3.8-6.9-6c-1.9-1.7-3.7-3.5-5.4-5.2c-1.7-1.8-3.3-3.8-4.9-6c-1.7-2.6-2.9-5.3-3.6-8.3c-0.7-3-0.6-6.2,0.3-9.6
				c1-5.5,1.2-10.5,0.5-15.1c0.2-0.7,0.3-1.3,0.3-1.8s0.3-1,1-1.5c0.7-0.3,1.2-0.9,1.4-1.7c0.3-0.8,0.6-1.6,0.9-2.4
				c1.9-6.7,4.9-12.4,9-17.4c4.1-4.9,9-9.3,14.8-13c5.1-3.1,10.1-4.7,15.1-4.9c1.9-0.2,3.7-0.3,5.5-0.5c1.8-0.2,3.6-0.3,5.5-0.5
				c2.7-0.2,5.5-0.3,8.2-0.5c2.7-0.2,5.5-0.3,8.2-0.3c1.9,0,3.7,0.2,5.5,0.5c1.8,0.3,3.5,1.1,5.2,2.3c-0.9,0.7-1.8,1-2.8,0.9
				c-1-0.1-1.8,0.5-2.3,1.7c0.3,0.9,0.9,1.3,1.5,1.3c0.7,0,1.4,0.1,2,0.3c0.9,0.7,1.8,0.7,2.8,0c0.2,0,0.8,0.7,1.8,2h-6.9
				c0.9,0.7,1.6,1.2,2.2,1.7c0.6,0.4,1.1,0.8,1.4,1.2C477.4,143.9,478.3,144.8,478.5,146.2z M388.7,253.6c0-0.2,0.1-0.3,0.3-0.3
				v-0.3c0-0.2-0.1-0.3-0.3-0.3V253.6z M417.8,254.9c0.2,0,0.3,0.2,0.3,0.5c0.3-0.3,0.6-0.5,0.8-0.5H417.8z M419.6,254.7
				c0.3,0,0.5-0.1,0.5-0.3l-0.3,0.3H419.6z M424.5,254.7l0.5-0.5l-0.3-0.3l-0.5,0.5L424.5,254.7z M474.6,138.5h-0.3v-0.3
				L474.6,138.5z M478.7,155.9v0.3V155.9h0.3H478.7z M480.5,153.1l0.5-0.3l-0.3,0.3H480.5z M481,153.1c-0.2,0-0.3,0.1-0.3,0.3v-0.3
				H481z"/>
		</g>
		<g>
			<path class="st25" d="M349.7,330c0.9,5.5,1.2,10.8,1,16.1c-0.2,5.3-0.7,10.7-1.5,16.1c-0.9,4.9-2,9.9-3.3,14.8
				c-1.4,4.9-3,9.7-4.9,14.3c-3.4,8-7.9,14.9-13.4,20.6c-5.5,5.7-12.4,10-20.6,12.9c-1.9,0.9-3.8,1.5-5.8,2c-2,0.5-3.9,1-5.8,1.5
				c-0.2,0.2-0.5,0.3-1,0.3c-3.4-0.2-6.7-0.1-10,0.1c-3.2,0.3-6.5,0-9.7-0.6c-2.9-0.9-5.6-1.9-8.2-3.2s-5-2.7-7.4-4.2
				c-1-0.5-2-1.1-2.9-1.8c-0.9-0.7-1.8-1.4-2.7-2c-1.2-1-2.3-2.1-3.3-3.2c-1-1.1-2-2.3-2.8-3.7c-1.4-2.4-2.6-4.8-3.6-7.3
				c-1-2.5-1.7-5.1-2-7.8c-0.3-1.4-0.4-2.7-0.3-4.1c0.2-1.4,0.1-2.7-0.3-4.1c-0.5-1.4-0.9-2.7-1-4.1c-0.2-1.4-0.3-2.7-0.5-4.1
				c-0.3-1.9-0.4-3.7-0.3-5.6c0.2-1.9,0.5-3.7,1-5.6c1-2.9,1.7-5.8,2-8.7c0.3-2.9,0.7-5.8,1-8.7c1.5-8.2,4.1-16.1,7.7-23.8
				c0.3-0.9,0.8-1.6,1.4-2.2c0.6-0.6,1.2-1.3,1.7-2.2l-0.3,0.3c0.5-3.7,2.3-7.2,5.4-10.2l-0.3,0.3c0.9-1,1.6-2,2.3-2.9
				c0.7-0.9,1.4-1.8,2.3-2.7v-0.3v0.3c0.2,0.5,0.5,0.5,1,0c0.3-0.3,0.3-0.8,0-1.3v0.3v-0.3c0.9-1.9,2-3.5,3.3-5
				c1.4-1.4,2.7-2.9,4.1-4.2c0.9-1,1.8-2,2.8-2.8c1-0.9,1.9-1.9,2.6-3.1c0.7-1,1.4-1.7,2.3-2.2c0.9-0.4,1.7-0.8,2.6-1.2
				c1.5-0.3,3.1-0.8,4.6-1.3s3-1,4.3-1.5c1.4-0.3,3.2-0.6,5.5-0.9c2.3-0.3,4.2-0.2,5.8,0.1c0.7,0.2,1.4,0.2,2.2,0
				c0.8-0.2,1.7-0.3,2.7-0.3c-0.9,0.7-1.5,1.2-2,1.7c-0.5,0.4-1,0.9-1.5,1.4c0,0.2,0.1,0.3,0.3,0.5c1.4-0.3,2.7-0.6,4.1-0.8
				c1.4-0.2,2.7-0.4,4.1-0.8c1.2,0.9,2.4,1.5,3.6,1.9c1.2,0.4,2.6,0.5,4.3,0.1c1-0.3,2.1-0.5,3.2-0.5c1.1,0,2.3,0.1,3.5,0.3
				c1.5,0.2,3,0.9,4.3,2c3.4,2.4,6.3,5.2,8.6,8.3c2.3,3.2,4,6.8,5,10.9c0.9,3.6,1.7,7.2,2.6,10.9C348.3,322.6,349.1,326.3,349.7,330
				z M249.7,340.2l0.3-0.3h-0.3V340.2z M252.5,333.1l0.5-0.5c0.2,0,0.3-0.3,0.3-0.8l-0.8,0.8V333.1z M256.4,382.7
				c0.5-1.4,0.8-2.6,0.8-3.8c0-1.2-0.4-3-1.3-5.4c-0.5,3.1-0.8,5-0.8,5.8C255.1,380,255.5,381.2,256.4,382.7z M264.8,306.2h-1
				c0.3-0.2,0.7-0.4,1-0.8V306.2z M270.7,387.1c0.3-1.4,0.4-2.4,0.3-3.2c-0.2-0.8-0.9-1.3-2-1.7c0,0.3,0,0.8-0.1,1.3
				c-0.1,0.5-0.1,1-0.1,1.5c0.2,0.3,0.5,0.6,0.9,0.9C270,386.2,270.4,386.5,270.7,387.1z M272.2,291.4h0.3l-0.5,0.3L272.2,291.4z
				 M319,360.2c1-3.6,2-7.2,2.9-10.7c0.9-3.6,1.8-7.1,2.7-10.5c0.7-2.6,0.9-5.1,0.8-7.5c-0.2-2.5-0.6-5-1.3-7.5
				c-0.5-3.2-2.1-5.6-4.9-7.2c-5.5-2.7-10.8-3.5-16.1-2.3c-0.3,0.2-0.7,0.3-1,0.5c-0.3,0.2-0.7,0.3-1,0.3c-0.3,0-0.6-0.2-0.9-0.5
				c-0.3-0.3-0.6-0.6-0.9-0.8c-2.9-0.7-5.1,0.5-6.7,3.6c-0.2,0.3-0.4,0.8-0.6,1.3c-0.3,0.5-0.6,0.9-0.9,1.3
				c-0.3,0.9-0.7,1.6-1.2,2.3c-0.4,0.7-0.9,1.5-1.4,2.3c-3.4,5.1-6.3,10.6-8.6,16.4c-2.3,5.8-4.2,11.7-5.8,17.6
				c-0.9,3.8-1.5,7.5-1.9,11.3c-0.4,3.8-0.3,7.6,0.4,11.5c0.5,3.8,1.8,7,3.8,9.7c1.9,2.9,4.5,4.7,7.9,5.5c3.4,0.8,6.7,0.3,9.7-1.4
				c0.7-0.3,1.4-0.6,2-0.9c0.7-0.3,1.4-0.6,2-0.9c0.2-0.9,0.9-1.6,2.3-2.3c0.3-0.5,0.6-1.1,0.9-1.7c0.3-0.6,0.6-1.2,0.9-1.7
				c2.2-2.7,4.3-5.5,6.4-8.2c2-2.7,4.2-5.5,6.4-8.2c0.2-0.9,0.3-1.7,0.5-2.7c0.2-0.9,0.3-1.8,0.5-2.7v0.3c0.5-1,1-2,1.5-3.1
				C318.3,362.2,318.7,361.2,319,360.2z M287.6,410.6c2.2,0.5,5,0.1,8.4-1.3c-1.4-0.7-2.1-1-2.3-1c-1.4-0.2-2.7-0.3-4.1-0.3
				c-1.4,0-2.7-0.1-4.1-0.3H282c-0.3,0.2-0.6,0.3-0.9,0.5c-0.3,0.2-0.6,0.4-1.2,0.8c1.5,0.3,2.9,0.6,4.1,0.8
				C285.2,410,286.4,410.2,287.6,410.6z M287.6,413.4c0-0.2-0.1-0.3-0.3-0.5l-0.3,0.3c0,0.2,0,0.3,0.1,0.3c0.1,0,0.1,0.1,0.1,0.3
				L287.6,413.4z M298.6,394.2c4.6-2,7.9-5.4,10-10c-0.5,0.5-1.5,1.3-2.8,2.3c-0.9,0.9-1.8,1.7-2.7,2.4c-0.9,0.8-1.8,1.6-2.7,2.4
				v-0.3c-0.5,0.9-1.2,1.5-2,2C298.5,393.5,298.6,393.9,298.6,394.2z M303.7,300.6c-0.3,0-0.7,0.2-1.2,0.6c-0.4,0.4-0.8,0.8-1.2,1.2
				c0.5,0.3,1.1,0.7,1.8,1c1.9,0.3,3.7,0.4,5.6,0.3c1.9-0.2,3.7,0,5.6,0.5c1.5,0.3,2.7-0.6,3.6-2.8c-2.4-1.4-4.8-1.9-7.2-1.7
				C308.5,300,306.1,300.3,303.7,300.6z M310.9,297.8c-1.7-1.5-3-1.4-3.8,0.3C307.9,297.9,309.2,297.8,310.9,297.8z M315.5,373.5
				c0.9-0.7,1.4-1.4,1.5-2c0.2-0.7,0.2-1.4,0-2.3c-0.3,0.3-0.6,0.7-0.9,1.2c-0.3,0.4-0.6,0.8-0.9,1.2
				C315.2,372.1,315.3,372.8,315.5,373.5z M316.7,379.4c-0.2,0-0.3,0.1-0.3,0.3l0.3-0.5V379.4z M320.8,363.3c0,0.2,0,0.3-0.1,0.3
				c-0.1,0-0.1,0.1-0.1,0.3h0.3V363.3z M321.6,301.6c-0.2,0-0.3,0-0.4,0.1c-0.1,0.1-0.2,0.1-0.4,0.1c0.3,0,0.6,0.1,0.8,0.3V301.6z
				 M324.4,349.5c-0.3,0.5-0.6,1.1-0.9,1.8c-0.3,0.7,0,1.5,0.6,2.6c0-0.9,0-1.6,0.1-2.3C324.4,350.8,324.4,350.1,324.4,349.5z
				 M324.9,346.1c1.9-2,2.8-4,2.7-6c-0.1-2-0.2-3.9-0.4-5.8c-0.3,1.9-0.7,3.7-1.2,5.5C325.7,341.7,325.3,343.7,324.9,346.1z
				 M329,296.8c0,0.3,0,0.6-0.1,0.6c-0.1,0.1-0.1,0.2-0.1,0.4h1C329.4,297.4,329.2,297.1,329,296.8z M331.1,301.1
				c0.9,0.3,1.5,0.9,2,1.8c0.5,0.9,1.4,1.1,2.8,0.8c-0.9-1.4-1.7-2.6-2.6-3.6c-0.9-1-2-1.7-3.3-2C329.7,299.4,330,300.4,331.1,301.1
				z M339,338.2c0.2-0.7,0.3-1.4,0.3-2c0-0.7,0-1.4,0-2.3C337.9,335.2,337.8,336.7,339,338.2z"/>
		</g>
		<g>
			<path class="st25" d="M467.7,307c2.4,2.9,3.9,6.1,4.6,9.6c0.7,3.5,0.8,7.2,0.3,11.1c-0.3,2-0.9,4.1-1.5,6.1c-0.7,2-1.6,4-2.8,5.9
				c-0.7,1.2-1.2,2.4-1.7,3.7c-0.4,1.3-0.8,2.6-1.2,4c-0.9,1.9-1.9,3.1-3.1,3.6c-0.3-0.9-0.7-0.9-1,0c-1,0.7-1,1.4,0,2v0.3
				c-1.9,2.7-4.2,4.9-6.9,6.4c-2.7,1.5-5.5,3.1-8.4,4.6l-6.9,4.6h0.3c-1,0.3-1.7,0.7-2,1v-0.3c-0.7,0.5-1.3,1-1.9,1.4
				c-0.6,0.4-1.2,0.8-1.7,1.2c-1.2,0.7-2.1,0.7-2.8,0c-1,0.9-2,1.8-3.1,2.8s-2.2,2-3.6,3.1c0.3,0.9,0.8,1.6,1.3,2.2
				c0.5,0.6,0.9,1.3,1.3,2.2c-0.3,0-0.6,0-0.6,0.1c-0.1,0.1-0.3,0.1-0.6,0.1c0.3,0.2,0.6,0.3,0.6,0.4c0.1,0.1,0.3,0.2,0.6,0.4v-1
				v1.3v-0.3c0.5,0.7,1.3,1.5,2.3,2.6v-0.3c0.7,0.3,1.2,0.5,1.5,0.5l0.5,0.3c-0.2-0.2-0.4-0.3-0.8-0.3c2,2.2,4,4.4,6,6.5
				c2,2.1,4,4.4,6,6.8c0.7,0.9,1.3,1.7,1.9,2.4c0.6,0.8,1.2,1.6,1.7,2.4c0.9,1.2,1.7,2.4,2.6,3.6c0.9,1.2,1.7,2.4,2.6,3.6
				c0.9,1.2,1.4,2.4,1.7,3.7c0.3,1.3,0.7,2.6,1.4,4c-0.2,0-0.3,0.1-0.5,0.3l-0.5,0.5c0,1.5,0.1,2.6,0.3,3.3c-1.2,0.5-2,0.5-2.6,0
				s-1.1-0.9-1.8-1.3c-0.5-0.3-1-0.7-1.5-1.2c-0.5-0.4-1.1-0.9-1.8-1.4c-0.3,0.7-0.6,1.2-0.6,1.7c-0.1,0.4-0.3,0.9-0.6,1.4
				c0,0.3,0,0.6,0.1,0.9c0.1,0.3,0,0.6-0.1,0.9c-0.5,1-1,1.6-1.5,1.7c-0.5,0.1-1.3,0-2.3-0.4c-2.9-1.2-5.5-2.8-7.9-4.7
				c-2.4-2-4.8-4-7.2-6c-1.4-1-2.7-2.1-4.1-3.2c-1.4-1.1-2.7-2.1-4.1-2.9c-2.2-1.4-4.1-3-5.8-4.9c-1.6-1.9-3.1-3.7-4.5-5.6
				c-0.3-0.3-0.6-0.7-0.8-1.2c-0.2-0.4-0.4-0.8-0.8-1.2c-3.1-3.2-6.2-6.4-9.5-9.5c-0.9,0.3-1.4,0.8-1.5,1.4
				c-0.2,0.6-0.3,1.2-0.5,1.9c-0.9,2.4-1.6,4.9-2.3,7.4c-0.7,2.6-1.5,5.1-2.3,7.7c-0.9,2.6-1.8,5-2.8,7.4c-1,2.4-2.4,4.7-4.1,6.9
				c-0.3,0.2-0.7,0.3-1,0.4c-0.3,0.1-0.7,0.2-1,0.4h0.3c-0.7-0.7-1.3-0.8-1.8-0.4c-0.5,0.4-1,0.6-1.5,0.6c0-0.3,0-0.7-0.1-1.2
				c-0.1-0.4-0.1-0.9-0.1-1.4c-0.7,0.3-1.2,0.7-1.7,1c-0.4,0.3-0.9,0.7-1.4,1v-5.1c-0.5,0.5-0.9,0.9-1.3,1.2
				c-0.3,0.3-0.6,0.6-0.8,0.9c-0.5,0.9-1,1.7-1.5,2.4c-0.5,0.8-1,1.6-1.5,2.4c-0.2,0.3-0.4,0.6-0.8,0.8c-0.3,0.2-0.6,0.2-0.8,0
				c-0.9-0.3-1.3-0.9-1.3-1.8c0-0.9,0.2-1.8,0.5-2.8c-0.7-1-1.6-1.5-2.8-1.5c-1.2,0-1.9-0.7-2-2c-2.7-4.4-3.5-8.9-2.3-13.3
				c1.4-4.8,2.5-9.5,3.5-14.1c0.9-4.6,1.9-9.3,2.9-14.1c0.9-3.7,1.6-7.5,2.3-11.3c0.7-3.7,1.5-7.5,2.6-11.3c1.5-5.6,2.9-11.3,4.2-17
				c1.3-5.7,3.3-11.2,6-16.5c0.7-1.4,1.1-2.7,1.3-4.1c0.2-1.4,0.4-2.7,0.8-4.1c0.2-0.9-0.3-1.4-1.3-1.8c0.9-0.9,1.4-1.7,1.5-2.7
				c0.2-0.9,0.3-1.9,0.3-2.9c0.3-3.1,1.9-4.9,4.6-5.6c1.7-0.3,3-1,3.8-2c0.9-1,1.6-2.1,2.3-3.3c1.5,0,3,0,4.5,0
				c1.4,0,2.9-0.1,4.2-0.3c1.5,0,3.1,0,4.6-0.1c1.5-0.1,3.1-0.2,4.6-0.4c1,0,2,0,3.1-0.1c1-0.1,2-0.6,2.8-1.4
				c0.3-0.3,0.8-0.5,1.3-0.5c2-0.3,4-0.4,6-0.1c2,0.3,3.9,0.9,5.8,1.9l5.4,0.8c0.9,0.3,1.7,0.6,2.4,0.8c0.8,0.2,1.6,0.3,2.4,0.5h1.3
				h-0.3l3.1,2.3c0.3,0.5,0.8,1,1.3,1.5s1.2,0.7,2,0.5h-0.3h0.3c0.9,0.7,1.7,1.3,2.4,1.9c0.8,0.6,1.6,1.2,2.4,1.7
				c0.7,0.5,1.4,0.9,2.2,1.2c0.8,0.3,1.6,0,2.4-0.6H458h0.3v0.3c0.3-0.3,0.7-0.6,1.2-0.6c0.4-0.1,0.8-0.3,1.2-0.6
				c1.2,1.4,2.4,2.8,3.6,4.2C465.3,304.2,466.5,305.6,467.7,307z M362.1,379.6c-0.2,0.5-0.4,1.1-0.8,1.8H361c0.3-0.7,0.7-1.2,1-1.5
				V379.6z M363.1,373.8v-0.5h0.3L363.1,373.8z M366.4,360.7h-0.3l0.3-0.3V360.7z M377.9,318.5h-0.3l0.3-0.3V318.5z M378.9,315.2
				v-0.5l0.3,0.3L378.9,315.2z M380,310.1c0.3-0.3,0.5-0.6,0.5-0.8v0.8c-0.2,0.2-0.3,0.3-0.5,0.3V310.1z M380.5,309.3
				c0.3-0.7,0.7-1.5,1-2.6h0.3v0.3c-0.3,0.5-0.7,1.3-1,2.3H380.5z M402,292.4c0.2,0,0.3-0.1,0.5-0.3c-0.2-0.2-0.3-0.3-0.3-0.4
				c0-0.1-0.1-0.2-0.3-0.4c0,0.2,0,0.3-0.1,0.4c-0.1,0.1-0.1,0.2-0.1,0.4L402,292.4z M432.4,344.1c3.1-1.9,5.3-4.6,6.8-8.3
				c1.4-3.7,1.5-7.2,0.1-10.6c-0.5-1.4-1.2-2.6-2-3.7c-0.9-1.1-1.6-2.3-2.3-3.5v0.3h-0.3h0.3h-0.3c-0.2-0.3-0.3-0.7-0.4-1
				c-0.1-0.3-0.3-0.6-0.6-0.8c-3.8-1.9-7.6-3.1-11.5-3.6c-3.9-0.5-8-0.7-12.3-0.5v2.8c-1.2,1-1.8,2.2-1.9,3.6
				c-0.1,1.4,0,2.7,0.1,4.1c1.4,0.5,1.9,1.2,1.7,1.9c-0.3,0.8-0.6,1.6-0.9,2.4c-0.5,2-1.1,4.1-1.7,6.3c-0.6,2.1-1.2,4.2-1.7,6.3
				c-0.3,1.4-0.7,2.6-1,3.8c-0.3,1.2-0.3,2.6,0,4.1c1-0.3,1.9-0.6,2.7-0.8c0.8-0.2,1.6-0.4,2.4-0.8c0.9-0.3,1.7-0.6,2.7-0.6
				c0.9-0.1,1.8-0.3,2.7-0.6c0.3,0.5,0.6,1,0.6,1.4c0.1,0.4-0.4,0.6-1.4,0.6H413c-1.2,0-1.9,0.1-2,0.3c-0.5,1-1.2,1.8-2.2,2.2
				c-0.9,0.4-1.8,0.8-2.7,1.2c-0.3,0.2-1.1,0.7-2.3,1.5c1,0.3,1.4,0.5,1.3,0.5c0.3,0.2,0.7,0.3,1.2,0.3c0.4,0,0.8,0.1,1.2,0.3
				c-0.9,0.3-1.7,0.8-2.6,1.3c-0.9,0.5-1.7,1-2.6,1.5c0.3,0.2,0.6,0.3,0.6,0.5c0.1,0.2,0.2,0.3,0.4,0.3c2.7-0.2,5.4-0.7,7.9-1.5
				c2.6-0.9,5.1-1.7,7.7-2.6c0.9-0.3,1.4-0.8,1.5-1.3c0.3-1.4,1.1-2.3,2.2-2.8c1.1-0.5,2.1-1.1,2.9-1.8h1.3c0.9-0.3,1.8-0.7,2.8-1.2
				C430.6,345.1,431.5,344.6,432.4,344.1z M412.4,291.1c-0.7,0-1.3,0.1-1.8,0.3c-0.5,0.2-0.8,0.8-0.8,1.8c0.3,0.2,0.6,0.4,0.9,0.6
				c0.3,0.3,0.6,0.5,0.9,0.6c3.2,0.2,6.4,0.2,9.6,0.1c3.2-0.1,6.3-0.3,9.3-0.6c-2.9-1.4-5.9-2.2-9-2.4
				C418.6,291.3,415.5,291.1,412.4,291.1z M409.9,315.2c0.2,0,0.3,0.1,0.3,0.3c1.7,1,1.8,2.3,0.3,3.8c-0.2-0.9-0.3-2.1-0.3-3.8
				L409.9,315.2z M415.5,344.6c-0.2,0-0.3,0.1-0.3,0.3H415C415.2,344.7,415.3,344.6,415.5,344.6z M415,351.2h1.3
				c-0.3,0-0.6,0-0.6,0.1c-0.1,0.1-0.3,0.1-0.6,0.1V351.2z M416.3,343.3l0.5,0.5c-0.7,0.3-1.1,0.6-1.3,0.8c0.2-0.3,0.3-0.6,0.4-0.6
				C416,343.9,416.1,343.7,416.3,343.3z M416.5,351.2l0.3-0.3v0.3h-0.5H416.5z M417.8,350l0.5,0.5c-0.7,0.3-1.2,0.5-1.5,0.5
				c0.3-0.2,0.6-0.3,0.6-0.5C417.5,350.3,417.6,350.1,417.8,350z M419.4,289.3c0,0.2,0.1,0.3,0.3,0.3l0.3-0.3c-0.2,0-0.3,0-0.3-0.1
				c0-0.1-0.1-0.1-0.3-0.1V289.3z M420.6,344.6h0.3l-0.3,0.3V344.6z M421.4,341.5c0.3-0.2,0.7-0.3,1-0.5c0.3-0.2,0.7-0.3,1-0.5v0.3
				c-0.3,0.2-0.6,0.3-0.9,0.4c-0.3,0.1-0.6,0.2-0.9,0.4c-0.3,0.3-0.6,0.5-0.8,0.5C421.2,342,421.4,341.9,421.4,341.5z M421.1,344.3
				l-0.3,0.3L421.1,344.3z M424.5,371.7h-0.3l0.3,0.3V371.7z M427.5,342c0-0.2-0.1-0.3-0.3-0.5c0.3-0.3,1-0.7,2-1
				c-0.3,0.3-0.6,0.6-0.9,0.8C428.2,341.4,427.9,341.7,427.5,342z M429.6,340.2c0,0.2-0.1,0.3-0.3,0.3L429.6,340.2z M431.9,386.5
				h-0.8H431.9l0.3,0.3L431.9,386.5z M434.7,318.8c0-0.2,0.1-0.3,0.3-0.5v0.3L434.7,318.8z M446.7,289.3c-1.4-0.3-2.8-0.6-4.2-0.9
				c-1.5-0.3-2.9-0.6-4.2-0.9c-0.2-0.7-0.1-1.1,0.3-1.2c0.3-0.1,0.7,0,1,0.1c1.9,0.5,3.7,1,5.4,1.5c1.7,0.5,3.5,1.1,5.4,1.8
				c-0.7-0.2-1.3-0.3-1.8-0.3S447.4,289.5,446.7,289.3z M441.3,291.1h1C442,292,441.7,292,441.3,291.1z M448.8,294.2
				c0.5,0.2,1,0.3,1.4,0.5c0.4,0.2,0.9,0.4,1.4,0.8h-2.8V294.2l-0.3-0.3L448.8,294.2z M450.8,290.1c-0.2-0.2-0.3-0.3-0.5-0.3h0.5
				V290.1z M453.9,296.5c-0.3-0.2-0.7-0.3-1-0.5c-0.3-0.2-0.7-0.3-1-0.5h-0.3h0.3c1,0.3,1.8,0.7,2.3,1H453.9z M455.9,293.2
				c-0.2,0-0.3,0-0.3,0.1c0,0.1-0.1,0.1-0.3,0.1c-0.2-0.2-0.6-0.4-1.3-0.8l0.5-0.5c0.3,0.2,0.6,0.3,0.6,0.5
				C455.4,292.8,455.6,293,455.9,293.2z M458,299.6c-0.9-0.3-1.6-0.7-2.3-1c-0.7-0.3-1.2-1-1.5-2L458,299.6z M461.3,351h1
				c-0.2,0.3-0.3,0.7-0.5,1c-0.2,0.3-0.3,0.7-0.5,1V351z M466.9,313.4c0.3,1.9,0.6,3.6,0.9,5.2c0.3,1.6,0.8,3.3,1.7,5
				c0.2,0.2,0.3,0.3,0.4,0.3c0.1,0,0.2,0.1,0.4,0.3c-0.2-0.9-0.3-1.7-0.4-2.4c-0.1-0.8-0.1-1.6-0.1-2.4
				C469.4,316.7,468.5,314.8,466.9,313.4z M470.3,324.4c-0.5,0.9-0.9,1.8-1.2,2.8c-0.3,1-0.1,2.4,0.4,4.1c0.2-1.5,0.3-2.9,0.4-4
				C470,326.2,470.1,325.2,470.3,324.4z"/>
		</g>
		<g>
			<path class="st25" d="M345.8,462.7c0.3,0.3,0.7,0.8,1,1.3c0.3,0.5,0.8,1,1.3,1.5c-0.7,0.3-1.5,0.7-2.6,1
				c-1.7,0.7-2.7,1.6-3.1,2.8c-0.9,2.6-2.6,3.5-5.1,2.8c-0.3-0.2-0.6-0.2-0.9-0.1c-0.3,0.1-0.6,0.1-0.9,0.1
				c-0.7,1.4-1.3,2.4-1.8,3.1c-0.9,0.3-1.7,0.6-2.4,0.8c-0.8,0.2-1.6,0.4-2.4,0.8c-0.3,0-0.5,0.2-0.5,0.5c0,0.3-0.1,0.7-0.3,1h-2
				h1.8c1.9,0.3,3.6,0.6,5.2,0.6c1.6,0.1,3.4,0.3,5.2,0.6c0.2,0,0.5,0.3,1,0.8c-0.5,0.7-1.1,1.1-1.8,1.3c-0.7,0.2-1.4,0.3-2,0.5
				c-3.2,0.3-6.4,0.6-9.5,0.9c-3.1,0.3-6.1,0.6-9.2,0.9c-1.5,0.2-3,0.3-4.5,0.4c-1.5,0.1-2.9,0.1-4.5,0.1c-1.9,0.2-3.5,0.7-4.7,1.5
				c-1.3,0.9-2.2,2.2-2.7,4.1c0,0.3-0.1,0.6-0.4,0.8c-0.3,0.2-0.5,0.4-0.6,0.8c-1.4,6.1-3,12.2-4.9,18.2c-1.9,6-3.8,11.9-5.6,17.9
				c-1,3.4-2,6.7-2.9,10c-0.9,3.2-2,6.6-3.2,10c-0.9,3.1-1.8,6.1-2.8,9.2s-2,6.1-3.1,9.2l-1.5,5.4c-1.2,4.8-3,9.2-5.4,13.3
				c-0.5,0.7-1,1.3-1.4,1.9c-0.4,0.6-0.9,1.3-1.4,2.2c-0.9-0.3-1.8-0.8-2.8-1.3c-1-0.5-2-0.3-3.1,0.8V588c-0.9,0.5-1.7,0.9-2.6,1.3
				c-0.7,0.2-1.3,0.2-1.8,0.1c-0.5-0.1-1.2,0-2,0.1c-0.2,0-0.3-0.2-0.3-0.6c0-0.4,0-0.8-0.1-1.2c-0.1-0.3-0.3-0.6-0.5-0.8
				c-0.3-0.2-0.8,0-1.7,0.5c-0.2-1-0.3-2-0.4-3.1c-0.1-1-0.1-2-0.1-3.1c-0.7,0.5-1.3,1-1.9,1.4c-0.6,0.4-1.3,1-2.2,1.7
				c-0.3-1.9-0.8-3.5-1.3-5c-0.5-1.4-0.3-3,0.5-4.7c0.5-1.7,0.2-3.4-1-5.1c-0.9-0.9-1.3-1.7-1.3-2.6c0-0.9,0.2-1.8,0.5-2.8
				c0.5-2.9,1.3-5.5,2.3-7.9c0.9-2.9,1.7-5.8,2.6-8.7c0.9-2.9,1.8-5.8,2.8-8.7c1.7-4.9,3.4-9.8,5-14.7c1.6-4.9,3.3-9.8,5-14.7
				c0.9-2,1.5-4.1,2-6.3c0.5-2.1,0.9-4.4,1.3-6.8c0.3-1.4,0.7-2.7,1-4c0.3-1.3,0.7-2.6,1-4c0.7-2,0-3.3-2-3.8
				c-0.9-0.3-1.8-0.6-2.7-0.6c-0.9-0.1-1.9-0.3-2.9-0.6c-1,0-2.6-0.3-4.6-0.8c1.7-0.9,3.2-1.3,4.5-1.3c1.3,0,2.6,0,4,0
				c1.4-0.2,2.6-0.4,3.8-0.6c1.2-0.3,2.5-1,3.8-2.2c-2.4-0.7-4.6-1-6.7-0.9c-2,0.1-4.1,0.1-6.1,0.1h-13c0.5-0.3,1-0.7,1.4-1
				c0.4-0.3,0.9-0.7,1.4-1c-0.9-0.5-1.5-0.8-1.8-0.8c-0.9-0.2-1.8-0.2-2.7-0.1c-0.9,0.1-1.8,0-2.7-0.1c-1.7-0.2-2.6-1.4-2.8-3.6
				c0-0.7-0.1-1.3-0.3-1.8c-0.2-0.5-0.4-1.2-0.8-2c1.4-0.5,1.9-1.4,1.7-2.8c-0.3-1.4,0-2.6,0.9-3.8c7.2-0.9,14.3-1.6,21.5-2.3
				c7.2-0.7,14.6-1,22.3-1c-0.5-0.7-1-1.3-1.5-1.8c0.3-0.3,0.6-0.7,0.6-1.2c0.1-0.4,0.3-0.8,0.6-1.2c-1.2-0.9-2.4-1.5-3.7-1.9
				c-1.3-0.4-2.7-0.3-4.2,0.4c-0.7,0.7-1.3,0.7-1.8,0h-0.5l-27.6-0.8c0.3-0.2,0.6-0.3,0.8-0.5c0.2-0.2,0.4-0.3,0.8-0.3
				c10.6-1.2,21-2.1,31.3-2.8c10.3-0.7,20.8-0.6,31.3,0.3c1.9,0.2,3.8,0.3,5.8,0.5c2,0.2,3.9,0.4,5.8,0.8c0.9,0.2,1.6,0.4,2.2,0.6
				c0.6,0.3,1.3,0.6,2.2,0.9c1,0.3,1.8,0.5,2.3,0.5c0.5,0.9,1,1.6,1.5,2.3c0.5,0.7,1.1,1.5,1.8,2.3c0.5,0.5,1.3,0.8,2.3,0.8
				c1.5,0.5,3.1,0.8,4.6,0.8c1.4,0.2,2.5,0.5,3.3,1c0.9,0.5,1.4,1.5,1.8,3.1c0.2,0.3,0.4,0.6,0.8,0.8
				C345.1,462.1,345.5,462.3,345.8,462.7z M245.8,450.9c-0.2,0-0.3,0-0.4,0.1c-0.1,0.1-0.2,0.1-0.4,0.1h-0.3l0.5-0.3H245.8z
				 M250.1,455.2l0.3,0.3h-0.3V455.2z M268.6,454c2-0.2,4.1-0.2,6.1,0c2,0.2,4.1,0.3,6.1,0.3c0.3,0,0.7,0.1,1,0.4
				c0.3,0.3,0.7,0.5,1,0.6c-4.6,0.2-9.3,0.3-13.9,0.4c-4.7,0.1-9.6,0.2-14.7,0.4c2.2-0.9,3.6-1.3,4.2-1.4c0.6-0.1,1.7-0.1,3.2-0.1
				c1.2,0,2.3,0,3.5-0.1C266.2,454.3,267.4,454.1,268.6,454z M294.1,453.2h-0.3l0.3,0.3V453.2z M298.7,487.5c0,0.2,0,0.3,0.1,0.3
				c0.1,0,0.1,0.1,0.1,0.3c0-0.2,0.1-0.3,0.3-0.3c0-0.3-0.1-0.5-0.3-0.5L298.7,487.5z M305.6,452.7c-0.3-0.7-0.9-0.9-1.5-0.8
				l-1.5,0.8c0.5,0.9,1,1.1,1.5,0.8C304.6,453.1,305.1,452.9,305.6,452.7z M303.6,457c0.3-0.7,0.6-1.1,0.8-1.3l-0.3-0.3
				c-0.2,0-0.3-0.1-0.5-0.3c-0.2,0.2-0.3,0.3-0.5,0.4c-0.2,0.1-0.3,0.2-0.5,0.4L303.6,457z M304.6,477.5c1.4,0.7,2.6,0.9,3.8,0.8
				c1.2-0.2,2.4-0.4,3.6-0.8c-1.2-0.3-2.4-0.6-3.6-0.8C307.3,476.6,306,476.8,304.6,477.5z M314.3,453.4c0.5,0,1,0,1.5,0.1
				c0.5,0.1,0.9-0.2,1.3-0.9c-1.4-0.5-2.6-0.8-3.7-0.8c-1.1,0-2.3-0.2-3.7-0.5c-1.4,0-2.7,0.4-4.1,1.3c0.3,1,0.5,1.8,0.5,2.3
				c0.3-0.3,0.7-0.6,1-0.9c0.3-0.3,0.7-0.4,1-0.4c1-0.2,2-0.2,3.1-0.1C312.3,453.7,313.3,453.6,314.3,453.4z M312,455.5l-0.3-0.3
				l-0.3,0.3H312z M316.1,477.5c0,0.2,0.1,0.3,0.3,0.3v-0.5h-0.5C315.9,477.4,316,477.5,316.1,477.5z M317.2,452.7
				c1.4,0.9,2,0.6,2-0.8h-2V452.7z M321.3,477.7c0.9,0.2,1.7,0.3,2.4,0.3c0.8,0,1.6,0.1,2.4,0.3c-0.7-1.4-1.5-1.9-2.3-1.5
				C323,477.1,322.1,477.4,321.3,477.7z M322.5,451.4c-0.2,0.2-0.3,0.3-0.5,0.3c-0.2,0-0.3,0.1-0.3,0.3c0,0.5,0.2,0.8,0.5,0.8
				c0.2,0,0.3,0,0.4-0.1c0.1-0.1,0.2-0.1,0.4-0.1c-0.2-0.2-0.3-0.3-0.3-0.5C322.8,451.7,322.7,451.6,322.5,451.4z M326.9,453.7
				l0.5-0.5c-0.2,0-0.3-0.1-0.5-0.3c-0.2,0-0.3,0.1-0.3,0.3C326.6,453.5,326.7,453.7,326.9,453.7z M329.4,455.5l-0.3-0.3
				c0-0.2-0.1-0.2-0.3,0c0,0.2,0.1,0.3,0.3,0.5L329.4,455.5z"/>
		</g>
		<g>
			<path class="st25" d="M453.4,461.8c-0.2,0.5-0.3,1.3-0.3,2.3l-6.1,2.3c0.7,2,0.9,3.4,0.6,4c-0.3,0.6-1.3,1.4-3.2,2.4
				c-0.3,0.2-0.7,0.3-1,0.4c-0.3,0.1-0.6,0.3-0.8,0.6c-1.2,1.4-2.5,2.2-3.8,2.4c-1.4,0.3-2.8,0.2-4.3-0.1h-0.5c-0.9,0-1.2,0.3-1,0.8
				c0.2,0.5,0.1,1-0.3,1.5c-1.9,0.2-3.8,0.3-5.6,0.4c-1.9,0.1-3.8,0.1-5.9,0.1v-0.8c1.4-0.3,2.8-0.6,4.2-0.6
				c1.4-0.1,2.9-0.3,4.2-0.6c-2.2-0.7-4.3-0.9-6.3-0.5c-2,0.3-4,0.5-6,0.5v0.3c-0.9-0.5-1.5-0.7-1.8-0.5c-0.3,0.2-0.8,0.7-1.3,1.5
				H414h-2c-0.5,0.3-1,0.6-1.4,0.9c-0.4,0.3-0.9,0.6-1.4,0.9c-0.7-0.5-1.3-1.1-1.9-1.7c-0.6-0.6-1.2-0.9-1.9-0.9
				c-1.2-0.2-2.4-0.2-3.7-0.1c-1.3,0.1-2.6,0.2-4,0.4c-0.7,0.2-1.4,0.3-2,0.4c-0.7,0.1-1.5,0.3-2.3,0.6c0,0.5-0.1,1.1-0.4,1.7
				c-0.3,0.6-0.3,1.2-0.1,1.9c0.3,2.6,0.3,5.1-0.1,7.5c-0.4,2.5-0.8,4.9-1.2,7.3c-0.2,1.4-0.2,2.3-0.1,2.8c0.1,0.5,0.4,1.7,0.9,3.6
				h5.1v-0.3h1v0.3c1.9-0.2,3.6-0.3,5.2-0.4c1.6-0.1,3.4-0.1,5.2-0.1c0.9,0,1.7,0.1,2.7,0.4c0.9,0.3,1.8,0.6,2.7,0.9
				c1.2,0.5,2.3,1.1,3.5,1.7c1.1,0.6,2.3,1.2,3.5,1.7c0.9,0.3,1.7,0.7,2.4,1c0.8,0.3,1.6,0.7,2.4,1c-0.3,0.3-0.6,0.7-0.8,1
				c-0.2,0.3-0.4,0.7-0.8,1h0.3h-0.3c-0.3,0.3-0.7,0.6-1,0.9c-0.3,0.3-0.7,0.6-1,0.9c1.2,0.3,2.3,0.7,3.5,1c1.1,0.3,2.3,0.8,3.7,1.3
				c-0.2,0.3-0.3,0.7-0.3,1.2c0,0.4-0.1,0.8-0.3,1.2c-0.5,0.9-1.1,1.6-1.7,2.2c-0.6,0.6-1.2,1.2-1.9,1.9c0,0.2,0,0.3-0.1,0.4
				c-0.1,0.1-0.1,0.3-0.1,0.6c0.2,2.9,0,4.6-0.5,5.2c-0.5,0.6-2.2,0.9-5.1,0.9c-0.2,0.2-1,0.3-2.6,0.5c1.2,0.5,1.9,0.9,2,1
				c0.3,0,0.7,0,1,0c0.3,0,0.9,0.1,1.8,0.3c-1.5,0.7-2.8,0.9-3.7,0.8c-0.9-0.2-1.8-0.4-2.7-0.8c-2.4-1-4-1.5-4.7-1.4
				c-0.8,0.1-2.3,0.6-4.5,1.4c-1.4,0.5-2.8,0.8-4.3,0.9c-1.5,0.1-3.1,0.1-4.6,0.1c-1,0.2-2,0.2-3.1,0c-1-0.2-2-0.3-3.1-0.5
				c-1.5,0-3.1,0.3-4.6,0.8c-1.4,0.5-1.8,1.6-1.3,3.3c0.3,0,0.7,0,1,0.1c0.3,0.1,0.8,0.1,1.3,0.1c3.4,0,6.9-0.1,10.5-0.3
				c3.6-0.2,7.2-0.3,10.7-0.3c0.9,0,1.7,0.1,2.7,0.3c0.9,0.2,2.1,0.4,3.5,0.8c-2.7,1.2-5.2,1.8-7.5,1.9c-2.3,0.1-4.6,0.2-6.8,0.4
				c-2.4,0.3-4.6,0.3-6.8-0.3c-2.1-0.5-4.3-1-6.5-1.5c-3.6,1-5.9,3.2-6.9,6.7c-0.5,1.7-1.1,3.4-1.7,5c-0.6,1.6-1.2,3.3-1.7,5
				c-0.2,0.3-0.2,0.7-0.1,1.2c0.1,0.4,0.1,1,0.1,1.7c2.4,0.2,4.6,0.1,6.7-0.1c2-0.3,4.1-0.6,6.1-0.9c3.1-0.7,6.2-1.1,9.3-1.3
				c3.2-0.2,6.4-0.2,9.8,0c2.9,0.3,5.7,0.7,8.4,1.2c2.7,0.4,5.4,1.3,7.9,2.7c0.3,0.7,0.6,1.4,0.9,2c0.3,0.7,0.6,1.4,0.9,2
				c0,0.2-0.2,0.6-0.5,1.3c1.2,0.7,2.3,1.4,3.3,2c2.2-0.5,3.7,0.3,4.3,2.3c-0.3,0.2-0.7,0.3-1,0.5c-0.3,0.2-0.7,0.3-1,0.5
				c0,0.3,0,0.6-0.1,0.8c-0.1,0.2,0,0.4,0.1,0.8c0.7,1.4,0.9,2.6,0.5,3.7c-0.3,1.1-0.9,2.3-1.5,3.5c-0.9,1.4-1.8,2.5-2.7,3.5
				c-0.9,0.9-2.3,1.3-4.2,1.2c-2.6,1.4-5.2,2-7.8,1.8c-2.6-0.2-5.3-0.2-8.1,0c-6.5,0.3-12.9,0.5-19.3,0.5c-6.4,0-12.8,0.3-19.3,1
				c-2,0.3-4.1,0.6-6.3,0.6c-2.1,0.1-4.2,0.2-6.3,0.4c-1.4,0-2.6-0.1-3.8-0.4c-1.2-0.3-2.3-0.8-3.3-1.7c-1-0.7-1.7-1.3-2-1.8
				c-0.2,0-0.3-0.3-0.3-0.8c-0.3-0.9-0.7-1.7-1.2-2.7c-0.4-0.9-0.7-1.8-0.9-2.7c-0.2-0.9-0.1-1.8,0.1-2.8c0.3-1,0.4-2,0.4-2.8
				c0-0.7-0.1-1.4-0.3-2c-0.2-0.7-0.3-1.4-0.5-2c-0.2-0.3-0.4-0.7-0.6-1c-0.3-0.3-0.6-0.7-0.9-1c-0.3-1.4-0.5-2.1-0.5-2.3
				c0.5-1.9,1-3.6,1.4-5.2c0.4-1.6,0.8-3.2,1.2-4.7c0.3-1.4,0.6-2.3,0.8-2.8v-0.3c0.7-3.1,1.5-6.1,2.3-9.1c0.9-3,1.7-6,2.6-9.1
				c2.4-7.2,3.7-15,4.1-23.5c0-0.7,0-1.4,0.1-2c0.1-0.7,0.3-1.4,0.6-2c2.2-4.6,3.7-9.2,4.3-13.8c0-0.3,0.2-1,0.5-2
				c1.4-1.4,2.4-2.8,3.1-4.3c0.7-1.5,1.2-3.2,1.5-5.1c1.4-0.3,2.2-1,2.6-1.9c0.3-0.9,0.7-1.8,1-2.7c0.3-0.5,0.5-1.1,0.5-1.8
				c0-0.7,0.2-1.4,0.5-2.3c-1.9-0.7-3.8-1.1-5.6-1.2c-1.9-0.1-3.6-1.1-5.1-2.9c0.3-0.7,0.8-1.3,1.3-1.8c0.3-0.3,0.7-0.7,1.2-1.2
				c0.4-0.4,0.5-1.1,0.1-1.9c-0.2-0.2,0-0.4,0.4-0.8c0.4-0.3,0.8-0.7,1.2-1c2.6-1.4,5.2-2.5,7.8-3.3c2.6-0.9,5.4-1.5,8.3-2
				c2.6-0.7,5.1-1.2,7.5-1.7c2.5-0.4,4.9-1,7.3-1.7c1.4-0.3,2.6-0.9,3.6-1.5c1-0.7,2.2-0.9,3.6-0.8c1.4,0,2.8,0,4.2-0.1
				c1.4-0.1,2.9-0.1,4.2-0.1h7.9c2.4,0.3,4.9,0.6,7.4,0.8c2.6,0.2,5.1,0.3,7.7,0.5c1.9,0.2,3.6,0.5,5.1,1s3.2,1,4.9,1.5
				c1.5,0.5,2.8,1.3,3.7,2.3c0.9,1,1.2,2.5,0.9,4.3l2.3,0.8c-0.3,0.3-0.7,0.7-1.2,1.2c-0.4,0.4-1,0.9-1.7,1.4c1,0.2,2,0.3,2.9,0.3
				C451.6,461.6,452.5,461.7,453.4,461.8z M347.5,560.6l-0.3-0.3v0.3H347.5z M364.9,477.9c0.5,0,0.9,0.1,1.3,0.3h-0.3
				c-0.2,0-0.3,0-0.5-0.1c-0.2-0.1-0.4-0.1-0.8-0.1v0.3v-0.3H364.9z M371.5,477.2c0.3-0.7,0.6-1.1,0.8-1.3c-0.2-0.3-0.4-0.7-0.8-1
				c-0.3,0.5-0.8,0.9-1.3,1.3C370.6,476.3,371,476.7,371.5,477.2z M389.4,448.3h-2h0.5H389.4z M398.9,586.4l0.3,0.3l-0.3,0.3V586.4z
				 M399.7,478.7h-0.3l0.3-0.3V478.7z M404.8,586.7c0.3,0,0.6,0,0.9-0.1c0.3-0.1,0.6-0.1,0.9-0.1v0.5h-1.8V586.7z M408.6,479.2
				c0.9-0.3,2-0.7,3.3-1v-1.5c-0.9,0.2-1.5,0.3-2,0.5C409.4,477.4,409,478,408.6,479.2z M416,478.2c-0.5,1-1.1,1-1.8,0H416h0.3H416z
				 M416.3,478.2c0.2-0.2,0.3-0.3,0.4-0.5c0.1-0.2,0.3-0.3,0.6-0.5v1H416.3z M441.1,478.5v0.3h-0.5L441.1,478.5z"/>
		</g>
		<g>
			<path class="st25" d="M569.8,492.3c0.5,4.9,0.2,9.7-1,14.3c-1.2,4.3-2.2,8.5-3.1,12.7c-0.9,4.2-1.8,8.4-2.8,12.7h0.3l-3.8,9.2
				c-0.2,0.3-0.3,0.6-0.3,0.9s-0.2,0.6-0.5,0.9c-2.7,4.9-5.6,9.7-8.6,14.3c-3,4.6-6.7,8.8-11.1,12.5c-2.9,2.4-5.9,4.6-9,6.8
				c-3.1,2.1-6.4,3.9-10,5.2c-1.4,0.5-2.7,1.1-4.1,1.7c-1.4,0.6-2.7,1.2-4.1,1.7c-1.4,0.3-2.8,0.7-4.2,1c-1.5,0.3-2.9,0.7-4.5,1
				c-1,0.3-2,0.6-3.1,0.6c-1,0.1-2,0.3-3.1,0.6c-2.6,0.9-5.2,1.5-7.8,1.8c-2.6,0.3-5.3,0.7-8.1,1c-0.5,0-1,0-1.5,0.1
				c-0.5,0.1-1,0-1.5-0.1c-2.9-0.3-5.8-0.8-8.6-1.3c-2.8-0.5-5.7-0.9-8.6-1.3c-0.9-0.2-2.1-0.6-3.8-1.3c-1.7-0.9-2.8-1.6-3.2-2.3
				c-0.4-0.7-0.6-2-0.4-3.8c0.3-1.2,0.4-2,0.3-2.6c-1.2-1.4-1.6-2.7-1.3-4.1c0.3-1.4,0.9-2.7,1.8-4.1h-0.3c0.9-2.4,1.5-4.9,1.9-7.4
				c0.4-2.6,1.2-5,2.4-7.4c0.3-0.3,0.6-0.7,0.9-1.2c0.3-0.4,0.6-0.8,0.9-1.2c1.2-0.3,1.8-1,1.9-1.9c0.1-0.9,0.1-1.8,0.1-2.7l-1-0.5
				c0.3-0.3,0.6-0.8,0.6-1.3c0.1-0.5,0.2-0.9,0.4-1.3v-0.3c0.2-0.3,0.3-0.7,0.4-1c0.1-0.3,0.3-0.7,0.6-1c1.2-0.9,1.8-1.4,1.9-1.8
				c0.1-0.3-0.2-1.2-0.9-2.6h0.3c0.3-0.9,0.5-1.7,0.5-2.7c0-0.9,0.3-1.7,1-2.4c0.3-0.5,0.7-0.9,1.2-1.3c0.4-0.3,0.6-0.9,0.4-1.5
				c-0.7-1-0.9-2.1-0.8-3.3c0.2-0.9,0.3-1.7,0.3-2.6c0-0.9,0.1-1.7,0.3-2.6c0.9-3.9,1.5-7.8,1.9-11.8c0.4-3.9,1.3-7.8,2.7-11.5h-0.3
				c0.3-3.7,1-7.4,2-11s2.1-7.2,3.3-10.7c0.3-0.7,0.8-1.3,1.3-1.8c-0.2,0.7-0.3,2-0.3,3.8c1.2-1.2,2-2,2.6-2.3h-0.3
				c0.2-0.3,0.3-0.7,0.5-1.2c0.2-0.4,0.3-0.8,0.5-1.2l-0.3-0.3c0,0.2,0.1,0.3,0.3,0.3c0.9-0.5,1.5-1.2,1.9-2.2
				c0.4-0.9,0.8-1.9,1.2-2.9c0.3-0.7,0.6-1.4,0.9-2.2c0.3-0.8,1.1-1.2,2.4-1.2c0.3,0,0.6-0.4,0.8-1.2c0.2-0.8,0.4-1.4,0.8-1.9
				l2.3-6.1c-0.3-1.2,0-1.8,1-1.8c3.1-0.3,5.3-1.6,6.7-3.8c0.5,0.7,1,1.2,1.4,1.7c0.4,0.4,0.9,0.9,1.4,1.4c1.4,0,2.8-0.2,4.2-0.5
				c1.4-0.3,2.9-0.3,4.2,0c0.5,0.2,1.1,0.1,1.7-0.3c0.6-0.3,1.2-0.7,1.7-1v0.3c1.5-0.3,3.1-0.6,4.7-0.6c1.6-0.1,3.2-0.3,4.7-0.6
				v-0.5c-1.2-0.7-2.4-1.1-3.6-1.3c0.5-0.5,0.7-0.8,0.5-0.8c2.9-0.5,5.7-0.6,8.3-0.1c2.6,0.4,5.3,1.1,8.1,1.9
				c3.1,0.9,6.1,1.8,9.1,2.8c3,1,5.8,2.6,8.6,4.9c1.9,1.5,3.6,3.2,5.1,4.9c1.5,1.7,2.7,3.7,3.6,5.9c1.7,3.6,3.2,7.2,4.5,11
				C568.6,484.5,569.4,488.4,569.8,492.3z M485.6,572.6c0.2,0,0.4-0.2,0.8-0.5c-0.2,0-0.3,0-0.3-0.1c0-0.1-0.1-0.1-0.3-0.1l-0.5,0.5
				L485.6,572.6z M490,570.3c1.7-0.3,3.3-0.7,4.7-1c1.4-0.3,2.9-1,4.2-2c-2,0.3-4.1,0.3-6.1-0.3c-2-0.5-4.1-0.3-6.1,0.8
				c0.7,0.5,1.3,1,1.8,1.4C488.9,569.6,489.5,569.9,490,570.3z M538.8,523.2c2.6-4.3,2.9-8.8,1-13.6v0.3c-0.3-0.9-0.6-1.7-0.9-2.6
				c-0.3-0.9-0.4-1.7-0.4-2.6c0-1.9-0.3-3.7-1-5.5c-0.7-1.8-1.5-3.6-2.3-5.5c-0.7-1.4-1.4-2.7-2-4.1c-0.7-1.4-1.4-2.8-2-4.3
				c-1.7-4.3-4.9-7.8-9.5-10.5c-0.5-0.3-1-0.6-1.5-0.8c-0.5-0.2-0.9-0.4-1.3-0.8c-1.4-1.4-2.9-2.3-4.6-2.7c-1.7-0.4-3.5-1-5.4-1.7
				c-1.9-0.5-3,0.2-3.3,2c-0.3,2.2-0.6,4.4-0.8,6.5c-0.2,2.1-0.3,4.3-0.3,6.5c-0.3,4.4-0.6,8.8-0.9,13c-0.3,4.3-1,8.6-2.2,13
				c-1.5,6.3-3.1,12.6-4.7,18.9c-1.6,6.3-3.5,12.6-5.8,18.9c-0.3,0.7-0.6,1.4-0.8,2.2c-0.2,0.8,0.1,1.7,0.8,2.7
				c1.4,0.3,2.6,0.3,3.8-0.3c1.2-0.5,2.5-0.8,3.8-0.8c-1,0.5-2.1,1.1-3.2,1.8c-1.1,0.7-2.4,1.5-4,2.3c1,0,1.8,0,2.4,0.1
				c0.6,0.1,1.1,0,1.4-0.1c2.9-0.9,5.8-1.7,8.7-2.6c2.9-0.9,5.7-2,8.4-3.3c8-3.9,14.7-9,20-15.1c0.3-0.7,0.7-1.4,1-2
				c0.3-0.7,0.7-1.4,1-2h0.3v-1l0.3,0.3c0,0.2-0.1,0.3-0.3,0.5c0.2-0.2,0.3-0.3,0.5-0.4c0.2-0.1,0.3-0.3,0.5-0.6
				c0.5-1,1-2.1,1.5-3.2C537.8,525.3,538.3,524.2,538.8,523.2z M498.7,551.9v-0.3h0.3v0.3H498.7z M507.9,548.8
				c-1.4,0.7-2.8,1.4-4.2,2c-1.5,0.7-3,0.9-4.7,0.8C501.5,550.1,504.5,549.1,507.9,548.8z M508.4,548.8h-0.5H508.4l0.3-0.3
				L508.4,548.8z M509.7,547.5l0.3,0.5c-0.2,0-0.6,0.2-1.3,0.5L509.7,547.5z M513.2,452.6l0.5,0.5H513c-0.2,0-0.3-0.2-0.3-0.5H513.2
				z"/>
		</g>
		<g>
			<g>
				<g>
					<path class="st26" d="M196.8,390.2c1.1-1.3,2.2-2.3,3.5-2.8c1.2-0.5,2.4-0.5,3.6,0c2.4,1.1,4.2,4.2,5.3,9.3
						c0.2,0.9,0.2,1.5,0.1,2c-0.3,0.7-0.8,1-1.7,0.9c-0.2,0-0.4-0.1-0.5-0.2c-0.1-0.1-0.2-0.3-0.1-0.5c0-0.2,0.1-0.4,0.3-0.5
						c0.2-0.1,0.3-0.2,0.6-0.2l0.1,0c0.1-0.2,0-0.5-0.1-1.2c-1-4.7-2.5-7.4-4.4-8.3c-0.8-0.4-1.7-0.3-2.7,0.1
						c-0.9,0.4-1.8,1.2-2.7,2.3c-2,2.4-3.3,5.5-4,9.1c-0.3,1.5-0.4,2.9-0.3,4.3c0.1,1.4,0.3,2.8,0.7,4.1c0.4,1.3,1.1,2.6,2,3.7
						c0.9,1.1,2.1,2,3.4,2.8c0.7,0.4,1.5,0.6,2.4,0.9c0.9,0.2,1.8,0.4,2.5,0.5c0.8,0.1,1.7,0.2,2.9,0.2c1.2,0,2.1,0,2.8,0
						c0.7,0,1.7-0.1,3.1-0.1c0.9,0,1.5-0.1,2.1-0.1l-0.1-0.3c-0.7-2.4-1.1-5-1.4-7.8c-0.3-2.7-0.4-5.3-0.3-7.6
						c0.1-2.3,0.3-4.3,0.8-6c0-0.2,0.2-0.3,0.3-0.4c0.2-0.1,0.4-0.1,0.6-0.1c0.1,0,0.2,0.1,0.3,0.2c0.1,0.1,0.2,0.2,0.2,0.3
						c0,0.1,0,0.2,0,0.4c-0.6,2.5-0.8,5.7-0.7,9.6c0.1,3.9,0.7,7.6,1.6,11.1l0.1,0.6c2.7-0.1,4.9,0,6.5,0.4c3.1,0.7,5.6,1.6,7.4,2.7
						c1.8,1.1,3.1,2.3,3.7,3.7c0.6,1.2,0.7,2.4,0.3,3.6c-0.4,1.1-1.1,2-2.2,2.7c-1.1,0.7-2.4,1.1-3.9,1.1c-1.5,0-3.1-0.4-4.9-1.2
						c-3.5-1.8-6.1-5.6-8-11.3c-1,0-1.8,0.1-2.4,0.1c-1.4,0.1-2.5,0.1-3.2,0.2c-0.7,0-1.7,0-3,0c-1.2,0-2.3-0.1-3.1-0.2
						c-0.8-0.1-1.7-0.3-2.7-0.5c-1-0.2-1.8-0.6-2.6-1c-1.2-0.6-2.3-1.4-3.2-2.4c-0.9-0.9-1.6-2-2.2-3c-0.5-1.1-0.9-2.3-1.2-3.5
						c-0.2-1.3-0.4-2.5-0.4-3.7c0-1.2,0.1-2.5,0.4-3.8C193.2,396.1,194.7,392.8,196.8,390.2z M223.2,418.2c-1.4-0.3-3.3-0.4-5.7-0.4
						c1.7,5.2,4.1,8.5,7.1,10.1c1.5,0.7,2.9,1.1,4.1,1.1c1.2,0,2.3-0.3,3.2-0.9c0.8-0.5,1.3-1.2,1.6-1.9c0.3-0.8,0.2-1.6-0.2-2.4
						c-0.5-1.1-1.6-2.2-3.3-3.2C228.4,419.6,226.1,418.8,223.2,418.2z"/>
				</g>
			</g>
			<g>
				<g>
					<path class="st26" d="M213,391.8l0.2,0c0.2,0,0.3,0.1,0.5,0.3c0.1,0.2,0.2,0.3,0.2,0.6c0,0.2-0.1,0.3-0.3,0.4
						c-0.2,0.1-0.3,0.2-0.5,0.1l-0.2,0c-0.2,0-0.4-0.1-0.5-0.3c-0.1-0.2-0.1-0.4-0.1-0.6c0-0.1,0-0.2,0.1-0.3
						c0.1-0.1,0.2-0.2,0.3-0.2C212.8,391.8,212.9,391.8,213,391.8z M214,394.5c-0.1-0.2-0.2-0.4-0.1-0.6s0.1-0.4,0.3-0.5
						c0.4-0.3,0.7-0.2,1,0.2c0.5,0.7,0.9,1.3,1.2,1.8c0.3,0.5,0.6,0.9,0.8,1.2c0.2,0.3,0.4,0.6,0.6,0.8c0.3-0.2-0.5-2.9-2.3-8.1
						c-0.2-0.7-0.4-1.2-0.5-1.5c-0.1-0.2-0.1-0.4,0-0.6c0.1-0.2,0.2-0.3,0.4-0.3c0.4-0.1,0.6,0,0.9,0.3l0.6,0.8
						c-0.3-1.2-0.4-2.2-0.4-3c0-0.5,0.1-1,0.2-1.3c0.2-0.6,0.6-0.8,1.2-0.8c0.4,0.1,0.7,0.3,1.1,0.6c0.5,0.5,0.9,0.6,1.1,0.6
						c0.2-0.1,0.3-0.4,0.3-0.9c0-1.6-0.4-4.3-1.3-8c0-0.2,0-0.4,0.1-0.6c0.1-0.2,0.3-0.3,0.5-0.4c0.2,0,0.4,0,0.5,0.1
						c0.2,0.1,0.3,0.3,0.3,0.4c0.9,3.9,1.3,6.8,1.3,8.5c0,1-0.2,1.8-0.4,2.2c-0.3,0.5-0.7,0.7-1.2,0.6c-0.6-0.1-1.3-0.6-2.2-1.5l0,0
						c0,0.1,0,0.3,0,0.5c0,1.8,0.6,4.1,1.8,7.1c0.2,0.4,0.1,0.7-0.2,0.9c-0.4,0.3-0.7,0.2-1-0.1c-0.1-0.2-0.3-0.4-0.5-0.7
						c1.1,3.8,1.3,5.9,0.6,6.3C217.9,399.1,216.3,397.8,214,394.5z"/>
				</g>
			</g>
			<g>
				<g>
					<path class="st26" d="M222.8,361.2c0.1-0.1,0.3-0.2,0.5-0.2c0.2,0,0.4,0.1,0.5,0.2c0.1,0.1,0.2,0.3,0.2,0.5l0,0.9
						c0,1.7,0,3.1,0,4.2c0,1.2-0.1,2.6-0.2,4.3c-0.1,1.7-0.3,3.1-0.6,4.2c-0.3,1.1-0.7,1.8-1.1,2.1c-0.4,0.3-0.8,0.4-1.3,0.2
						c-0.4-0.2-0.8-0.5-1.1-1.2c-0.2-0.5-0.3-1.1-0.4-1.7c-0.2-1.2-0.1-2.4,0.1-3.7c0.2-1.3,0.6-2.3,1.3-3.1
						c0.1-0.2,0.3-0.3,0.5-0.3c0.2,0,0.4,0,0.5,0.2c0.1,0.1,0.2,0.3,0.2,0.5c0,0.2,0,0.4-0.2,0.6c-0.5,0.6-0.8,1.5-1,2.6
						c-0.2,1.1-0.2,2.1-0.1,3.1c0,0.3,0.1,0.5,0.1,0.8c0,0.2,0.1,0.4,0.2,0.6c0.1,0.2,0.2,0.3,0.2,0.3l0,0c0.9-0.6,1.3-5.1,1.2-13.6
						l0-0.9C222.6,361.5,222.7,361.4,222.8,361.2z"/>
				</g>
			</g>
			<g>
				<g>
					<path class="st26" d="M226.4,347.3c0.1,0,0.3,0,0.4,0.1c0.1,0.1,0.2,0.1,0.3,0.3c0.1,0.1,0.1,0.2,0.1,0.3
						c0.5,7.2,0.1,12.1-1,14.5c-0.4,0.9-0.9,1.3-1.6,1.4c-0.7,0.1-1.2-0.3-1.6-1c-0.3-0.5-0.5-1.2-0.6-2.2c-0.1-0.9,0-1.9,0.2-2.9
						c0.2-0.9,0.4-1.5,0.8-1.8c0.6-0.5,1.2-0.4,1.6,0.3c0.2,0.3,0.3,0.7,0.4,1.3c0.1,0.6,0.1,1.2-0.2,2c-0.2,0.8-0.6,1.4-1.1,1.8
						c0.1,0.3,0.2,0.6,0.3,0.8c0.1,0.2,0.2,0.2,0.2,0.3c0.1,0,0.2-0.2,0.4-0.6c1-2.2,1.3-6.8,0.9-13.8c0-0.1,0-0.2,0.1-0.3
						c0-0.1,0.1-0.2,0.1-0.2c0.1-0.1,0.1-0.1,0.2-0.2C226.2,347.3,226.3,347.3,226.4,347.3z"/>
				</g>
			</g>
			<g>
				<g>
					<path class="st26" d="M239.7,326.4c0,0.1-0.1,0.2-0.2,0.3c-1.9,1.4-3.2,3.3-3.8,5.8l-0.2,0.9c-0.5,2.1-0.8,3.9-0.8,5.3
						c-0.2,0.7-0.5,1-0.8,0.9c-0.2-0.1-0.5-0.3-0.7-0.6l-1.1-1.5c-2.8-3.4-5.5-6.3-8.1-8.9c-3.7-3.5-6.6-5.5-8.7-6
						c-0.3-0.1-0.5-0.1-0.7-0.1c-0.8,0-1.4,0.3-1.8,1c-0.1,0.2-0.2,0.4-0.3,0.7c-0.1,0.5-0.1,1.1,0,1.8s0.6,1.6,1.4,2.7
						c1.3,1,2.1,1.7,2.4,2.3c0.1,0.2,0.1,0.4,0.2,0.6c0,0.2,0,0.3,0,0.4c0,0,0,0.1-0.1,0.2c-0.1,0.1-0.3,0.1-0.5,0.1l-0.2-0.1
						l-0.4-0.4c-0.8-0.7-1.6-1.5-2.3-2.5c-0.7-1-1.1-2-1.3-3c-0.1-0.6-0.1-1.3,0.1-2c0.1-0.5,0.4-1,0.7-1.6c0.6-0.8,1.4-1.3,2.4-1.2
						c0.3,0,0.7,0.1,1,0.1c0.6,0.2,1.3,0.4,2,0.8c2,1.1,4.3,2.8,6.9,5.3c1.9,1.9,3.7,3.7,5.2,5.4c2.3,2.4,3.8,4,4.4,4.8
						c0.2-1.8,0.4-3.4,0.8-4.9c0.8-3.3,2-5.8,3.8-7.6c0.2-0.1,0.3-0.1,0.4,0c0.3,0.1,0.5,0.3,0.5,0.6
						C239.7,326.3,239.7,326.3,239.7,326.4z"/>
				</g>
			</g>
			<g>
				<g>
					<path class="st26" d="M241.6,321c-0.2,0.7-0.6,1.2-1.3,1.6c-1.4,0.7-3.5,0.7-6.2,0.1c-3-0.7-6.2-2.2-9.7-4.6
						c-1.5-1-2.9-2.1-4.1-3.2c-0.8-0.7-1.4-1.4-2-2l-0.6-0.1l0.1-0.4l-0.4-0.4c-0.6-0.6-0.9-1-1.1-1.3c-0.1-0.1-0.1-0.3,0-0.4
						c0-0.1,0.1-0.2,0.2-0.4c0.1-0.2,0.3-0.3,0.6-0.3c0.1,0,0.2,0,0.2,0c0.2,0,0.3,0.2,0.4,0.3c0.2,0.2,0.5,0.5,0.8,0.9
						c0.3-0.5,0.6-0.9,1-1.2c0.8-0.6,1.9-1,3.1-1.1c1.5-0.2,3.2-0.1,4.9,0.4c0.9,0.2,1.8,0.5,2.7,0.9c2.7,1.1,5.2,2.7,7.5,4.8
						c2.5,2.3,3.8,4.3,3.8,6.1C241.6,320.7,241.6,320.8,241.6,321z M240.7,320.5c0-0.1,0-0.1,0-0.2c0-0.8-0.3-1.7-0.9-2.6
						c-0.6-0.9-1.4-1.8-2.5-2.7c-1.1-0.9-2.2-1.8-3.5-2.6c-2.2-1.3-4.4-2.3-6.6-2.8c-0.3-0.1-0.9-0.2-1.7-0.4
						c-0.8-0.2-1.7-0.2-2.8-0.1c-1.1,0.2-2,0.5-2.7,1c-0.4,0.3-0.7,0.7-0.9,1.2c0.8,0.9,1.5,1.6,2.2,2.3c2.9,2.7,5.5,4.7,8,6
						c1.7,0.8,3.3,1.5,5,1.8c1.1,0.3,2,0.4,2.9,0.4c1.1,0,1.9-0.1,2.5-0.4C240.3,321.3,240.6,321,240.7,320.5z"/>
				</g>
			</g>
			<g>
				<g>
					<path class="st26" d="M245.9,307.4c0,0.1-0.1,0.3-0.3,0.4c-0.2,0.2-0.6,0.2-1.1,0.1l0,0c-5.3-1.4-10.2-3-14.6-4.8
						c-4.4-1.9-7.9-3.9-10.6-6c2.8,4.4,5.7,7.6,8.9,9.6l0.1,0.1c0,0.1,0.1,0.1,0,0.2c0,0.1-0.1,0.1-0.4,0.1l-0.1,0l-1.1-0.8
						c-0.7-0.5-1.6-1.3-2.6-2.2c-2.6-2.4-4.7-5-6.4-7.9c-0.1-0.2-0.1-0.3-0.1-0.4c0.1-0.2,0.3-0.3,0.6-0.3l0.3,0
						c2.4,2,5.9,4,10.5,5.9s9.8,3.6,15.9,5.1c0.4,0.1,0.6,0.3,0.7,0.6C245.9,307.2,245.9,307.3,245.9,307.4z"/>
				</g>
			</g>
			<g>
				<g>
					<path class="st26" d="M249.2,295.6c-0.2,0.7-0.5,1.3-1.1,1.7c-0.4,0.3-1,0.6-1.6,0.7c-0.4,0.1-0.9,0-1.4-0.1
						c-0.4-0.1-0.8-0.2-1.2-0.4c-1-0.4-2.2-1-3.5-1.8c-1.2-0.7-2.4-1.6-3.7-2.5c-0.7,0.8-1.4,1.4-2,1.9c-0.6,0.5-1.2,0.9-1.9,1.2
						c-0.9,0.4-1.9,0.4-2.8,0.2c-0.9-0.2-1.6-0.6-2.3-1.2c-1.4-1.2-2.3-2.7-2.6-4.4c-0.4-2.2-0.3-4.4,0.2-6.8l0-0.1
						c-0.4-0.4-0.9-0.8-1.2-1.2c-0.4-0.4-0.7-0.7-1-0.9l-0.4-0.4c-0.2-0.3-0.2-0.6-0.2-0.8c0,0,0-0.1,0.1-0.2c0-0.1,0.2-0.2,0.4-0.2
						c0.1,0,0.1,0,0.2,0c0.1,0,0.3,0.1,0.4,0.3l2,1.8l0.2-0.6c0.2-0.5,0.5-0.7,0.7-0.6c0.2,0,0.3,0.4,0.3,0.9l-0.1,0
						c0,0-0.1,0.1-0.2,0.1c-0.1,0.1-0.1,0.1-0.2,0.2c-0.1,0.1-0.1,0.2-0.2,0.4c0,0,0.1,0.1,0.1,0.1c3.6,3.3,7,6.2,10.2,8.6
						c0,0,0.1-0.1,0.1-0.1l0.3-0.2c0.9-0.9,1.8-1.6,2.9-2.2c1.1-0.6,2.2-0.8,3.5-0.7c0.2,0,0.4,0.1,0.7,0.1c1.1,0.3,2,0.8,2.9,1.6
						c0.9,0.8,1.5,1.8,1.8,2.9C249.3,293.8,249.4,294.7,249.2,295.6z M235.9,292.4c-1.2-0.9-2.3-1.8-3.5-2.8
						c-0.9-0.7-1.8-1.4-2.6-2.1c-1.3-1-2.5-2-3.6-3c-0.1,0.2-0.1,0.4-0.2,0.7c-0.2,0.9-0.3,1.8-0.4,2.9c0,1.1,0.1,2.2,0.5,3.4
						c0.4,1.2,1.1,2.2,2.1,3c0.5,0.4,1.1,0.7,1.8,0.9c0.1,0,0.3,0.1,0.7,0.1c0.4,0.1,1,0,1.7-0.3c0.4-0.2,0.9-0.5,1.3-0.9
						c0.4-0.4,0.9-0.8,1.4-1.3L235.9,292.4z M248.6,295.4c0.1-0.6,0.1-1.3-0.2-2.1c-0.3-0.9-0.9-1.8-1.9-2.6
						c-0.8-0.6-1.6-1.1-2.5-1.3c-0.2,0-0.3-0.1-0.5-0.1c-1-0.1-2,0.1-2.9,0.6c-0.9,0.5-1.8,1.2-2.8,2.1l-0.1,0.1
						c3.5,2.7,6.2,4.2,7.9,4.6c0.5,0.1,0.9,0.2,1.1,0.1c0.5-0.1,0.8-0.2,1.1-0.4C248.2,296.3,248.4,295.9,248.6,295.4z"/>
				</g>
			</g>
		</g>
		<g>
			<g>
				<g>
					<path class="st26" d="M485.9,391c0,0.7,0.2,1.1,0.5,1.3c-0.4,0.3-0.5,0.7-0.5,1.2c0.1,0.5,0,0.9-0.2,1.3
						c-0.5-2.2-0.5-4.6,0-7.1c0.2,0.4,0.2,0.7,0.2,1c0,0.3,0,0.5,0.1,0.8L485.9,391z M485.8,396.4c0,0.1,0,0.1-0.1,0.2
						c0,0-0.1,0.1-0.1,0.2c-0.1-0.1-0.1-0.1-0.2-0.1c0,0-0.1,0-0.2-0.1c0.1-0.1,0.1-0.1,0.1-0.2c0,0,0-0.1,0.1-0.2L485.8,396.4z
						 M485.9,399.4c-0.5-0.3-0.6-0.9-0.2-1.9c0.1,0.5,0.1,0.8,0.1,1.1C485.8,398.9,485.8,399.2,485.9,399.4z M485.7,401l0.1,0.2
						h-0.2L485.7,401z M485.8,386.1h-0.1l0-1.5h0.1L485.8,386.1z M490.6,378.6c0.4-0.4,0.7-0.5,1.1-0.5c0.3,0.1,0.7,0.2,1.1,0.2
						l0,0.8c0.3,0,0.5,0,0.6,0.1c0.1,0.2,0.2,0.3,0.2,0.4c0.1,0.1,0.1,0.2,0.1,0.4c0.2,0.5,0.3,1,0.4,1.5c0.1,0.5,0.3,1,0.6,1.3
						c0.3,0.4,0.5,0.8,0.6,1.2c0.1,0.4,0.2,0.8,0.4,1.2c0.2,0.5,0.3,0.9,0.3,1.4c0,0.5,0.1,1,0.2,1.5c0.2,1.5,0.3,3,0.5,4.4
						c0.2,1.5,0.4,3,0.5,4.4c0.2,1.5,0.3,2.9,0.5,4.3c0.2,1.4,0.3,2.8,0.5,4.2c0,0.1,0.1,0.2,0.2,0.4c0-0.3,0-0.6,0.1-0.9
						c0.1-0.3,0.1-0.6,0.1-0.9c-0.1-1.8-0.1-3.6-0.2-5.4c0-1.8-0.1-3.6-0.1-5.4c0-0.2,0-0.5,0.1-0.8c0.2,0.2,0.3,0.3,0.4,0.4
						c0.1,0.1,0.1,0.2,0.1,0.4c0.2,1.5,0.5,2.9,0.8,4.3c0.3,1.4,0.4,2.9,0.4,4.4c0,0.2,0,0.5,0.1,0.7c0.1,0.2,0.1,0.5,0.1,0.7
						l0.4,1.4c0.1,0.9,0.2,1.9,0.2,2.9c0.1,1,0.1,2,0,3c0,0.5,0.3,1,0.8,1.4l0-0.2v0.1c-0.2,0.4-0.1,0.7,0.2,0.9
						c0.2,0.2,0.5,0.3,0.7,0.4c0.2,0.1,0.5,0.2,0.8,0.3c0.9,0.2,1.7,0.3,2.6,0.5c0.9,0.2,1.7,0.4,2.6,0.5c-0.1-0.2-0.1-0.3-0.1-0.4
						c0-0.1,0-0.2-0.1-0.4c0.1,0,0.2,0,0.2-0.1c0.1,0,0.2-0.1,0.2-0.1c1.3,0.3,2.6,0.6,3.9,0.9c1.3,0.3,2.6,0.6,3.8,1
						c0.8,0.2,1.5,0.4,2.2,0.6c0.7,0.2,1.4,0.2,2.1,0c0.3-0.3,0.5-0.8,0.5-1.5c-0.2-1.1-0.3-2.1-0.3-3.2c0-1-0.1-2.1-0.3-3.2
						c-0.2-1.2-0.4-2.4-0.7-3.4c-0.2-0.7-0.3-1.4-0.2-2.2c0.1-0.7,0.1-1.5,0-2.2c0.2,0.2,0.3,0.3,0.3,0.5c0,0.2,0.1,0.4,0.3,0.5
						l0.2-0.1c0.1-0.4,0.2-0.8,0.2-1.2c0.1-0.4,0.1-0.9,0.1-1.3c0.1-0.6,0.1-1.2,0.1-1.8c0-0.5,0-1.1,0.1-1.8c0.9,0.4,1.4,1,1.4,1.7
						c0,0.7,0.2,1.4,0.5,2c0.3-0.6,0.5-1.3,0.5-1.9c0-0.7,0.1-1.3,0.2-1.9c0.4,0.3,0.7,0.5,0.8,0.5c0.2,0,0.5,0.1,1.2,0.1
						c0.4,0.5,0.6,1.2,0.6,1.9c0,0.7,0.3,1.3,0.9,1.9l0.5-0.5c0.1-0.4,0.1-1,0.1-1.9c0-0.3,0.2-0.5,0.5-0.7c0.4-0.2,0.4-0.4,0.3-0.8
						c0.5,0.3,0.7,0.7,0.8,1.1c0.1,0.4,0.2,0.8,0.4,1.2c0.2,0.3,0.3,0.6,0.3,0.9c0,0.3,0.1,0.6,0.3,0.8c0.5,0.9,1,1.9,1.5,2.8
						c0.5,0.9,1,1.8,1.6,2.7c0.1-0.1,0.2-0.1,0.2-0.1c0.1,0,0.2-0.1,0.4-0.2c0.5,0.7,0.8,1.6,0.9,2.8c0.2,1.7,0.4,3.4,0.8,5
						c0.4,1.6,0.7,3.3,1.1,5c0.2,1.2,1,1.9,2.3,2.1c1.3,0.4,2.7,0.7,4.1,1.1c1.4,0.3,2.8,0.7,4.1,1.1c1.1,0.3,2.2,0.6,3.3,0.9
						c1.1,0.3,2.2,0.6,3.3,0.9c0.5,0.2,1.1,0.5,1.6,0.8c-0.8-0.2-1.5-0.3-2.3-0.6c-0.7-0.2-1.5-0.4-2.3-0.6c-0.6,0-1.1,0.1-1.5,0.2
						c0.4,0.2,0.7,0.3,1,0.4c0.3,0.1,0.6,0.3,0.9,0.4c0.9,0.3,1.7,0.6,2.5,0.8c0.8,0.2,1.6,0.5,2.3,0.9c1.2,0.5,2.5,0.9,3.7,1.2
						c1.2,0.3,2.5,0.7,3.7,1.1c0.8,0.2,1.4,0.5,1.8,0.8c0.2,0.1,0.3,0.2,0.4,0.4c0.1,0.2,0.3,0.4,0.4,0.6c-0.3,0.2-0.6,0.3-0.8,0.3
						c-0.2,0-0.4,0.1-0.6,0.3c0,0.1,0,0.2-0.1,0.3c0,0.1,0,0.2,0.1,0.3l1.4,1.8c-0.2,0.5-0.4,0.8-0.4,0.9c0,0.2,0,0.4,0.1,0.8
						c-0.2,0-0.4,0-0.6,0.1c-0.2,0-0.4,0.1-0.8,0.2l0.9,0.9c-1.4,0.1-2.7-0.1-4-0.6c-1.2-0.5-2.6-0.8-4-1.1c0.5,0.6,1,1,1.5,1.2
						c0.5,0.2,1.1,0.4,1.5,0.5c0.6,0.2,1.2,0.3,1.8,0.5c0.5,0.2,1.1,0.4,1.6,0.5h0.1v0.5h-0.1c-0.2,0.5-0.4,0.8-0.8,0.7
						c-0.4-0.1-0.7-0.1-1.1-0.1c-0.3,0-0.6,0.2-0.9,0.5c-0.1,0.1-0.3,0.1-0.6,0.1c-0.5,0-1,0-1.5,0c-0.5,0-1-0.1-1.5-0.2
						c-0.5-0.2-0.9-0.1-1.4,0.1c-0.5,0.2-0.9,0.2-1.4-0.2l-18.9-4.9c-0.6-0.2-1.3-0.3-1.9-0.3c-0.7,0-1.3-0.1-1.9-0.3
						c0.3,0.4,0.6,0.6,1,0.6c0.4,0,0.7,0.1,1,0.2c1.7,0.5,3.4,1,5,1.5c1.6,0.4,3.3,0.9,4.9,1.5c0.6,0.2,1.1,0.4,1.4,0.8
						c-1.6-0.4-3.2-0.8-4.8-1.3c-1.6-0.5-3.3-0.9-4.9-1.3c-1.2-0.3-2.5-0.6-3.7-0.8c-1.2-0.2-2.4-0.5-3.7-0.8
						c-0.4-0.1-0.7-0.1-1.1,0c-0.3,0.1-0.7,0.1-1.1,0c-0.4-0.2-0.8-0.3-1.1-0.4c-0.4-0.1-0.7-0.3-1.1-0.4h-0.1
						c-2-0.5-4.1-1.1-6.1-1.6c-2.1-0.5-4.1-1.1-6.1-1.8c-0.6-0.2-1.2-0.4-1.9-0.6c-0.6-0.2-1.2-0.5-1.9-0.7
						c-0.9-0.3-1.7-0.6-2.5-0.8c-0.8-0.2-1.6-0.5-2.5-0.8v0.1h-0.6l0.1-0.1c-0.4-0.2-0.9-0.4-1.5-0.7c-0.2-0.2-0.3-0.3-0.5-0.4
						c-0.2-0.1-0.4-0.2-0.5-0.3c-0.5-0.1-1-0.2-1.4-0.5c-0.4-0.2-0.8-0.5-1.3-0.8c-0.2,0.5-0.5,1.1-0.7,1.6
						c-0.2,0.5-0.5,1.1-0.8,1.8c-0.2,0.4-0.7,0.5-1.3,0.4c-0.6-0.2-1.2,0-1.6,0.6c-0.2-0.2-0.3-0.3-0.5-0.4
						c-0.2-0.1-0.4-0.2-0.6-0.3c-0.2-0.1-0.4-0.1-0.6-0.1c-0.2,0-0.5,0.1-0.7,0.1c-0.5-1.9-0.8-3.7-0.9-5.6
						c-0.1-1.9-0.3-3.8-0.6-5.7c-0.5,0.3-0.6,0.7-0.5,1.3c0.1,0.7,0.1,1.4,0,2c-0.1,0.7-0.2,1.3-0.2,2c-0.2-0.3-0.4-0.6-0.5-0.9
						c-0.1-0.3-0.2-0.6-0.2-0.9c-0.1-0.4-0.1-0.7-0.1-1.1c0-0.3-0.2-0.6-0.5-0.9h-0.1h0.1c0.2-0.5,0.3-0.9,0.3-1.4
						c0.1-0.5,0-1-0.2-1.5l-0.1,0.1v-0.1h0.1c0.2-0.2,0.2-0.5,0-0.8c-0.1,0-0.1,0-0.1,0.1v-0.1h0.1c-0.2-0.9-0.3-1.4-0.4-1.6
						c-0.1-0.2-0.3-0.6-0.7-1.1c0.6-0.2,0.8-0.7,0.6-1.5v0.1v-0.1c-0.2,0-0.3,0-0.4-0.1c0.1-0.1,0.1-0.1,0.2-0.1c0,0,0.1,0,0.2-0.1
						v-0.1l0-2.1l-0.4-0.4c0-0.4,0-0.7,0-1.1c0-0.3,0-0.7-0.1-1.1v-0.1v0.1c0.6-0.7,0.9-1.6,0.9-2.7l0-7.7c0-0.4,0-0.7-0.1-1.1
						c-0.1-0.3-0.2-0.7-0.2-1.1c0.2-0.2,0.2-0.4,0.2-0.6c0.1-1.3,0.1-2.7,0.1-4c0-1.4,0-2.7,0.2-4c0.2-0.9,0.4-1.7,0.8-2.6
						c0.3-0.9,0.9-1.6,1.6-2.2c0.2,0,0.5,0,0.7,0.1C490.2,378.8,490.4,378.7,490.6,378.6z M486.5,392.1v0.1h-0.1L486.5,392.1v0.1
						V392.1z M486.7,414.7c-0.4-0.2-0.4-0.4,0-0.7V414.7z M498.4,408.9l-0.1,0.1h0.1V408.9z M519.6,398.9c-0.1,0-0.1,0-0.1-0.1
						c0,0,0-0.1-0.1-0.1c0-0.1,0-0.2,0.1-0.2c0.1,0,0.1,0,0.1,0.1V398.9z M524.3,432.7h-0.1c-0.1,0-0.2,0-0.2,0.1h0.2
						C524.2,432.8,524.3,432.8,524.3,432.7z M531.9,433.3l-0.1-0.1L531.9,433.3z M539.3,421.8c0-0.2,0-0.2-0.1-0.2
						c-0.1,0-0.1,0-0.1,0.1c0,0,0,0.1-0.1,0.1c0.1,0.1,0.2,0.1,0.2,0.1H539.3z M542.3,422.4l-0.1,0.1h0.1V422.4z M545.2,423.3v0.1
						l0.1-0.1H545.2z M557.2,425.2c-0.3,0-0.8-0.1-1.4-0.2c-0.1-0.1-0.2-0.1-0.2-0.1l0.4,0l1.4,0.4c0.2,0.1,0.4,0.2,0.6,0.2
						c0.2,0.1,0.5,0.2,0.7,0.2c0.2,0.1,0.5,0.2,0.7,0.2c0.2,0.1,0.5,0.2,0.7,0.2h0.1H560c-0.2-0.1-0.5-0.2-0.8-0.2
						c-0.3-0.1-0.5-0.2-0.8-0.2c-0.2-0.1-0.4-0.1-0.6-0.2C557.7,425.5,557.5,425.4,557.2,425.2z"/>
				</g>
			</g>
			<g>
				<g>
					<path class="st26" d="M512.5,312.4c-0.9-0.6-1.7-0.9-2.6-0.8c-0.9,0.1-1.7,0-2.6-0.3l6.9,0c0.7,0.1,1.4,0.1,2.1,0.2
						c0.7,0,1.4,0.1,2,0.3c0.2,0,0.4,0,0.6-0.1c0.2,0,0.3,0.1,0.4,0.5l0.4,0h0.4c0.4-0.3,0.8-0.4,1.2-0.3c0.4,0.1,0.8,0.3,1.2,0.4
						h0.1h-0.1c0.2,0.1,0.3,0.2,0.5,0.2c0.2,0.1,0.3,0.1,0.5,0.1c0.9,0.2,1.7,0.3,2.4,0.3c0.7,0,1.5,0.1,2.4,0.2
						c1.1,0.2,2.1,0.2,3.2,0.2c1,0,2.1,0,3.2,0.1c0.6,0.1,1.3,0.2,1.9,0.3c0.7,0.1,1.3,0.3,1.9,0.4c1.1,0.2,2.1,0.3,3.2,0.3
						c1,0.1,2.1,0.2,3.2,0.2c2.3,0.2,4.5,0.5,6.6,0.7c2.1,0.2,4.3,0.5,6.6,0.8c2,0.2,4,0.6,6,1.1c0.5,0.1,0.9,0.2,1.3,0.4
						c0.4,0.2,0.8,0.4,1.2,0.5c-0.3,0.1-0.6,0.2-0.9,0.2c-0.3,0.1-0.4,0.4-0.4,0.9c-0.9,0.2-1.8,0.1-2.7-0.2
						c-0.9-0.3-1.9-0.2-2.9,0.2c0.4,0.4,0.7,0.6,1.1,0.8c0.3,0.1,0.7,0.2,1.1,0.3c0.9,0.2,1.8,0.3,2.7,0.4c0.9,0.1,1.8,0.3,2.7,0.5
						c0.4,0.1,0.8,0.3,1.1,0.5c0.4,0.3,0.8,0.6,1.2,0.9c-0.3,0.1-0.5,0.2-0.7,0.2c-0.2,0.1-0.3,0.1-0.5,0.1
						c-0.3,0.1-0.9,0.1-1.6,0.1c0.4,0.5,0.7,1,1.1,1.4c0.3,0.4,0.7,0.8,1.1,1.2c-0.4,0.2-0.5,0.4-0.4,0.6c0.1,0.3,0.3,0.6,0.4,0.9
						c-0.3,0-0.6,0-0.8,0.1c-0.2,0-0.5,0.1-0.8,0.1l0,0.9c-1.4-0.2-2.8-0.3-4.2-0.5c-1.4-0.2-2.8-0.3-4.4-0.5
						c0.9,1.1,1.7,1.7,2.6,1.8c0.2,0,0.4,0,0.6,0.1c0.2,0.1,0.4,0.2,0.5,0.2c0,0.5,0,0.8-0.1,0.9c-0.7-0.5-1.4-0.4-2.2,0.1
						c0.3,0.3,0.6,0.6,0.8,0.9c-0.9,0-1.6,0-2.3,0.1c-0.7,0-1.4,0-2.1-0.2c-0.8-0.2-1.5-0.4-2.3-0.5c-0.7-0.1-1.5-0.2-2.3-0.3
						c-0.2,0-0.4,0.1-0.7,0.2v-0.1c-0.3,0.1-0.7,0.1-1.3,0.1l-0.5,0c-1.2-0.2-2.3-0.3-3.5-0.5c-1.2-0.2-2.4-0.3-3.7-0.4
						c0.2,0.5,0.4,0.8,0.4,1.1c-0.6,0.2-1,0.7-1.2,1.8c-0.2,1.1-0.3,2.2-0.4,3.2c-0.1,1.1-0.3,2.1-0.4,3.2c-0.1,0.5-0.1,1.1-0.2,1.6
						c0,0.5-0.1,1-0.1,1.6c-0.1,0.4-0.1,0.8-0.1,1.3c0,0.5,0.1,0.9,0.1,1.3c0,0.5,0.3,0.9,0.8,1.3c0.3,0.2,0.6,0.4,0.8,0.6
						c0.2,0.2,0.4,0.5,0.6,0.7c0.5,0.2,0.8,0.3,0.9,0.4h0.1h-0.1c-0.2-0.1-0.3-0.1-0.5-0.2c-0.2,0-0.3-0.1-0.5-0.2
						c0,0.1,0,0.1-0.1,0.1c0,0-0.1,0-0.1,0.1c0,0.1,0,0.1-0.1,0.1c0.3,0.3,0.6,0.5,0.8,0.6c0.6,0.5,1.4,1.1,2.2,1.5h-0.1
						c0.5,0.2,0.9,0.4,1.3,0.6c0.4,0.2,0.9,0.4,1.3,0.6c1.3,0.6,2.6,1.3,3.7,2.2c1.2,0.8,2.4,1.7,3.6,2.5c1.1,0.8,2.2,1.5,3.3,2.3
						c1.1,0.7,2.2,1.6,3.1,2.6c0.3,0.4,0.7,0.7,1.2,1c0.5,0.3,0.9,0.6,1.3,0.9c0.8,0.5,1.3,1.1,1.5,2c0.2,0.9-0.1,1.4-1.1,1.4
						c-1.8,0-3.6-0.2-5.4-0.7c-0.4-0.2-0.8-0.2-1.1-0.2c-0.4,0-0.7,0-1.1-0.1l0.1,0.1h-0.1v-0.1c-0.2-0.2-0.3-0.3-0.5-0.4
						c-0.2-0.1-0.4-0.2-0.6-0.3c-0.6-0.3-1.3-0.6-2-0.9c-0.7-0.3-1.4-0.5-2.1-0.8l-0.7,0.2c0.4,0.2,0.8,0.4,1.3,0.7
						c0.6,0.3,1.2,0.6,1.9,0.9c0.6,0.3,1.2,0.6,1.9,0.9l-2.8-0.3l-0.1-0.1c-0.5,0.2-0.8,0.2-1.1,0.1c-1.2-0.4-2.5-0.8-3.7-1.2
						c-1.2-0.4-2.5-1-3.6-1.6c-0.2-0.2-0.3-0.2-0.5-0.2c-0.2,0-0.5-0.1-0.9-0.2c0.5,0.6,0.7,1,0.8,1.1c0.6,0.4,1.2,0.7,1.8,1
						c0.6,0.3,1.2,0.6,1.8,0.9c0.4,0.2,0.4,0.5,0.1,0.8h-0.2h0.1c-0.6-0.5-1.5-0.7-2.6-0.6l0.1,0.1h-0.1c-0.2-0.2-0.7-0.3-1.3-0.5
						c-0.4-0.6-0.9-1.1-1.5-1.3c-0.2,0.4-0.6,0.5-1.1,0.2s-1-0.5-1.5-0.8c-0.5-0.3-1-0.5-1.5-0.8c-0.2-0.2-0.4-0.2-0.6-0.2
						c-0.2,0-0.4-0.1-0.6-0.2c-0.4-0.5-0.6-0.8-0.8-0.9c-0.1,0-0.4,0-1,0.2l0.1-0.1c-0.6,0.2-1.1,0.3-1.6,0.5
						c-0.4,0.2-0.7,0.6-0.9,1.3c-0.1,0.5-0.3,0.8-0.7,1c-0.4,0.2-0.8,0.4-1.2,0.5l-0.5,0c-0.1-0.2-0.2-0.3-0.2-0.4
						c-0.1-0.1-0.1-0.3-0.1-0.4c-0.1-0.4-0.1-0.7-0.1-1.1c0-0.3-0.1-0.7-0.2-1.1c-0.2,0.8-0.3,1.5-0.6,2.3c-0.2,0.7-0.4,1.5-0.6,2.2
						c-0.1-0.2-0.2-0.5-0.2-0.7c-0.1-0.2-0.2-0.5-0.4-0.8c0-0.2,0-0.3,0.1-0.4c0-0.1,0.1-0.3,0.1-0.4c-0.5-0.2-0.7-0.1-0.8,0.3
						c0,0.4-0.2,0.6-0.4,0.6c-0.1,0-0.2,0-0.2-0.1c-0.5-1-0.9-2-1.3-2.9c-0.4-0.9-0.8-1.9-1.2-2.8c-0.2-0.3-0.3-0.6-0.4-0.8
						c-0.1-0.2-0.2-0.5-0.2-0.7c-0.1-0.6-0.3-1.2-0.5-1.6c-0.3-0.5-0.6-0.9-1-1.3c0.1-0.1,0.1-0.2,0.2-0.2c0-0.1,0.1-0.2,0.3-0.4
						c-0.4-0.2-0.8-0.3-1.1-0.4c-0.4-0.1-0.7-0.3-1-0.6c-0.4,0.4-0.7,0.4-0.9,0c-0.2-0.3-0.5-0.6-0.7-0.8c-0.2-0.2-0.5-0.4-0.9-0.6
						l0.1,0.1h-0.1v0.4l-0.4-0.4l-0.1,0l0.1-0.1c-0.4,0-0.7,0-0.8-0.1c0-0.5-0.3-0.9-0.9-1.2l0.1,0.1h-0.1c-0.2,0.4-0.3,0.6-0.4,0.6
						c-0.1,0-0.4-0.1-0.8-0.2h-0.1h0.1l0.7-0.4l0.1-0.1c-0.4-0.5-0.9-0.8-1.5-1.1c-0.6-0.2-1.1-0.5-1.7-0.9
						c-0.9-0.5-1.7-0.9-2.5-1.3c-0.8-0.4-1.6-0.9-2.5-1.3l0.1,0.1l-0.2,0c0.1,0,0.1,0,0.1-0.1c-0.5-0.5-0.9-0.8-1.2-1.1
						c-1.9-1.2-3.7-2.5-5.6-3.7c-1.9-1.2-3.7-2.5-5.5-3.7c-1.1-0.8-2.1-1.8-3.2-3c-0.8-0.9-1.6-1.7-2.3-2.6
						c-0.8-0.9-1.6-1.7-2.3-2.6c-0.9-0.9-1.3-2.1-1.2-3.6c0-0.4,0-0.8,0.1-1.2c0-0.4,0.1-0.8,0.1-1.2l0.1,0.1
						c-0.4-0.5-0.5-1.1-0.2-1.5c0.3-0.6,0.5-1.3,0.5-2c0-0.7,0.3-1.3,0.9-1.7c0.2-0.1,0.3-0.1,0.3-0.2c0,0,0.1-0.1,0.3-0.2H488
						c0.2-0.2,0.5-0.4,0.7-0.6c0.2-0.2,0.5-0.4,0.7-0.6c0.2-0.9,0.3-1.4,0.4-1.6c0.1-0.2,0.6-0.4,1.3-0.8c1.2-0.5,2.5-0.7,4.1-0.6
						c1,0.1,2,0.1,2.9-0.1c0.9-0.1,1.9-0.2,2.9-0.3c0.4,0,0.7,0,1.1-0.1c0.3,0,0.7-0.1,1.1-0.1c0.8-0.1,1.5-0.1,2.3-0.1
						c0.7,0,1.5,0.1,2.4,0.1L512.5,312.4z M493.2,315.3c-0.1-0.1-0.1-0.2-0.1-0.2l-0.8,0v0.2L493.2,315.3z M493.4,323.4
						c-0.1,0-0.2,0-0.2-0.1l0,0.4c0,0.1,0,0.1,0.1,0.1C493.2,323.6,493.3,323.5,493.4,323.4z M493.5,336.8c0.1,0.1,0.1,0.1,0.1,0.2
						c0,0,0,0.1,0.1,0.2C493.6,337,493.5,336.9,493.5,336.8h-0.1H493.5z M493.8,337.4c0-0.1,0-0.2-0.1-0.2
						C493.8,337.3,493.8,337.3,493.8,337.4v0.1V337.4z M495.1,338.2v0.1V338.2v-0.1V338.2z M497.7,339.9v0.1V339.9h-0.1v-0.1
						L497.7,339.9z M503.2,343.7l-0.1,0.1v-0.1c-0.1-0.1-0.2-0.3-0.4-0.6c-0.2-0.2-0.3-0.3-0.5-0.4c-0.3-0.2-0.5-0.3-0.7-0.5l0.1,0
						l0.7,0.4c0.1,0.2,0.2,0.4,0.5,0.5c0,0.2,0.1,0.4,0.2,0.6H503.2z M511.5,323.3c-1.6-0.4-3.1-0.6-4.6-0.7c-1.5-0.1-3.1,0-4.7,0.1
						c0.5,0.2,1.1,0.3,1.9,0.3c0.8,0.1,1.7,0.2,2.5,0.2c0.9,0.1,1.7,0.1,2.6,0.1C510,323.4,510.8,323.3,511.5,323.3z M511.1,326.3
						c-1.1-0.2-2.2-0.3-3.3-0.5c-1.1-0.2-2.3-0.2-3.6,0c0.4,0.2,0.7,0.4,0.8,0.5c0.2,0.1,0.3,0.3,0.5,0.4c2.5,1.6,4.9,3.1,7.3,4.6
						c2.4,1.5,4.8,3,7.3,4.6c0.5,0.3,1,0.5,1.5,0.7c0.5,0.2,1,0.3,1.5,0.5c0.7-0.6,1.1-1.3,1.2-2c0.1-0.7,0.2-1.4,0.3-2.1
						c0.2-0.9,0.3-1.7,0.3-2.6c0-0.9,0-1.8-0.2-2.7c-1.2-0.2-2.3-0.3-3.4-0.4c-1.1-0.1-2.2-0.3-3.3-0.4c-1.1-0.2-2.2-0.3-3.3-0.3
						C513.4,326.5,512.3,326.4,511.1,326.3z M504.3,311.1l0.1,0.1h-0.1V311.1z M504.8,344.6h-0.1v-0.1v0.1H504.8z M506.1,345.3
						c0.2,0.2,0.3,0.3,0.3,0.4c0,0.1,0.1,0.2,0.2,0.2l0.1,0l-0.1,0l-0.5-0.5L506.1,345.3z M507.3,345.4c-0.2,0.4-0.4,0.5-0.6,0.5
						C507,345.7,507.2,345.5,507.3,345.4z M508.2,346.5c0.1,0.2,0.1,0.3,0.2,0.3c0,0,0.1,0.1,0.2,0.3h0.1h-0.1
						c-0.1-0.2-0.1-0.3-0.2-0.3C508.4,346.8,508.3,346.7,508.2,346.5z M511.1,348.3c0.2,0.1,0.3,0.2,0.3,0.2c0,0.1,0.1,0.2,0.3,0.2
						l-0.1,0.1c-0.1-0.2-0.2-0.3-0.2-0.3C511.3,348.5,511.2,348.4,511.1,348.3c-0.2-0.1-0.3-0.1-0.4-0.1c-0.1,0-0.3,0-0.4-0.1v-0.1
						C510.6,348,510.8,348.1,511.1,348.3z M511.6,348.9l0.1-0.1c0.2,0.1,0.3,0.2,0.4,0.2c0.1,0.1,0.2,0.2,0.4,0.2h-0.1L511.6,348.9z
						 M513.8,312.2l0.2,0.2c0.1-0.1,0.1-0.1,0.2-0.1c0,0,0.1,0,0.2-0.1L513.8,312.2z M515.5,323.6l-0.1,0l0.1,0.1
						c0.1,0,0.1,0,0.1-0.1c0,0,0-0.1,0.1-0.1H515.5z M516.6,351.1h0.1c0,0.1,0,0.1-0.1,0.1L516.6,351.1z M517.9,351.7v0.1l0.1,0.1
						l-0.1-0.1V351.7z M518.1,324l-0.1,0.1h0.2L518.1,324z M519.9,324.1l-0.2,0h-0.1L519.9,324.1z M524.1,312.4l-1.5,0
						c0.4-0.1,0.9-0.2,1.5-0.4V312.4z M530.4,360.1c-0.1,0-0.1,0-0.1,0.1v0.1l0.1-0.1V360.1z M537,361.7v0.1h-0.1L537,361.7z
						 M541.9,361.3c-0.3-0.2-0.5-0.2-0.6-0.2c0.1,0.1,0.1,0.2,0.2,0.2c0,0.1,0.1,0.2,0.2,0.2L541.9,361.3z M542.2,331.1h0.1h0.1
						H542.2z M545.2,331.1c-0.6,0.2-1.1,0.2-1.5,0.2c-0.4,0-0.8-0.1-1.2-0.2L545.2,331.1z M543.1,325.6c-0.1,0-0.1,0-0.1,0.1
						c0,0,0,0.1-0.1,0.1c0.1,0.1,0.2,0.1,0.2,0.1l0.1-0.1L543.1,325.6z M543.7,364.8v0.4l-0.7-0.4h-0.1h0.1H543.7z M543.8,365.2
						h-0.1v-0.1L543.8,365.2z M544.9,365.2c-0.4,0.2-0.8,0.2-1.2,0L544.9,365.2z M544.9,348.6h-0.1H544.9l0.1,0.1L544.9,348.6z
						 M545.2,327.8l-0.1-0.1l-0.1,0.1c0.1,0.1,0.2,0.1,0.2,0.1L545.2,327.8z M548,362.5c-0.6-0.3-1-0.5-1.2-0.5
						c-0.2,0-0.5-0.1-0.9-0.1C546.5,362.3,547.2,362.5,548,362.5z M546.9,350c-0.2-0.1-0.4-0.2-0.6-0.5h-0.1h0.1
						C546.5,349.6,546.7,349.8,546.9,350c0.2,0.1,0.3,0.1,0.5,0.2c0.2,0,0.3,0.1,0.5,0.2l0.1,0.1l-0.1-0.1c-0.2-0.1-0.3-0.1-0.5-0.2
						C547.2,350.2,547.1,350.1,546.9,350z M546.3,365.7l1.1,0c-0.2,0.1-0.3,0.1-0.5,0.1c-0.2,0-0.4,0-0.5,0.1V365.7z M546.8,331.6
						c0.1,0,0.1,0,0.1,0.1h-0.1l-0.1-0.1H546.8z M550.3,363.8c-0.4-0.2-0.8-0.3-1.1-0.6c-0.4-0.2-0.7-0.4-1.1-0.6
						C548.5,363.3,549.2,363.7,550.3,363.8z M549.6,331c-0.2-0.5-0.3-0.5-0.5,0L549.6,331z M552.1,364.8c-0.2-0.3-0.4-0.5-0.7-0.6
						c-0.3-0.1-0.6-0.2-0.9-0.2C550.9,364.5,551.4,364.8,552.1,364.8z M552.5,331.7h-0.1l0.1-0.1V331.7z M552.4,353v-0.1l0.1,0.1
						H552.4z M554.2,353.8l-0.1-0.1L554.2,353.8h0.1H554.2z M556.7,365.2c-0.2,0.2-0.3,0.3-0.3,0.5c0,0.2-0.2,0.1-0.5-0.1
						C556.2,365.4,556.5,365.3,556.7,365.2z M562,330.7v-0.1l0.1,0.1l0.5,0L562,330.7h0.1H562z M562.7,329.6
						c-0.1,0.1-0.3,0.1-0.6,0.1c0.2,0,0.3,0,0.4-0.1C562.5,329.6,562.6,329.6,562.7,329.6z M562.9,329.8c-0.1-0.1-0.1-0.2-0.1-0.2
						h-0.1h0.1h0.1V329.8z M567,325.7l0.1,0.1v-0.1H567z"/>
				</g>
			</g>
			<g>
				<g>
					<path class="st26" d="M494.1,214.1c0.3,0,0.6,0,0.9,0.1c0.3,0,0.6,0,1-0.1c2.3-0.3,4.5-0.3,6.6,0.2c2.1,0.4,4.3,1,6.4,1.7
						l2.8,0.7h0.6h-0.1c1.8,0.2,3.5,0.5,5.2,0.9c1.7,0.5,3.4,0.9,5.1,1.3c2.7,0.6,5.4,1.2,8,1.9c2.6,0.6,5.2,1.3,7.9,2.1
						c3.1,0.9,6.3,1.8,9.4,2.6c3.2,0.8,6.3,1.9,9.3,3.2c0.8,0.4,1.5,0.7,2.3,0.9c0.7,0.2,1.5,0.5,2.3,0.9c0.8,0.3,1.1,0.8,0.9,1.4
						c-0.1,0.2,0,0.3,0.1,0.5c0.2,0.2,0.3,0.4,0.5,0.5c0.2,0.4,0.2,0.7,0.2,0.9c0,0.2-0.3,0.5-0.6,0.9c0,0.2,0,0.2,0.1,0.2
						c0.1,0.1,0.3,0.2,0.6,0.4c-0.6,0.7-0.7,1.3-0.2,1.7c0.5,0.4,0.8,0.9,1.1,1.5c-0.7,0.4-1.1,0.6-1.3,0.8
						c-0.2,0.1-0.3,0.4-0.6,0.8h-0.7l-0.6,0c-0.3,0.2-0.6,0.5-0.8,0.7c-0.2,0.2-0.5,0.5-0.8,0.7c-0.8-0.2-1.4-0.2-1.9-0.2
						c-0.4-0.1-0.7-0.2-1.1-0.2c-0.3-0.1-0.7,0-1.1,0.1c-0.9,0.2-1.8,0.2-2.7-0.1c-0.5-0.2-0.9-0.1-1.2,0.2c-0.3,0.4-0.6,0.6-1,0.6
						c-0.4,0-0.7,0-1.1-0.1c-0.9-0.2-1.9-0.4-2.9-0.6c-1-0.2-1.9-0.4-2.9-0.6c-0.2-0.1-0.3-0.2-0.5-0.3c-0.2-0.1-0.4-0.3-0.5-0.4
						c-0.6-0.3-1.1-0.6-1.4-0.8c-0.4-0.3-0.8-0.4-1.3-0.2c-0.5,0.2-0.9,0.1-1.3-0.3c-0.4-0.3-0.8-0.5-1.3-0.6
						c-0.5-0.1-0.9-0.3-1.4-0.4c-0.5-0.2-0.9-0.3-1.3-0.4c-0.4-0.1-0.8-0.3-1.2-0.4l-0.7,0v0.1v0.6v0.1v-0.7c-0.3-0.4-0.6-0.6-1-0.6
						c-0.4,0-0.7-0.1-1.1-0.3c-0.5-0.1-0.8,0.1-0.9,0.6c-0.6-0.2-1.1-0.3-1.5-0.5c-0.7-0.2-1.1-0.3-1.3-0.4
						c-0.2-0.1-0.5-0.4-0.9-0.9c-0.2,0.2-0.5,0.4-0.7,0.5c-0.2,0.1-0.5,0-0.8-0.4c-0.2,0-0.4,0-0.6,0c-0.2,0-0.3-0.2-0.4-0.5
						c-0.1-0.2-0.2-0.4-0.3-0.6c-0.1-0.2-0.2-0.4-0.3-0.4c-0.4,0.1-0.7,0-0.9-0.3c-0.2-0.3-0.5-0.3-0.9-0.1v0.1V233v-0.1
						c-0.5,0.2-0.8,0.2-1.1,0.2c-0.1-0.1-0.2-0.3-0.4-0.6c-0.5-0.2-0.9-0.3-1.3-0.4c-0.4-0.1-0.9-0.1-1.5,0.1
						c-0.3-0.3-0.5-0.5-0.6-0.5c-0.1,0-0.3,0.2-0.6,0.5h0.1h-0.1c-0.2-0.3-0.3-0.5-0.5-0.7c-0.4-0.3-0.7-0.2-0.9,0.2
						c-0.3,0-0.5-0.1-0.5-0.2c0-0.4-0.1-0.6-0.4-0.5c-0.2,0-0.5,0-0.7-0.1c-0.2,0.4-0.4,0.5-0.6,0.5c-0.3-0.1-0.6,0-0.9,0.1l0.7,0.7
						c0.2,0.1,0.5,0.2,0.7,0.2c0.2,0.1,0.5,0.2,0.7,0.2c-0.2,0-0.3,0-0.5,0.1c-0.2,0-0.5,0.1-0.9,0.1c0.5,0.5,1,0.9,1.3,1.3
						c0.4,0.4,0.7,0.8,1.1,1.2c1.1,0.9,2.1,1.9,3.2,2.8c1,0.9,2,1.9,3,2.9c1.6,1.3,3,2.7,4.3,4c1.5,1.5,2.9,3,4.3,4.7
						c0.2,0.2,0.4,0.5,0.6,0.8c0.2,0.3,0.4,0.6,0.5,0.9c0.2,0.4,0.4,0.8,0.4,1.3c0,0.5,0.3,1,0.6,1.3c0.2,0.3,0.3,0.7,0.1,1.1
						c-0.2,0.4,0,0.7,0.4,1.1c-0.5,0.2-0.7,0.6-0.7,1.1c0,0.5-0.1,0.9-0.4,1.3c-0.2,0.2-0.3,0.3-0.5,0.3c-0.2,0-0.4,0.1-0.5,0.3
						c-0.8,1.1-1.7,1.9-2.9,2.3c-1.1,0.5-2.2,1-3.2,1.6c-0.2,0.2-0.5,0.3-0.8,0.4c-0.3,0.1-0.6,0.3-0.9,0.4c0.2,0.5,0.6,0.8,1,1.1
						c0.4,0.2,0.9,0.4,1.3,0.6c1.7,0.5,3.4,0.9,5.1,1.4c1.7,0.5,3.3,1,5,1.5c2.7,0.9,5.5,1.7,8.2,2.6c2.8,0.9,5.5,1.7,8.2,2.6
						c0.9,0.3,1.9,0.7,2.7,1.1c0.9,0.4,1.8,0.8,2.7,1.2c0.2,0.1,0.4,0.2,0.6,0.3c0.2,0.1,0.4,0.3,0.6,0.4c0.5,0.6,1,1.1,1.6,1.3
						c0.6,0.3,1.2,0.5,1.8,0.6c0.2,0.1,0.5,0.3,1.1,0.7c-0.6,0.3-1.1,0.4-1.5,0.1c-0.4-0.2-0.8-0.4-1.2-0.5c-0.7,0-1.7-0.1-3-0.3
						c0.3,0.2,0.5,0.4,0.6,0.5c0.1,0.1,0.3,0.2,0.4,0.2c0.7,0.2,1.4,0.5,2.1,0.7c0.7,0.2,1.4,0.4,2.1,0.6c1,0.2,1.7,0.8,2.1,1.6
						l-2.5,0.4c0.1,0.6,0.3,1.1,0.7,1.3c0.4,0.2,0.7,0.5,0.8,0.9c-0.2,0-0.5,0.1-0.9,0.2l0.4,1.4c-0.1,0-0.1,0-0.2,0.1
						c0,0-0.1,0.1-0.2,0.1c-0.3,0.1-0.6,0.1-0.9,0.1c-0.3,0-0.5,0.1-0.7,0.2c-0.5,0.5-1.1,0.6-1.6,0.5c-0.5-0.1-1-0.3-1.6-0.4
						c-0.7-0.2-1.4-0.4-2.2-0.6c-0.7-0.2-1.5-0.4-2.3-0.6c-0.5-0.2-1.1-0.3-1.6-0.4c-0.5-0.1-1-0.1-1.6,0.1c-0.1,0.1-0.3,0-0.7-0.2
						c-0.1,0.2-0.1,0.4-0.1,0.8c0.7,0.5,1.5,0.7,2.5,0.5c0,0.2,0,0.3,0.1,0.4c0.1,0.2,0.2,0.3,0.2,0.3c0.1,0,0.2,0.1,0.2,0.2
						c0.2-0.3,0.2-0.5,0.2-0.7h0.1c0.4,0.6,0.7,1,0.9,1.1c0.2,0.1,0.7-0.1,1.5-0.5c-0.1,0.2-0.1,0.4-0.1,0.6c0,0.2,0,0.4-0.1,0.6
						c-1.1-0.2-2.1-0.4-3.2-0.5c-1-0.1-2.1-0.4-3.2-0.8c-0.6-0.2-1.3-0.5-1.9-0.7c-0.7-0.2-1.3-0.4-2-0.6c-0.6-0.2-1.2-0.2-1.8,0.1
						v-0.5c-0.6-0.2-1.2-0.5-1.7-0.7c-0.5-0.2-1-0.4-1.6-0.6c-1.3-0.4-2.6-0.7-3.9-1.1c-1.3-0.3-2.6-0.7-3.9-1.1
						c-0.4-0.2-0.8-0.2-1.2-0.2c-0.4,0-0.8,0-1.2-0.1c0-0.4-0.1-0.6-0.4-0.6c-0.2,0-0.5-0.1-0.7-0.2c-0.8-0.2-1.5-0.4-2.3-0.6
						c-0.7-0.2-1.5-0.4-2.3-0.6c-1.8-0.6-3.6-1.2-5.5-1.8c-1.9-0.5-3.7-1.1-5.5-1.8c-0.9-0.2-1.7-0.4-2.6-0.6
						c-0.9-0.2-1.8-0.5-2.6-0.9c-1.2-0.5-2.5-0.9-3.7-1.2c-1.2-0.3-2.5-0.6-3.9-0.9c-0.4-0.1-0.7-0.2-1-0.4
						c-0.3-0.2-0.4-0.5-0.4-0.9c-1.8,0-3.6,0.2-5.4,0.7c-0.4,0.2-0.8,0.2-1.2,0.2c-0.4,0-0.9,0-1.3,0l-0.5-0.5
						c-0.3-0.1-0.5-0.2-0.6-0.5c-0.1-0.2-0.1-0.5-0.1-0.7c-0.4-0.2-0.8-0.3-1.2-0.3c-0.4,0-0.8-0.1-1.2-0.3
						c-0.1-0.1-0.2-0.3-0.4-0.6c0.2-0.2,0.5-0.6,0.9-1.1h-0.1h0.1l0.7-0.7c-0.3-0.3-0.5-0.5-0.7-0.6v-0.4c0.5-0.7,0.8-1.3,0.7-1.9
						c0-0.4,0-0.7,0.1-1.1c0.1-0.3,0.2-0.7,0.4-1.2c0.2-0.2,0.4-0.4,0.8-0.5c0.4-0.1,0.8-0.2,1.2-0.2c1.1,0,2.1-0.1,3.2-0.4
						c1.3-0.2,2.3-0.7,2.9-1.6c0.7-0.3,1.4-0.6,2-0.8c0.7-0.2,1.3-0.5,2-0.8c0.2-0.1,0.3-0.2,0.5-0.4c0.2-0.2,0.4-0.4,0.5-0.5h-0.1
						l0-0.5l0.5,0c1.6-0.4,3.1-0.8,4.5-1.1c1.4-0.4,2.9-0.7,4.4-1.1c0.2-0.1,0.5-0.2,0.7-0.2c0.2-0.1,0.5-0.2,0.7-0.2
						c0.6-0.2,1-0.7,1.2-1.5c0.4,0.2,0.7,0.3,1.1,0.5c0.3,0.2,0.7,0.1,1.2-0.3c-0.2-0.2-0.3-0.3-0.4-0.4c-0.1-0.1-0.2-0.3-0.4-0.4
						c-0.7-0.6-1.4-1.2-2.1-1.7c-0.7-0.5-1.4-1-2-1.6l-0.1,0.1l0.1-0.1c-0.5-0.4-1.1-0.8-1.6-1.2c-0.5-0.4-1-0.9-1.3-1.3
						c-0.5-0.6-1.1-1.2-1.8-1.8c-0.6-0.5-1.2-1.1-1.9-1.8c-1.8-1.8-3.6-3.5-5.4-5.3c-1.8-1.7-3.6-3.5-5.4-5.3
						c-0.2-0.2-0.5-0.5-0.8-0.9c-0.6-0.8-1.3-1.6-1.9-2.3c-0.7-0.8-1.3-1.6-1.9-2.3v-0.1v0.1c0.2-0.2,0.2-0.4,0-0.5v-0.8l0-0.1
						l0,0.1l0.5-0.5h-0.4l0.4-0.4v-0.1c-0.4-0.5-0.8-0.9-1.3-1.4c-0.5-0.5-0.9-1-1.3-1.5c-0.2-0.2-0.5-0.5-0.7-0.8
						c-0.2-0.3-0.5-0.5-0.7-0.8c-1.1-1.1-1.2-2.4-0.2-3.9c0.2-0.2,0.3-0.4,0.4-0.6c0.1-0.2,0.3-0.4,0.4-0.6c0.4-0.3,0.8-0.4,1.2-0.2
						c0.4,0.2,0.8,0,1.2-0.6h0.2c0.1,0,0.1,0,0.2,0.1c0,0,0.1,0.1,0.2,0.1c1,0.3,2.1,0.3,3.4,0.1c0.4-0.2,0.7-0.2,1-0.2
						C493.4,213.9,493.7,214,494.1,214.1z M488.3,225.9l0.4,0v0.4L488.3,225.9z M488.6,224.6v0.4c-0.2-0.2-0.2-0.3-0.2-0.4
						L488.6,224.6z M489.8,225.6h-0.1v0.1L489.8,225.6z M496.3,259.6c-0.2,0-0.3,0-0.3-0.1c0,0,0.1-0.1,0.3-0.2V259.6v0.1V259.6z
						 M501.2,275.3c0.1,0,0.1,0,0.1-0.1c0,0.1,0,0.1,0.1,0.1H501.2c-0.2-0.2-0.6-0.3-1.1-0.5c-0.2-0.1-0.3-0.2-0.5-0.2
						c-0.2-0.1-0.3-0.2-0.5-0.2c-0.1,0-0.1,0-0.2-0.1c0,0-0.1-0.1-0.2-0.1c0.1,0,0.1,0,0.2,0.1c0,0,0.1,0.1,0.2,0.1
						c0.2,0.1,0.3,0.1,0.5,0.2c0.2,0,0.3,0.1,0.5,0.2c0.2,0.2,0.4,0.3,0.6,0.3c0.2,0,0.4,0.1,0.6,0.2L501.2,275.3z M501.4,271.8
						c-0.3-0.2-0.6-0.3-0.9-0.4c-0.3-0.1-0.6-0.1-1,0.1c0.3,0.4,0.6,0.6,0.9,0.6C500.7,272.1,501,272,501.4,271.8z M500.6,240.6
						c0.1,0.2,0.2,0.3,0.4,0.5v0.1c-0.1-0.2-0.2-0.3-0.4-0.5l-0.1-0.1H500.6z M501.3,256.6l0.5,0c-0.1,0.2-0.2,0.3-0.4,0.5
						C501.3,257,501.3,256.9,501.3,256.6z M503.1,243.6H503c-0.2-0.2-0.3-0.3-0.5-0.4c-0.2-0.1-0.3-0.2-0.5-0.4v-0.1l1.1,0.7V243.6z
						 M502.7,271.9l-0.1,0.1v0.1h0.1V271.9z M503.4,243.8l0,0.2h-0.1c-0.1-0.1-0.1-0.2-0.1-0.4C503.3,243.6,503.4,243.7,503.4,243.8
						z M505.7,272.8c-0.3-0.2-0.6-0.3-0.9-0.4c-0.3-0.1-0.7-0.1-1.3,0.2c0.4,0.2,0.7,0.3,1.1,0.4c0.3,0.1,0.6,0.2,0.9,0.4
						L505.7,272.8z M505.2,245.2l-0.1,0H505L505.2,245.2z M505.5,246.1c0.2,0.2,0.4,0.4,0.6,0.5v0.1H506c-0.1-0.2-0.2-0.3-0.2-0.3
						C505.6,246.4,505.6,246.3,505.5,246.1c-0.1-0.2-0.1-0.3-0.2-0.5c0-0.2-0.1-0.3-0.2-0.5l0.1,0
						C505.3,245.3,505.3,245.6,505.5,246.1z M506.1,246.7c0.5-0.2,0.9,0,1.1,0.6C506.7,247,506.3,246.8,506.1,246.7z M507.2,247.3
						c0.1,0.2,0.2,0.3,0.2,0.3c0.1,0,0.2,0.1,0.2,0.3c-0.2-0.1-0.3-0.2-0.3-0.2c0-0.1-0.1-0.2-0.2-0.2c-0.1,0-0.1,0-0.1-0.1H507.2z
						 M508,273.3c-0.2,0-0.3,0-0.4-0.1c-0.1,0-0.1,0-0.1,0.1c0,0,0,0.1-0.1,0.1c0.1,0,0.1,0,0.2,0.1c0,0,0.1,0.1,0.2,0.1L508,273.3z
						 M507.7,247.9c0.5,0.2,0.8,0.4,1.1,0.6c0.3,0.3,0.5,0.6,0.8,1C508.9,249.2,508.3,248.6,507.7,247.9z M509.1,273.7l-0.1,0.1h0.1
						V273.7z M509,276.9c0.2,0.1,0.4,0.1,0.6,0.2c0.2,0,0.4,0.1,0.6,0.2c-0.3,0.1-0.7,0.1-1.3,0.1L509,276.9v-0.1V276.9z
						 M510.5,277.3c-0.1,0-0.1,0-0.1-0.1c0,0,0-0.1-0.1-0.1h0.1L510.5,277.3z M524.4,281.2l1.8,0.3l0,0.9c-2.4-0.8-4.8-1.5-7.2-2.2
						c-2.4-0.7-4.8-1.4-7.2-2.2c-0.2-0.1-0.4-0.2-0.6-0.3c-0.2-0.1-0.4-0.3-0.6-0.4c1.5,0.4,2.9,0.8,4.3,1.1
						c1.4,0.4,2.8,0.7,4.3,1.1c0.5,0.2,1.1,0.3,1.6,0.4c0.5,0.1,1.1,0.2,1.6,0.4c0.4,0.1,0.7,0.2,1.1,0.4c0.3,0.2,0.7,0.4,1.1,0.5
						H524.4z M511.6,251.2h-0.1l-0.5-0.5c0.2,0.1,0.4,0.2,0.5,0.5H511.6z M511.6,251.2c0.2,0.1,0.4,0.3,0.6,0.7
						C511.8,251.6,511.6,251.4,511.6,251.2z M512.2,252.1v-0.1V252.1l1.1,0.4L512.2,252.1z M513.5,232.6c0.8,0,1.6,0.3,2.3,0.8
						C515,233.2,514.2,233,513.5,232.6h-0.1h-0.1h0.1H513.5z M513.3,273.9c0.2,0.4,0.6,0.5,1.1,0.4L513.3,273.9z M514.2,231.7h0.1
						l0.1,0.1L514.2,231.7z M516,274.9c-0.2-0.2-0.4-0.4-0.6-0.4c-0.3,0-0.5,0-0.8-0.1C514.9,274.7,515.4,274.9,516,274.9z
						 M516.8,232.8c-0.2-0.2-0.3-0.3-0.5-0.3c-0.2,0-0.4-0.1-0.5-0.3l1.2,0l-0.2,0.5l0.1,0V232.8z M515.9,233.6v-0.1h0.1v0.1H515.9z
						 M517.1,232.8c-0.1,0-0.2,0-0.2-0.1h0.1L517.1,232.8z M522.5,276.4c-0.9-0.2-1.7-0.5-2.5-0.8c-0.8-0.3-1.6-0.4-2.5-0.4
						c0.2,0.2,0.5,0.3,0.7,0.4c0.2,0.1,0.5,0.3,0.8,0.4c1.3,0.5,2.7,0.9,4.1,1.3c1.4,0.4,2.7,1,4,1.9v-0.1l0-0.6v-0.1l0.1,0.1
						c-0.1,0.2-0.1,0.4-0.1,0.7c0.2,0.2,0.5,0.1,0.8-0.1c0.3-0.2,0.6-0.1,0.8,0.3c0.6,0.5,1.2,0.6,1.6,0.5c0.5-0.4,0.9-0.4,1.3,0
						l-1.2,0c0.5,0.2,0.9,0.3,1.3,0.5c0.1,0.1,0.2,0.1,0.2,0.2c0.1,0,0.2,0.1,0.4,0.3c0.3-0.3,0.6-0.4,0.9-0.4c0.3,0,0.6,0.1,1,0.3
						c0.7,0.4,1.4,0.8,2,1.2c0.6,0.4,1.4,0.6,2.2,0.6l6,1.8v-0.5v0.5c0.3,0.1,0.6,0.2,0.8,0.3c0.2,0.1,0.5,0.2,0.8,0.3
						c0.7,0.2,1.2-0.1,1.4-0.8c-0.9-0.2-1.7-0.5-2.5-0.9c-0.8-0.4-1.7-0.6-2.6-0.6c-0.2,0-0.2,0.1-0.2,0.4c-0.5-0.5-0.8-0.8-0.9-0.9
						c-0.2-0.1-0.5-0.3-0.9-0.4c-0.9-0.2-1.7-0.5-2.5-0.8c-0.8-0.3-1.7-0.5-2.5-0.8c-2.1-0.6-4.2-1.2-6.3-1.8
						C526.8,277.6,524.6,277,522.5,276.4z M519.2,267.3l-0.6,0c0.3,0.2,0.5,0.2,0.6,0.2V267.3z M520,233.1h0.1c-0.2,0-0.3,0-0.3,0.1
						c0,0-0.1,0.1-0.3,0.1c0.1,0,0.2,0,0.2-0.1C519.8,233.1,519.9,233.1,520,233.1h0.1H520z M522.3,234h0.1v0.1L522.3,234z
						 M524.5,234.8c0.3-0.2,0.4-0.4,0.4-0.6c-0.1-0.2-0.2-0.4-0.2-0.6c0,0.2,0,0.3-0.1,0.5C524.6,234.3,524.5,234.5,524.5,234.8z
						 M541,285.7c0.2,0,0.4,0,0.6,0.1c0.2,0,0.4,0.1,0.6,0.1c0,0.1,0,0.1,0.1,0.2c0,0,0.1,0.1,0.1,0.2c1.2,0.2,2.1,0.4,2.8,0.8h0.1
						l-0.5,0.5c-0.9-0.2-1.7-0.3-2.5-0.5c-0.8-0.2-1.6-0.4-2.4-0.6c-1.3-0.4-2.7-0.8-4-1.1c-1.4-0.3-2.7-0.7-4-1.1l-5.6-1.8
						c0.2-0.2,0.5-0.3,0.8-0.5c0.2-0.3,0.5-0.4,0.8-0.3c0.3,0.1,0.6,0.1,0.9-0.1c0.2,0.2,0.3,0.3,0.4,0.4c0.1,0.1,0.3,0.2,0.4,0.4
						c0.2,0.2,0.3,0.3,0.4,0.4c0.1,0.1,0.3,0.1,0.4,0.1c1.1-0.2,2.1,0,3.1,0.4c1,0.4,1.9,0.8,2.9,1.2c0.6-0.2,1.2,0,1.6,0.4
						c0.5,0.2,1.1,0.3,1.5,0.5c0.5,0.2,1,0.4,1.5,0.5V285.7z M528.3,235.6c-0.2-0.5-0.4-0.6-0.8-0.5l-0.1,0.1
						c0.1,0.3,0.2,0.4,0.4,0.4C528,235.6,528.1,235.6,528.3,235.6z M529.5,235.8c-0.2-0.4-0.3-0.5-0.5-0.5c-0.2,0.1-0.4,0.2-0.6,0.4
						v0.2c0.2,0.1,0.4,0.1,0.6,0.2C529.1,236.1,529.3,236,529.5,235.8z M529.1,282.8c0.2,0,0.3,0,0.4-0.1c0.1,0,0.1-0.1,0.1-0.2
						h-0.4l-0.2,0.2L529.1,282.8z M529.8,236.5v-0.1l0.1,0.1L529.8,236.5l0.1,0c0.2,0.1,0.5,0.2,0.9,0.4L529.8,236.5z M531.1,237
						c-0.1,0-0.1,0-0.1-0.1c0,0,0-0.1-0.1-0.1L531.1,237z M531.2,236.9c0.1,0,0.1,0,0.1,0.1l-0.2,0
						C531.2,237,531.2,236.9,531.2,236.9z M542.2,285.7l0.1,0.1h-0.1V285.7v0.1V285.7z M544.6,283.5c-0.1,0.1-0.1,0.2-0.1,0.2v-0.2
						v-0.1v0.1H544.6z M545.1,287c0.2,0.2,0.4,0.4,0.5,0.6c-0.2-0.1-0.4-0.1-0.8-0.1l0.5-0.5H545.1z M550.7,241.4
						c-0.9-0.8-1.4-0.9-1.5-0.4C549.6,241.1,550.1,241.3,550.7,241.4z M551.1,286.2c0.3-0.4,0.6-0.4,0.8,0h0.1L551.1,286.2z
						 M552,286.2v0.1l-0.1-0.1H552z M552.3,242.1c0.7-0.2,1.2-0.2,1.6,0.2c-0.2,0-0.5,0-0.7-0.1C553,242.2,552.6,242.2,552.3,242.1z
						 M553.9,242.3l0.6,0l0.1-0.1v0.1h-0.1c-0.2,0-0.3,0-0.3,0.1c0,0-0.1,0.1-0.3,0.1L553.9,242.3z"/>
				</g>
			</g>
		</g>
	</g>
</g>
</svg>
