<?xml version="1.0" encoding="utf-8"?>
<!-- Generator: Adobe Illustrator 26.5.0, SVG Export Plug-In . SVG Version: 6.00 Build 0)  -->
<svg version="1.1" id="Layer_1" xmlns="http://www.w3.org/2000/svg" xmlns:xlink="http://www.w3.org/1999/xlink" x="0px" y="0px"
	 viewBox="0 0 720 720" style="enable-background:new 0 0 720 720;" xml:space="preserve">
<style type="text/css">
	.st0{clip-path:url(#SVGID_00000146460518245162380440000005015322227986577342_);}
	.st1{clip-path:url(#SVGID_00000020377664729111921080000017657203696461518999_);}
	.st2{clip-path:url(#SVGID_00000029724971290451511900000001892893246419995820_);}
	.st3{clip-path:url(#SVGID_00000173858694655293345610000007252223554293887367_);}
	.st4{clip-path:url(#SVGID_00000088822702086631860300000016414161753530951090_);}
	.st5{clip-path:url(#SVGID_00000044149215060710364760000011794600883555147408_);}
	.st6{clip-path:url(#SVGID_00000003104916479571306210000014883856638044519325_);}
	.st7{clip-path:url(#SVGID_00000180359405539847485170000011650824329198677406_);}
	.st8{clip-path:url(#SVGID_00000008840354601256191560000009655756443691783814_);}
	.st9{clip-path:url(#SVGID_00000090274278807113946400000018404524620265142703_);}
	.st10{clip-path:url(#SVGID_00000128480533679768685610000009118504598671932601_);}
	.st11{clip-path:url(#SVGID_00000076585684146968511140000002578305586624032663_);}
	.st12{clip-path:url(#SVGID_00000017506655785369006400000011010855293961010609_);}
	.st13{clip-path:url(#SVGID_00000057833366318257481150000010778260650769132965_);}
	.st14{clip-path:url(#SVGID_00000049199932944575265190000018410362954062012067_);}
	.st15{clip-path:url(#SVGID_00000020361901986494183120000013296351585549746844_);}
	.st16{fill:#BC1823;}
	.st17{opacity:0.36;fill:#BC1823;}
	.st18{fill:#030E19;}
	.st19{fill:#F79D27;}
	.st20{fill:#003556;}
	.st21{fill:#43ADD9;}
	.st22{fill:#83C8E4;}
	.st23{fill:#8E1E1E;}
	.st24{fill:#282828;}
	.st25{fill:#FFA800;}
	.st26{fill:#010F2C;}
	.st27{enable-background:new    ;}
	.st28{fill:#00618C;}
	.st29{fill:#FFFFFF;}
	.st30{fill:#5B0A0A;}
</style>
<g>
	<g>
		<path class="st28" d="M189.7,427.6c-0.3,0.7-0.9,1.2-1.6,1.4c-0.8,0.3-1.6,0.3-2.3,0c-0.7-0.3-1.2-1-1.7-2.1l-1.4-3.6l5.4-2
			l1.4,3.6C190,426.1,190,427,189.7,427.6z"/>
		<path class="st28" d="M287.4,190.6c0,0.1-0.1,0.2-0.1,0.3l-2.2-1.8l-2.5,3l2,1.6c-1.5,0.7-3,0.7-4.2,0.2c-1.3-0.6-2.4-1.9-3.4-4
			c-1-2.1-1.3-3.9-0.9-5.4c0.3-1.5,1.3-2.6,2.9-3.3c1.6-0.7,3-0.7,4.3,0c1.3,0.7,2.5,2.1,3.4,4.2c0.5,1.1,0.8,2,0.9,2.9
			C287.7,189.1,287.6,189.9,287.4,190.6z"/>
		<polygon class="st28" points="257.6,203.4 253.5,206.2 251.2,198.3 251.2,198.3 		"/>
		<path class="st28" d="M336.7,544.9c-0.1,0.7-0.4,1.3-1,1.7c-0.5,0.4-1.3,0.5-2.4,0.4l-5.1-0.8l0.8-5.2l5.2,0.8
			c1,0.2,1.7,0.5,2.1,1.1C336.7,543.5,336.9,544.2,336.7,544.9z"/>
		<polygon class="st28" points="508.8,484.5 505.5,488.2 501.3,481.2 501.3,481.2 		"/>
		<path class="st28" d="M273.9,525.6c-0.2,0.8-0.6,1.7-1.1,2.6c-1.1,2-2.2,3.2-3.5,3.8c-1.2,0.6-2.7,0.4-4.2-0.4l-3-1.6l6.3-11.2
			l2.7,1.5c0.9,0.5,1.5,1,2,1.5c0.5,0.5,0.8,1.1,0.9,1.8C274.2,524.1,274.1,524.8,273.9,525.6z"/>
		<path class="st28" d="M313.9,541.1c0,0.8-0.2,1.8-0.5,2.8c-0.6,2.1-1.5,3.6-2.5,4.5c-1.1,0.8-2.5,1-4.2,0.5l-3.3-0.9l3.5-12.4
			l2.9,0.8c1,0.3,1.7,0.6,2.3,1c0.6,0.4,1,0.9,1.3,1.5C313.8,539.6,313.9,540.3,313.9,541.1z"/>
		<path class="st28" d="M210.7,466.4c-0.2,0.6-0.6,1.2-1.2,1.6c-0.6,0.4-1.3,0.6-1.9,0.5c-0.7-0.1-1.3-0.6-1.9-1.5l-2.9-4.3l4.3-2.9
			l3,4.4C210.6,465,210.8,465.7,210.7,466.4z"/>
		<path class="st28" d="M421.3,180c-0.3,1.1-0.8,2-1.3,2.8c-0.5,0.7-1.1,1.3-1.7,1.7c-0.6,0.4-1.3,0.6-2,0.7c-0.7,0.1-1.4,0-2.1-0.2
			c-1.7-0.5-2.8-1.4-3.3-2.7c-0.6-1.3-0.5-3.1,0.1-5.3c0.7-2.2,1.6-3.8,2.9-4.7c1.2-0.9,2.7-1.1,4.3-0.6c1.7,0.5,2.8,1.5,3.3,2.9
			C422,176,422,177.8,421.3,180z"/>
		<path class="st28" d="M360,150c-116,0-210,94-210,210c0,116,94,210,210,210s210-94,210-210C570,244,476,150,360,150z M435.3,189.2
			l3.6,1.7c-0.4,0.9-0.4,1.8,0.1,2.7c0.4,0.9,1.3,1.6,2.4,2.2c1.1,0.5,2.1,0.7,2.9,0.6c0.8-0.1,1.4-0.6,1.8-1.4
			c0.1-0.3,0.2-0.5,0.2-0.8c0-0.2,0-0.5-0.1-0.8c-0.1-0.3-0.3-0.6-0.6-0.9c-0.3-0.3-0.7-0.7-1.2-1.1c-1-0.8-1.8-1.5-2.5-2
			c-0.7-0.5-1.2-1.1-1.7-1.7c-0.8-0.9-1.2-1.8-1.4-2.7c-0.2-0.9,0-2,0.6-3.1c0.4-0.8,0.9-1.5,1.5-2c0.6-0.5,1.3-0.9,2-1.1
			c0.8-0.2,1.6-0.3,2.6-0.1c0.9,0.1,1.9,0.5,3,1c1.1,0.5,2,1.2,2.8,1.9c0.7,0.7,1.3,1.5,1.6,2.3c0.3,0.8,0.5,1.6,0.5,2.5
			c0,0.9-0.2,1.7-0.6,2.6l-3.5-1.7c0.3-0.9,0.3-1.8,0-2.5c-0.4-0.7-1.1-1.3-2.2-1.9c-1-0.5-1.9-0.7-2.6-0.6
			c-0.7,0.1-1.2,0.5-1.5,1.2c-0.3,0.6-0.3,1.1,0,1.7c0.2,0.5,0.8,1.2,1.7,1.9c0.9,0.7,1.7,1.5,2.5,2.1c0.8,0.7,1.5,1.3,2,2
			c0.3,0.4,0.6,0.8,0.8,1.1c0.2,0.4,0.4,0.8,0.5,1.3c0.1,0.5,0.1,1,0,1.5c-0.1,0.5-0.3,1.1-0.6,1.7c-0.5,1-1.1,1.7-1.7,2.3
			c-0.7,0.5-1.5,0.9-2.3,1c-0.9,0.2-1.8,0.1-2.7-0.1c-1-0.2-2-0.5-3-1c-1.1-0.5-2-1.1-2.8-1.8c-0.8-0.7-1.4-1.4-1.8-2.2
			c-0.4-0.8-0.6-1.7-0.6-2.6C434.6,191.2,434.8,190.2,435.3,189.2z M407.2,175.6c0.5-1.6,1.1-2.9,1.9-4.1c0.8-1.1,1.7-2,2.7-2.7
			c1-0.6,2.2-1,3.4-1.1c1.2-0.1,2.6,0,4.1,0.5c1.4,0.4,2.6,1.1,3.6,1.9c1,0.8,1.7,1.8,2.2,2.9c0.5,1.1,0.7,2.4,0.7,3.8
			c0,1.4-0.2,2.9-0.7,4.5c-1,3.2-2.5,5.4-4.5,6.6c-2,1.2-4.5,1.3-7.4,0.4c-2.9-0.9-4.9-2.4-5.9-4.6
			C406.3,181.5,406.2,178.8,407.2,175.6z M404.4,212.4c9,0.1,29.5,1.4,41.5,9.6c0.1,0,0.1,0,0.1,0.1c0.2,0.1,0.3,0.2,0.5,0.4
			c0.1,0.1,0.2,0.2,0.4,0.3c0.2,0.1,0.3,0.2,0.4,0.3c0.5,0.4,0.9,0.7,1.3,1.1c0.1,0.1,0.3,0.2,0.4,0.4c0.1,0.1,0.3,0.2,0.4,0.4
			c0.2,0.2,0.4,0.4,0.5,0.6c0.2,0.2,0.4,0.4,0.6,0.7c0.2,0.2,0.4,0.4,0.6,0.7c0,0,0,0,0,0c0.2,0.2,0.4,0.5,0.5,0.7
			c0.1,0.2,0.3,0.4,0.5,0.7c0,0,0,0.1,0.1,0.1c0.1,0.2,0.3,0.4,0.4,0.6c0.6,0.9,1,1.9,1.4,3c0.1,0.2,0.1,0.4,0.2,0.6
			c0.4,1.4,0.7,2.8,0.8,4.3c0,0.3,0,0.6,0,0.9c0,0.7,0,1.4-0.1,2.1c0,0.3,0,0.6-0.1,0.9c0,0.4-0.1,0.8-0.2,1.2
			c0,0.3-0.1,0.6-0.2,0.9c-0.2,1.2-0.5,2.5-1,3.7c-0.1,0.3-0.2,0.7-0.4,1c0,0.1-0.1,0.3-0.2,0.4c-1.7,4.3-4.8,8-8.7,10.4
			c-0.1,0.1-0.2,0.2-0.4,0.2c-0.3,0.2-0.7,0.4-1,0.5c-1.2,0.6-2.4,1.2-3.5,1.6c-0.3,0.1-0.6,0.2-0.9,0.3c-0.4,0.1-0.8,0.3-1.2,0.4
			c-0.3,0.1-0.6,0.2-0.8,0.2c-0.7,0.2-1.4,0.3-2.1,0.4c-0.3,0.1-0.6,0.1-0.9,0.1c-1.5,0.2-3,0.1-4.4,0c-0.2,0-0.4-0.1-0.6-0.1
			c-1.1-0.2-2.2-0.5-3.2-0.9c-0.2-0.1-0.5-0.2-0.7-0.3c0,0-0.1,0-0.1,0c-0.2-0.1-0.5-0.2-0.7-0.3c-0.3-0.1-0.5-0.3-0.8-0.4
			c0,0,0,0,0,0c-0.2-0.1-0.5-0.3-0.7-0.4c-0.3-0.1-0.5-0.3-0.8-0.5c-0.2-0.1-0.5-0.3-0.7-0.4c-0.1-0.1-0.3-0.2-0.4-0.3
			c-0.2-0.1-0.3-0.2-0.5-0.3c-0.4-0.3-0.9-0.7-1.3-1.1c-0.1-0.1-0.3-0.2-0.4-0.4c-0.1-0.1-0.2-0.2-0.3-0.3c-0.1-0.1-0.3-0.3-0.4-0.4
			c0,0-0.1-0.1-0.1-0.1c-10.1-10.4-14.9-30.4-16.6-39.2C400.5,214.4,402.2,212.4,404.4,212.4z M380.3,161l9.6,1.3
			c1.9,0.2,3.3,0.9,4.2,2c0.9,1.1,1.2,2.4,1,4.1c-0.1,0.8-0.4,1.5-1,2.1c-0.5,0.6-1.2,1-1.9,1.2c0.4,0.2,0.8,0.5,1.1,0.8
			c0.3,0.3,0.6,0.6,0.8,1.1c0.2,0.4,0.4,0.9,0.5,1.4c0.1,0.5,0.1,1.2,0,1.9c-0.2,1.8-1,3.1-2.4,4c-1.3,0.9-3.2,1.2-5.7,0.8l-8.8-1.2
			L380.3,161z M336.5,161.8l4.7-0.5l9.1,18.7l-4.4,0.5l-1.7-3.9l-7.2,0.8l-0.9,4.2l-4.3,0.5L336.5,161.8z M304.2,168.4l3.4,12.5
			c0.3,1.2,0.9,2,1.7,2.5c0.8,0.5,1.7,0.6,2.8,0.3c2.5-0.7,3.5-2.3,2.8-4.7l-3.5-12.6l4-1.1l3.5,12.6c0.6,2.3,0.4,4.2-0.6,5.8
			c-1,1.5-2.8,2.6-5.3,3.3c-2.3,0.6-4.3,0.6-5.9-0.2c-1.6-0.7-2.8-2.2-3.4-4.5l-3.5-12.8L304.2,168.4z M272.2,183.3
			c0.3-1.2,1-2.2,1.8-3.1c0.9-0.9,2-1.7,3.4-2.3c1.4-0.6,2.7-1,3.9-1c1.3,0,2.5,0.2,3.6,0.7c1.1,0.5,2.1,1.3,3,2.3
			c0.9,1,1.7,2.3,2.4,3.8c0.5,1.1,0.8,2.2,1,3.3c0.2,1.1,0.1,2.2-0.1,3.2c-0.2,1-0.6,2-1.2,2.9c0,0,0,0,0,0l2.6,2.1l-2.5,3l-3-2.5
			c-1.5,1-2.9,1.5-2.9,1.5c-2.4,0.7-4.5,0.6-6.4-0.4c-1.9-1-3.4-2.8-4.7-5.5c-0.7-1.5-1.1-2.9-1.3-4.3
			C271.8,185.7,271.9,184.4,272.2,183.3z M250.7,193.3l16.7,12.4l-3.7,2.5l-3.3-2.7l-6,4.1l1.1,4.1l-3.6,2.4l-5.2-20.2L250.7,193.3z
			 M166.4,360c0-58.6,26-111.3,67-147.2l8.3,5.9c-40,34-65.5,84.7-65.5,141.2c0,13,1.3,25.6,3.9,37.8l-8.7,6.2
			C168.1,389.9,166.4,375.1,166.4,360z M179.7,424.5L173,427l-1.4-3.8l18.4-6.9l3,8.1c0.3,0.9,0.5,1.8,0.5,2.6
			c0,0.8-0.2,1.6-0.6,2.3c-0.3,0.7-0.8,1.3-1.4,1.9c-0.6,0.5-1.3,1-2.2,1.3c-0.8,0.3-1.7,0.5-2.5,0.5c-0.8,0-1.6-0.2-2.3-0.5
			s-1.3-0.8-1.9-1.4c-0.6-0.6-1-1.4-1.3-2.3L179.7,424.5z M187.2,455.9c-1.7-0.7-3.2-2.2-4.3-4.5c-1.1-2.1-1.4-4.1-1.1-5.8
			c0.4-1.8,1.6-3.2,3.7-4.3l11.8-6.1l1.9,3.7l-11.5,5.9c-1.1,0.6-1.8,1.3-2.2,2.1c-0.3,0.9-0.3,1.8,0.2,2.8c1.2,2.3,2.9,2.9,5.2,1.8
			l11.6-6l1.9,3.7l-11.6,6C190.8,456.4,188.9,456.6,187.2,455.9z M200.1,478.3l-2.2-3.3l4.2-2.8c0.8-0.5,1.2-1.1,1.3-1.7
			c0.1-0.6-0.2-1.4-0.8-2.3l-2.5-3.6l-6.4,4.3l-2.2-3.3l16.2-11l5.6,8.2c0.5,0.8,0.8,1.5,1,2.3c0.2,0.8,0.2,1.5,0.1,2.2
			s-0.4,1.4-0.8,2c-0.4,0.6-1,1.2-1.6,1.6c-0.9,0.6-1.8,0.9-2.8,0.9c-0.9,0-1.8-0.2-2.6-0.8c0.2,0.9,0.2,1.6,0,2.2s-0.9,1.2-1.8,1.9
			L200.1,478.3z M208,488.2l-2.6-3.2l15.2-12.4l2.6,3.2L208,488.2z M222.2,491.8l-5.9,5.8l-2.9-2.9l14.1-13.7l9.7,10l-2.5,2.4
			l-6.9-7.1l-3.2,3.1l6,6.2l-2.5,2.4L222.2,491.8z M229,509.9l12.9-14.8l3.1,2.7l-12.8,14.8L229,509.9z M254.5,519l-7.8-5.6l-3,4.1
			l8.8,6.4l-2,2.8l-12.1-8.7l11.5-15.9l11.7,8.5l-2,2.8l-8.4-6.1l-2.5,3.4l7.8,5.6L254.5,519z M277.8,526.4
			c-0.2,1.3-0.6,2.5-1.4,3.8c-0.7,1.3-1.6,2.4-2.5,3.3c-1,0.9-2,1.5-3.1,1.9c-1.1,0.4-2.2,0.6-3.3,0.5c-1.1-0.1-2.3-0.4-3.4-1
			l-7.2-4l9.5-17.1l6.6,3.7c1.1,0.6,2.1,1.4,2.9,2.4c0.8,0.9,1.3,2,1.6,3.1C278,524,278,525.1,277.8,526.4z M317.4,545.1
			c-0.4,1.4-1,2.7-1.7,3.8c-0.7,1.1-1.6,1.9-2.5,2.6c-1,0.6-2,1-3.1,1.2c-1.1,0.2-2.3,0.1-3.5-0.2l-7.9-2.2l5.4-18.9l7.3,2.1
			c1.3,0.4,2.4,0.9,3.3,1.6c1,0.7,1.7,1.6,2.2,2.6c0.5,1,0.9,2.1,1,3.4C318,542.3,317.8,543.7,317.4,545.1z M340.6,545.2
			c-0.2,1.1-0.6,1.9-1.2,2.7c-0.6,0.7-1.4,1.2-2.4,1.4c0.8,0.4,1.3,0.9,1.6,1.5c0.3,0.6,0.3,1.5,0.1,2.6l-0.9,5.5l-4-0.6l0.8-5
			c0.1-0.9,0-1.6-0.3-2.1c-0.4-0.5-1.1-0.8-2.3-1l-4.3-0.7l-1.2,7.6l-3.9-0.6l3.1-19.4l9.8,1.6c0.9,0.1,1.7,0.4,2.4,0.8
			c0.7,0.4,1.2,0.9,1.7,1.5c0.4,0.6,0.8,1.2,0.9,2C340.7,543.6,340.7,544.4,340.6,545.2z M350.5,559.8l-4.1-0.3l1.3-19.6l4.1,0.3
			L350.5,559.8z M371.1,560l-8.7-12.9l0.3,13.2l-3.8,0.1l-0.5-19.6l4.3-0.1l8.1,12.4l-0.3-12.6l3.8-0.1l0.5,19.6L371.1,560z
			 M395.1,557.4l-7.1-7.9l-1.8,2.4l1,6.6l-4,0.6l-2.9-19.4l4-0.6l1.2,7.9l6.2-9l5.3-0.8l-6.5,8.8l9.6,10.6L395.1,557.4z
			 M407.5,554.9l-4.7-19l4-1l4.7,19L407.5,554.9z M431.1,547.8l-12.2-9.7l4.3,12.4l-3.6,1.2l-6.4-18.5l4.1-1.4l11.5,9.3l-4.2-11.9
			l3.6-1.3l6.4,18.5L431.1,547.8z M455.5,536.8l-0.9-1.7c-0.1,0.9-0.5,1.9-1.2,2.7c-0.7,0.9-1.7,1.6-2.9,2.2
			c-1.2,0.6-2.4,0.9-3.7,0.8c-1.2,0-2.4-0.3-3.5-0.8s-2.2-1.3-3.1-2.2c-0.9-1-1.7-2-2.3-3.2c-0.6-1.3-1.1-2.6-1.3-3.9
			c-0.2-1.3-0.1-2.6,0.2-3.8c0.3-1.2,0.9-2.3,1.7-3.3c0.8-1,2-1.9,3.4-2.6c1-0.5,2.1-0.8,3.1-1c1.1-0.1,2.1-0.1,3,0.1
			c0.9,0.2,1.8,0.6,2.6,1.1c0.8,0.5,1.4,1.2,1.9,2.1l-3.7,1.8c-0.3-0.4-0.6-0.7-1-0.9c-0.4-0.2-0.8-0.4-1.3-0.5
			c-0.5-0.1-1-0.1-1.5,0c-0.5,0.1-1.1,0.2-1.6,0.5c-1.5,0.7-2.4,1.9-2.7,3.4c-0.3,1.5,0,3.4,1,5.5c0.4,0.7,0.8,1.4,1.4,2
			c0.5,0.6,1.2,1.2,1.9,1.6c0.7,0.4,1.4,0.6,2.2,0.7c0.8,0.1,1.6-0.1,2.5-0.5c0.6-0.3,1.1-0.7,1.5-1.2c0.4-0.5,0.7-1,0.9-1.6
			c0.2-0.6,0.3-1.1,0.3-1.7c0-0.6-0.2-1.2-0.4-1.7l-3.9,1.9l-1.5-2.9l7.3-3.6l4.7,9.4L455.5,536.8z M465.9,422
			c-0.1,1.4-0.3,2.7-0.5,3.9c-0.2,1.3-0.4,2.6-0.7,3.9c0,0.1,0,0.1,0,0.1c-0.2,1.4-0.6,2.7-0.9,4c-0.3,1.2-0.6,2.4-1,3.7
			c0,0.2-0.2,0.4-0.2,0.6c-0.3,1.1-0.7,2.2-1.1,3.2c-1.3,3.9-2.9,7.7-4.9,11.3c-0.5,0.9-1,1.8-1.5,2.8c-0.3,0.6-0.7,1.2-1,1.8
			c-0.2,0.3-0.4,0.6-0.5,0.8c-3.5,5.7-7.9,11-13.1,16c-0.1,0.1-0.2,0.2-0.3,0.3c-0.9,0.8-1.7,1.7-2.6,2.4c-0.3,0.3-0.6,0.5-0.9,0.8
			c-1.7,1.5-3.5,2.9-5.4,4.3c-0.5,0.4-1,0.7-1.5,1.1c-0.4,0.3-0.9,0.7-1.4,1c-0.7,0.5-1.3,0.9-2,1.4c-0.3,0.2-0.5,0.4-0.8,0.5
			c-1.1,0.7-2.2,1.4-3.4,2.1c-0.2,0.2-0.5,0.3-0.7,0.4c-0.9,0.5-1.7,1-2.6,1.5c-0.4,0.2-0.7,0.4-1.1,0.6c-5,2.8-10.5,5.5-16.4,7.8
			c-1.2,0.5-2.5,1-3.8,1.5c-0.4,0.1-0.7,0.3-1.1,0.4c-0.6,0.3-1.3,0.5-1.9,0.7c-5.5,1.9-11.2,3.2-16.9,4.1
			c-5.2,0.8-10.5,1.2-15.8,1.2c-10.5-0.1-21-1.7-31.1-5.1c-0.2-0.1-0.4-0.1-0.7-0.2c-0.4-0.1-0.8-0.3-1.2-0.4
			c-0.8-0.3-1.5-0.6-2.3-0.8c-0.9-0.3-1.7-0.7-2.6-1c-5.9-2.3-11.4-4.9-16.4-7.7c-0.6-0.3-1.2-0.7-1.8-1c0,0-0.1,0-0.1-0.1
			c-0.6-0.4-1.2-0.7-1.8-1.1c-1.7-1-3.4-2-4.9-3.1c-0.1-0.1-0.2-0.2-0.4-0.2c-0.9-0.6-1.8-1.2-2.7-1.9c-0.1-0.1-0.2-0.1-0.3-0.2
			c-0.2-0.1-0.4-0.3-0.6-0.4c-1.2-0.9-2.5-1.8-3.6-2.7c-1-0.8-2-1.6-2.9-2.4c-0.2-0.2-0.5-0.4-0.7-0.6c-0.2-0.1-0.3-0.3-0.5-0.4
			c-0.9-0.8-1.7-1.6-2.5-2.3c-1.4-1.3-2.7-2.6-3.9-3.9c-3.6-3.8-6.7-7.8-9.3-12c-0.2-0.3-0.5-0.7-0.7-1.1c-0.3-0.5-0.6-1-0.9-1.6
			c-0.9-1.6-1.8-3.2-2.7-4.9c-0.5-1-0.9-1.9-1.4-2.9c-0.9-2-1.7-4.1-2.5-6.2c-0.3-0.8-0.6-1.6-0.8-2.4c-0.1-0.3-0.2-0.6-0.3-0.8
			c0,0,0-0.1,0-0.1c0-0.2-0.1-0.3-0.2-0.5c-0.4-1.2-0.7-2.4-1-3.6c-0.4-1.4-0.7-2.7-0.9-4c0,0,0-0.1,0-0.1c0,0,0-0.1,0-0.1
			c-0.1-0.5-0.2-1.1-0.3-1.6c0,0,0,0,0,0c-0.1-0.8-0.3-1.5-0.4-2.3c-0.3-1.4-0.4-2.8-0.6-4.2c-0.1-0.8-0.2-1.7-0.3-2.6
			c0-0.4-0.1-0.8-0.1-1.2c0-0.7-0.1-1.3-0.1-2c0-0.2,0-0.4,0-0.5c0-0.2,0-0.3,0-0.5c0-0.4,0-0.9,0-1.3c0-0.3,0-0.6,0-0.8
			c0-0.5,0-1,0-1.4c0-2.2,0-4.5,0.1-6.8c0-0.5,0-1.1,0-1.6c0-0.3,0-0.6,0-0.9c0-0.6,0.1-1.1,0.1-1.7c0-0.1,0-0.2,0-0.4
			c0-0.9,0.2-1.9,0.2-2.9c0-0.1,0-0.3,0-0.4c0-0.1,0-0.3,0.1-0.4c3.1-32,17.5-66.3,34.6-96.9c19.2-34.4,41.8-64.3,56-81.8
			c6.4-8,18.6-8,25.1-0.1c21.7,26.5,63.6,82.1,82.6,138.4c0,0.1,0.1,0.2,0.1,0.3c4.5,13.2,7.6,26.5,9,39.4c0.1,0.3,0.1,0.5,0.1,0.8
			c0.1,0.9,0.2,1.9,0.3,2.9c0,0.7,0.1,1.4,0.2,2.1c0.1,0.8,0.1,1.7,0.1,2.5c0.1,2.2,0.1,4.4,0.1,6.6
			C466.6,415,466.4,418.6,465.9,422z M465.7,213.6c-0.9-0.3-1.9-0.8-2.8-1.5c-1-0.7-1.8-1.4-2.5-2.2c-0.7-0.8-1.2-1.6-1.5-2.5
			c-0.3-0.9-0.4-1.8-0.2-2.7c0.1-0.9,0.5-1.8,1.1-2.7l3.3,2.2c-0.5,0.8-0.7,1.7-0.3,2.6c0.3,0.9,1,1.8,2.1,2.5c1,0.7,1.9,1,2.7,1
			c0.8,0,1.5-0.4,2-1.1c0.2-0.2,0.3-0.5,0.3-0.7c0.1-0.2,0.1-0.5,0-0.8s-0.2-0.6-0.5-1c-0.2-0.4-0.6-0.8-1-1.2
			c-0.8-0.9-1.6-1.7-2.1-2.3c-0.6-0.6-1.1-1.3-1.5-2c-0.6-1-0.9-2-1-2.9c0-0.9,0.3-1.9,1-3c0.5-0.7,1.1-1.3,1.8-1.8s1.4-0.7,2.2-0.8
			c0.8-0.1,1.7,0,2.6,0.2c0.9,0.3,1.9,0.7,2.8,1.4c1,0.7,1.8,1.5,2.5,2.3c0.6,0.8,1,1.6,1.3,2.5c0.2,0.8,0.3,1.7,0.1,2.5
			c-0.1,0.8-0.5,1.7-1,2.5l-3.2-2.2c0.5-0.9,0.6-1.7,0.4-2.5c-0.2-0.8-0.9-1.5-1.9-2.2c-1-0.6-1.8-1-2.5-1c-0.7,0-1.3,0.3-1.7,0.9
			c-0.4,0.5-0.5,1.1-0.3,1.6c0.2,0.6,0.6,1.3,1.4,2.1c0.8,0.9,1.5,1.7,2.2,2.5c0.7,0.8,1.2,1.5,1.7,2.2c0.2,0.4,0.5,0.8,0.6,1.2
			c0.2,0.4,0.3,0.9,0.3,1.3c0,0.5,0,0.9-0.2,1.5c-0.2,0.5-0.4,1-0.8,1.6c-0.6,0.9-1.3,1.6-2.1,2c-0.8,0.4-1.6,0.6-2.4,0.7
			C467.5,214.1,466.6,214,465.7,213.6z M494.6,509.6l-10.6-7.7l6,11.7l-2.9,2.5l-17-11.2l3.3-2.9l10.7,7.5l-6.2-11.4l3.3-2.8
			l10.5,7.7l-5.9-11.7l3.2-2.7l8.6,18.4L494.6,509.6z M516,487.5l-3.9-1.7l-4.8,5.5l2.1,3.7l-2.8,3.3l-10.2-18.1l3.1-3.6l19.3,7.7
			L516,487.5z M526.6,473.5l-13.4-9l-3.3,4.9l-2.8-1.9l8.9-13.2l2.8,1.9l-3.3,4.9l13.4,9L526.6,473.5z M536.1,458.3l-17.4-9
			l6.6-12.8l3,1.6l-4.8,9.3l3.7,1.9l4.4-8.5l3.1,1.6l-4.4,8.5l4.5,2.3l5-9.7l3.1,1.6L536.1,458.3z M550.2,427.3l-4.7-1.8
			c-0.9-0.3-1.6-0.4-2.1-0.1c-0.5,0.3-1,0.9-1.4,2l-1.5,4.1l7.2,2.7l-1.4,3.7l-18.4-6.9l3.5-9.3c0.3-0.9,0.7-1.6,1.3-2.2
			c0.5-0.6,1.1-1,1.8-1.4c0.7-0.3,1.4-0.5,2.1-0.5s1.5,0.1,2.3,0.4c1,0.4,1.8,0.9,2.4,1.7c0.6,0.8,0.9,1.6,0.9,2.6
			c0.6-0.7,1.2-1.1,1.8-1.3c0.7-0.1,1.5,0,2.6,0.4l5.2,2L550.2,427.3z M542.9,398.8c2.7-12.5,4.1-25.5,4.1-38.8
			c0-56.9-25.7-107.9-66.2-141.9l8.3-5.9c41.5,35.8,67.8,88.8,67.8,147.8c0,15.5-1.8,30.6-5.2,45L542.9,398.8z"/>
		<path class="st29" d="M458.6,535.3l-3,1.5l-0.9-1.7c-0.1,0.9-0.5,1.9-1.2,2.7c-0.7,0.9-1.7,1.6-2.9,2.2c-1.2,0.6-2.4,0.9-3.7,0.8
			c-1.2,0-2.4-0.3-3.5-0.8s-2.2-1.3-3.1-2.2c-0.9-1-1.7-2-2.3-3.2c-0.6-1.3-1.1-2.6-1.3-3.9c-0.2-1.3-0.1-2.6,0.2-3.8
			c0.3-1.2,0.9-2.3,1.7-3.3c0.8-1,2-1.9,3.4-2.6c1-0.5,2.1-0.8,3.1-1c1.1-0.1,2.1-0.1,3,0.1c0.9,0.2,1.8,0.6,2.6,1.1
			c0.8,0.5,1.4,1.2,1.9,2.1l-3.7,1.8c-0.3-0.4-0.6-0.7-1-0.9c-0.4-0.2-0.8-0.4-1.3-0.5c-0.5-0.1-1-0.1-1.5,0
			c-0.5,0.1-1.1,0.2-1.6,0.5c-1.5,0.7-2.4,1.9-2.7,3.4c-0.3,1.5,0,3.4,1,5.5c0.4,0.7,0.8,1.4,1.4,2c0.5,0.6,1.2,1.2,1.9,1.6
			c0.7,0.4,1.4,0.6,2.2,0.7c0.8,0.1,1.6-0.1,2.5-0.5c0.6-0.3,1.1-0.7,1.5-1.2c0.4-0.5,0.7-1,0.9-1.6c0.2-0.6,0.3-1.1,0.3-1.7
			c0-0.6-0.2-1.2-0.4-1.7l-3.9,1.9l-1.5-2.9l7.3-3.6L458.6,535.3z"/>
		<polygon class="st29" points="494.6,509.6 484,501.9 490,513.6 487.1,516.1 470.1,504.9 473.4,502 484.1,509.5 477.9,498.1 
			481.1,495.3 491.7,503 485.8,491.3 489,488.6 497.6,507 		"/>
		<path class="st29" d="M499.6,476.5l-3.1,3.6l10.2,18.1l2.8-3.3l-2.1-3.7l4.8-5.5l3.9,1.7l2.9-3.4L499.6,476.5z M505.5,488.2
			l-4.2-7l0,0l7.5,3.3L505.5,488.2z"/>
		<polygon class="st29" points="528.8,470.1 526.6,473.5 513.1,464.4 509.8,469.3 507,467.4 515.9,454.2 518.7,456.1 515.4,461 		
			"/>
		<polygon class="st29" points="543,445.1 536.1,458.3 518.7,449.3 525.3,436.5 528.4,438.1 523.6,447.4 527.3,449.3 531.7,440.7 
			534.8,442.3 530.4,450.9 534.9,453.2 539.9,443.5 		"/>
		<path class="st29" d="M543.3,425.5c0.5-0.3,1.2-0.2,2.1,0.1l4.7,1.8l1.4-3.8l-5.2-2c-1.1-0.4-1.9-0.5-2.6-0.4
			c-0.7,0.1-1.3,0.6-1.8,1.3c0-1-0.3-1.9-0.9-2.6c-0.6-0.8-1.4-1.3-2.4-1.7c-0.8-0.3-1.5-0.4-2.3-0.4s-1.5,0.2-2.1,0.5
			c-0.7,0.3-1.2,0.8-1.8,1.4c-0.5,0.6-1,1.3-1.3,2.2l-3.5,9.3l18.4,6.9l1.4-3.7l-7.2-2.7l1.5-4.1
			C542.3,426.4,542.8,425.7,543.3,425.5z M539.1,425.6l-1.8,4.8l-4.9-1.8l1.9-5c0.4-1,0.9-1.6,1.5-1.8c0.6-0.2,1.3-0.2,2,0
			c0.7,0.3,1.2,0.7,1.5,1.3C539.5,423.8,539.5,424.6,539.1,425.6z"/>
		<polygon class="st29" points="431.1,547.8 418.9,538.1 423.2,550.5 419.6,551.8 413.2,533.2 417.3,531.8 428.8,541.2 424.6,529.2 
			428.2,528 434.7,546.5 		"/>
		<polygon class="st29" points="411.5,553.9 407.5,554.9 402.8,535.8 406.8,534.8 		"/>
		<polygon class="st29" points="400,556.7 395.1,557.4 388,549.5 386.2,552 387.2,558.6 383.2,559.2 380.3,539.8 384.3,539.2 
			385.5,547.1 391.7,538.1 397,537.3 390.5,546.1 		"/>
		<polygon class="st29" points="371.1,560 362.4,547 362.7,560.2 358.9,560.3 358.4,540.7 362.7,540.6 370.8,553 370.5,540.4 
			374.4,540.3 374.9,559.9 		"/>
		<polygon class="st29" points="351.8,540.3 350.5,559.8 346.4,559.6 347.7,540 		"/>
		<path class="st29" d="M340.5,542.9c-0.2-0.7-0.5-1.4-0.9-2c-0.4-0.6-1-1.1-1.7-1.5c-0.7-0.4-1.5-0.7-2.4-0.8l-9.8-1.6l-3.1,19.4
			l3.9,0.6l1.2-7.6l4.3,0.7c1.2,0.2,1.9,0.5,2.3,1c0.4,0.5,0.5,1.2,0.3,2.1l-0.8,5l4,0.6l0.9-5.5c0.2-1.1,0.1-2-0.1-2.6
			c-0.3-0.6-0.8-1.1-1.6-1.5c1-0.2,1.8-0.6,2.4-1.4c0.6-0.7,1-1.6,1.2-2.7C340.7,544.4,340.7,543.6,340.5,542.9z M336.7,544.9
			c-0.1,0.7-0.4,1.3-1,1.7c-0.5,0.4-1.3,0.5-2.4,0.4l-5.1-0.8l0.8-5.2l5.2,0.8c1,0.2,1.7,0.5,2.1,1.1
			C336.7,543.5,336.9,544.2,336.7,544.9z"/>
		<path class="st29" d="M317.9,541c-0.1-1.3-0.4-2.4-1-3.4c-0.5-1-1.3-1.9-2.2-2.6c-1-0.7-2.1-1.3-3.3-1.6l-7.3-2.1l-5.4,18.9
			l7.9,2.2c1.2,0.3,2.4,0.4,3.5,0.2c1.1-0.2,2.2-0.6,3.1-1.2c1-0.6,1.8-1.5,2.5-2.6c0.7-1.1,1.3-2.3,1.7-3.8
			C317.8,543.7,318,542.3,317.9,541z M313.4,543.9c-0.6,2.1-1.5,3.6-2.5,4.5c-1.1,0.8-2.5,1-4.2,0.5l-3.3-0.9l3.5-12.4l2.9,0.8
			c1,0.3,1.7,0.6,2.3,1c0.6,0.4,1,0.9,1.3,1.5c0.3,0.6,0.4,1.3,0.4,2.1C313.9,542,313.7,542.9,313.4,543.9z"/>
		<path class="st29" d="M214.3,465.1c-0.2-0.8-0.5-1.5-1-2.3l-5.6-8.2l-16.2,11l2.2,3.3l6.4-4.3l2.5,3.6c0.7,1,0.9,1.8,0.8,2.3
			c-0.1,0.6-0.5,1.1-1.3,1.7l-4.2,2.8l2.2,3.3l4.6-3.1c0.9-0.6,1.5-1.3,1.8-1.9s0.3-1.4,0-2.2c0.8,0.6,1.7,0.9,2.6,0.8
			c1,0,1.9-0.4,2.8-0.9c0.7-0.5,1.2-1,1.6-1.6c0.4-0.6,0.7-1.3,0.8-2S214.4,465.8,214.3,465.1z M210.7,466.4
			c-0.2,0.6-0.6,1.2-1.2,1.6c-0.6,0.4-1.3,0.6-1.9,0.5c-0.7-0.1-1.3-0.6-1.9-1.5l-2.9-4.3l4.3-2.9l3,4.4
			C210.6,465,210.8,465.7,210.7,466.4z"/>
		<path class="st29" d="M193,424.4l-3-8.1l-18.4,6.9l1.4,3.8l6.7-2.5l1.6,4.3c0.3,0.9,0.8,1.7,1.3,2.3c0.5,0.6,1.2,1.1,1.9,1.4
			s1.5,0.5,2.3,0.5c0.8,0,1.6-0.1,2.5-0.5c0.8-0.3,1.5-0.7,2.2-1.3c0.6-0.5,1.1-1.2,1.4-1.9c0.4-0.7,0.6-1.5,0.6-2.3
			C193.5,426.2,193.3,425.3,193,424.4z M189.7,427.6c-0.3,0.7-0.9,1.2-1.6,1.4c-0.8,0.3-1.6,0.3-2.3,0c-0.7-0.3-1.2-1-1.7-2.1
			l-1.4-3.6l5.4-2l1.4,3.6C190,426.1,190,427,189.7,427.6z"/>
		<path class="st29" d="M204.6,449.3l-11.6,6c-2.1,1.1-4,1.3-5.8,0.6c-1.7-0.7-3.2-2.2-4.3-4.5c-1.1-2.1-1.4-4.1-1.1-5.8
			c0.4-1.8,1.6-3.2,3.7-4.3l11.8-6.1l1.9,3.7l-11.5,5.9c-1.1,0.6-1.8,1.3-2.2,2.1c-0.3,0.9-0.3,1.8,0.2,2.8c1.2,2.3,2.9,2.9,5.2,1.8
			l11.6-6L204.6,449.3z"/>
		
			<rect x="204.5" y="478.4" transform="matrix(0.7747 -0.6324 0.6324 0.7747 -255.5232 243.7516)" class="st29" width="19.6" height="4.1"/>
		<polygon class="st29" points="227.8,486.3 224.6,489.4 230.7,495.6 228.2,498 222.2,491.8 216.2,497.5 213.4,494.6 227.5,480.9 
			237.2,491 234.7,493.4 		"/>
		
			<rect x="227.1" y="501.8" transform="matrix(0.6556 -0.7551 0.7551 0.6556 -298.8219 352.4238)" class="st29" width="19.6" height="4.1"/>
		<polygon class="st29" points="251.2,507.2 248.7,510.6 256.5,516.2 254.5,519 246.7,513.4 243.7,517.5 252.6,523.8 250.5,526.7 
			238.5,517.9 250,502.1 261.6,510.5 259.6,513.3 		"/>
		<path class="st29" d="M277.6,522.8c-0.3-1.1-0.8-2.1-1.6-3.1c-0.8-0.9-1.7-1.7-2.9-2.4l-6.6-3.7l-9.5,17.1l7.2,4
			c1.1,0.6,2.2,1,3.4,1c1.2,0.1,2.3-0.1,3.3-0.5c1.1-0.4,2.1-1,3.1-1.9c0.9-0.9,1.8-2,2.5-3.3c0.7-1.3,1.2-2.6,1.4-3.8
			C278,525.1,278,524,277.6,522.8z M273.9,525.6c-0.2,0.8-0.6,1.7-1.1,2.6c-1.1,2-2.2,3.2-3.5,3.8c-1.2,0.6-2.7,0.4-4.2-0.4l-3-1.6
			l6.3-11.2l2.7,1.5c0.9,0.5,1.5,1,2,1.5c0.5,0.5,0.8,1.1,0.9,1.8C274.2,524.1,274.1,524.8,273.9,525.6z"/>
		<path class="st29" d="M395,168.4c0.2-1.6-0.1-3-1-4.1c-0.9-1.1-2.3-1.8-4.2-2l-9.6-1.3l-2.6,19.4l8.8,1.2c2.5,0.3,4.3,0.1,5.7-0.8
			c1.3-0.9,2.1-2.2,2.4-4c0.1-0.7,0.1-1.3,0-1.9c-0.1-0.5-0.2-1-0.5-1.4c-0.2-0.4-0.5-0.8-0.8-1.1c-0.3-0.3-0.7-0.6-1.1-0.8
			c0.7-0.2,1.3-0.6,1.9-1.2C394.5,169.9,394.9,169.2,395,168.4z M390.5,176c-0.1,0.8-0.5,1.4-1.1,1.9c-0.6,0.5-1.4,0.6-2.3,0.5
			l-5.2-0.7l0.7-5.2l5.2,0.7c0.9,0.1,1.6,0.4,2.1,0.9C390.5,174.5,390.6,175.1,390.5,176z M391,168c-0.2,1.4-1.1,2-2.7,1.8l-5.1-0.7
			l0.6-4.2l4.9,0.7c1,0.1,1.6,0.4,2,0.8C391,166.7,391.1,167.3,391,168z"/>
		<path class="st29" d="M425.1,173c-0.5-1.1-1.2-2.1-2.2-2.9c-1-0.8-2.2-1.4-3.6-1.9c-1.5-0.4-2.8-0.6-4.1-0.5
			c-1.2,0.1-2.4,0.5-3.4,1.1c-1,0.6-1.9,1.5-2.7,2.7c-0.8,1.1-1.4,2.5-1.9,4.1c-1,3.2-0.9,5.9,0.1,8c1,2.2,3,3.7,5.9,4.6
			c2.9,0.9,5.4,0.7,7.4-0.4c2-1.2,3.5-3.4,4.5-6.6c0.5-1.6,0.7-3.1,0.7-4.5C425.9,175.3,425.6,174.1,425.1,173z M421.3,180
			c-0.3,1.1-0.8,2-1.3,2.8c-0.5,0.7-1.1,1.3-1.7,1.7c-0.6,0.4-1.3,0.6-2,0.7c-0.7,0.1-1.4,0-2.1-0.2c-1.7-0.5-2.8-1.4-3.3-2.7
			c-0.6-1.3-0.5-3.1,0.1-5.3c0.7-2.2,1.6-3.8,2.9-4.7c1.2-0.9,2.7-1.1,4.3-0.6c1.7,0.5,2.8,1.5,3.3,2.9C422,176,422,177.8,421.3,180
			z"/>
		<path class="st29" d="M449.2,187.1c0.3-0.9,0.3-1.8,0-2.5c-0.4-0.7-1.1-1.3-2.2-1.9c-1-0.5-1.9-0.7-2.6-0.6
			c-0.7,0.1-1.2,0.5-1.5,1.2c-0.3,0.6-0.3,1.1,0,1.7c0.2,0.5,0.8,1.2,1.7,1.9c0.9,0.7,1.7,1.5,2.5,2.1c0.8,0.7,1.5,1.3,2,2
			c0.3,0.4,0.6,0.8,0.8,1.1c0.2,0.4,0.4,0.8,0.5,1.3c0.1,0.5,0.1,1,0,1.5c-0.1,0.5-0.3,1.1-0.6,1.7c-0.5,1-1.1,1.7-1.7,2.3
			c-0.7,0.5-1.5,0.9-2.3,1c-0.9,0.2-1.8,0.1-2.7-0.1c-1-0.2-2-0.5-3-1c-1.1-0.5-2-1.1-2.8-1.8c-0.8-0.7-1.4-1.4-1.8-2.2
			c-0.4-0.8-0.6-1.7-0.6-2.6c0-0.9,0.2-1.9,0.7-2.9l3.6,1.7c-0.4,0.9-0.4,1.8,0.1,2.7c0.4,0.9,1.3,1.6,2.4,2.2
			c1.1,0.5,2.1,0.7,2.9,0.6c0.8-0.1,1.4-0.6,1.8-1.4c0.1-0.3,0.2-0.5,0.2-0.8c0-0.2,0-0.5-0.1-0.8c-0.1-0.3-0.3-0.6-0.6-0.9
			c-0.3-0.3-0.7-0.7-1.2-1.1c-1-0.8-1.8-1.5-2.5-2c-0.7-0.5-1.2-1.1-1.7-1.7c-0.8-0.9-1.2-1.8-1.4-2.7c-0.2-0.9,0-2,0.6-3.1
			c0.4-0.8,0.9-1.5,1.5-2c0.6-0.5,1.3-0.9,2-1.1c0.8-0.2,1.6-0.3,2.6-0.1c0.9,0.1,1.9,0.5,3,1c1.1,0.5,2,1.2,2.8,1.9
			c0.7,0.7,1.3,1.5,1.6,2.3c0.3,0.8,0.5,1.6,0.5,2.5c0,0.9-0.2,1.7-0.6,2.6L449.2,187.1z"/>
		<path class="st29" d="M478,201.8c-0.1,0.8-0.5,1.7-1,2.5l-3.2-2.2c0.5-0.9,0.6-1.7,0.4-2.5c-0.2-0.8-0.9-1.5-1.9-2.2
			c-1-0.6-1.8-1-2.5-1c-0.7,0-1.3,0.3-1.7,0.9c-0.4,0.5-0.5,1.1-0.3,1.6c0.2,0.6,0.6,1.3,1.4,2.1c0.8,0.9,1.5,1.7,2.2,2.5
			c0.7,0.8,1.2,1.5,1.7,2.2c0.2,0.4,0.5,0.8,0.6,1.2c0.2,0.4,0.3,0.9,0.3,1.3c0,0.5,0,0.9-0.2,1.5c-0.2,0.5-0.4,1-0.8,1.6
			c-0.6,0.9-1.3,1.6-2.1,2c-0.8,0.4-1.6,0.6-2.4,0.7c-0.9,0-1.8-0.1-2.7-0.5c-0.9-0.3-1.9-0.8-2.8-1.5c-1-0.7-1.8-1.4-2.5-2.2
			c-0.7-0.8-1.2-1.6-1.5-2.5c-0.3-0.9-0.4-1.8-0.2-2.7c0.1-0.9,0.5-1.8,1.1-2.7l3.3,2.2c-0.5,0.8-0.7,1.7-0.3,2.6
			c0.3,0.9,1,1.8,2.1,2.5c1,0.7,1.9,1,2.7,1c0.8,0,1.5-0.4,2-1.1c0.2-0.2,0.3-0.5,0.3-0.7c0.1-0.2,0.1-0.5,0-0.8s-0.2-0.6-0.5-1
			c-0.2-0.4-0.6-0.8-1-1.2c-0.8-0.9-1.6-1.7-2.1-2.3c-0.6-0.6-1.1-1.3-1.5-2c-0.6-1-0.9-2-1-2.9c0-0.9,0.3-1.9,1-3
			c0.5-0.7,1.1-1.3,1.8-1.8s1.4-0.7,2.2-0.8c0.8-0.1,1.7,0,2.6,0.2c0.9,0.3,1.9,0.7,2.8,1.4c1,0.7,1.8,1.5,2.5,2.3
			c0.6,0.8,1,1.6,1.3,2.5C478.1,200.1,478.2,200.9,478,201.8z"/>
		<path class="st29" d="M341.2,161.2l-4.7,0.5l-4.8,20.3l4.3-0.5l0.9-4.2l7.2-0.8l1.7,3.9l4.4-0.5L341.2,161.2z M337.6,173.9l1.6-8
			h0l3.3,7.5L337.6,173.9z"/>
		<path class="st29" d="M318.3,183.7c-1,1.5-2.8,2.6-5.3,3.3c-2.3,0.6-4.3,0.6-5.9-0.2c-1.6-0.7-2.8-2.2-3.4-4.5l-3.5-12.8l4-1.1
			l3.4,12.5c0.3,1.2,0.9,2,1.7,2.5c0.8,0.5,1.7,0.6,2.8,0.3c2.5-0.7,3.5-2.3,2.8-4.7l-3.5-12.6l4-1.1l3.5,12.6
			C319.6,180.3,319.4,182.2,318.3,183.7z"/>
		<path class="st29" d="M290.1,193.2C290.1,193.2,290.1,193.2,290.1,193.2c0.6-0.9,1-1.9,1.2-3c0.2-1,0.2-2.1,0.1-3.2
			c-0.1-1.1-0.5-2.2-1-3.3c-0.7-1.5-1.5-2.8-2.4-3.8c-0.9-1-1.9-1.8-3-2.3c-1.1-0.5-2.3-0.8-3.6-0.7c-1.3,0-2.6,0.4-3.9,1
			c-1.4,0.6-2.5,1.4-3.4,2.3c-0.8,0.9-1.5,2-1.8,3.1c-0.4,1.2-0.5,2.4-0.3,3.8c0.2,1.4,0.6,2.8,1.3,4.3c1.2,2.7,2.8,4.6,4.7,5.5
			c1.9,1,4,1.1,6.4,0.4c0,0,1.4-0.4,2.9-1.5l3,2.5l2.5-3L290.1,193.2z M287.4,190.6c0,0.1-0.1,0.2-0.1,0.3l-2.2-1.8l-2.5,3l2,1.6
			c-1.5,0.7-3,0.7-4.2,0.2c-1.3-0.6-2.4-1.9-3.4-4c-1-2.1-1.3-3.9-0.9-5.4c0.3-1.5,1.3-2.6,2.9-3.3c1.6-0.7,3-0.7,4.3,0
			c1.3,0.7,2.5,2.1,3.4,4.2c0.5,1.1,0.8,2,0.9,2.9C287.7,189.1,287.6,189.9,287.4,190.6z"/>
		<path class="st29" d="M250.7,193.3l-3.9,2.7l5.2,20.2l3.6-2.4l-1.1-4.1l6-4.1l3.3,2.7l3.7-2.5L250.7,193.3z M253.5,206.2l-2.3-7.9
			l0,0l6.4,5.1L253.5,206.2z"/>
		<path class="st29" d="M556.9,360c0,15.5-1.8,30.6-5.2,45l-8.7-6.2c2.7-12.5,4.1-25.5,4.1-38.8c0-56.9-25.7-107.9-66.2-141.9
			l8.3-5.9C530.6,248.1,556.9,301,556.9,360z"/>
		<path class="st29" d="M466.6,411c0,3.9-0.2,7.6-0.7,10.9c-0.1,1.4-0.3,2.7-0.5,3.9c-0.2,1.3-0.4,2.6-0.7,3.9c0,0.1,0,0.1,0,0.1
			c-0.2,1.4-0.6,2.7-0.9,4c-0.3,1.2-0.6,2.4-1,3.7c0,0.2-0.2,0.4-0.2,0.6c-0.3,1.1-0.7,2.2-1.1,3.2c-1.3,3.9-2.9,7.7-4.9,11.3
			c-0.5,0.9-1,1.8-1.5,2.8c-0.3,0.6-0.7,1.2-1,1.8c-0.2,0.3-0.4,0.6-0.5,0.8c-3.5,5.7-7.9,11-13.1,16c-0.1,0.1-0.2,0.2-0.3,0.3
			c-0.9,0.8-1.7,1.7-2.6,2.4c-0.3,0.3-0.6,0.5-0.9,0.8c-1.7,1.5-3.5,2.9-5.4,4.3c-0.5,0.4-1,0.7-1.5,1.1c-0.4,0.3-0.9,0.7-1.4,1
			c-0.7,0.5-1.3,0.9-2,1.4c-0.3,0.2-0.5,0.4-0.8,0.5c-1.1,0.7-2.2,1.4-3.4,2.1c-0.2,0.2-0.5,0.3-0.7,0.4c-0.9,0.5-1.7,1-2.6,1.5
			c-0.4,0.2-0.7,0.4-1.1,0.6c-5,2.8-10.5,5.5-16.4,7.8c-1.2,0.5-2.5,1-3.8,1.5c-0.4,0.1-0.7,0.3-1.1,0.4c-0.6,0.3-1.3,0.5-1.9,0.7
			c-5.5,1.9-11.2,3.2-16.9,4.1c-5.2,0.8-10.5,1.2-15.8,1.2c-10.5-0.1-21-1.7-31.1-5.1c-0.2-0.1-0.4-0.1-0.7-0.2
			c-0.4-0.1-0.8-0.3-1.2-0.4c-0.8-0.3-1.5-0.6-2.3-0.8c-0.9-0.3-1.7-0.7-2.6-1c-5.9-2.3-11.4-4.9-16.4-7.7c-0.6-0.3-1.2-0.7-1.8-1
			c0,0-0.1,0-0.1-0.1c-0.6-0.4-1.2-0.7-1.8-1.1c-1.7-1-3.4-2-4.9-3.1c-0.1-0.1-0.2-0.2-0.4-0.2c-0.9-0.6-1.8-1.2-2.7-1.9
			c-0.1-0.1-0.2-0.1-0.3-0.2c-0.2-0.1-0.4-0.3-0.6-0.4c-1.2-0.9-2.5-1.8-3.6-2.7c-1-0.8-2-1.6-2.9-2.4c-0.2-0.2-0.5-0.4-0.7-0.6
			c-0.2-0.1-0.3-0.3-0.5-0.4c-0.9-0.8-1.7-1.6-2.5-2.3c-1.4-1.3-2.7-2.6-3.9-3.9c-3.6-3.8-6.7-7.8-9.3-12c-0.2-0.3-0.5-0.7-0.7-1.1
			c-0.3-0.5-0.6-1-0.9-1.6c-0.9-1.6-1.8-3.2-2.7-4.9c-0.5-1-0.9-1.9-1.4-2.9c-0.9-2-1.7-4.1-2.5-6.2c-0.3-0.8-0.6-1.6-0.8-2.4
			c-0.1-0.3-0.2-0.6-0.3-0.8c0,0,0-0.1,0-0.1c0-0.2-0.1-0.3-0.2-0.5c-0.4-1.2-0.7-2.4-1-3.6c-0.4-1.4-0.7-2.7-0.9-4c0,0,0-0.1,0-0.1
			c0,0,0-0.1,0-0.1c-0.1-0.5-0.2-1.1-0.3-1.6c0,0,0,0,0,0c-0.1-0.8-0.3-1.5-0.4-2.3c-0.3-1.4-0.4-2.8-0.6-4.2
			c-0.1-0.8-0.2-1.7-0.3-2.6c0-0.4-0.1-0.8-0.1-1.2c0-0.7-0.1-1.3-0.1-2c0-0.2,0-0.4,0-0.5c0-0.2,0-0.3,0-0.5c0-0.4,0-0.9,0-1.3
			c0-0.3,0-0.6,0-0.8c0-0.5,0-1,0-1.4c0-2.2,0-4.5,0.1-6.8c0-0.5,0-1.1,0-1.6c0-0.3,0-0.6,0-0.9c0-0.6,0.1-1.1,0.1-1.7
			c0-0.1,0-0.2,0-0.4c0-0.9,0.2-1.9,0.2-2.9c0-0.1,0-0.3,0-0.4c0-0.1,0-0.3,0.1-0.4c3.1-32,17.5-66.3,34.6-96.9
			c19.2-34.4,41.8-64.3,56-81.8c6.4-8,18.6-8,25.1-0.1c21.7,26.5,63.6,82.1,82.6,138.4c0,0.1,0.1,0.2,0.1,0.3
			c4.5,13.2,7.6,26.5,9,39.4c0.1,0.3,0.1,0.5,0.1,0.8c0.1,0.9,0.2,1.9,0.3,2.9c0,0.7,0.1,1.4,0.2,2.1c0.1,0.8,0.1,1.7,0.1,2.5
			C466.6,406.7,466.7,408.9,466.6,411z"/>
		<path class="st29" d="M455.1,237.7c0,0.7,0,1.4-0.1,2.1c0,0.3,0,0.6-0.1,0.9c0,0.4-0.1,0.8-0.2,1.2c0,0.3-0.1,0.6-0.2,0.9
			c-0.2,1.2-0.5,2.5-1,3.7c-0.1,0.3-0.2,0.7-0.4,1c0,0.1-0.1,0.3-0.2,0.4c-1.7,4.3-4.8,8-8.7,10.4c-0.1,0.1-0.2,0.2-0.4,0.2
			c-0.3,0.2-0.7,0.4-1,0.5c-1.2,0.6-2.4,1.2-3.5,1.6c-0.3,0.1-0.6,0.2-0.9,0.3c-0.4,0.1-0.8,0.3-1.2,0.4c-0.3,0.1-0.6,0.2-0.8,0.2
			c-0.7,0.2-1.4,0.3-2.1,0.4c-0.3,0.1-0.6,0.1-0.9,0.1c-1.5,0.2-3,0.1-4.4,0c-0.2,0-0.4-0.1-0.6-0.1c-1.1-0.2-2.2-0.5-3.2-0.9
			c-0.2-0.1-0.5-0.2-0.7-0.3c0,0-0.1,0-0.1,0c-0.2-0.1-0.5-0.2-0.7-0.3c-0.3-0.1-0.5-0.3-0.8-0.4c0,0,0,0,0,0
			c-0.2-0.1-0.5-0.3-0.7-0.4c-0.3-0.1-0.5-0.3-0.8-0.5c-0.2-0.1-0.5-0.3-0.7-0.4c-0.1-0.1-0.3-0.2-0.4-0.3c-0.2-0.1-0.3-0.2-0.5-0.3
			c-0.4-0.3-0.9-0.7-1.3-1.1c-0.1-0.1-0.3-0.2-0.4-0.4c-0.1-0.1-0.2-0.2-0.3-0.3c-0.1-0.1-0.3-0.3-0.4-0.4c0,0-0.1-0.1-0.1-0.1
			c-10.1-10.4-14.9-30.4-16.6-39.2c-0.4-2.1,1.2-4.1,3.4-4.1c9,0.1,29.5,1.4,41.5,9.6c0.1,0,0.1,0,0.1,0.1c0.2,0.1,0.3,0.2,0.5,0.4
			c0.1,0.1,0.2,0.2,0.4,0.3c0.2,0.1,0.3,0.2,0.4,0.3c0.5,0.4,0.9,0.7,1.3,1.1c0.1,0.1,0.3,0.2,0.4,0.4c0.1,0.1,0.3,0.2,0.4,0.4
			c0.2,0.2,0.4,0.4,0.5,0.6c0.2,0.2,0.4,0.4,0.6,0.7c0.2,0.2,0.4,0.4,0.6,0.7c0,0,0,0,0,0c0.2,0.2,0.4,0.5,0.5,0.7
			c0.1,0.2,0.3,0.4,0.5,0.7c0,0,0,0.1,0.1,0.1c0.1,0.2,0.3,0.4,0.4,0.6c0.6,0.9,1,1.9,1.4,3c0.1,0.2,0.1,0.4,0.2,0.6
			c0.4,1.4,0.7,2.8,0.8,4.3C455.1,237.1,455.1,237.4,455.1,237.7z"/>
		<path class="st29" d="M176.2,360c0,13,1.3,25.6,3.9,37.8l-8.7,6.2c-3.3-14.2-5-28.9-5-44c0-58.6,26-111.3,67-147.2l8.3,5.9
			C201.7,252.8,176.2,303.5,176.2,360z"/>
		<polygon class="st28" points="342.6,173.4 337.6,173.9 339.2,165.9 339.3,165.9 		"/>
		<path class="st28" d="M539.1,425.6l-1.8,4.8l-4.9-1.8l1.9-5c0.4-1,0.9-1.6,1.5-1.8c0.6-0.2,1.3-0.2,2,0c0.7,0.3,1.2,0.7,1.5,1.3
			C539.5,423.8,539.5,424.6,539.1,425.6z"/>
		<path class="st28" d="M391,168c-0.2,1.4-1.1,2-2.7,1.8l-5.1-0.7l0.6-4.2l4.9,0.7c1,0.1,1.6,0.4,2,0.8
			C391,166.7,391.1,167.3,391,168z"/>
		<path class="st28" d="M390.5,176c-0.1,0.8-0.5,1.4-1.1,1.9c-0.6,0.5-1.4,0.6-2.3,0.5l-5.2-0.7l0.7-5.2l5.2,0.7
			c0.9,0.1,1.6,0.4,2.1,0.9C390.5,174.5,390.6,175.1,390.5,176z"/>
	</g>
</g>
</svg>
