<?xml version="1.0" encoding="utf-8"?>
<!-- Generator: Adobe Illustrator 26.5.0, SVG Export Plug-In . SVG Version: 6.00 Build 0)  -->
<svg version="1.1" id="Layer_1" xmlns="http://www.w3.org/2000/svg" xmlns:xlink="http://www.w3.org/1999/xlink" x="0px" y="0px"
	 viewBox="0 0 720 720" style="enable-background:new 0 0 720 720;" xml:space="preserve">
<style type="text/css">
	.st0{clip-path:url(#SVGID_00000023995979429606607890000008457956377750581695_);}
	.st1{clip-path:url(#SVGID_00000052800221082432800370000012655638396408347299_);}
	.st2{clip-path:url(#SVGID_00000181049989084863605240000009698231619860473226_);}
	.st3{clip-path:url(#SVGID_00000054952759851023061000000004094015637225587863_);}
	.st4{clip-path:url(#SVGID_00000163793385990979294000000009707556540182656441_);}
	.st5{clip-path:url(#SVGID_00000011738898301864902790000006678304581536267655_);}
	.st6{clip-path:url(#SVGID_00000173857496545554494910000003514638083682986124_);}
	.st7{clip-path:url(#SVGID_00000064336980803544050010000011298686051089963429_);}
	.st8{clip-path:url(#SVGID_00000047022802186324346130000017589054305287787907_);}
	.st9{clip-path:url(#SVGID_00000020361455334127667550000004050301098459267770_);}
	.st10{clip-path:url(#SVGID_00000165213096619583627580000015484378241496608441_);}
	.st11{clip-path:url(#SVGID_00000180349542041104301680000011980600302097434299_);}
	.st12{clip-path:url(#SVGID_00000089539518312384777710000001963106222906089367_);}
	.st13{clip-path:url(#SVGID_00000068665798615198315170000010933360742434753430_);}
	.st14{clip-path:url(#SVGID_00000060743351191513509010000014307290118350655877_);}
	.st15{clip-path:url(#SVGID_00000088830770971093808340000007332477476244965258_);}
	.st16{fill:#BC1823;}
	.st17{opacity:0.36;fill:#BC1823;}
	.st18{fill:#030E19;}
	.st19{fill:#F79D27;}
	.st20{fill:#003556;}
	.st21{fill:#43ADD9;}
	.st22{fill:#83C8E4;}
	.st23{fill:#8E1E1E;}
	.st24{fill:#282828;}
	.st25{fill:#FFA800;}
	.st26{fill:#010F2C;}
	.st27{enable-background:new    ;}
	.st28{fill:#00618C;}
	.st29{fill:#FFFFFF;}
	.st30{fill:#5B0A0A;}
</style>
<g>
	<defs>
		<path id="SVGID_1_" d="M452.1,446.6c-2-0.3-3.8-0.6-5.6-0.8c-1.8-0.3-3.7-0.6-5.6-0.8c-1-0.1-2-0.2-2.9-0.3c-1-0.1-2-0.2-3.1-0.3
			c0.1-1.1,0.3-2.3,0.4-3.4c0.1-1.2,0.2-2.3,0.2-3.4c-0.1-4.6-0.3-9.2-0.4-13.8c-0.1-4.6-0.3-9.1-0.4-13.6c0-1.5,0-3,0-4.3
			c0-1.3-0.1-2.8-0.2-4.3c-0.3-13.1-0.7-26.2-1-39.3c-0.4-13.1-0.8-26.2-1.3-39.3c-0.3-5.8-3.4-44-8.9-48.6
			c-5.8-4.9-13.2-8.8-17.9,28.6c-0.5,4-0.7,10.7-0.4,16.3c0,0.8,0,1.7,0.1,2.5c0.1,0.8,0.1,1.6,0.1,2.3c0.3,12.7,0.6,25.3,0.9,37.9
			c0.3,12.6,0.7,25.2,0.9,37.9c0,6.7-0.1,13.2-0.2,19.6c-0.1,6.4-0.3,12.9-0.4,19.6c0,0.3,0,0.6-0.1,0.8c-0.1,0.3-0.1,0.6-0.1,1
			c-2.2-0.4-4.3-0.8-6.4-1.1c-2-0.3-4.1-0.7-6.2-0.9c-2.4-0.3-4.3,0.3-6,1.7c-1.6,1.4-2.2,3.2-1.8,5.4c0.6,2.6,2.6,4.4,6.1,5.2
			c2.1,0.4,4.1,0.9,6.1,1.4c2,0.5,3.9,0.9,5.8,1.4c-0.3,1.8-0.6,3.5-0.8,5.1c-0.3,1.6-0.4,3.2-0.4,4.7c-0.1,3.8,1.1,6.7,3.9,8.8
			c2.7,2.1,5.9,2.6,9.5,1.7c3.6-0.8,6.5-2.5,8.7-4.9c2.2-2.4,4-5.3,5.5-8.5c0.8-1.8,2.2-2.7,4-2.7c2.4,0,4.7,0,7-0.1
			c2.3-0.1,4.6-0.2,7-0.3c0.7,0,1.4-0.1,2.2-0.2c0.8-0.1,1.5-0.3,2.2-0.6c2.5-1,3.8-2.7,3.8-5.2C456,448.9,454.6,447.3,452.1,446.6z
			"/>
	</defs>
	<clipPath id="SVGID_00000151538636396234468510000008716831077820353951_">
		<use xlink:href="#SVGID_1_"  style="overflow:visible;"/>
	</clipPath>
	<g style="clip-path:url(#SVGID_00000151538636396234468510000008716831077820353951_);">
		<g>
			<defs>
				<rect id="SVGID_00000148629301391815325990000013312162306419839363_" x="100" y="232.7" width="525.4" height="259.7"/>
			</defs>
			<clipPath id="SVGID_00000137842616515786654850000012754691809732333720_">
				<use xlink:href="#SVGID_00000148629301391815325990000013312162306419839363_"  style="overflow:visible;"/>
			</clipPath>
		</g>
	</g>
</g>
<g>
	<defs>
		<path id="SVGID_00000072238400223823505410000016175559723114038443_" d="M390.3,432.1c1.5-0.4,2.8-1.2,3.9-2.4
			c1.1-1.2,1.9-2.7,2.3-4.6c0.5-2.4,0.9-4.9,1.2-7.3c0.3-2.5,0.4-4.9,0.4-7.3c0.1-11.2-0.2-22.4-0.9-33.5c-0.7-11.1-2-22.2-3.9-33.3
			c-0.6-4.2-1.8-8.3-3.6-12.4c-2.3-5.2-6.3-7.8-12-7.7c-4.6,0-9,1.5-13.1,4.4c-3.7,2.8-7,6-9.9,9.4c-2.9,3.5-5.8,7-8.5,10.7
			c-1.2,1.5-2.2,3-3.1,4.7c-0.9,1.7-1.9,3.4-3.1,5.2c-0.1-0.5-0.2-1-0.2-1.4c0-0.4,0-0.8,0-1.3c-0.1-1.2-0.1-2.4-0.1-3.6
			c0.1-1.3,0-2.5-0.1-3.8c-0.1-2.4-0.2-4.9-0.2-7.4c-0.1-2.5-0.2-5-0.4-7.6c-0.2-1.3-0.5-2.5-0.8-3.8c-0.3-1.3-0.8-2.5-1.4-3.6
			c-0.9-1.8-2.2-3-3.9-3.8c-1.6-0.7-3.4-1-5.4-0.8c-4.2,0.6-6.9,2.9-8,6.8c-0.3,0.9-0.5,1.9-0.6,2.8c-0.1,0.9-0.2,1.8-0.2,2.7
			c-0.1,2.7-0.1,5.5-0.1,8.2c0.1,2.7,0.1,5.5,0.2,8.2c0.2,9.1,0.3,18.2,0.4,27.2c0.1,9,0.2,18,0.6,27.2c0.2,3.5,0.6,6.9,1.1,10.3
			c0.5,3.4,1,6.8,1.6,10.3c0.6,3.3,2.5,5.8,5.5,7.6c2,1.2,3.9,1.4,5.7,0.9c0,0,14.3,2.2,13-30.4s10.7-41.6,17.6-42.7
			c6.9-1.1,10.9,13.3,10.9,13.3c0.2,7.3,0.4,14.7,0.5,22c0.1,7.3,0.3,14.6,0.5,22c0,2.4,0.4,4.6,1.2,6.7c0.8,2,2.1,3.9,3.9,5.6
			c1.4,1.3,2.9,2.1,4.5,2.5C387.3,432.5,388.8,432.5,390.3,432.1z"/>
	</defs>
	<clipPath id="SVGID_00000075879832807873132740000005588681202435014327_">
		<use xlink:href="#SVGID_00000072238400223823505410000016175559723114038443_"  style="overflow:visible;"/>
	</clipPath>
	<g style="clip-path:url(#SVGID_00000075879832807873132740000005588681202435014327_);">
		<g>
			<defs>
				<rect id="SVGID_00000173143093807881277690000012398509850701830308_" x="100" y="232.7" width="525.4" height="259.7"/>
			</defs>
			<clipPath id="SVGID_00000076587211375681335300000015056713729609907615_">
				<use xlink:href="#SVGID_00000173143093807881277690000012398509850701830308_"  style="overflow:visible;"/>
			</clipPath>
		</g>
	</g>
</g>
<g>
	<defs>
		<path id="SVGID_00000048499953116838476620000003927311268239762096_" d="M312.7,328.4c-1.1-3.2-2.9-5.1-5.3-5.9
			c-2.4-0.8-4.9-0.4-7.4,1.2c-0.4,0.2-0.9,0.3-1.5,0.4c-0.6,0.1-1,0-1.3-0.4c-4-3.3-8.1-5-12.2-5.1c-4.1-0.1-8.2,1.1-12.4,3.7
			c-4,2.2-7.6,4.9-10.8,8.2c-3.1,3.2-6,6.8-8.7,10.8c-5.8,8.5-10.4,17.5-13.7,27c-3.3,9.5-4.8,19.7-4.7,30.6
			c0.1,4.9,0.9,9.4,2.3,13.5c1.4,4.1,3.9,7.7,7.5,10.9c3.1,2.7,6.1,4,9.1,4c3,0,5.9-1.6,8.7-4.7c4.2-4.9,7.9-10.1,11.3-15.7
			c2.5-4.3,4.9-8.6,7.1-12.9c2.2-4.3,4.5-8.7,6.9-13.2h0.4c0,3.3,0,6.6-0.1,10c-0.1,3.3,0,6.6,0.3,10c0.1,2.1,0.3,4.1,0.6,6.2
			c0.3,2.1,0.8,4,1.5,5.9c1.8,4.7,5,7.3,9.6,7.6c2.4,0,4.3-0.6,6-1.9c1.6-1.3,2.9-3,4-5.2c0,0,0-0.1,0.1-0.1c0.5-1.2,1-2.5,1.4-3.9
			c0.4-1.3,0.6-2.7,0.6-4.1c0.6-10.6,1.1-21.2,1.6-31.8c0.5-10.6,0.9-21.3,1.1-32c0.1-2.2,0-4.4-0.4-6.6
			C313.9,332.6,313.4,330.5,312.7,328.4z M276.9,376.3c-4.5,9.5-9.6,18.6-15.5,27.3c-0.8,1.3-1.8,2.4-2.8,3.4c0,0,0,0,0,0
			c-1,1-2.6,0.1-2.4-1.3c2.5-12.3,6.3-23.7,11.4-34.1c2.9-5.9,6.3-11.5,10.3-16.6c6.3-3.7,7.7,3.1,7.7,3.1l0,0
			C282.7,364.2,279.8,370.2,276.9,376.3z"/>
	</defs>
	<clipPath id="SVGID_00000107574481215798006930000005713896352899544234_">
		<use xlink:href="#SVGID_00000048499953116838476620000003927311268239762096_"  style="overflow:visible;"/>
	</clipPath>
	<g style="clip-path:url(#SVGID_00000107574481215798006930000005713896352899544234_);">
		<g>
			<defs>
				<rect id="SVGID_00000061444516147380879820000015474819437641499070_" x="100" y="232.7" width="525.4" height="259.7"/>
			</defs>
			<clipPath id="SVGID_00000182519747851746903990000010819775440750820234_">
				<use xlink:href="#SVGID_00000061444516147380879820000015474819437641499070_"  style="overflow:visible;"/>
			</clipPath>
		</g>
	</g>
</g>
<g>
	<defs>
		<path id="SVGID_00000101096127164475797690000006908978034725484966_" d="M531.8,349.8c-2.2-6.3-6-11.3-11.4-15.2
			c-4.4-3.3-9.5-4.6-15.1-3.9c-3.6,0.3-7,1.1-10.2,2.6c-3.2,1.4-6.3,3.2-9.2,5.3c-6.2,4.4-11.9,9.3-17.2,14.7
			c-5.2,5.4-10,11.3-14.3,17.6c-2.8,4.3-5.1,8.8-7,13.5c-1.9,4.7-2.8,9.7-2.5,15.1c0.1,4.8,1,9.4,2.6,13.6c1.6,4.2,4.6,7.8,9,10.7
			c1.7,1.1,3.4,2.1,5.2,2.9c1.8,0.8,3.6,1.6,5.4,2.3c2.2,1,4.4,1.8,6.6,2.4c2.2,0.6,4.4,1.3,6.6,2.2c6.4,2.2,10.9,6.6,13.7,13.3
			c0,0,0,0,0,0c6.8,19.1-18.5,2.8-22,18.9c-0.9,4,0.3,12.9,5.8,15.2c2.1,0.9,12,1.1,18-2.5c2.5-0.8,5.4-4.5,7.3-6.3
			c1.9-1.9,3.4-4,4.7-6.5c1.2-2.5,2.1-5.2,2.5-8.1c0.4-2.9,0.3-5.9-0.2-8.9c-1.4-6.6-3.9-12.5-7.6-17.7c-3.7-5.2-8.1-9.8-13.3-13.8
			c-3.2-2.5-6.1-5.2-8.7-8.1c-2.6-2.9-4.2-6.1-4.7-9.5c-0.5-3.4,0.2-6.8,2-10.1c2.3-4.3,5-8.2,8.1-11.9c3-3.7,6.6-6.8,10.8-9.4
			c2.3-1.4,4.7-2.3,7-2.7c6.5-1.2,11.9,0.9,16.2,6.4c2.1,2.5,4.6,3.5,7.7,2.9c1.7-0.3,2.8-1,3.5-2.1c0.7-1.1,1.2-2.3,1.4-3.7
			C534.1,362.4,534,356,531.8,349.8z"/>
	</defs>
	<clipPath id="SVGID_00000001633725834287768730000006428348538736638911_">
		<use xlink:href="#SVGID_00000101096127164475797690000006908978034725484966_"  style="overflow:visible;"/>
	</clipPath>
	<g style="clip-path:url(#SVGID_00000001633725834287768730000006428348538736638911_);">
		<g>
			<defs>
				<rect id="SVGID_00000069373889166671471380000011547262393320336038_" x="100" y="232.7" width="525.4" height="259.7"/>
			</defs>
			<clipPath id="SVGID_00000103254018357763422630000001988738195220447119_">
				<use xlink:href="#SVGID_00000069373889166671471380000011547262393320336038_"  style="overflow:visible;"/>
			</clipPath>
		</g>
	</g>
</g>
<g>
	<defs>
		<path id="SVGID_00000158707358949708679940000009501613370660315567_" d="M269.4,432.9c-10.8-2.2-20.5,13.4-31.3,5.4
			c-7.4-5.5-12.1-22-12.1-38.4c0-1.3,0-2.5,0-3.8c0-6.6-0.1-13.3-0.2-20c-0.1-7.1-0.3-14.1-0.6-21.1c-0.3-7-1.2-13.9-2.8-20.9
			c-0.7-2.6-1.4-5.2-2.4-7.8c-0.9-2.6-2.2-5-3.8-7.2c-2.6-3.7-5.8-5.8-9.6-6.2c-3.8-0.5-7.3,0.8-10.8,3.8c-1.8,1.8-3.5,3.8-4.9,5.7
			c-3.8,5.3-6.9,10.9-9.4,16.9c-2.4,6-4.7,12.1-6.8,18.5c-0.3,0.5-0.5,1-0.6,1.5c-0.1,0.5-0.3,1-0.6,1.7c-0.3-0.9-0.4-1.7-0.5-2.4
			c-0.1-0.7-0.2-1.2-0.5-1.8c-0.7-3-1.6-5.9-2.8-8.7c-1.2-2.8-3-5.2-5.5-7.3c-2.6-2.1-5.3-3.1-8-3.1c-2.7,0.1-5.2,1.3-7.6,3.7
			c-2.6,2.9-4.9,6.3-6.7,10.1c-1.4,3-2.8,6.2-3.9,9.4c-1.2,3.2-2.4,6.5-3.6,9.8c-0.1,0.4-0.3,0.8-0.4,1.2c-0.1,0.4-0.3,0.9-0.6,1.4
			c-0.4-3.7-0.8-7.2-1.2-10.7c-0.4-3.4-0.9-6.8-1.4-10.3c0,0,0,0,0,0l0,0l-1.4-37.3h0c1.5-12.6,5.7-23.8,11.5-28.1
			c8.2-6.1,23,8.8,34.4,15.3c1.6,1.1,3.2,1.9,4.9,2.3c1.7,0.5,3.2,0.7,4.5,0.5c0.1,0,0.1,0,0.2-0.1c1.7-0.1,3.4-0.6,5-1.4
			c7.2-3.7,11.6-11.7,8.3-17.8c0-0.1-0.1-0.1-0.1-0.2c-2.7-5-6.6-8.9-11.1-12.1c-7.2-5-15.1-7.9-24-10c0,0,0,0,0,0
			c-0.8-0.2-1.8-0.1-2.7,0.1c-2.5-0.2-5.1-0.2-7.7,0.2c-12.7,1.8-25.4,9.2-32.6,19.1c-2.1,2.9-3.8,5.9-5.3,8.9
			c-5.5,11.2-7.6,23.8-6.7,36.3l1.1,15.5c0,0.3,0,0.6,0.1,0.8l0,0.2l0,0c0.3,5.8,0.5,11.5,0.6,17.2c0.1,4.2,0.3,8.4,0.6,12.5l0,0
			c0,0,1.7,41.1,9.3,50.6c2.9,3.7,11.8,1.6,22.5-35l0,0c0.6-1.7,1.1-3.4,1.7-5.2c1.2-4,2.5-8.1,3.8-12.1c0.7-1.8,1.3-3.7,2-5.4
			c0.7-1.8,1.3-3.6,2-5.4c0.1,0,0.3,0,0.4,0.1c0.1,0.1,0.3,0.1,0.4,0.1v3.6c0,4.1-0.1,8.1-0.2,12.1c-0.1,4-0.1,8.1,0.2,12.1
			c0.3,4.5,1.2,8.6,3,12.2c1.6,3.4,4,5.4,7.3,6c3.3,0.6,6.3-0.3,9.1-2.7c2.8-2.5,4.6-5.6,5.5-9.3c0.9-3.2,1.7-6.3,2.5-9.4
			c0.7-3.1,1.5-6.2,2.3-9.4c1.6-6.1,3.3-12,5.1-18c1.8-5.9,4.3-11.6,7.3-17c0.4-0.7,1-1.2,1.7-1.7c0.7-0.5,1.4-0.9,2.1-1.3
			c0.7,1.6,1.2,3,1.6,4.3v0.2c0.1,5.1,0.2,10.2,0.2,15.2c0,5,0.1,10,0.4,15c0.4,5,0.8,10,1.3,14.9c0.5,4.9,1.1,9.9,1.9,14.9
			c0.2,1.2,0.4,2.3,0.7,3.5c0,0,0,0,0,0s1.8,19.5,12.7,34.8c7.1,9.9,19.9,17.3,32.6,19.1C281.9,465.8,287.7,436.6,269.4,432.9z"/>
	</defs>
	<clipPath id="SVGID_00000064345513825259138590000011829018594551537832_">
		<use xlink:href="#SVGID_00000158707358949708679940000009501613370660315567_"  style="overflow:visible;"/>
	</clipPath>
	<g style="clip-path:url(#SVGID_00000064345513825259138590000011829018594551537832_);">
		<g>
			<defs>
				<rect id="SVGID_00000014596988554030695580000001082617545245913754_" x="100" y="233.1" width="525.4" height="259.7"/>
			</defs>
			<clipPath id="SVGID_00000167391160905408267770000010003552415447302025_">
				<use xlink:href="#SVGID_00000014596988554030695580000001082617545245913754_"  style="overflow:visible;"/>
			</clipPath>
		</g>
	</g>
</g>
<g>
	<defs>
		<path id="SVGID_00000083079945497357477510000015137029173311616427_" d="M611.5,343.7c-0.4-2.2-1-4.3-1.7-6.4
			c-1.1-3.2-2.9-5.1-5.3-5.9c-2.4-0.8-4.9-0.4-7.4,1.2c-0.4,0.2-0.9,0.3-1.5,0.4c-0.6,0.1-1,0-1.3-0.4c-4-3.3-8.1-5-12.2-5.1
			c-4.1-0.1-8.2,1.1-12.4,3.7c-4,2.2-7.6,4.9-10.8,8.2c-3.1,3.2-6,6.8-8.7,10.8c-5.8,8.5-10.4,17.5-13.7,27
			c-3.3,9.5-4.8,19.7-4.7,30.6c0.1,4.9,0.9,9.4,2.3,13.5c1.4,4.1,3.9,7.7,7.5,10.9c3.1,2.7,6.1,4,9.1,4c3,0,5.9-1.6,8.7-4.7
			c4.2-4.9,7.9-10.1,11.3-15.7c2.5-4.3,4.9-8.6,7.1-12.9c2.2-4.3,4.5-8.7,6.9-13.2h0.4c0,3.3,0,6.6-0.1,10c-0.1,3.3,0,6.6,0.3,10
			c0.1,2.1,0.3,4.1,0.6,6.2c0.3,2.1,0.8,4,1.5,5.9c1.8,4.7,5,7.3,9.6,7.6c2.4,0,4.3-0.6,6-1.9c1.6-1.3,2.9-3,4-5.2
			c0,0,0-0.1,0.1-0.1c0.5-1.2,1-2.5,1.4-3.9c0.4-1.3,0.6-2.7,0.6-4.1c0.6-10.6,1.1-21.2,1.6-31.8c0.5-10.6,0.9-21.3,1.1-32
			C612.1,348.1,611.9,345.9,611.5,343.7z M574.2,385.2c-4.5,9.5-9.6,18.6-15.5,27.3c-0.8,1.3-1.8,2.4-2.8,3.4c0,0,0,0,0,0
			c-1,1-2.6,0.1-2.4-1.3c2.5-12.3,6.3-23.7,11.4-34.1c2.9-5.9,6.3-11.5,10.3-16.6c6.3-3.7,7.7,3.1,7.7,3.1l0,0
			C579.9,373.1,577,379.2,574.2,385.2z"/>
	</defs>
	<clipPath id="SVGID_00000139295450536640511850000005719022860524562591_">
		<use xlink:href="#SVGID_00000083079945497357477510000015137029173311616427_"  style="overflow:visible;"/>
	</clipPath>
	<g style="clip-path:url(#SVGID_00000139295450536640511850000005719022860524562591_);">
		<g>
			<defs>
				<rect id="SVGID_00000108273822239937905920000016621202575204309903_" x="100" y="232.7" width="525.4" height="259.7"/>
			</defs>
			<clipPath id="SVGID_00000176742561210649222820000014449668754495819670_">
				<use xlink:href="#SVGID_00000108273822239937905920000016621202575204309903_"  style="overflow:visible;"/>
			</clipPath>
		</g>
	</g>
</g>
<g>
	<defs>
		<path id="SVGID_00000078018887715281706450000009185576675353035964_" d="M444.9,338.7c1.7,5.2,7.3,6.1,17.3-1.1
			c19.7-14.2,27-22.1,42.7-19.2c22.7,4.1,34.6-25.3,15.6-41.2c-19.3-16.1-32.1-9.6-47.3,7.4c-12.9,14.4-25.3,40.8-28.1,48.2
			C444.4,334.7,444.3,336.8,444.9,338.7z"/>
	</defs>
	<clipPath id="SVGID_00000150072577421053772420000003563338734464842411_">
		<use xlink:href="#SVGID_00000078018887715281706450000009185576675353035964_"  style="overflow:visible;"/>
	</clipPath>
	<g style="clip-path:url(#SVGID_00000150072577421053772420000003563338734464842411_);">
		<g>
			<defs>
				<rect id="SVGID_00000124132493550879039650000004210197925234398143_" x="100" y="232.7" width="525.4" height="259.7"/>
			</defs>
			<clipPath id="SVGID_00000128451928896218126190000009908245329534808207_">
				<use xlink:href="#SVGID_00000124132493550879039650000004210197925234398143_"  style="overflow:visible;"/>
			</clipPath>
		</g>
	</g>
</g>
<g>
	<defs>
		<path id="SVGID_00000052799022599056704930000017534536769534218397_" d="M425.6,268c1.9,1.6,3.6,3.6,5.1,5.6
			c5.2,7.4,6.3,8.7,7.8,15.5l1.2,8.1c0.2,1.6,1.6,2.8,3.5,2.9c0.6,0.1,1.2,0.1,1.9,0.2c2.8,0.2,5.6-1.3,6.6-3.6c0,0,0,0,0,0
			c4.5-9.9,7.5-19.4,8.1-30c0.4-6.7-0.4-13.3-2.9-19.7c0-0.1-0.1-0.1-0.1-0.2c-4.1-10.5-21.4-10.9-29.5-0.2l-3.4,4.5
			C419.7,256.9,420.5,263.8,425.6,268z"/>
	</defs>
	<clipPath id="SVGID_00000072993866838455845190000009066734001083902398_">
		<use xlink:href="#SVGID_00000052799022599056704930000017534536769534218397_"  style="overflow:visible;"/>
	</clipPath>
	<g style="clip-path:url(#SVGID_00000072993866838455845190000009066734001083902398_);">
		<g>
			<defs>
				<rect id="SVGID_00000000907918288132560080000015981607752929258162_" x="100" y="232.7" width="525.4" height="259.7"/>
			</defs>
			<clipPath id="SVGID_00000075142097954844089220000012319521734337055419_">
				<use xlink:href="#SVGID_00000000907918288132560080000015981607752929258162_"  style="overflow:visible;"/>
			</clipPath>
		</g>
	</g>
</g>
</svg>
