<?xml version="1.0" encoding="utf-8"?>
<!-- Generator: Adobe Illustrator 26.5.0, SVG Export Plug-In . SVG Version: 6.00 Build 0)  -->
<svg version="1.1" id="Layer_1" xmlns="http://www.w3.org/2000/svg" xmlns:xlink="http://www.w3.org/1999/xlink" x="0px" y="0px"
	 viewBox="0 0 720 720" style="enable-background:new 0 0 720 720;" xml:space="preserve">
<style type="text/css">
	.st0{fill:#DFE2DB;}
	.st1{fill:#211D21;}
	.st2{fill:#D6D6D6;}
	.st3{fill:#C10206;}
</style>
<g>
	<g>
		
			<image style="overflow:visible;opacity:0.15;enable-background:new    ;" width="333" height="362" xlink:href="85C18F5B.png"  transform="matrix(1.2227 0 0 1.2227 82 108.5635)">
		</image>
		<g>
			<path class="st0" d="M468.3,418L280.3,526.5c-6,3.4-13.6,1.3-17-4.5L106.5,250.3c-3.4-6-1.3-13.6,4.5-17l187.9-108.5
				c6-3.4,13.6-1.3,17,4.5L472.8,401C476.2,407,474.1,414.6,468.3,418z"/>
		</g>
	</g>
	<g>
		<path class="st1" d="M158.3,258.1l-0.2,0.1c-0.2,0.1-0.5,0.1-0.9,0.1l-12.8-4.4l-1.7,6.4l2.4,4.3c0.2,0.5,0.1,1.1-0.4,1.3
			l-0.4,0.2c-0.5,0.2-1.1,0.1-1.3-0.4L132.7,248c-0.2-0.5-0.1-1.1,0.4-1.3l0.4-0.2c0.5-0.2,1.1-0.1,1.3,0.4l6.4,11l4.5-18
			c0.1-0.2,0.2-0.5,0.5-0.6l0,0c0.7-0.5,1.7,0.2,1.5,1.1l-2.8,11.5l13.2,4.8C158.9,256.6,159,257.7,158.3,258.1z"/>
	</g>
	<g>
		<path class="st1" d="M160.7,268.6l-1.2,4.5c-0.4,1.1-1.5,1.8-2.6,1.5l-4.5-1.2c-1.1-0.4-1.8-1.5-1.5-2.6l1.2-4.5
			c0.4-1.1,1.5-1.8,2.6-1.5l4.5,1.2C160.4,266.3,161.1,267.4,160.7,268.6z"/>
		<path class="st1" d="M159.3,280l-1,3.7c-0.4,1.1-1.5,1.8-2.6,1.5l-3.7-1c-1.1-0.4-1.8-1.5-1.5-2.6l1-3.7c0.4-1.1,1.5-1.8,2.6-1.5
			l3.7,1C158.9,277.7,159.6,278.8,159.3,280z"/>
		<path class="st1" d="M170.2,273.8l-1,3.7c-0.4,1.1-1.5,1.8-2.6,1.5l-3.7-1c-1.1-0.4-1.8-1.5-1.5-2.6l1-3.7
			c0.4-1.1,1.5-1.8,2.6-1.5l3.7,1C169.8,271.4,170.5,272.5,170.2,273.8z"/>
	</g>
	<g>
		<path class="st1" d="M421.1,393.3l0.2-0.1c0.2-0.1,0.5-0.1,0.9-0.1l12.8,4.4l1.7-6.4l-2.4-4.3c-0.2-0.5-0.1-1.1,0.4-1.3l0.4-0.2
			c0.5-0.2,1.1-0.1,1.3,0.4l10.3,17.9c0.2,0.5,0.1,1.1-0.4,1.3l-0.4,0.2c-0.5,0.2-1.1,0.1-1.3-0.4l-6.4-11l-4.5,18
			c-0.1,0.2-0.2,0.5-0.5,0.6l0,0c-0.7,0.5-1.7-0.2-1.5-1.1l2.8-11.5l-13.2-4.8C420.4,394.8,420.3,393.7,421.1,393.3z"/>
	</g>
	<g>
		<path class="st1" d="M419.5,384.4l1.2-4.5c0.4-1.1,1.5-1.8,2.6-1.5l4.5,1.2c1.1,0.4,1.8,1.5,1.5,2.6l-1.2,4.5
			c-0.4,1.1-1.5,1.8-2.6,1.5l-4.5-1.2C419.8,386.7,419.2,385.5,419.5,384.4z"/>
		<path class="st1" d="M420.9,372.9l1-3.7c0.4-1.1,1.5-1.8,2.6-1.5l3.7,1c1.1,0.4,1.8,1.5,1.5,2.6l-1,3.7c-0.4,1.1-1.5,1.8-2.6,1.5
			l-3.7-1C421.3,375.2,420.6,374.1,420.9,372.9z"/>
		<path class="st1" d="M410.1,379.3l1-3.7c0.4-1.1,1.5-1.8,2.6-1.5l3.7,1c1.1,0.4,1.8,1.5,1.5,2.6l-1,3.7c-0.4,1.1-1.5,1.8-2.6,1.5
			l-3.7-1C410.4,381.6,409.8,380.4,410.1,379.3z"/>
	</g>
</g>
<g>
	
		<image style="overflow:visible;opacity:0.15;enable-background:new    ;" width="306" height="353" xlink:href="85C18F59.png"  transform="matrix(1.2227 0 0 1.2227 129.686 101.2272)">
	</image>
	<g>
		<g>
			<g>
				<path class="st2" d="M481.2,435l-203.8,74.2c-6.5,2.3-13.6-1-15.9-7.5L154.1,207c-2.3-6.5,1-13.6,7.5-15.9l203.8-74.2
					c6.5-2.3,13.6,1,15.9,7.5l107.4,294.8C491,425.5,487.6,432.7,481.2,435z"/>
			</g>
			<g>
				<g>
					<path class="st3" d="M203.9,220.2c-0.5,1.3-1.5,2.3-2.8,2.8c-0.5,0.1-1,0.2-1.5,0.2c-0.5,0-1.1-0.1-1.8-0.4
						c-0.4-0.1-0.9-0.4-1.2-0.5c0.5-0.4,1.1-0.7,1.5-1.1c1-0.9,1.7-1.8,2.2-2.9s0.9-2.3,0.9-3.5s-0.1-2.6-0.6-3.8
						c-0.5-1.3-1.1-2.4-2-3.3c-0.9-0.9-1.8-1.6-2.9-2.1c-1.1-0.5-2.3-0.7-3.7-0.9c-1.2,0-2.6,0.2-3.9,0.7s-2.4,1.1-3.4,2
						c-1,0.9-1.7,1.8-2.2,2.9c-0.5,1.1-0.9,2.3-0.9,3.5c-0.1,1.2,0.1,2.6,0.6,3.8c0.5,1.3,1.1,2.3,2,3.3c0.9,1,1.8,1.6,2.9,2.1
						c1.1,0.5,2.3,0.7,3.7,0.9c1.2,0,2.3-0.1,3.5-0.6c0.7,0.4,1.3,0.6,2,0.9c0.7,0.2,1.3,0.5,2,0.6s1.2,0.1,1.7,0.1
						c0.5,0,1.1-0.1,1.6-0.4c1.7-0.6,2.9-1.8,3.5-3.5L203.9,220.2z M188,221.4c-0.9-0.5-1.7-1-2.4-1.7c-0.7-0.7-1.2-1.6-1.6-2.7
						c-0.4-1.1-0.5-2.1-0.5-3.1c0-1,0.2-2,0.7-2.9c0.4-0.9,1-1.7,1.8-2.3c0.7-0.7,1.7-1.2,2.7-1.6s2.1-0.6,3.2-0.5
						c1,0,2,0.2,2.9,0.7c0.9,0.4,1.7,1,2.3,1.7c0.7,0.7,1.2,1.6,1.6,2.7c0.4,1,0.5,2.1,0.5,3.1s-0.2,2-0.7,2.9
						c-0.4,0.9-1,1.7-1.8,2.4c-0.7,0.7-1.7,1.2-2.7,1.6c-1.1,0.4-2.1,0.6-3.2,0.5C189.8,222,189,221.8,188,221.4z"/>
				</g>
			</g>
			<g>
				<path class="st3" d="M209.3,237.1l-4.5,9.7c-0.5,1.1-1.8,1.6-2.8,1l-9.7-4.5c-1.1-0.5-1.6-1.8-1-2.8l4.5-9.7
					c0.5-1.1,1.8-1.6,2.8-1l9.7,4.5C209.4,234.7,209.9,236,209.3,237.1z"/>
			</g>
			<g>
				<g>
					<path class="st3" d="M438.8,406.1c0.5-1.3,1.5-2.3,2.8-2.8c0.5-0.1,1-0.2,1.5-0.2c0.5,0,1.1,0.1,1.8,0.4
						c0.4,0.1,0.9,0.4,1.2,0.5c-0.5,0.4-1.1,0.7-1.5,1.1c-1,0.9-1.7,1.8-2.2,2.9s-0.9,2.3-0.9,3.5s0.1,2.6,0.6,3.8
						c0.5,1.3,1.1,2.4,2,3.3c0.9,0.9,1.8,1.6,2.9,2.1c1.1,0.5,2.3,0.7,3.7,0.9c1.2,0,2.6-0.2,3.9-0.7s2.4-1.1,3.4-2
						c1-0.9,1.7-1.8,2.2-2.9c0.5-1.1,0.9-2.3,0.9-3.5c0.1-1.2-0.1-2.6-0.6-3.8c-0.5-1.3-1.1-2.3-2-3.3c-0.9-1-1.8-1.6-2.9-2.1
						c-1.1-0.5-2.3-0.7-3.7-0.9c-1.2,0-2.3,0.1-3.5,0.6c-0.7-0.4-1.3-0.6-2-0.9c-0.7-0.2-1.3-0.5-2-0.6c-0.6-0.1-1.2-0.1-1.7-0.1
						s-1.1,0.1-1.6,0.4c-1.7,0.6-2.9,1.8-3.5,3.5L438.8,406.1z M454.7,404.8c0.9,0.5,1.7,1,2.4,1.7s1.2,1.6,1.6,2.7
						c0.4,1.1,0.5,2.1,0.5,3.1s-0.2,2-0.7,2.9c-0.4,0.9-1,1.7-1.8,2.3c-0.7,0.7-1.7,1.2-2.7,1.6c-1,0.4-2.1,0.6-3.2,0.5
						c-1,0-2-0.2-2.9-0.7c-0.9-0.4-1.7-1-2.3-1.7c-0.7-0.7-1.2-1.6-1.6-2.7c-0.4-1-0.5-2.1-0.5-3.1s0.2-2,0.7-2.9
						c0.4-0.9,1-1.7,1.8-2.4c0.7-0.7,1.7-1.2,2.7-1.6c1.1-0.4,2.1-0.6,3.2-0.5C452.7,404.1,453.7,404.3,454.7,404.8z"/>
				</g>
			</g>
			<g>
				<path class="st3" d="M433.3,389.1l4.5-9.7c0.5-1.1,1.8-1.6,2.8-1l9.7,4.5c1.1,0.5,1.6,1.8,1,2.8l-4.5,9.7
					c-0.5,1.1-1.8,1.6-2.8,1l-9.7-4.5C433.3,391.4,432.8,390.2,433.3,389.1z"/>
			</g>
		</g>
	</g>
</g>
<g>
	<g>
		
			<image style="overflow:visible;opacity:0.15;enable-background:new    ;" width="270" height="335" xlink:href="85C18F5F.png"  transform="matrix(1.2227 0 0 1.2227 188.3764 109.7862)">
		</image>
		<g>
			<path class="st0" d="M221.6,162l213.7-37.7c6.7-1.2,13.2,3.3,14.4,10.1l54.5,309c1.2,6.7-3.3,13.2-10.1,14.4l-213.7,37.7
				c-6.7,1.2-13.2-3.3-14.4-10.1l-54.5-309C210.4,169.7,214.9,163.2,221.6,162z"/>
		</g>
	</g>
	<g>
		<path class="st1" d="M466.2,416.9c1.2-0.2,2.4-0.1,3.7,0.2c1.2,0.4,2.2,1,3.1,1.8l-1.1,1.8c-0.7-0.7-1.6-1.3-2.4-1.6
			c-0.9-0.2-1.8-0.4-2.8-0.2c-2.7,0.5-3.8,2.3-3.2,5.6l2.3,13.3l8.1-1.5l0.4,2l-10.4,1.8L461,425c-0.4-2.3-0.1-4.2,0.7-5.5
			C462.5,418.2,464,417.3,466.2,416.9z"/>
	</g>
	<path class="st1" d="M459,406.2l6,7.1c0.4,0.4,1,0.2,1.1-0.2l3.2-8.7l3.2-8.7c0.1-0.5-0.2-1-0.7-0.9l-3.3,0.6
		c-0.4,0.1-0.7-0.1-0.7-0.5l-0.1-0.5c-0.1-0.4-0.4-0.6-0.7-0.5l-8.9,1.6c-0.4,0.1-0.6,0.4-0.5,0.7l0.1,0.5c0.1,0.4-0.1,0.7-0.5,0.7
		l-3.3,0.6c-0.5,0.1-0.7,0.7-0.4,1.1L459,406.2z"/>
	<g>
		<path class="st1" d="M249.6,202.3c-1.2,0.2-2.4,0.1-3.7-0.2c-1.2-0.4-2.2-1-3.1-1.8l1.1-1.8c0.7,0.7,1.6,1.3,2.4,1.6
			c0.9,0.2,1.8,0.4,2.8,0.2c2.7-0.5,3.8-2.3,3.2-5.6l-2.3-13.3l-8.1,1.5l-0.4-2l10.4-1.8l2.7,15.3c0.4,2.3,0.1,4.2-0.7,5.5
			C253.3,201.1,251.7,202,249.6,202.3z"/>
	</g>
	<path class="st1" d="M256.7,213l-6-7.1c-0.4-0.4-1-0.2-1.1,0.2l-3.2,8.7l-3.1,8.7c-0.1,0.5,0.2,1,0.7,0.9l3.3-0.6
		c0.4-0.1,0.7,0.1,0.7,0.5l0.1,0.5c0.1,0.4,0.4,0.6,0.7,0.5l8.9-1.6c0.4-0.1,0.6-0.4,0.5-0.7l-0.1-0.5c-0.1-0.4,0.1-0.7,0.5-0.7
		l3.3-0.6c0.5-0.1,0.7-0.7,0.4-1.1L256.7,213z"/>
	<g>
		<path class="st1" d="M249.6,202.6c-1.2,0.2-2.4,0.1-3.7-0.2c-1.2-0.4-2.2-1-3.1-1.8l1.1-1.8c0.7,0.7,1.6,1.3,2.4,1.6
			c0.9,0.2,1.8,0.4,2.8,0.2c2.7-0.5,3.8-2.3,3.2-5.6l-2.3-13.3l-8.1,1.5l-0.4-2l10.4-1.8l2.7,15.3c0.4,2.3,0.1,4.2-0.7,5.5
			C253.3,201.4,251.8,202.2,249.6,202.6z"/>
	</g>
	<path class="st1" d="M256.8,213.2l-6-7.1c-0.4-0.4-1-0.2-1.1,0.2l-3.2,8.7l-3.2,8.7c-0.1,0.5,0.2,1,0.7,0.9l3.3-0.6
		c0.4-0.1,0.7,0.1,0.7,0.5l0.1,0.5c0.1,0.4,0.4,0.6,0.7,0.5l8.9-1.6c0.4-0.1,0.6-0.4,0.5-0.7l-0.1-0.5c-0.1-0.4,0.1-0.7,0.5-0.7
		l3.3-0.6c0.5-0.1,0.7-0.7,0.4-1.1L256.8,213.2z"/>
</g>
<g>
	<g>
		
			<image style="overflow:visible;opacity:0.15;enable-background:new    ;" width="229" height="308" xlink:href="85C18F58.png"  transform="matrix(1.2227 0 0 1.2227 249.5123 139.1314)">
		</image>
		<g>
			<path class="st2" d="M502.1,492.3H285.2c-6.8,0-12.5-5.6-12.5-12.5V166c0-6.8,5.6-12.5,12.5-12.5h217c6.8,0,12.5,5.6,12.5,12.5
				v313.7C514.6,486.6,509.1,492.3,502.1,492.3z"/>
		</g>
	</g>
	<g>
		<g>
			<g>
				<path class="st3" d="M313.1,181.3c-0.7-1.7-1.7-2.9-3.1-3.8c-1.3-0.9-3.1-1.3-5-1.3c-1.5,0-2.8,0.2-3.9,0.9
					c-1.2,0.6-2.1,1.3-2.7,2.3c-0.6,1-1,2.2-1,3.5s0.4,2.6,1,3.5c0.6,1,1.5,1.7,2.7,2.3c1.1,0.6,2.4,0.9,3.9,0.9
					c1.2,0,2.3-0.2,3.3-0.6c1-0.4,1.8-1,2.6-1.8c0.4-0.4,0.6-0.9,0.9-1.3c0,0.6,0.1,1.2,0.1,1.7c0,3.1-0.7,5.3-2.2,6.8
					c-1.5,1.5-3.3,2.3-5.7,2.3c-0.9,0-1.6-0.1-2.3-0.2c-0.4-0.1-0.9-0.2-1.2-0.4c-0.5-0.2-1,0-1.2,0.5l0,0c-0.2,0.5,0,1.2,0.5,1.3
					c0.5,0.2,1,0.4,1.5,0.5c0.9,0.2,1.8,0.2,2.8,0.2c2,0,3.8-0.5,5.3-1.3c1.6-0.9,2.7-2.2,3.5-3.9c0.9-1.7,1.3-3.8,1.3-6.4
					C314.2,185,313.8,182.9,313.1,181.3z M310.3,185.4c-0.5,0.7-1.1,1.3-2,1.7c-0.9,0.4-1.8,0.6-3.1,0.6c-1.7,0-3.1-0.4-4-1.3
					c-1-0.9-1.5-2.1-1.5-3.5c0-1,0.2-1.8,0.7-2.6c0.5-0.7,1.1-1.2,2-1.7c0.9-0.4,1.7-0.6,2.8-0.6c1.3,0,2.3,0.2,3.3,0.6
					c0.9,0.5,1.5,1.1,2,1.8c0.5,0.7,0.6,1.5,0.6,2.3C311,183.8,310.8,184.6,310.3,185.4z"/>
			</g>
		</g>
		<path class="st3" d="M315.4,203.2v-0.5c0-0.4-0.4-0.7-0.7-0.7h-7c-0.4,0-0.7,0.2-0.7,0.7v0.5c0,0.4-0.4,0.7-0.7,0.7H306h-0.2
			c-0.4,0-0.7-0.2-0.7-0.7v-0.5c0-0.4-0.4-0.7-0.7-0.7h-7c-0.4,0-0.7,0.2-0.7,0.7v0.5c0,0.4-0.4,0.7-0.7,0.7l0,0c-0.6,0-1,0.6-0.6,1
			l5.1,8.1l5.1,8.1c0.2,0.5,1,0.5,1.3,0l5.1-8.1l5.1-8.1c0.2-0.5-0.1-1-0.6-1l0,0C315.8,203.9,315.4,203.6,315.4,203.2z"/>
		<g>
			<g>
				<path class="st3" d="M474.4,464.7c0.7,1.7,1.7,2.9,3.1,3.8c1.3,0.9,3.1,1.3,5,1.3c1.5,0,2.8-0.2,3.9-0.9
					c1.2-0.6,2.1-1.3,2.7-2.3c0.6-1,1-2.2,1-3.5c0-1.3-0.4-2.6-1-3.5c-0.6-1-1.5-1.7-2.7-2.3c-1.1-0.6-2.4-0.9-3.9-0.9
					c-1.2,0-2.3,0.2-3.3,0.6c-1,0.4-1.8,1-2.6,1.8c-0.4,0.4-0.6,0.9-0.9,1.3c0-0.6-0.1-1.2-0.1-1.7c0-3.1,0.7-5.3,2.2-6.8
					c1.5-1.5,3.3-2.3,5.7-2.3c0.9,0,1.6,0.1,2.3,0.2c0.4,0.1,0.9,0.2,1.2,0.4c0.5,0.2,1,0,1.2-0.5l0,0c0.2-0.5,0-1.2-0.5-1.3
					c-0.5-0.2-1-0.4-1.5-0.5c-0.9-0.2-1.8-0.2-2.8-0.2c-2,0-3.8,0.5-5.3,1.3c-1.6,0.9-2.7,2.2-3.5,3.9c-0.9,1.7-1.3,3.8-1.3,6.4
					C473.4,461.1,473.8,463,474.4,464.7z M477.2,460.7c0.5-0.7,1.1-1.3,2-1.7c0.9-0.4,1.8-0.6,3.1-0.6c1.7,0,3.1,0.4,4,1.3
					c1,0.9,1.5,2.1,1.5,3.5c0,1-0.2,1.8-0.7,2.6s-1.1,1.2-2,1.7c-0.9,0.4-1.7,0.6-2.8,0.6c-1.3,0-2.3-0.2-3.3-0.6
					c-0.9-0.5-1.5-1.1-2-1.8c-0.5-0.7-0.6-1.5-0.6-2.3C476.4,462.2,476.7,461.4,477.2,460.7z"/>
			</g>
		</g>
		<path class="st3" d="M472.2,443v0.5c0,0.4,0.4,0.7,0.7,0.7h7c0.4,0,0.7-0.2,0.7-0.7V443c0-0.4,0.4-0.7,0.7-0.7h0.2h0.2
			c0.4,0,0.7,0.2,0.7,0.7v0.5c0,0.4,0.4,0.7,0.7,0.7h7c0.4,0,0.7-0.2,0.7-0.7V443c0-0.4,0.4-0.7,0.7-0.7l0,0c0.6,0,1-0.6,0.6-1
			l-5.1-8.1l-5.1-8.1c-0.2-0.5-1-0.5-1.3,0l-5.1,8.1l-5.1,8.1c-0.2,0.5,0.1,1,0.6,1l0,0C471.8,442.4,472.2,442.6,472.2,443z"/>
		<g>
			<path class="st3" d="M409.7,256v-0.7c0-0.6-0.6-1.1-1.2-1.1h-11.7c-0.7,0-1.2,0.5-1.2,1.1v0.9c0,0.6-0.6,1.1-1.2,1.1h-0.5h-0.5
				c-0.7,0-1.2-0.5-1.2-1.1v-0.9c0-0.6-0.6-1.1-1.2-1.1h-11.7c-0.7,0-1.2,0.5-1.2,1.1v0.9c0,0.6-0.6,1.1-1.2,1.1l0,0
				c-1,0-1.6,1-1.1,1.7l8.6,13.6l8.6,13.6c0.5,0.7,1.7,0.7,2.2,0l8.6-13.6L412,259c0.5-0.7-0.1-1.7-1.1-1.7l0,0
				C410.2,257.2,409.7,256.8,409.7,256z"/>
			<path class="st3" d="M368.1,226.8v-0.9c0-0.6-0.6-1.1-1.2-1.1h-11.7c-0.7,0-1.2,0.5-1.2,1.1v0.9c0,0.6-0.6,1.1-1.2,1.1h-0.5h-0.5
				c-0.7,0-1.2-0.5-1.2-1.1v-0.9c0-0.6-0.6-1.1-1.2-1.1h-11.7c-0.7,0-1.2,0.5-1.2,1.1v0.9c0,0.6-0.6,1.1-1.2,1.1l0,0
				c-1,0-1.6,1-1.1,1.7l8.6,13.6l8.6,13.6c0.5,0.7,1.7,0.7,2.2,0l8.6-13.6l8.6-13.6c0.5-0.7-0.1-1.7-1.1-1.7l0,0
				C368.7,228,368.1,227.4,368.1,226.8z"/>
			<path class="st3" d="M419.3,226.8v-0.9c0-0.6,0.6-1.1,1.2-1.1h11.7c0.7,0,1.2,0.5,1.2,1.1v0.9c0,0.6,0.6,1.1,1.2,1.1h0.5h0.5
				c0.7,0,1.2-0.5,1.2-1.1v-0.9c0-0.6,0.6-1.1,1.2-1.1h11.7c0.7,0,1.2,0.5,1.2,1.1v0.9c0,0.6,0.6,1.1,1.2,1.1l0,0c1,0,1.6,1,1.1,1.7
				l-8.6,13.6l-8.6,13.6c-0.5,0.7-1.7,0.7-2.2,0l-8.6-13.6l-8.6-13.6c-0.5-0.7,0.1-1.7,1.1-1.7l0,0
				C418.7,228,419.3,227.5,419.3,226.8z"/>
			<path class="st3" d="M368.1,281v-0.9c0-0.6-0.6-1.1-1.2-1.1h-11.7c-0.7,0-1.2,0.5-1.2,1.1v0.9c0,0.6-0.6,1.1-1.2,1.1h-0.5h-0.5
				c-0.7,0-1.2-0.5-1.2-1.1v-0.9c0-0.6-0.6-1.1-1.2-1.1h-11.7c-0.7,0-1.2,0.5-1.2,1.1v0.9c0,0.6-0.6,1.1-1.2,1.1l0,0
				c-1,0-1.6,1-1.1,1.7l8.6,13.6l8.6,13.6c0.5,0.7,1.7,0.7,2.2,0l8.6-13.6l8.6-13.6c0.5-0.7-0.1-1.7-1.1-1.7l0,0
				C368.7,282.1,368.1,281.6,368.1,281z"/>
			<path class="st3" d="M419.3,281v-0.9c0-0.6,0.6-1.1,1.2-1.1h11.7c0.7,0,1.2,0.5,1.2,1.1v0.9c0,0.6,0.6,1.1,1.2,1.1h0.5h0.5
				c0.7,0,1.2-0.5,1.2-1.1v-0.9c0-0.6,0.6-1.1,1.2-1.1h11.7c0.7,0,1.2,0.5,1.2,1.1v0.9c0,0.6,0.6,1.1,1.2,1.1l0,0c1,0,1.6,1,1.1,1.7
				l-8.6,13.6l-8.6,13.6c-0.5,0.7-1.7,0.7-2.2,0l-8.6-13.6l-8.6-13.6c-0.5-0.7,0.1-1.7,1.1-1.7l0,0
				C418.7,282.1,419.3,281.6,419.3,281z"/>
			<path class="st3" d="M377.8,389.8v0.9c0,0.6,0.6,1.1,1.2,1.1h11.7c0.7,0,1.2-0.5,1.2-1.1v-0.9c0-0.6,0.6-1.1,1.2-1.1h0.5h0.5
				c0.7,0,1.2,0.5,1.2,1.1v0.9c0,0.6,0.6,1.1,1.2,1.1h11.7c0.7,0,1.2-0.5,1.2-1.1v-0.9c0-0.6,0.6-1.1,1.2-1.1l0,0c1,0,1.6-1,1.1-1.7
				l-8.6-13.6l-8.6-13.6c-0.5-0.7-1.7-0.7-2.2,0l-8.6,13.6l-8.6,13.6c-0.5,0.7,0.1,1.7,1.1,1.7l0,0
				C377.2,388.7,377.8,389.2,377.8,389.8z"/>
			<path class="st3" d="M419.3,419v0.9c0,0.6,0.6,1.1,1.2,1.1h11.7c0.7,0,1.2-0.5,1.2-1.1V419c0-0.6,0.6-1.1,1.2-1.1h0.5h0.5
				c0.7,0,1.2,0.5,1.2,1.1v0.9c0,0.6,0.6,1.1,1.2,1.1h11.7c0.7,0,1.2-0.5,1.2-1.1V419c0-0.6,0.6-1.1,1.2-1.1l0,0c1,0,1.6-1,1.1-1.7
				l-8.6-13.6l-8.6-13.6c-0.5-0.7-1.7-0.7-2.2,0l-8.6,13.6l-8.6,13.6c-0.5,0.7,0.1,1.7,1.1,1.7l0,0
				C418.7,417.9,419.3,418.4,419.3,419z"/>
			<path class="st3" d="M368.1,419v0.9c0,0.6-0.6,1.1-1.2,1.1h-11.7c-0.7,0-1.2-0.5-1.2-1.1V419c0-0.6-0.6-1.1-1.2-1.1h-0.5h-0.5
				c-0.7,0-1.2,0.5-1.2,1.1v0.9c0,0.6-0.6,1.1-1.2,1.1h-11.7c-0.7,0-1.2-0.5-1.2-1.1V419c0-0.6-0.6-1.1-1.2-1.1l0,0
				c-1,0-1.6-1-1.1-1.7l8.6-13.6l8.6-13.6c0.5-0.7,1.7-0.7,2.2,0l8.6,13.6l8.6,13.6c0.5,0.7-0.1,1.7-1.1,1.7l0,0
				C368.7,417.9,368.1,418.4,368.1,419z"/>
			<path class="st3" d="M419.3,365v0.9c0,0.6,0.6,1.1,1.2,1.1h11.7c0.7,0,1.2-0.5,1.2-1.1V365c0-0.6,0.6-1.1,1.2-1.1h0.5h0.5
				c0.7,0,1.2,0.5,1.2,1.1v0.9c0,0.6,0.6,1.1,1.2,1.1h11.7c0.7,0,1.2-0.5,1.2-1.1V365c0-0.6,0.6-1.1,1.2-1.1l0,0c1,0,1.6-1,1.1-1.7
				l-8.6-13.6l-8.6-13.6c-0.5-0.7-1.7-0.7-2.2,0l-8.6,13.6l-8.6,13.6c-0.5,0.7,0.1,1.7,1.1,1.7l0,0
				C418.7,363.7,419.3,364.4,419.3,365z"/>
			<path class="st3" d="M368.1,365v0.9c0,0.6-0.6,1.1-1.2,1.1h-11.7c-0.7,0-1.2-0.5-1.2-1.1V365c0-0.6-0.6-1.1-1.2-1.1h-0.5h-0.5
				c-0.7,0-1.2,0.5-1.2,1.1v0.9c0,0.6-0.6,1.1-1.2,1.1h-11.7c-0.7,0-1.2-0.5-1.2-1.1V365c0-0.6-0.6-1.1-1.2-1.1l0,0
				c-1,0-1.6-1-1.1-1.7l8.6-13.6l8.6-13.6c0.5-0.7,1.7-0.7,2.2,0l8.6,13.6l8.6,13.6c0.5,0.7-0.1,1.7-1.1,1.7l0,0
				C368.7,363.7,368.1,364.2,368.1,365z"/>
		</g>
	</g>
</g>
<g>
	
		<image style="overflow:visible;opacity:0.15;enable-background:new    ;" width="358" height="358" xlink:href="85C18F56.png"  transform="matrix(1.2227 0 0 1.2227 193.2673 188.0401)">
	</image>
	<g>
		<path class="st0" d="M612.3,377.9L392.2,598c-5.4,5.4-13.9,5.4-19.3,0L221.3,446.3c-5.4-5.4-5.4-13.9,0-19.3l220.1-220.1
			c5.4-5.4,13.9-5.4,19.3,0l151.7,151.7C617.7,363.9,617.7,372.5,612.3,377.9z"/>
	</g>
</g>
<g>
	<g>
		<g>
			<path class="st1" d="M443.1,404.5h-4.6c-1.2,0-2.2-1-2.2-2.2v-4.6c0-1.2,1-2.2,2.2-2.2h4.6c1.2,0,2.2,1,2.2,2.2v4.6
				C445.1,403.5,444.2,404.5,443.1,404.5z"/>
			<path class="st1" d="M431.7,406.1h-3.8c-1.2,0-2.2-1-2.2-2.2v-3.8c0-1.2,1-2.2,2.2-2.2h3.8c1.2,0,2.2,1,2.2,2.2v3.8
				C433.8,405.1,432.8,406.1,431.7,406.1z"/>
			<path class="st1" d="M440.5,414.9h-3.8c-1.2,0-2.2-1-2.2-2.2v-3.8c0-1.2,1-2.2,2.2-2.2h3.8c1.2,0,2.2,1,2.2,2.2v3.8
				C442.7,414,441.7,414.9,440.5,414.9z"/>
		</g>
	</g>
	<path class="st3" d="M429.1,382.3l0.4-0.4c0.2-0.2,0.2-0.7,0-1l-5-5c-0.2-0.2-0.7-0.4-1,0l-0.4,0.4c-0.2,0.2-0.7,0.2-1,0l-0.2-0.2
		l-0.2-0.2c-0.2-0.2-0.4-0.7,0-1l0.4-0.4c0.2-0.2,0.2-0.7,0-1l-5-5c-0.2-0.2-0.7-0.4-1,0l-0.4,0.4c-0.2,0.2-0.7,0.2-1,0l0,0
		c-0.4-0.4-1.1-0.2-1.2,0.2l-2.1,9.4l-2.1,9.4c-0.1,0.5,0.4,1,1,1l9.4-2.1l9.4-2.1c0.5-0.1,0.6-0.7,0.2-1.2l0,0
		C428.9,383.1,428.8,382.6,429.1,382.3z"/>
	<path class="st3" d="M421.7,429.9h-10.8c-1.2,0-2.2-1-2.2-2.2v-10.6c0-1.2,1-2.2,2.2-2.2h10.6c1.2,0,2.2,1,2.2,2.2v10.6
		C423.7,428.9,422.8,429.9,421.7,429.9z"/>
	<path class="st1" d="M400.5,404.8l2.4-8.9c0.1-0.5-0.4-1-0.9-0.9l-8.9,2.4l-8.9,2.4c-0.5,0.1-0.6,0.7-0.2,1.1l2.3,2.3
		c0.2,0.2,0.2,0.7,0,1l-0.4,0.4c-0.2,0.2-0.2,0.7,0,1l6.4,6.4c0.2,0.2,0.7,0.2,1,0l0.4-0.4c0.2-0.2,0.7-0.2,1,0l2.3,2.3
		c0.4,0.4,1,0.2,1.1-0.2L400.5,404.8z"/>
</g>
<path class="st1" d="M473.5,402.7c1.8-2.2,1.7-5.4-0.2-7.3l-52.3-52.3c-2.1-2.1-5.6-2.1-7.7,0l-52.5,52.3c-1.8,1.8-2.1,4.6-0.7,6.7
	c-1.8,2.2-1.7,5.4,0.2,7.3l52.3,52.3c2.1,2.1,5.6,2.1,7.7,0l52.3-52.3C474.6,407.6,474.9,404.8,473.5,402.7z M361.8,396.4l52.3-52.3
	c1.6-1.6,4.2-1.6,5.9,0l52.3,52.3c1.5,1.5,1.6,3.8,0.4,5.4l-52.2-52.3c-2.1-2.1-5.6-2.1-7.7,0L361,401.2
	C360.2,399.6,360.4,397.6,361.8,396.4z M471.8,402.7L420,454.6c-1.6,1.6-4.2,1.6-5.9,0l-52.3-52.3l51.8-51.8c1.6-1.6,4.2-1.6,5.9,0
	L471.8,402.7z M419.5,461c-1.6,1.6-4.2,1.6-5.9,0l-52.3-52.3c-1.5-1.5-1.6-3.8-0.4-5.4l52.3,52.3c2.1,2.1,5.6,2.1,7.7,0l51.7-51.7
	c0.7,1.6,0.5,3.4-0.7,4.8L419.5,461z"/>
</svg>
