<?xml version="1.0" encoding="utf-8"?>
<!-- Generator: Adobe Illustrator 26.5.0, SVG Export Plug-In . SVG Version: 6.00 Build 0)  -->
<svg version="1.1" id="Layer_1" xmlns="http://www.w3.org/2000/svg" xmlns:xlink="http://www.w3.org/1999/xlink" x="0px" y="0px"
	 viewBox="0 0 720 720" style="enable-background:new 0 0 720 720;" xml:space="preserve">
<style type="text/css">
	.st0{fill:#DFE2DB;}
	.st1{fill:#211D21;}
	.st2{fill:#C10206;}
</style>
<g>
	<g>
		<g>
			<g>
				
					<image style="overflow:visible;opacity:0.15;" width="333" height="362" xlink:href="85C18F5B.png"  transform="matrix(1 0 0 1 132 155)">
				</image>
				<g>
					<path class="st0" d="M447.9,408.1l-153.7,88.7c-4.9,2.8-11.1,1.1-13.9-3.7L152,270.9c-2.8-4.9-1.1-11.1,3.7-13.9l153.7-88.7
						c4.9-2.8,11.1-1.1,13.9,3.7l128.3,222.2C454.4,399.1,452.7,405.3,447.9,408.1z"/>
				</g>
			</g>
			<g>
				<path class="st1" d="M194.4,277.3l-0.2,0.1c-0.2,0.1-0.4,0.1-0.7,0.1l-10.5-3.6l-1.4,5.2l2,3.5c0.2,0.4,0.1,0.9-0.3,1.1
					l-0.3,0.2c-0.4,0.2-0.9,0.1-1.1-0.3l-8.4-14.6c-0.2-0.4-0.1-0.9,0.3-1.1l0.3-0.2c0.4-0.2,0.9-0.1,1.1,0.3l5.2,9l3.7-14.7
					c0.1-0.2,0.2-0.4,0.4-0.5l0,0c0.6-0.4,1.4,0.2,1.2,0.9l-2.3,9.4l10.8,3.9C194.9,276.1,195,277,194.4,277.3z"/>
			</g>
			<g>
				<path class="st1" d="M196.4,285.9l-1,3.7c-0.3,0.9-1.2,1.5-2.1,1.2l-3.7-1c-0.9-0.3-1.5-1.2-1.2-2.1l1-3.7
					c0.3-0.9,1.2-1.5,2.1-1.2l3.7,1C196.1,284,196.7,284.9,196.4,285.9z"/>
				<path class="st1" d="M195.2,295.2l-0.8,3c-0.3,0.9-1.2,1.5-2.1,1.2l-3-0.8c-0.9-0.3-1.5-1.2-1.2-2.1l0.8-3
					c0.3-0.9,1.2-1.5,2.1-1.2l3,0.8C194.9,293.3,195.5,294.2,195.2,295.2z"/>
				<path class="st1" d="M204.1,290.1l-0.8,3c-0.3,0.9-1.2,1.5-2.1,1.2l-3-0.8c-0.9-0.3-1.5-1.2-1.2-2.1l0.8-3
					c0.3-0.9,1.2-1.5,2.1-1.2l3,0.8C203.8,288.2,204.4,289.1,204.1,290.1z"/>
			</g>
			<g>
				<path class="st1" d="M409.3,387.9l0.2-0.1c0.2-0.1,0.4-0.1,0.7-0.1l10.5,3.6l1.4-5.2l-2-3.5c-0.2-0.4-0.1-0.9,0.3-1.1l0.3-0.2
					c0.4-0.2,0.9-0.1,1.1,0.3l8.4,14.6c0.2,0.4,0.1,0.9-0.3,1.1l-0.3,0.2c-0.4,0.2-0.9,0.1-1.1-0.3l-5.2-9l-3.7,14.7
					c-0.1,0.2-0.2,0.4-0.4,0.5l0,0c-0.6,0.4-1.4-0.2-1.2-0.9l2.3-9.4l-10.8-3.9C408.8,389.1,408.7,388.2,409.3,387.9z"/>
			</g>
			<g>
				<path class="st1" d="M408,380.6l1-3.7c0.3-0.9,1.2-1.5,2.1-1.2l3.7,1c0.9,0.3,1.5,1.2,1.2,2.1l-1,3.7c-0.3,0.9-1.2,1.5-2.1,1.2
					l-3.7-1C408.3,382.5,407.8,381.5,408,380.6z"/>
				<path class="st1" d="M409.2,371.2l0.8-3c0.3-0.9,1.2-1.5,2.1-1.2l3,0.8c0.9,0.3,1.5,1.2,1.2,2.1l-0.8,3
					c-0.3,0.9-1.2,1.5-2.1,1.2l-3-0.8C409.5,373.1,408.9,372.2,409.2,371.2z"/>
				<path class="st1" d="M400.3,376.4l0.8-3c0.3-0.9,1.2-1.5,2.1-1.2l3,0.8c0.9,0.3,1.5,1.2,1.2,2.1l-0.8,3
					c-0.3,0.9-1.2,1.5-2.1,1.2l-3-0.8C400.6,378.3,400.1,377.3,400.3,376.4z"/>
			</g>
		</g>
		<g>
			
				<image style="overflow:visible;opacity:0.15;" width="306" height="353" xlink:href="85C18F59.png"  transform="matrix(1 0 0 1 171 149)">
			</image>
			<g>
				<g>
					<g>
						<path class="st0" d="M458.5,422l-166.7,60.7c-5.3,1.9-11.1-0.8-13-6.1l-87.8-241.1c-1.9-5.3,0.8-11.1,6.1-13l166.7-60.7
							c5.3-1.9,11.1,0.8,13,6.1l87.8,241.1C466.5,414.2,463.7,420.1,458.5,422z"/>
					</g>
					<g>
						<g>
							<path class="st2" d="M231.7,246.3c-0.4,1.1-1.2,1.9-2.3,2.3c-0.4,0.1-0.8,0.2-1.2,0.2c-0.4,0-0.9-0.1-1.5-0.3
								c-0.3-0.1-0.7-0.3-1-0.4c0.4-0.3,0.9-0.6,1.2-0.9c0.8-0.7,1.4-1.5,1.8-2.4c0.4-0.9,0.7-1.9,0.7-2.9c0-1-0.1-2.1-0.5-3.1
								c-0.4-1.1-0.9-2-1.6-2.7c-0.7-0.7-1.5-1.3-2.4-1.7c-0.9-0.4-1.9-0.6-3-0.7c-1,0-2.1,0.2-3.2,0.6c-1.1,0.4-2,0.9-2.8,1.6
								c-0.8,0.7-1.4,1.5-1.8,2.4c-0.4,0.9-0.7,1.9-0.7,2.9c-0.1,1,0.1,2.1,0.5,3.1c0.4,1.1,0.9,1.9,1.6,2.7
								c0.7,0.8,1.5,1.3,2.4,1.7c0.9,0.4,1.9,0.6,3,0.7c1,0,1.9-0.1,2.9-0.5c0.6,0.3,1.1,0.5,1.6,0.7c0.6,0.2,1.1,0.4,1.6,0.5
								c0.5,0.1,1,0.1,1.4,0.1c0.4,0,0.9-0.1,1.3-0.3c1.4-0.5,2.4-1.5,2.9-2.9L231.7,246.3z M218.7,247.3c-0.7-0.4-1.4-0.8-2-1.4
								c-0.6-0.6-1-1.3-1.3-2.2c-0.3-0.9-0.4-1.7-0.4-2.5c0-0.8,0.2-1.6,0.6-2.4c0.3-0.7,0.8-1.4,1.5-1.9c0.6-0.6,1.4-1,2.2-1.3
								s1.7-0.5,2.6-0.4c0.8,0,1.6,0.2,2.4,0.6c0.7,0.3,1.4,0.8,1.9,1.4c0.6,0.6,1,1.3,1.3,2.2c0.3,0.8,0.4,1.7,0.4,2.5
								c0,0.8-0.2,1.6-0.6,2.4c-0.3,0.7-0.8,1.4-1.5,2c-0.6,0.6-1.4,1-2.2,1.3c-0.9,0.3-1.7,0.5-2.6,0.4
								C220.2,247.8,219.5,247.6,218.7,247.3z"/>
						</g>
					</g>
					<g>
						<path class="st2" d="M236.1,260.1l-3.7,7.9c-0.4,0.9-1.5,1.3-2.3,0.8l-7.9-3.7c-0.9-0.4-1.3-1.5-0.8-2.3l3.7-7.9
							c0.4-0.9,1.5-1.3,2.3-0.8l7.9,3.7C236.2,258.2,236.6,259.2,236.1,260.1z"/>
					</g>
					<g>
						<g>
							<path class="st2" d="M423.8,398.3c0.4-1.1,1.2-1.9,2.3-2.3c0.4-0.1,0.8-0.2,1.2-0.2c0.4,0,0.9,0.1,1.5,0.3
								c0.3,0.1,0.7,0.3,1,0.4c-0.4,0.3-0.9,0.6-1.2,0.9c-0.8,0.7-1.4,1.5-1.8,2.4c-0.4,0.9-0.7,1.9-0.7,2.9c0,1,0.1,2.1,0.5,3.1
								c0.4,1.1,0.9,2,1.6,2.7c0.7,0.7,1.5,1.3,2.4,1.7c0.9,0.4,1.9,0.6,3,0.7c1,0,2.1-0.2,3.2-0.6c1.1-0.4,2-0.9,2.8-1.6
								c0.8-0.7,1.4-1.5,1.8-2.4c0.4-0.9,0.7-1.9,0.7-2.9c0.1-1-0.1-2.1-0.5-3.1c-0.4-1.1-0.9-1.9-1.6-2.7c-0.7-0.8-1.5-1.3-2.4-1.7
								c-0.9-0.4-1.9-0.6-3-0.7c-1,0-1.9,0.1-2.9,0.5c-0.6-0.3-1.1-0.5-1.6-0.7c-0.6-0.2-1.1-0.4-1.6-0.5c-0.5-0.1-1-0.1-1.4-0.1
								c-0.4,0-0.9,0.1-1.3,0.3c-1.4,0.5-2.4,1.5-2.9,2.9L423.8,398.3z M436.8,397.3c0.7,0.4,1.4,0.8,2,1.4s1,1.3,1.3,2.2
								c0.3,0.9,0.4,1.7,0.4,2.5c0,0.8-0.2,1.6-0.6,2.4c-0.3,0.7-0.8,1.4-1.5,1.9c-0.6,0.6-1.4,1-2.2,1.3s-1.7,0.5-2.6,0.4
								c-0.8,0-1.6-0.2-2.4-0.6c-0.7-0.3-1.4-0.8-1.9-1.4c-0.6-0.6-1-1.3-1.3-2.2c-0.3-0.8-0.4-1.7-0.4-2.5c0-0.8,0.2-1.6,0.6-2.4
								c0.3-0.7,0.8-1.4,1.5-2c0.6-0.6,1.4-1,2.2-1.3c0.9-0.3,1.7-0.5,2.6-0.4C435.2,396.7,436,396.9,436.8,397.3z"/>
						</g>
					</g>
					<g>
						<path class="st2" d="M419.3,384.4l3.7-7.9c0.4-0.9,1.5-1.3,2.3-0.8l7.9,3.7c0.9,0.4,1.3,1.5,0.8,2.3l-3.7,7.9
							c-0.4,0.9-1.5,1.3-2.3,0.8l-7.9-3.7C419.3,386.3,418.9,385.3,419.3,384.4z"/>
					</g>
				</g>
			</g>
		</g>
		<g>
			<g>
				
					<image style="overflow:visible;opacity:0.15;" width="270" height="335" xlink:href="85C18F5F.png"  transform="matrix(1 0 0 1 219 156)">
				</image>
				<g>
					<path class="st0" d="M246.2,198.7l174.8-30.8c5.5-1,10.8,2.7,11.8,8.3l44.6,252.7c1,5.5-2.7,10.8-8.3,11.8l-174.8,30.8
						c-5.5,1-10.8-2.7-11.8-8.3l-44.6-252.7C237,205,240.7,199.7,246.2,198.7z"/>
				</g>
			</g>
			<g>
				<path class="st1" d="M446.2,407.2c1-0.2,2-0.1,3,0.2c1,0.3,1.8,0.8,2.5,1.5l-0.9,1.5c-0.6-0.6-1.3-1.1-2-1.3s-1.5-0.3-2.3-0.2
					c-2.2,0.4-3.1,1.9-2.6,4.6l1.9,10.9l6.6-1.2l0.3,1.6l-8.5,1.5l-2.2-12.5c-0.3-1.9-0.1-3.4,0.6-4.5
					C443.2,408.2,444.4,407.5,446.2,407.2z"/>
			</g>
			<path class="st1" d="M440.3,398.4l4.9,5.8c0.3,0.3,0.8,0.2,0.9-0.2l2.6-7.1l2.6-7.1c0.1-0.4-0.2-0.8-0.6-0.7l-2.7,0.5
				c-0.3,0.1-0.6-0.1-0.6-0.4l-0.1-0.4c-0.1-0.3-0.3-0.5-0.6-0.4l-7.3,1.3c-0.3,0.1-0.5,0.3-0.4,0.6l0.1,0.4
				c0.1,0.3-0.1,0.6-0.4,0.6l-2.7,0.5c-0.4,0.1-0.6,0.6-0.3,0.9L440.3,398.4z"/>
			<g>
				<path class="st1" d="M269.1,231.7c-1,0.2-2,0.1-3-0.2c-1-0.3-1.8-0.8-2.5-1.5l0.9-1.5c0.6,0.6,1.3,1.1,2,1.3s1.5,0.3,2.3,0.2
					c2.2-0.4,3.1-1.9,2.6-4.6l-1.9-10.9l-6.6,1.2l-0.3-1.6l8.5-1.5l2.2,12.5c0.3,1.9,0.1,3.4-0.6,4.5
					C272.1,230.7,270.8,231.4,269.1,231.7z"/>
			</g>
			<path class="st1" d="M274.9,240.4l-4.9-5.8c-0.3-0.3-0.8-0.2-0.9,0.2l-2.6,7.1L264,249c-0.1,0.4,0.2,0.8,0.6,0.7l2.7-0.5
				c0.3-0.1,0.6,0.1,0.6,0.4l0.1,0.4c0.1,0.3,0.3,0.5,0.6,0.4l7.3-1.3c0.3-0.1,0.5-0.3,0.4-0.6l-0.1-0.4c-0.1-0.3,0.1-0.6,0.4-0.6
				l2.7-0.5c0.4-0.1,0.6-0.6,0.3-0.9L274.9,240.4z"/>
			<g>
				<path class="st1" d="M269.1,231.9c-1,0.2-2,0.1-3-0.2c-1-0.3-1.8-0.8-2.5-1.5l0.9-1.5c0.6,0.6,1.3,1.1,2,1.3s1.5,0.3,2.3,0.2
					c2.2-0.4,3.1-1.9,2.6-4.6l-1.9-10.9l-6.6,1.2l-0.3-1.6l8.5-1.5l2.2,12.5c0.3,1.9,0.1,3.4-0.6,4.5
					C272.1,230.9,270.9,231.6,269.1,231.9z"/>
			</g>
			<path class="st1" d="M275,240.6l-4.9-5.8c-0.3-0.3-0.8-0.2-0.9,0.2l-2.6,7.1l-2.6,7.1c-0.1,0.4,0.2,0.8,0.6,0.7l2.7-0.5
				c0.3-0.1,0.6,0.1,0.6,0.4l0.1,0.4c0.1,0.3,0.3,0.5,0.6,0.4l7.3-1.3c0.3-0.1,0.5-0.3,0.4-0.6l-0.1-0.4c-0.1-0.3,0.1-0.6,0.4-0.6
				l2.7-0.5c0.4-0.1,0.6-0.6,0.3-0.9L275,240.6z"/>
		</g>
		<g>
			<g>
				
					<image style="overflow:visible;opacity:0.15;" width="229" height="308" xlink:href="85C18F58.png"  transform="matrix(1 0 0 1 269 180)">
				</image>
				<g>
					<path class="st0" d="M475.6,468.8H298.2c-5.6,0-10.2-4.6-10.2-10.2V202c0-5.6,4.6-10.2,10.2-10.2h177.5
						c5.6,0,10.2,4.6,10.2,10.2v256.6C485.8,464.2,481.3,468.8,475.6,468.8z"/>
				</g>
			</g>
			<g>
				<g>
					<g>
						<path class="st2" d="M321,214.5c-0.6-1.4-1.4-2.4-2.5-3.1c-1.1-0.7-2.5-1.1-4.1-1.1c-1.2,0-2.3,0.2-3.2,0.7
							c-1,0.5-1.7,1.1-2.2,1.9c-0.5,0.8-0.8,1.8-0.8,2.9c0,1.1,0.3,2.1,0.8,2.9c0.5,0.8,1.2,1.4,2.2,1.9c0.9,0.5,2,0.7,3.2,0.7
							c1,0,1.9-0.2,2.7-0.5c0.8-0.3,1.5-0.8,2.1-1.5c0.3-0.3,0.5-0.7,0.7-1.1c0,0.5,0.1,1,0.1,1.4c0,2.5-0.6,4.3-1.8,5.6
							c-1.2,1.2-2.7,1.9-4.7,1.9c-0.7,0-1.3-0.1-1.9-0.2c-0.3-0.1-0.7-0.2-1-0.3c-0.4-0.2-0.8,0-1,0.4l0,0c-0.2,0.4,0,1,0.4,1.1
							c0.4,0.2,0.8,0.3,1.2,0.4c0.7,0.2,1.5,0.2,2.3,0.2c1.6,0,3.1-0.4,4.3-1.1c1.3-0.7,2.2-1.8,2.9-3.2c0.7-1.4,1.1-3.1,1.1-5.2
							C321.9,217.5,321.6,215.8,321,214.5z M318.7,217.8c-0.4,0.6-0.9,1.1-1.6,1.4c-0.7,0.3-1.5,0.5-2.5,0.5c-1.4,0-2.5-0.3-3.3-1.1
							c-0.8-0.7-1.2-1.7-1.2-2.9c0-0.8,0.2-1.5,0.6-2.1c0.4-0.6,0.9-1,1.6-1.4c0.7-0.3,1.4-0.5,2.3-0.5c1.1,0,1.9,0.2,2.7,0.5
							c0.7,0.4,1.2,0.9,1.6,1.5c0.4,0.6,0.5,1.2,0.5,1.9C319.3,216.5,319.1,217.2,318.7,217.8z"/>
					</g>
				</g>
				<path class="st2" d="M322.9,232.4V232c0-0.3-0.3-0.6-0.6-0.6h-5.7c-0.3,0-0.6,0.2-0.6,0.6v0.4c0,0.3-0.3,0.6-0.6,0.6h-0.2h-0.2
					c-0.3,0-0.6-0.2-0.6-0.6V232c0-0.3-0.3-0.6-0.6-0.6h-5.7c-0.3,0-0.6,0.2-0.6,0.6v0.4c0,0.3-0.3,0.6-0.6,0.6l0,0
					c-0.5,0-0.8,0.5-0.5,0.8l4.2,6.6l4.2,6.6c0.2,0.4,0.8,0.4,1.1,0l4.2-6.6l4.2-6.6c0.2-0.4-0.1-0.8-0.5-0.8l0,0
					C323.2,233,322.9,232.7,322.9,232.4z"/>
				<g>
					<g>
						<path class="st2" d="M452.9,446.3c0.6,1.4,1.4,2.4,2.5,3.1c1.1,0.7,2.5,1.1,4.1,1.1c1.2,0,2.3-0.2,3.2-0.7
							c1-0.5,1.7-1.1,2.2-1.9c0.5-0.8,0.8-1.8,0.8-2.9c0-1.1-0.3-2.1-0.8-2.9c-0.5-0.8-1.2-1.4-2.2-1.9c-0.9-0.5-2-0.7-3.2-0.7
							c-1,0-1.9,0.2-2.7,0.5c-0.8,0.3-1.5,0.8-2.1,1.5c-0.3,0.3-0.5,0.7-0.7,1.1c0-0.5-0.1-1-0.1-1.4c0-2.5,0.6-4.3,1.8-5.6
							c1.2-1.2,2.7-1.9,4.7-1.9c0.7,0,1.3,0.1,1.9,0.2c0.3,0.1,0.7,0.2,1,0.3c0.4,0.2,0.8,0,1-0.4v0c0.2-0.4,0-1-0.4-1.1
							c-0.4-0.2-0.8-0.3-1.2-0.4c-0.7-0.2-1.5-0.2-2.3-0.2c-1.6,0-3.1,0.4-4.3,1.1c-1.3,0.7-2.2,1.8-2.9,3.2
							c-0.7,1.4-1.1,3.1-1.1,5.2C452.1,443.3,452.4,444.9,452.9,446.3z M455.2,443c0.4-0.6,0.9-1.1,1.6-1.4c0.7-0.3,1.5-0.5,2.5-0.5
							c1.4,0,2.5,0.3,3.3,1.1c0.8,0.7,1.2,1.7,1.2,2.9c0,0.8-0.2,1.5-0.6,2.1c-0.4,0.6-0.9,1-1.6,1.4c-0.7,0.3-1.4,0.5-2.3,0.5
							c-1.1,0-1.9-0.2-2.7-0.5c-0.7-0.4-1.2-0.9-1.6-1.5c-0.4-0.6-0.5-1.2-0.5-1.9C454.6,444.2,454.8,443.6,455.2,443z"/>
					</g>
				</g>
				<path class="st2" d="M451.1,428.5v0.4c0,0.3,0.3,0.6,0.6,0.6h5.7c0.3,0,0.6-0.2,0.6-0.6v-0.4c0-0.3,0.3-0.6,0.6-0.6h0.2h0.2
					c0.3,0,0.6,0.2,0.6,0.6v0.4c0,0.3,0.3,0.6,0.6,0.6h5.7c0.3,0,0.6-0.2,0.6-0.6v-0.4c0-0.3,0.3-0.6,0.6-0.6l0,0
					c0.5,0,0.8-0.5,0.5-0.8l-4.2-6.6l-4.2-6.6c-0.2-0.4-0.8-0.4-1.1,0l-4.2,6.6l-4.2,6.6c-0.2,0.4,0.1,0.8,0.5,0.8l0,0
					C450.8,428,451.1,428.2,451.1,428.5z"/>
				<g>
					<path class="st2" d="M400,275.6V275c0-0.5-0.5-0.9-1-0.9h-9.6c-0.6,0-1,0.4-1,0.9v0.7c0,0.5-0.5,0.9-1,0.9h-0.4h-0.4
						c-0.6,0-1-0.4-1-0.9V275c0-0.5-0.5-0.9-1-0.9h-9.6c-0.6,0-1,0.4-1,0.9v0.7c0,0.5-0.5,0.9-1,0.9l0,0c-0.8,0-1.3,0.8-0.9,1.4
						l7,11.1l7,11.1c0.4,0.6,1.4,0.6,1.8,0l7-11.1l7-11.1c0.4-0.6-0.1-1.4-0.9-1.4l0,0C400.4,276.6,400,276.2,400,275.6z"/>
					<path class="st2" d="M366,251.7V251c0-0.5-0.5-0.9-1-0.9h-9.6c-0.6,0-1,0.4-1,0.9v0.7c0,0.5-0.5,0.9-1,0.9h-0.4h-0.4
						c-0.6,0-1-0.4-1-0.9V251c0-0.5-0.5-0.9-1-0.9h-9.6c-0.6,0-1,0.4-1,0.9v0.7c0,0.5-0.5,0.9-1,0.9l0,0c-0.8,0-1.3,0.8-0.9,1.4
						l7,11.1l7,11.1c0.4,0.6,1.4,0.6,1.8,0l7-11.1l7-11.1c0.4-0.6-0.1-1.4-0.9-1.4l0,0C366.5,252.7,366,252.2,366,251.7z"/>
					<path class="st2" d="M407.9,251.7v-0.7c0-0.5,0.5-0.9,1-0.9h9.6c0.6,0,1,0.4,1,0.9v0.7c0,0.5,0.5,0.9,1,0.9h0.4h0.4
						c0.6,0,1-0.4,1-0.9v-0.7c0-0.5,0.5-0.9,1-0.9h9.6c0.6,0,1,0.4,1,0.9v0.7c0,0.5,0.5,0.9,1,0.9l0,0c0.8,0,1.3,0.8,0.9,1.4
						l-7,11.1l-7,11.1c-0.4,0.6-1.4,0.6-1.8,0l-7-11.1l-7-11.1c-0.4-0.6,0.1-1.4,0.9-1.4l0,0C407.4,252.7,407.9,252.3,407.9,251.7z"
						/>
					<path class="st2" d="M366,296v-0.7c0-0.5-0.5-0.9-1-0.9h-9.6c-0.6,0-1,0.4-1,0.9v0.7c0,0.5-0.5,0.9-1,0.9h-0.4h-0.4
						c-0.6,0-1-0.4-1-0.9v-0.7c0-0.5-0.5-0.9-1-0.9h-9.6c-0.6,0-1,0.4-1,0.9v0.7c0,0.5-0.5,0.9-1,0.9l0,0c-0.8,0-1.3,0.8-0.9,1.4
						l7,11.1l7,11.1c0.4,0.6,1.4,0.6,1.8,0l7-11.1l7-11.1c0.4-0.6-0.1-1.4-0.9-1.4l0,0C366.5,296.9,366,296.5,366,296z"/>
					<path class="st2" d="M407.9,296v-0.7c0-0.5,0.5-0.9,1-0.9h9.6c0.6,0,1,0.4,1,0.9v0.7c0,0.5,0.5,0.9,1,0.9h0.4h0.4
						c0.6,0,1-0.4,1-0.9v-0.7c0-0.5,0.5-0.9,1-0.9h9.6c0.6,0,1,0.4,1,0.9v0.7c0,0.5,0.5,0.9,1,0.9l0,0c0.8,0,1.3,0.8,0.9,1.4
						l-7,11.1l-7,11.1c-0.4,0.6-1.4,0.6-1.8,0l-7-11.1l-7-11.1c-0.4-0.6,0.1-1.4,0.9-1.4l0,0C407.4,296.9,407.9,296.5,407.9,296z"/>
					<path class="st2" d="M373.9,385v0.7c0,0.5,0.5,0.9,1,0.9h9.6c0.6,0,1-0.4,1-0.9V385c0-0.5,0.5-0.9,1-0.9h0.4h0.4
						c0.6,0,1,0.4,1,0.9v0.7c0,0.5,0.5,0.9,1,0.9h9.6c0.6,0,1-0.4,1-0.9V385c0-0.5,0.5-0.9,1-0.9l0,0c0.8,0,1.3-0.8,0.9-1.4l-7-11.1
						l-7-11.1c-0.4-0.6-1.4-0.6-1.8,0l-7,11.1l-7,11.1c-0.4,0.6,0.1,1.4,0.9,1.4l0,0C373.4,384.1,373.9,384.5,373.9,385z"/>
					<path class="st2" d="M407.9,408.9v0.7c0,0.5,0.5,0.9,1,0.9h9.6c0.6,0,1-0.4,1-0.9v-0.7c0-0.5,0.5-0.9,1-0.9h0.4h0.4
						c0.6,0,1,0.4,1,0.9v0.7c0,0.5,0.5,0.9,1,0.9h9.6c0.6,0,1-0.4,1-0.9v-0.7c0-0.5,0.5-0.9,1-0.9l0,0c0.8,0,1.3-0.8,0.9-1.4
						l-7-11.1l-7-11.1c-0.4-0.6-1.4-0.6-1.8,0l-7,11.1l-7,11.1c-0.4,0.6,0.1,1.4,0.9,1.4l0,0C407.4,408,407.9,408.4,407.9,408.9z"/>
					<path class="st2" d="M366,408.9v0.7c0,0.5-0.5,0.9-1,0.9h-9.6c-0.6,0-1-0.4-1-0.9v-0.7c0-0.5-0.5-0.9-1-0.9h-0.4h-0.4
						c-0.6,0-1,0.4-1,0.9v0.7c0,0.5-0.5,0.9-1,0.9h-9.6c-0.6,0-1-0.4-1-0.9v-0.7c0-0.5-0.5-0.9-1-0.9l0,0c-0.8,0-1.3-0.8-0.9-1.4
						l7-11.1l7-11.1c0.4-0.6,1.4-0.6,1.8,0l7,11.1l7,11.1c0.4,0.6-0.1,1.4-0.9,1.4l0,0C366.5,408,366,408.4,366,408.9z"/>
					<path class="st2" d="M407.9,364.7v0.7c0,0.5,0.5,0.9,1,0.9h9.6c0.6,0,1-0.4,1-0.9v-0.7c0-0.5,0.5-0.9,1-0.9h0.4h0.4
						c0.6,0,1,0.4,1,0.9v0.7c0,0.5,0.5,0.9,1,0.9h9.6c0.6,0,1-0.4,1-0.9v-0.7c0-0.5,0.5-0.9,1-0.9l0,0c0.8,0,1.3-0.8,0.9-1.4
						l-7-11.1l-7-11.1c-0.4-0.6-1.4-0.6-1.8,0l-7,11.1l-7,11.1c-0.4,0.6,0.1,1.4,0.9,1.4l0,0C407.4,363.7,407.9,364.2,407.9,364.7z"
						/>
					<path class="st2" d="M366,364.7v0.7c0,0.5-0.5,0.9-1,0.9h-9.6c-0.6,0-1-0.4-1-0.9v-0.7c0-0.5-0.5-0.9-1-0.9h-0.4h-0.4
						c-0.6,0-1,0.4-1,0.9v0.7c0,0.5-0.5,0.9-1,0.9h-9.6c-0.6,0-1-0.4-1-0.9v-0.7c0-0.5-0.5-0.9-1-0.9l0,0c-0.8,0-1.3-0.8-0.9-1.4
						l7-11.1l7-11.1c0.4-0.6,1.4-0.6,1.8,0l7,11.1l7,11.1c0.4,0.6-0.1,1.4-0.9,1.4l0,0C366.5,363.7,366,364.1,366,364.7z"/>
				</g>
			</g>
		</g>
		<g>
			
				<image style="overflow:visible;opacity:0.15;" width="358" height="358" xlink:href="85C18F56.png"  transform="matrix(1 0 0 1 223 220)">
			</image>
			<g>
				<path class="st0" d="M565.7,375.3l-180,180c-4.4,4.4-11.4,4.4-15.8,0L245.9,431.2c-4.4-4.4-4.4-11.4,0-15.8l180-180
					c4.4-4.4,11.4-4.4,15.8,0l124.1,124.1C570.1,363.8,570.1,370.9,565.7,375.3z"/>
			</g>
		</g>
	</g>
	<g>
		<g>
			<g>
				<path class="st1" d="M427.3,397h-3.8c-1,0-1.8-0.8-1.8-1.8v-3.8c0-1,0.8-1.8,1.8-1.8h3.8c1,0,1.8,0.8,1.8,1.8v3.8
					C429,396.2,428.2,397,427.3,397z"/>
				<path class="st1" d="M418,398.3h-3.1c-1,0-1.8-0.8-1.8-1.8v-3.1c0-1,0.8-1.8,1.8-1.8h3.1c1,0,1.8,0.8,1.8,1.8v3.1
					C419.7,397.5,418.9,398.3,418,398.3z"/>
				<path class="st1" d="M425.2,405.5h-3.1c-1,0-1.8-0.8-1.8-1.8v-3.1c0-1,0.8-1.8,1.8-1.8h3.1c1,0,1.8,0.8,1.8,1.8v3.1
					C427,404.8,426.2,405.5,425.2,405.5z"/>
			</g>
		</g>
		<path class="st2" d="M415.9,378.9l0.3-0.3c0.2-0.2,0.2-0.6,0-0.8l-4.1-4.1c-0.2-0.2-0.6-0.3-0.8,0l-0.3,0.3
			c-0.2,0.2-0.6,0.2-0.8,0l-0.2-0.2l-0.2-0.2c-0.2-0.2-0.3-0.6,0-0.8l0.3-0.3c0.2-0.2,0.2-0.6,0-0.8l-4.1-4.1
			c-0.2-0.2-0.6-0.3-0.8,0l-0.3,0.3c-0.2,0.2-0.6,0.2-0.8,0l0,0c-0.3-0.3-0.9-0.2-1,0.2l-1.7,7.7l-1.7,7.7c-0.1,0.4,0.3,0.8,0.8,0.8
			l7.7-1.7l7.7-1.7c0.4-0.1,0.5-0.6,0.2-1l0,0C415.7,379.5,415.6,379.1,415.9,378.9z"/>
		<path class="st2" d="M409.8,417.8H401c-1,0-1.8-0.8-1.8-1.8v-8.7c0-1,0.8-1.8,1.8-1.8h8.7c1,0,1.8,0.8,1.8,1.8v8.7
			C411.5,417,410.7,417.8,409.8,417.8z"/>
		<path class="st1" d="M392.5,397.3l2-7.3c0.1-0.4-0.3-0.8-0.7-0.7l-7.3,2l-7.3,2c-0.4,0.1-0.5,0.6-0.2,0.9l1.9,1.9
			c0.2,0.2,0.2,0.6,0,0.8l-0.3,0.3c-0.2,0.2-0.2,0.6,0,0.8l5.2,5.2c0.2,0.2,0.6,0.2,0.8,0l0.3-0.3c0.2-0.2,0.6-0.2,0.8,0l1.9,1.9
			c0.3,0.3,0.8,0.2,0.9-0.2L392.5,397.3z"/>
	</g>
	<path class="st1" d="M452.2,395.6c1.5-1.8,1.4-4.4-0.2-6l-42.8-42.8c-1.7-1.7-4.6-1.7-6.3,0L360,389.6c-1.5,1.5-1.7,3.8-0.6,5.5
		c-1.5,1.8-1.4,4.4,0.2,6l42.8,42.8c1.7,1.7,4.6,1.7,6.3,0l42.8-42.8C453.1,399.6,453.3,397.3,452.2,395.6z M360.8,390.4l42.8-42.8
		c1.3-1.3,3.4-1.3,4.8,0l42.8,42.8c1.2,1.2,1.3,3.1,0.3,4.4L408.8,352c-1.7-1.7-4.6-1.7-6.3,0l-42.3,42.3
		C359.5,393,359.7,391.4,360.8,390.4z M450.8,395.6L408.4,438c-1.3,1.3-3.4,1.3-4.8,0l-42.8-42.8l42.4-42.4c1.3-1.3,3.4-1.3,4.8,0
		L450.8,395.6z M408,443.2c-1.3,1.3-3.4,1.3-4.8,0l-42.8-42.8c-1.2-1.2-1.3-3.1-0.3-4.4l42.8,42.8c1.7,1.7,4.6,1.7,6.3,0l42.3-42.3
		c0.6,1.3,0.4,2.8-0.6,3.9L408,443.2z"/>
</g>
</svg>
