<?xml version="1.0" encoding="utf-8"?>
<!-- Generator: Adobe Illustrator 26.5.0, SVG Export Plug-In . SVG Version: 6.00 Build 0)  -->
<svg version="1.1" id="Layer_1" xmlns="http://www.w3.org/2000/svg" xmlns:xlink="http://www.w3.org/1999/xlink" x="0px" y="0px"
	 viewBox="0 0 720 720" style="enable-background:new 0 0 720 720;" xml:space="preserve">
<style type="text/css">
	.st0{clip-path:url(#SVGID_00000031905561628812977750000000271983283322454429_);}
	.st1{clip-path:url(#SVGID_00000025400792355685347920000004941927153303738758_);}
	.st2{clip-path:url(#SVGID_00000183223912997501977820000007771449473590394252_);}
	.st3{clip-path:url(#SVGID_00000002364075673130612080000010129312953995742098_);}
	.st4{clip-path:url(#SVGID_00000167377223936922794550000012974024555978080130_);}
	.st5{clip-path:url(#SVGID_00000147924040252953156970000007705193653095056563_);}
	.st6{clip-path:url(#SVGID_00000064346253704744204390000004860631771615757759_);}
	.st7{clip-path:url(#SVGID_00000130619119901707011450000002242503192052274596_);}
	.st8{clip-path:url(#SVGID_00000140731162404133525740000008815824648651663002_);}
	.st9{clip-path:url(#SVGID_00000165914595279565439610000009023828544878801537_);}
	.st10{clip-path:url(#SVGID_00000070100817914795010850000001638340303710512810_);}
	.st11{clip-path:url(#SVGID_00000124864530393314860840000011986656754898209672_);}
	.st12{clip-path:url(#SVGID_00000025424555070477142420000002707473575406878367_);}
	.st13{clip-path:url(#SVGID_00000093859120876884534450000010678691227241940103_);}
	.st14{clip-path:url(#SVGID_00000053505942238656484510000000394407759090115721_);}
	.st15{clip-path:url(#SVGID_00000131331132750738666390000006032969694909121958_);}
	.st16{fill:#BC1823;}
	.st17{opacity:0.36;fill:#BC1823;}
	.st18{fill:#030E19;}
	.st19{fill:#F79D27;}
	.st20{fill:#003556;}
	.st21{fill:#43ADD9;}
	.st22{fill:#83C8E4;}
	.st23{fill:#8E1E1E;}
	.st24{fill:#282828;}
	.st25{fill:#FFA800;}
	.st26{fill:#010F2C;}
	.st27{enable-background:new    ;}
	.st28{fill:#00618C;}
	.st29{fill:#FFFFFF;}
	.st30{fill:#5B0A0A;}
</style>
<g>
	<g>
		<g>
			<path class="st23" d="M322.7,282.7L304,293.9c-13.1-12.5-22-29.3-24.4-48.1c-0.2-1.4,0.9-2.6,2.3-2.6h16.3c1.1,0,2.1,0.8,2.3,2
				C303,260.3,311.2,273.6,322.7,282.7z"/>
			<path class="st23" d="M281.3,233.7h16.1c1.2,0,2.2-1,2.3-2.2c1.8-29.3,24.5-53,53.4-56.2c1.2-0.1,2.1-1.1,2.1-2.3v-16.2
				c0-1.3-1.2-2.4-2.5-2.3c-40.1,3.5-71.9,36.3-73.8,76.8C278.9,232.6,280,233.7,281.3,233.7z"/>
			<path class="st24" d="M430.9,225.4H447c1.3,0,2.4-1.1,2.4-2.4c-1.9-40.5-33.7-73.3-73.8-76.8c-1.3-0.1-2.5,1-2.5,2.3v16.2
				c0,1.2,0.9,2.2,2.1,2.3c28.9,3.2,51.6,26.9,53.4,56.2C428.6,224.4,429.6,225.4,430.9,225.4z"/>
			<path class="st24" d="M440.4,245.8c-2.5,18.9-11.4,35.8-24.6,48.2l-18.8-11.3c11.7-9.1,19.9-22.4,22.4-37.6c0.2-1.1,1.1-2,2.3-2
				h16.3C439.5,243.2,440.6,244.4,440.4,245.8z"/>
			<path class="st23" d="M322.4,230.4c0,2.2-1.8,4-4,4s-4-1.8-4-4c0-2.2,1.8-4,4-4S322.4,228.2,322.4,230.4z"/>
			<path class="st23" d="M340.1,216.7c0,2.2-1.8,4-4,4c-2.2,0-4-1.8-4-4c0-2.2,1.8-4,4-4C338.3,212.7,340.1,214.5,340.1,216.7z"/>
			<path class="st24" d="M376.4,249.5c0,2.2-1.8,4-4,4c-2.2,0-4-1.8-4-4c0-2.2,1.8-4,4-4C374.6,245.5,376.4,247.3,376.4,249.5z"/>
			<path class="st24" d="M398,217.3c0,0.7,0.1,1.4,0.3,2.1l-22.9,22.9c-0.9-0.4-1.9-0.6-2.9-0.6c-0.9,0-1.8,0.2-2.6,0.5c0,0,0,0,0,0
				l-25.9-25.9c-0.2-4.1-3.6-7.3-7.7-7.3c-0.1,0-0.2,0-0.4,0h0c-0.3,0-0.6,0-0.9,0.1c0,0,0,0,0,0c-3,0.5-5.5,2.8-6.2,5.8l-8.1,8.1
				c-0.7-0.2-1.4-0.3-2.1-0.3c-1.3,0-2.6,0.3-3.6,0.9l-2.9-2.9c-0.2-0.2-0.3-0.3-0.5-0.4c5.9-19.3,23.1-33.7,43.9-35.7
				c1.6-0.1,3.1-0.2,4.7-0.2c1.6,0,3.2,0.1,4.7,0.2c16.8,1.6,31.3,11.3,39.3,25.2C400.5,210.5,398,213.6,398,217.3z"/>
			<path class="st24" d="M410.8,235.2c0,2.7-0.2,5.4-0.6,8c-2.2,14.3-10.4,26.6-22,34.3l-28.5-17.1l-28.3,17
				c-11.4-7.7-19.5-20-21.8-34.2c-0.4-2.6-0.6-5.3-0.6-8c0-0.5,0-1,0-1.5c0-1.2,0.1-2.4,0.2-3.6l1.5,1.5c0.6,3.7,3.8,6.5,7.6,6.5
				c4.3,0,7.7-3.4,7.7-7.7c0-0.3,0-0.7-0.1-1l6.1-6.1c1.2,0.7,2.5,1.1,4,1.1c1.1,0,2.2-0.2,3.2-0.7l25.4,25.4c0,0.1,0,0.2,0,0.3
				c0,4.3,3.4,7.7,7.7,7.7c4.2,0,7.7-3.4,7.7-7.7l24.6-24.6c0.3,0,0.7,0.1,1,0.1c1.4,0,2.8-0.4,3.9-1.1c0.7,3.2,1.1,6.4,1.2,9.8
				C410.8,234.2,410.8,234.7,410.8,235.2z"/>
			<g>
				<path class="st23" d="M322.4,230.4c0,2.2-1.8,4-4,4s-4-1.8-4-4c0-2.2,1.8-4,4-4S322.4,228.2,322.4,230.4z"/>
				<path class="st23" d="M340.1,216.7c0,2.2-1.8,4-4,4c-2.2,0-4-1.8-4-4c0-2.2,1.8-4,4-4C338.3,212.7,340.1,214.5,340.1,216.7z"/>
				<path class="st24" d="M376.4,249.5c0,2.2-1.8,4-4,4c-2.2,0-4-1.8-4-4c0-2.2,1.8-4,4-4C374.6,245.5,376.4,247.3,376.4,249.5z"/>
			</g>
			<path class="st23" d="M340.1,216.7c0,2.2-1.8,4-4,4c-2.2,0-4-1.8-4-4c0-2.2,1.8-4,4-4C338.3,212.7,340.1,214.5,340.1,216.7z"/>
			<path class="st23" d="M322.4,230.4c0,2.2-1.8,4-4,4s-4-1.8-4-4c0-2.2,1.8-4,4-4S322.4,228.2,322.4,230.4z"/>
			<path class="st24" d="M376.4,249.5c0,2.2-1.8,4-4,4c-2.2,0-4-1.8-4-4c0-2.2,1.8-4,4-4C374.6,245.5,376.4,247.3,376.4,249.5z"/>
			<path class="st24" d="M322.4,230.4c0,2.2-1.8,4-4,4s-4-1.8-4-4c0-2.2,1.8-4,4-4S322.4,228.2,322.4,230.4z"/>
			<path class="st24" d="M340.1,216.7c0,2.2-1.8,4-4,4c-2.2,0-4-1.8-4-4c0-2.2,1.8-4,4-4C338.3,212.7,340.1,214.5,340.1,216.7z"/>
			<path class="st24" d="M376.4,249.5c0,2.2-1.8,4-4,4c-2.2,0-4-1.8-4-4c0-2.2,1.8-4,4-4C374.6,245.5,376.4,247.3,376.4,249.5z"/>
			<path class="st24" d="M409.6,217.3c0,1.1-0.4,2-1.1,2.7c-0.7,0.7-1.7,1.2-2.8,1.2c-2.2,0-4-1.8-4-4c0-0.6,0.1-1.2,0.4-1.7
				c0.4-0.8,1-1.4,1.8-1.8c0.5-0.3,1.1-0.4,1.7-0.4c0.1,0,0.1,0,0.2,0C408,213.4,409.6,215.2,409.6,217.3z"/>
		</g>
		<g>
			<g>
				<path class="st23" d="M460.3,342.8c-2.2,3.6-6,5.7-10,5.7c-2,0-4.1-0.5-6-1.7l-12.3-7.4l-45.6-27.4h0l-21.6-13l-4.9-3l-4.5,2.7
					l-21.9,13.2l-46.6,28l-11.1,6.7c-1.9,1.1-4,1.7-6,1.7c-4,0-7.8-2-10-5.7c-3.3-5.5-1.5-12.7,4-16l13.4-8.1l32.6-19.6l19.6-11.7
					l9.5-5.7l21.1-12.7l0,0v0l21.2,12.8l9.5,5.7l19.6,11.8l32.2,19.3l14.1,8.5C461.9,330.1,463.7,337.3,460.3,342.8z"/>
			</g>
			<g>
				<path class="st23" d="M442.7,371.2c-2.2,3.6-6,5.7-10,5.7c-2,0-4.1-0.5-6-1.7l-9.4-5.6v0l-57.4-34.5l-37,22.2l-29.5,17.8
					c-1.9,1.1-4,1.7-6,1.7c-4,0-7.8-2-10-5.7c-3.3-5.5-1.5-12.7,4-16l9.6-5.8l56.4-33.9l7.9-4.7l4.6-2.8l0,0v0l4.9,2.9l7.6,4.6
					l55.2,33.2l11.1,6.7C444.2,358.6,446,365.7,442.7,371.2z"/>
			</g>
			<g>
				<path class="st23" d="M294.5,382.5l18.7-11.2v132.8c0,5.2-4.2,9.4-9.4,9.4l0,0c-5.2,0-9.4-4.2-9.4-9.4V382.5z"/>
				<path class="st23" d="M350.6,348.8v136.6c0,5.2-4.2,9.4-9.4,9.4c-2.6,0-4.9-1-6.6-2.7c-1.7-1.7-2.7-4-2.7-6.6V360l1.8-1.1
					L350.6,348.8z"/>
				<path class="st23" d="M388.1,360.1v106.5c0,5.2-4.2,9.4-9.4,9.4c-2.6,0-4.9-1-6.6-2.7c-1.7-1.7-2.7-4-2.7-6.6V348.9L388.1,360.1
					z"/>
			</g>
		</g>
	</g>
	<g>
		<path class="st24" d="M288.4,572.9v-1.8l4.3-1.1c0.4-0.1,0.7-0.3,0.9-0.6c0.3-0.3,0.4-0.7,0.4-1.1v-34.2c0-0.5-0.1-0.8-0.4-1.1
			c-0.3-0.3-0.6-0.5-0.9-0.6l-4.3-1.1v-1.8h16.4c4.2,0,7.5,0.5,9.7,1.4c2.3,0.9,3.8,2.1,4.7,3.6c0.8,1.5,1.3,3,1.3,4.7
			c0,2.7-0.8,5-2.5,6.9c-1.7,1.8-3.9,3.1-6.8,3.9v0.1c2.3,0.1,4.4,0.6,6.2,1.5c1.8,0.9,3.3,2.1,4.4,3.6c1.1,1.5,1.6,3.3,1.6,5.4
			c0,2.5-0.5,4.5-1.5,6.2c-1,1.6-2.4,2.9-4,3.8c-1.7,0.9-3.6,1.6-5.7,2c-2.1,0.4-4.2,0.6-6.4,0.6H288.4z M300,532.3v16.9h3
			c4.2,0,7.1-0.7,8.8-2.1c1.7-1.4,2.5-3.3,2.5-5.7c0-3.2-0.8-5.6-2.5-7c-1.7-1.4-4.2-2.1-7.7-2.1H300z M300,552v18.1h6.7
			c3.4,0,5.9-0.7,7.6-2c1.7-1.3,2.5-3.5,2.5-6.5c0-3.5-0.9-6-2.7-7.4c-1.8-1.4-4.8-2.1-9-2.1H300z"/>
		<path class="st24" d="M324.5,572.9v-1.8l2.9-1c0.8-0.3,1.4-0.9,1.7-1.8l12.4-32.2l3.7-7.2h2.1l15.4,39.5c0.1,0.4,0.4,0.7,0.7,1.1
			c0.3,0.3,0.6,0.6,1,0.7l2.9,1v1.8h-15.6v-1.8l5.3-1.3l-11.2-28.7l-1.4-4.2h-0.2L332,569.7l5.3,1.5v1.8H324.5z M336.2,557.2
			l1.2-3.1h14.1l1.2,3.1H336.2z"/>
		<path class="st24" d="M369.8,571.2l-0.5-11.3h2.4l2,6.3c0.1,0.3,0.3,0.6,0.6,0.9c0.3,0.3,0.6,0.5,0.8,0.7c0.9,0.6,1.9,1.1,3,1.6
			c1.1,0.5,2.2,0.9,3.3,1.1c1.1,0.3,2.1,0.4,3,0.4c2.9,0,5.1-0.7,6.8-2.2c1.7-1.4,2.5-3.5,2.5-6.1c0-1.9-0.5-3.4-1.6-4.6
			c-1.1-1.2-2.5-2.2-4.3-2.9c-1.7-0.7-3.3-1.2-4.9-1.6s-3.2-0.9-4.8-1.6c-2.4-1-4.2-2.4-5.6-4.2c-1.3-1.8-2-4-2-6.5
			c0-2.4,0.6-4.5,1.9-6.4c1.2-1.9,2.9-3.4,5.1-4.5c2.1-1.1,4.5-1.7,7.2-1.7c1.5,0,3,0.1,4.4,0.3c1.4,0.2,2.8,0.5,4.1,0.8
			s2.6,0.6,3.8,1v10.6h-2.4l-1.8-5.9c-0.1-0.3-0.3-0.6-0.6-0.8c-0.3-0.3-0.5-0.5-0.8-0.7c-0.6-0.4-1.3-0.8-2.1-1.1s-1.7-0.6-2.6-0.7
			c-0.9-0.2-1.7-0.3-2.5-0.3c-2.6,0-4.7,0.6-6.2,1.9c-1.5,1.3-2.2,2.9-2.2,4.8c0,1.7,0.4,3.2,1.2,4.7c0.8,1.5,2.4,2.6,4.8,3.5
			c1.6,0.6,3.1,1,4.6,1.5c1.5,0.4,3.1,1,4.9,1.7c1.3,0.6,2.6,1.3,3.8,2.1c1.2,0.9,2.2,2,3,3.4c0.8,1.4,1.2,3.1,1.2,5.2
			c0,2.2-0.6,4.3-1.7,6.4c-1.1,2-2.9,3.7-5.3,5c-2.4,1.3-5.5,2-9.4,2c-1.3,0-2.7-0.1-4.1-0.4c-1.5-0.3-3-0.6-4.5-1
			C372.8,572,371.3,571.6,369.8,571.2z"/>
		<path class="st24" d="M405.5,571.2l-0.5-11.3h2.4l2,6.3c0.1,0.3,0.3,0.6,0.6,0.9c0.3,0.3,0.6,0.5,0.8,0.7c0.9,0.6,1.9,1.1,3,1.6
			c1.1,0.5,2.2,0.9,3.3,1.1c1.1,0.3,2.1,0.4,3,0.4c2.9,0,5.1-0.7,6.8-2.2c1.7-1.4,2.5-3.5,2.5-6.1c0-1.9-0.5-3.4-1.6-4.6
			c-1.1-1.2-2.5-2.2-4.3-2.9c-1.7-0.7-3.3-1.2-4.9-1.6s-3.2-0.9-4.8-1.6c-2.4-1-4.2-2.4-5.6-4.2c-1.3-1.8-2-4-2-6.5
			c0-2.4,0.6-4.5,1.9-6.4c1.2-1.9,2.9-3.4,5.1-4.5c2.1-1.1,4.5-1.7,7.2-1.7c1.5,0,3,0.1,4.4,0.3c1.4,0.2,2.8,0.5,4.1,0.8
			s2.6,0.6,3.8,1v10.6h-2.4l-1.8-5.9c-0.1-0.3-0.3-0.6-0.6-0.8c-0.3-0.3-0.5-0.5-0.8-0.7c-0.6-0.4-1.3-0.8-2.1-1.1s-1.7-0.6-2.6-0.7
			c-0.9-0.2-1.7-0.3-2.5-0.3c-2.6,0-4.7,0.6-6.2,1.9c-1.5,1.3-2.2,2.9-2.2,4.8c0,1.7,0.4,3.2,1.2,4.7c0.8,1.5,2.4,2.6,4.8,3.5
			c1.6,0.6,3.1,1,4.6,1.5c1.5,0.4,3.1,1,4.9,1.7c1.3,0.6,2.6,1.3,3.8,2.1c1.2,0.9,2.2,2,3,3.4c0.8,1.4,1.2,3.1,1.2,5.2
			c0,2.2-0.6,4.3-1.7,6.4c-1.1,2-2.9,3.7-5.3,5s-5.5,2-9.4,2c-1.3,0-2.7-0.1-4.1-0.4c-1.5-0.3-3-0.6-4.5-1
			C408.5,572,407,571.6,405.5,571.2z"/>
	</g>
	<path class="st23" d="M425.5,447.9c0,0.5,0,0.9-0.1,1.4c0.1,0.5,0.1,0.9,0.1,1.4v47.1c0,5.2-4.2,9.4-9.4,9.4
		c-5.2,0-9.4-4.2-9.4-9.4v-47.1c0-0.5,0-0.9,0.1-1.4c-0.1-0.5-0.1-0.9-0.1-1.4v-76.5l18.7,11.2V447.9z"/>
</g>
</svg>
