<?xml version="1.0" encoding="utf-8"?>
<!-- Generator: Adobe Illustrator 26.5.0, SVG Export Plug-In . SVG Version: 6.00 Build 0)  -->
<svg version="1.1" id="Layer_1" xmlns="http://www.w3.org/2000/svg" xmlns:xlink="http://www.w3.org/1999/xlink" x="0px" y="0px"
	 viewBox="0 0 720 720" style="enable-background:new 0 0 720 720;" xml:space="preserve">
<style type="text/css">
	.st0{clip-path:url(#SVGID_00000039127765408687679040000016390866648903058345_);}
	.st1{clip-path:url(#SVGID_00000178207430870851630890000009154874565358580655_);}
	.st2{clip-path:url(#SVGID_00000068641476206972727430000013178198738186821536_);}
	.st3{clip-path:url(#SVGID_00000036936699929019139000000015577980575258858400_);}
	.st4{clip-path:url(#SVGID_00000132780128242930220390000016329962108186963328_);}
	.st5{clip-path:url(#SVGID_00000140735623405484814400000003212974176995701132_);}
	.st6{clip-path:url(#SVGID_00000116208581971783523950000013544325033758931888_);}
	.st7{clip-path:url(#SVGID_00000104687306388531742440000005683265177480466870_);}
	.st8{clip-path:url(#SVGID_00000013156540283414962970000005258727114442220676_);}
	.st9{clip-path:url(#SVGID_00000039856441892376588240000000066765873566773917_);}
	.st10{clip-path:url(#SVGID_00000083775073363835033360000006350713692339662231_);}
	.st11{clip-path:url(#SVGID_00000022540161561194305180000002729125755664839815_);}
	.st12{clip-path:url(#SVGID_00000047753175600991060930000003943827650940542857_);}
	.st13{clip-path:url(#SVGID_00000030479067937138983860000006929522955079877555_);}
	.st14{clip-path:url(#SVGID_00000035498831920339789300000018264977219970885547_);}
	.st15{clip-path:url(#SVGID_00000026150211224630879270000015849237095763252882_);}
	.st16{fill:#BC1823;}
	.st17{opacity:0.36;fill:#BC1823;}
	.st18{fill:#030E19;}
	.st19{fill:#F79D27;}
	.st20{fill:#003556;}
	.st21{fill:#43ADD9;}
	.st22{fill:#83C8E4;}
	.st23{fill:#8E1E1E;}
	.st24{fill:#282828;}
	.st25{fill:#FFA800;}
	.st26{fill:#010F2C;}
	.st27{enable-background:new    ;}
	.st28{fill:#00618C;}
	.st29{fill:#FFFFFF;}
	.st30{fill:#5B0A0A;}
</style>
<g>
	<g>
		<g>
			<g>
				<path class="st30" d="M221.8,420.7c-1.1,2.4-1.6,4.7-2.9,7.6c-0.4,0.9,0,2.2,0.9,2.6l36.5,17.2c1.8,0.8,3.6,1.5,5.4,2.3
					c4.4,2.1,5.8,4.6,3.7,9.5c-3.1,7-7.5,4.3-12.6,1.9c-3.9-1.8-3.7-2-7.6-3.8l-32.6-15.3c-1-0.5-1.9,0-2.4,1
					c-1,2.2-0.4,1.6-1.4,3.8c-1.2,2.7-4.9,11.1-9.1,9.2c-4.1-1.9-3.1-5.9-1.7-9c2.9-6.5,4.3-10.2,7.2-16.7
					c1.9-4.2,8.8-22.2,15.2-19.1C223.5,413.3,223,418.1,221.8,420.7z"/>
				<path class="st30" d="M229.5,366.1c12.5-6,30,0.1,35.9,13.1c5.1,11.2,0,23.3-10.7,28.4c-12.2,5.8-27.6,1.3-33.4-11.6
					C216.9,386.3,218.6,371.3,229.5,366.1z M235.6,378.8c-4.5,2.1-9.4,10.6-3.7,15.4c4.4,3.8,12.5,3.1,17.3,0.7
					c3.6-1.7,9.3-7.1,7.2-11.7C253.6,376.8,241.1,376.1,235.6,378.8z"/>
				<path class="st30" d="M201.1,311.8c12.8-4.4,26.1,5,30.1,17.5c4,12.4-1.9,23-13.8,27.1c-8.6,2.9-18.8,1.6-24.4-6.4
					c-2-2.9-3.2-6.4-4.2-9.8C185.1,328.9,189.5,315.7,201.1,311.8z M206,324.6c-5.1,1.7-10,6.4-7.8,13.1c2.5,7.7,8,7.8,15.1,5.3
					c2.9-1,10.6-5.6,9.2-10C220.3,326.5,212.4,322.5,206,324.6z"/>
				<path class="st30" d="M188.3,258.4c-0.9,2.7-3.5,6-6.6,4.9c-2.9-1-3.1-4.8-2.4-7.4c2.1-8.3,4.9-16.4,7.3-24.7
					c0.5-1.7,0.8-3.5,1.4-5.2c0.9-2.9,3.4-6.9,7-5.7c0.7,0.2,1.3,0.7,1.7,1.4c1.7,2.5,0.8,5.8,0,8.4l-1.6,5.8
					c-0.3,1.2-1.2,1.7,0.4,2.2l40.4,14c2.1,0.7,3.8,1.2,4.6,3.6c0.5,1.6,0.3,3.6-0.2,5.2c-1.4,4.2-4.3,5.8-8.4,4.4
					c-1.4-0.5-2.8-1.2-4.2-1.7l-35.1-12.2c-1-0.4-2,0.3-2.4,1.3C189.5,254.5,188.9,256.5,188.3,258.4z"/>
				<path class="st30" d="M215,196c-5.5,6.9-16,0.8-9-8C211.5,181.1,221.9,187.3,215,196z M234.2,221.6l-14-11.9
					c-2.7-2.3-1.4-6.2,0.5-8.5c4.3-5.4,7.8-2.7,12,0.9c3.9,3.3,5.3,4.8,9.2,8.1l16.4,13.8c2.7,2.3,1.4,6.2-0.5,8.6
					c-4.8,6-8.7,1.9-13.1-1.8C241.1,227.9,237.8,224.6,234.2,221.6z"/>
				<path class="st30" d="M294.5,202.9c-6.2,3.7-19.3,0.9-20.3,1.6c-0.5,0.3-0.2,0.9,0,1.4c1,1.7,2.5,3,3.4,4.6
					c1.6,2.8-1.3,6.2-3.5,7.5c-5.4,3.2-8.9-0.7-11.8-5.1c-6.9-10.2-13.2-20.9-19.4-31.5c-1.6-2.8-5.1-6.2-4.2-10
					c0.8-3.7,9.6-10.5,12.9-12.4c7.3-4.3,17.6-5.3,22.4,3.4c5,9,2,19.9-1.7,28.7c-0.2,0.4-0.3,0.9,0,1.3c0.2,0.4,0.7,0.5,1.1,0.6
					c6,0.2,12.1,0.7,18.1,0.6c2.5-0.1,4.2-0.9,6.1,2.7C299,198.9,296.8,201.5,294.5,202.9z M256.3,167.8c-0.9,0.5-4,2.5-3.4,3.6
					c2.5,4.5,5.2,9,8,13.3c0.2,0.4,0.7,0.9,1.2,0.6c0.2-0.1,0.3-0.5,0.4-0.8c1.3-4.4,1.7-11.1-0.6-15.3
					C260.5,166.6,258.8,166.3,256.3,167.8z"/>
				<path class="st30" d="M304.1,193.9c-0.6-3.3-1.1-6.6-1.5-10c-0.9-8.3-1.2-16.7-1.7-25.1c-0.4-5.7-0.9-10.4-1-16.1
					c-0.1-3.3,2.9-4.6,5.7-4.9c5.3-0.6,8.8-1,15.5-1.8c3.3-0.4,8.7-1.8,9.3,3.7c0.5,4.5-3.4,5.3-6.5,5.7c-3,0.4-6,0.3-9,0.6
					c-1.1,0.1-1.8,0.7-1.7,1.9c0.2,4.2,0.4,9.6,0.9,13.7c0.1,0.7,0.5,1.2,1.2,1.2c1.4-0.2,3-1.3,4.6-1.5c2.3-0.3,6.2,1,6.5,3.7
					c0.4,4-7.9,7.4-10.7,8.8c-0.8,0.4-0.9,0.8-0.8,1.7c0.4,3.2,0.6,6.2,1,9.4c0.4,3.6,0.3,3,3.8,2.6l9.1-1.1c3-0.4,5.6-0.2,6.1,4
					c0.5,4.4-2,5-5,5.4l-16.8,2C309.7,198,305,198.2,304.1,193.9z"/>
				<path class="st30" d="M361.8,137.9c16.1,0.8,25.6,14.7,24.8,30.6c-0.7,15.7-11.4,28.3-27.4,27.5c-1.9-0.1-3.9-0.4-5.8-0.9
					c-3.3-0.9-5.3-2.4-5.5-6.2c-0.1-4.1-0.4-8.2-0.6-12.3c-0.4-6.2-0.9-12.4-0.7-18.6c0.1-3,0.5-7.2,1.5-10.1
					c0.3-0.7,0.6-1.1,0.6-1.8c0.1-1.1-0.6-2-0.5-3.1C348.4,138.3,358.4,137.7,361.8,137.9z M363.3,186.2c7.1-2.6,9.8-11.3,10.1-18.4
					c0.3-6.2-1.1-13.6-6-17.8c-1.1-1-2.5-1.8-4-2.2c-0.8,0.3-1.9,1.2-2.3,2c-0.9,2.2-1.2,5.2-1.3,7.5c-0.4,9.1,0.4,18.1,1,27.2
					c0,0.8,0.3,1.8,1.3,1.9C362.3,186.5,363.1,186.2,363.3,186.2z"/>
				<path class="st30" d="M433.2,163.4c-2.3-1.6-4.7-5-2.8-7.8c1.7-2.6,5.3-1.8,7.6-0.4c7.3,4.3,14.1,9.3,21.2,13.8
					c1.5,0.9,3.1,1.7,4.6,2.8c2.4,1.7,5.6,5.2,3.4,8.4c-0.4,0.6-1,1.1-1.8,1.3c-2.8,1-5.6-0.8-7.9-2.3l-5-3.2
					c-1-0.6-1.3-1.6-2.2-0.2l-23.9,36.2c-1.2,1.9-2.2,3.5-4.6,3.6c-1.7,0.1-3.4-0.6-4.8-1.6c-3.6-2.5-4.3-5.8-1.8-9.5
					c0.8-1.3,1.9-2.4,2.7-3.7l20.8-31.5c0.6-0.9,0.3-2.1-0.6-2.7C436.5,165.6,434.8,164.5,433.2,163.4z"/>
				<path class="st30" d="M488.1,225.4c-1-2-1.8-4-2.7-6c-0.5-1.1-1.3-1.4-2.4-1c-1.6,0.6-3,1.5-4.6,2.2c-1.8,0.8-3.6,1.6-5.4,2.5
					c-0.6,0.3-1.1,0.8-0.7,1.5c0.4,0.9,4.4,3.1,5.9,6.1c1.2,2.5,1.5,6.6-1.4,8.1c-4.3,2.2-11.2-6.5-13.8-9.4
					c-0.6-0.7-1.6-0.7-2.3-0.3c-4.3,2.2-8.4,4.8-12.5,7.5c-0.8,0.5-1.9,0.7-1.3,1.9c0.8,1.7,2.1,3.2,3,4.9c1.3,2.6,2,7-1.2,8.6
					c-4.6,2.3-8.7-5.7-10.2-9c-1.6-3.2-4.7-9.8-3.1-13.2c0.9-1.8,3.3-3,4.9-4.1c5.2-3.5,10.6-6.8,16.2-9.6c7.8-4,15.7-7.5,23.5-11.4
					c3.6-1.8,6.8-3.2,9,0.9c2.5,4.7,3.1,5.9,6.2,12.3c1,2.2,2.2,4.3,2.4,6.8c0.1,1.8-0.5,3.9-2.2,4.8
					C492.3,230.9,489.3,227.9,488.1,225.4z"/>
				<path class="st30" d="M516.2,264c-5.8-0.3-6.2-10.6-16.5-5c-12.5,6.8-18.7,23.9-30.7,30.4c-8.9,4.9-16.4-0.3-20.7-8.7
					c-1.5-3-4.4-9.2-0.4-11.4c3.4-1.9,6.4,1.5,7.8,4.3c1.4,2.7,2.2,5.7,5.9,3.7c11.2-6.1,18.5-23.7,31.7-30.9
					c8.1-4.4,15.7-2.4,22.2,3.9c1.5,1.4,2.9,2.9,3.9,4.8C520.9,258.2,520.7,264.3,516.2,264z"/>
				<path class="st30" d="M498.3,303.5c7-4.4,14.2-8.5,21.1-13c1-0.7,1.2-1.7,0.6-2.7c-0.9-1.6-1.6-3.1-2.5-4.7
					c-1.6-2.9-3-5.7,0.6-7.8c3.9-2.2,5.9-0.4,7.8,3.1c4.6,8.4,9.6,16.6,14.2,25c1.6,2.9,0.7,6.2-2.2,7.9c-2.7,1.6-5.3-1.1-6.6-3.4
					c-0.7-1.2-1.1-2.4-1.8-3.6c-0.6-1.1-1.4-2.7-2.9-1.9c-11.9,6.8-23.2,14.7-35.1,21.5c-3.1,1.8-6.2-1.1-7.7-3.8
					c-1.8-3.3-1.8-6.8,1.7-8.8C490,308.8,494.1,306.1,498.3,303.5z"/>
			</g>
		</g>
	</g>
	<g>
		<g>
			<path class="st30" d="M329.8,209.5c0.7,0,1.5,0,2.2,0c7.8,0.3,15.4,1.8,22.7,4.7c9,3.6,15.2,8.2,17.9,10.6
				c4.1-1.1,13.9-4.3,29-12c0.6-0.3,1.2-0.4,1.9-0.4c1.6,0,3,0.9,3.7,2.4l52.9,108.9c6,4.4,9.7,7.9,11.3,10.9
				c1.3,2.5,5.7,10.9,9.7,19.2c7.6,15.8,7.6,17.9,7.5,19.3c0,1-0.1,2-0.3,3.1l0,0c-0.5,3.8-1.2,10.2,1.1,21
				c1.6,7.6,2.2,11.2,2.7,14.8l0,0c0.5,3.4,1,6.6,2.4,13.1c2.9,13.9,2.2,42,2.2,43.2l0,0v0l-1.3,32.2c-0.1,1.7-1.1,3.2-2.6,3.8
				l-62,25.3c-0.3,0.5-0.6,0.8-1.1,1.2c-0.4,0.3-0.9,0.6-1.4,0.7c-0.3,0.1-0.7,0.1-1,0.1c-0.3,0-0.7,0-1-0.1L255,579.9
				c-0.4,0.1-0.7,0.2-1.1,0.2c-0.9,0-1.8-0.3-2.5-0.9l0,0l0,0c-1-0.8-1.6-2.1-1.6-3.4v0c0-1.8,0.2-18.6,2.3-38.9
				c3-28.8,8.1-50.5,15.2-64.5c14.7-29,32.2-51.1,36.2-56c-0.1-1.5-0.1-3.4-0.1-5.7c0-3.9,0.2-8.5,0.4-9.8c0.3-1.9,1.6-3.6,3.5-4.9
				c-0.1-1.9-0.3-2.7-0.4-3c-0.1-0.2-0.2-0.4-0.2-0.7c-0.1-0.2-0.1-0.4-0.2-0.6l0,0l0,0c-2.1-5.9-6.5-18.1-13.3-23.3
				c-26.4-20-41.3-44.1-43-69.8c-1.4-20.9,1.4-36.8,8.9-50c8.4-14.8,22.5-25.9,43.4-33.8C311.6,211.2,320.8,209.5,329.8,209.5
				 M329.8,204.9c-9.5,0-19.3,1.9-28.9,5.5c-21.8,8.3-36.8,20-45.6,35.8c-7.9,14-10.9,30.8-9.5,52.6c1.8,27,17.3,52.3,44.8,73.1
				c5.7,4.4,10,16.2,11.8,21.2l0.3,0.8c-1.7,1.7-2.8,3.8-3.1,6.1c-0.3,1.9-0.5,7.3-0.5,10.5c0,1.6,0,3,0,4.2
				c-2.6,3.2-7.4,9.4-13.2,17.9c-8.5,12.4-16.1,25.1-22.5,37.6c-7.4,14.5-12.7,36.8-15.7,66.1c-2.1,20.3-2.3,37.4-2.3,39.3l0,0v0v0
				c0,2.7,1.2,5.3,3.3,7l0,0l0,0c1.5,1.2,3.3,1.8,5.2,1.8c0.8,0,1.5-0.1,2.3-0.3l170.5-48.1c0.2,0,0.5,0,0.7,0
				c0.7,0,1.4-0.1,2.1-0.3c1.1-0.3,2.1-0.8,3-1.4l0,0l0,0c0.4-0.3,0.8-0.7,1.1-1l60.9-24.9c3.1-1.3,5.2-4.3,5.4-7.8l0,0l0,0l1.3-32
				l0,0l0-0.2c0.1-3,0.7-30.1-2.3-44.3c-1.3-6.4-1.8-9.5-2.4-12.8l0-0.1l0-0.1l0,0c-0.6-3.6-1.2-7.3-2.8-14.9
				c-2.1-10-1.4-15.9-1-19.4l0,0l0-0.1c0.1-1.2,0.3-2.4,0.3-3.6c0-1.3,0-2.7-1.1-5.9c-1.2-3.3-3.4-8.4-6.8-15.5
				c-4-8.3-8.4-16.8-9.8-19.4c-1.8-3.4-5.6-7.2-11.7-11.7l-52.4-107.9c-1.5-3-4.4-4.9-7.7-4.9c-1.3,0-2.6,0.3-3.8,0.9
				c-12.7,6.5-21.5,9.7-26.1,11.1c-3.5-2.7-9.4-6.7-17.3-9.8c-7.7-3.1-15.8-4.7-24.1-5C331.4,205,330.6,204.9,329.8,204.9
				L329.8,204.9z"/>
		</g>
	</g>
	<g>
		<path class="st30" d="M252.7,577.4l0-1.7c0-0.2,0.1-17.5,2.3-38.6c2.9-28.4,7.9-49.7,14.9-63.4c16.1-31.8,35.7-55.2,36.7-56.4
			c0-0.3-0.1-0.7-0.1-1.2c-0.1-1.4-0.1-3.2-0.1-5.5c0-4,0.2-8.3,0.4-9.4c0.2-1.2,1.3-2.4,2.9-3.2c0.2-0.1,0.5-0.2,0.7-0.3
			c0-2.5-0.2-4.6-0.7-5.9c-0.1-0.4-0.3-0.8-0.4-1.2c-1.8-5-5.2-14.3-10.4-20.7l-1,7.5l-0.8-9.5c-0.7-0.7-1.4-1.4-2.2-1.9
			c-25.7-19.5-40.2-42.8-41.8-67.6c-1.3-20.3,1.4-35.7,8.5-48.3c8-14.2,21.7-24.8,41.8-32.5c9.6-3.6,19.2-5.3,28.5-5
			c7.5,0.2,14.8,1.8,21.7,4.5c10.2,4,16.5,9.4,18.3,11.1c2.6-0.6,13.3-3.6,31-12.6l1.1-0.6l53.8,110.7c4.6,3.3,9.4,7.2,11,10.3
			c1.3,2.5,5.6,10.8,9.7,19.1c7.3,15.1,7.2,17.1,7.2,17.8c0,0.8-0.1,1.8-0.3,2.9c-0.5,4-1.3,10.7,1.1,22c1.6,7.5,2.2,11.1,2.7,14.6
			c0.5,3.4,1.1,6.7,2.5,13.3c2.9,13.6,2.2,41.3,2.1,42.5l-1.4,33l-64.8,26.5l0.1,0.3L252.7,577.4z M307.7,419.7
			c-3.7,4.5-21.1,26.4-35.7,55.1c-6.7,13.2-11.8,34.8-14.6,62.5c-1.8,17.2-2.2,31.9-2.3,36.7l39.3-11.1c-0.1-0.8-2-16.7,2.5-36.3
			c2.7-11.5,7.2-21.9,13.2-30.8c7.6-11.1,17.7-20,30.2-26.3c11.9-6.1,23.8-7.2,35.2-3.4c-13.3-20.5-58.7-42.5-67.1-46.4
			c-0.2,0-0.4,0-0.5-0.1C307.8,419.8,307.8,419.8,307.7,419.7z M360.4,467.5c-7.1,0-14.2,2.1-21.1,6.2
			c-25.2,15.1-35.4,38.4-39.5,55.4c-4.1,16.8-3.2,30.8-3,33.3l127.7-36.1c-1-2.5-3.5-8.3-7.4-15.3c-6.7-9.6-15.4-20.2-19.7-25.3
			c-7.3-7.1-16-13.5-25.5-16.5C368.1,468.1,364.2,467.5,360.4,467.5z M426.8,521.8c0.7,1.2,1.2,2.2,1.5,2.9l61.9-25.3l1.3-31.3
			c0-0.3,0.7-28.6-2.1-41.9c-1.4-6.7-2-10.1-2.5-13.4c-0.6-3.5-1.1-7.1-2.7-14.5c-0.7-3.5-1.2-6.6-1.4-9.4l-5.1-4.4
			c-0.3-0.2-3.2-2.7-6.6-5.9c-4.4-2.4-9.2-3.5-10.7-3.8l-8.3,5.4c0.8,0.5,2.1,1.1,3.6,1.7c0.1,0,0.3,0.1,0.4,0.1
			c0.4,0.1,0.9,0.3,1.3,0.5c2.2,0.8,4.8,1.6,7.2,2.2l1.6,0.4l-0.8,1.4c-0.2,0.3-0.4,0.7-2.2,1c0.1,0.1,0.2,0.2,0.4,0.4
			c0,0,0,0,0.1,0.1l11.5,8l-4.6-0.4c-0.5,0-1.2-0.3-3.8-2.1c2.8,7.1,3.8,16.9,4,18.5l-2.4,0.4c0-0.1-1.3-6-6.4-20.2
			c-0.5-1.3-1-2.5-1.6-3.5L455,385l2,0c-0.1-0.1-0.2-0.1-0.3-0.2c-0.6-0.2-1.2-0.4-1.7-0.6c-3.5-0.8-6.8,1.6-6.8,1.6l-0.8,0.6
			l-1.9-1.7l3.8,5l-5.5-4.7l-5,3.4l-0.7-0.9c-2.4-2.9-5.2-6.4-8.1-9.9c-3.3-3.7-6.7-7.6-10.1-11.6c-0.2,0.1-0.4,0.1-0.6,0.2
			c2.4,4.8,5.8,10.7,9,12.7c4.8,3.1,7.5,9.1,9.8,14.4c0.6,1.3,1.2,2.6,1.7,3.8c2.9,6,7.1,10.5,12.9,15.7c0.1,0.1,0.3,0.3,0.4,0.4
			c0.2,0.1,0.4,0.3,0.6,0.4c1.1,0.7,3.1,1.9,5.2,3c0.4,0.2,0.8,0.4,1.1,0.6c3.6,1.4,6.6,1.8,6.6,1.8l4,0.5l-3.5,1.9
			c-1,0.5-2.7,0.7-7.5-1.6c2.7,4,4.2,8,4.4,8.6c7.8,16.9-11.5,68.2-12.3,70.4l-2.3-0.9c0.2-0.5,19.8-52.6,12.4-68.5l-0.1-0.1
			c0-0.1-2.8-8-7.8-12.4c-0.7-0.5-1.4-1-2-1.5c-0.1-0.1-0.2-0.1-0.2-0.1l0,0c-0.2-0.1-0.3-0.3-0.5-0.4c-6-5.4-10.4-10-13.5-16.4
			c-0.6-1.2-1.2-2.5-1.8-3.9c-2.3-5.2-4.7-10.6-8.9-13.3c-3.3-2.1-6.5-7.4-8.7-11.5c-0.4-0.8-0.8-1.6-1.2-2.4
			c-1.1,0.5-2.4,1.1-3.7,1.8l-1.6,0.9c-1,0.6-2.1,1.3-3.2,2.1c-8.6,6.3-13,14.4-13.1,24.1c-0.1,11.9-1,23.1-2.4,31.5
			c-0.7,4.2-1.5,7.5-2.5,10.1c-1,2.8-2.2,4.5-3.5,5.2c8.7,11.6,15.3,22.8,19.3,29.8c0.7,1.2,1.3,2.3,1.9,3.2
			C413.9,485.4,423,510.9,426.8,521.8z M416.3,504.6c1.4,2,2.6,3.9,3.8,5.8c-4.3-11.9-10.1-26.6-14-33.3c-0.5-0.9-1.2-2-1.9-3.2
			c-8.6-14.8-28.9-49.5-57.2-64.6c-20.1-10.7-30-10.8-34.3-9.8c-0.2,6.8-1.6,15-2.7,18.3c4.4,2.1,15.5,7.5,27.5,14.5
			c20.8,12.2,34.4,23.4,40.4,33.2l4.3,3.6c5.7,3,11.3,7.2,16.7,12.7s10.6,12.1,15.5,19.8C415.2,502.7,415.8,503.6,416.3,504.6z
			 M321.5,350c2.7,1.8,6.4,4.5,11.4,8.4c12.8,9.9,28.4,38.1,35.1,50.1l0.6,1c1.9,3.3,3.8,7.5,5.9,11.9c2.4,5.1,5,10.4,7.2,14.2
			c3.1,5.2,4.2,5,4.2,5c2.7-1.2,6.7-16.2,7-44.5c0.1-7.6,2.7-14.5,7.7-20.3c-7,2-18.1-0.3-29.8-2.8c-3.2-0.7-6.5-1.4-9.7-2
			c-6.9-1.3-14.8-8.7-23.4-22.1c0,0-0.1-0.1-0.1-0.1c-0.1,0.1-0.2,0.2-0.3,0.3C334.8,351.1,330.1,352.8,321.5,350z M316.6,396.6
			c6.1,0,15.9,2.3,31.5,10.5c10.2,5.4,19.3,13.2,27.3,21.8c-1-2-2-4.1-3.1-6.4c-2.1-4.4-4.1-8.5-5.9-11.8l-0.6-1
			c-6.6-11.9-22-39.8-34.4-49.4c-5.4-4.2-9.3-7-12-8.8c-2.7-1.8-4-2.2-4.5-2.3c0,2.6-0.2,5.9-0.9,8.7c-0.9,4.4-2.6,6.6-5,6.7
			c-1.9,0.1-3.7-0.9-5.2-1.7c-1.2-0.6-2.5-1.3-3-1c-0.3,0.1-1,0.8-1.4,4.1l-0.1,0.5c6.3,6.7,10.2,17.6,12.2,23.2
			c0.2,0.4,0.3,0.8,0.4,1.2c0.5,1.4,0.8,3.6,0.8,6C313.9,396.7,315.1,396.6,316.6,396.6z M310.3,400.5c-0.8,0.5-1.1,1-1.1,1.1
			c-0.2,1.4-0.4,7.1-0.4,11.3C309.5,409.4,310.1,404.7,310.3,400.5z M472.5,376.5c2.8,1.6,5.4,3.6,7,6.4l3.2,5.3
			c-0.5-5.9,0-9.9,0.3-12.7c0.1-1,0.2-2,0.3-2.7c0.1-2.8-10.6-24.4-16.6-35.7c-1-1.8-3.5-4.2-6.5-6.6l15.9,32.7l-2.1,1.4
			c1.5,2.4,2.5,4.2,2.9,4.8l-2.1,1.3c0-0.1-1.3-2.1-3-4.7l-6.2,4.1C467.8,372.2,470.3,374.5,472.5,376.5z M440.2,382
			c0.4,0.5,0.7,0.8,0.7,0.9l0.6,0.7l0.3-0.2L440.2,382z M446.8,382.6l0.7,0.6c0.7-0.4,1.6-0.9,2.9-1.2c-0.5-0.3-0.9-0.7-1.2-1
			L446.8,382.6z M336.5,231.6c13.4,26.7,99.6,138.2,108.2,149.4l17.1-11.3c-1.1-1.1-2-2.1-2.6-3c-0.3-0.4-0.6-0.8-1-1.2
			c-3.9-4.9-8.3-10.5-13.3-13.8c-5.3-3.4-16.4-14.5-13.8-20.6c0.5-1.2,1.4-2,2.4-2.3c0.3-0.4,1-0.8,2.2-0.4c2.6,0.7,7.5,5.3,8.3,6
			c1,0.7,9.9,7.3,16.1,12.5c-2.7-4.2-4.7-7.2-5.4-7.9c-2.5-2.4-13.2-8.4-13.3-8.4l-0.1-0.1c-0.3-0.2-8.2-5.7-7.7-11.7
			c0.1-1.5,0.5-3.6,1.9-4.5c0.1-0.1,0.2-0.1,0.3-0.2c0.4-0.3,0.8-0.4,1.3-0.4c1.6,0.2,8.1,3.8,10.1,4.9l0,0c0.3,0.2,3,1.8,6.5,4.1
			L403,218.3c-20,10.1-30.7,12.4-31.1,12.4l-0.6,0.1l0,0C361.3,233.6,342.9,232.2,336.5,231.6z M431.7,375.9
			c1.3,1.4,2.6,2.8,3.8,4.1c-1.4-1.8-3.2-4-5.3-6.7l-2.2-1.9c0.1,0.2,0.3,0.3,0.4,0.5C429.5,373.3,430.6,374.7,431.7,375.9z
			 M339.3,346.8c0.2,0.2,0.3,0.5,0.5,0.7c8.2,12.6,15.7,19.8,21.8,21c3.2,0.6,6.6,1.3,9.8,2c12.8,2.7,24.9,5.3,30.8,2l8.2-4.7
			c0.7-0.4,1.3-0.8,2-1.1l3.5-2c-1-2.4-1.8-4.5-1.8-5.3c0-0.1,0-0.2,0-0.3c-17.9-22.1-35.9-47.7-49.8-68.1c-1.6-2.3-3.1-4.6-4.6-6.8
			l-8.6-11.1c-1.4,2.4-4.4,7.4-7.1,13.1c-4.9,10.2-7,17.8-6,21.9l0.2,0.7l-12.1,11.5c0.8,0.4,1.3,0.7,1.4,0.7l-1.1,2.2
			c0,0-0.1,0-0.1-0.1c0.1,0.2,0.2,0.4,0.3,0.6c0.1,0.1,0.1,0.3,0.3,0.5c2.1,4.4,4.3,8.6,6.5,12.6c1.3-0.3,2.6-0.3,4,0.2
			c1.6,0.6,2.8,2.3,3.1,4.4C340.6,342.9,340.4,344.9,339.3,346.8z M461.9,372.6c1,0.2,2.3,0.6,3.8,1.1c-0.8-0.7-1.5-1.4-2.2-2.1
			L461.9,372.6z M432,371.7l1.2,1l-12.6-16.6l-18.2-22.5C414.2,349,424.9,362.7,432,371.7z M433.6,331.7c-0.1,0.1-0.1,0.2-0.2,0.4
			c-1.6,3.7,6.9,13.6,12.9,17.4c5.4,3.5,9.9,9.2,13.9,14.3c0.3,0.4,0.6,0.8,1,1.2c0.7,0.9,1.7,2,2.8,3.2l6.6-4.4
			c-2.5-3.9-5.5-8.5-7.2-10.6c-3.2-4-20.6-16.8-20.8-17l-0.1-0.1c-0.2-0.2-0.5-0.5-0.8-0.7c-0.1,0-0.1,0.1-0.2,0.1
			c-1.1,0.5-3.3,0-5.1-1C435.4,334,434.2,332.9,433.6,331.7z M329.8,215c-7.5,0-16.1,1.3-25.5,4.9c-36.9,14-51.5,37.4-48.8,78.3
			c1.6,24,15.7,46.7,40.8,65.7c0.2,0.2,0.4,0.3,0.6,0.5c0.1-1.4,0.6-3.3,2.2-4.4c1.8-1.2,4.4-0.8,7.6,1.2c1.7,1,2.5,0.6,2.7,0.4
			c0.9-0.6,1.5-1.9,2-3.6c0.6-2.7,0.9-6.1,0.8-8.9l0-0.1l0-0.1c0-0.2,0.1-0.4,0.1-0.6c0-0.9,0-1.9-0.1-2.7
			c-7.8-5.1-9.7-11.3-10.1-14.9c-0.7-6.2,2.1-12.7,6.9-16.1c3.8-2.7,7.9-2.8,11.9-0.3c1.7,1.1,3.1,2.5,3.9,3.4l10.5-10
			c-1.8-11.5,13.8-36.6,14.5-37.7l0.2-0.3c-14.4-22-24-37.8-24.1-38l-0.9-1.4l7.2-2.1l0.3,0c15.8,2.8,30.5,1.2,36,0.4
			c-2.8-2.2-8.3-6.2-16-9.3C346.9,217,339.1,215,329.8,215z M442.6,328.4c0.9,0.5,11.1,6.2,13.7,8.7c1.9,1.8,10.9,16.3,16.4,25.3
			l0.3-0.2l-17-34.9c-3.8-2.7-7.7-5.1-9.9-6.4c-0.5-0.3-1-0.6-1.6-0.9c0,0,0,0.1,0,0.1c-0.3,1.1-1.4,1.6-3.3,1.4
			c-2.4-0.3-4.1-1.8-5.1-3.3c0,0.2-0.1,0.5-0.1,0.8C435.7,322.8,440.6,327,442.6,328.4z M391.7,325.7c8.6,11.7,17.6,23.6,26.5,34.4
			L391.7,325.7z M316.3,345.1c1,0.5,2,1,3.1,1.5c9.9,4.1,14.5,2.1,16.4,0.6c0.2-0.1,0.3-0.3,0.5-0.4c-1.4-2.2-2.8-4.5-4.1-6.9
			c-0.6,0.2-1.2,0.5-1.8,0.8c-2.8,1.2-6,2.6-9.6,1.6C319.1,343.3,317.5,344.3,316.3,345.1z M334.6,339.1c1,1.8,2.1,3.6,3.1,5.3
			c0.3-0.9,0.4-1.9,0.2-2.7c-0.2-1.2-0.8-2.1-1.6-2.4C335.8,339,335.2,339,334.6,339.1z M315.2,315.1c-1.5,0-3.1,0.5-4.7,1.6
			c-3.4,2.4-6.5,7.6-5.9,13.8c0.6,5.2,3.8,9.7,9.2,13.2c1.3-0.7,2.8-1.7,4.2-2.7c-0.4-0.2-0.7-0.5-1.1-0.7
			c-6-4.5-9.9-10.3-10.3-15.2c-0.2-2.4,0.5-4.5,2-6.2c2.2-2.4,6.1-2.8,11.6-1.1c0.7,0.2,1.3,0.4,1.9,0.6
			C320.6,316.9,318.2,315.1,315.2,315.1z M327.9,331.9l0,0.7c0,2.5-2.1,5.1-4.6,7.4c2-0.1,4-0.9,6-1.8c0.5-0.2,1-0.4,1.6-0.7
			C329.9,335.7,328.9,333.8,327.9,331.9z M314.3,319.3c-1.6,0-3,0.4-3.9,1.3c-1,1.1-1.5,2.5-1.3,4.2c0.3,4.1,4,9.3,9.3,13.4
			c0.6,0.5,1.2,0.8,1.9,1.1c2.5-2,4.6-4.2,5.1-6c-2.5-1.2-8.3-4.3-8.1-7.8c0.1-2.6,3.3-3.9,4.9-4.4
			C319.6,320.1,316.7,319.3,314.3,319.3z M440.1,334.8C440.1,334.8,440.1,334.8,440.1,334.8C440.1,334.8,440.1,334.8,440.1,334.8z
			 M393.6,318.9l10.6,13.1c-8.3-11-17.2-22.9-25.7-34.5C386.2,308.2,393.1,318.2,393.6,318.9z M323.4,323.3L323.4,323.3
			c-2.8,0.8-3.8,1.7-3.8,2.3c-0.1,1.5,3.8,4.2,7.5,5.7l0.6,0.3c-1.1-2.1-2.1-4.2-3.2-6.4c-0.1-0.2-0.2-0.4-0.3-0.5
			C323.9,323.8,323.6,323.5,323.4,323.3z M438.2,317c0.6,0.9,1.7,1.9,3.2,2c0,0,0,0,0.1,0c-0.5-0.4-1.2-1-2-1.4
			c-0.2-0.1-0.3-0.2-0.5-0.3C438.8,317.3,438.5,317.2,438.2,317z M361.6,278.4c6.2,8.8,12.9,18,19.7,27.2
			C374.9,296.7,367,285.6,361.6,278.4z M356.4,266.9c2.1,3.2,4.1,6.1,5.9,8.4c0.5,0.6,1,1.3,1.5,1.9
			C361.2,273.7,358.8,270.2,356.4,266.9z M335.2,236.6c3.1,6.6,8.5,15.5,15.2,25.6C344.5,252.6,338.4,242.1,335.2,236.6z M329,231.8
			c1,1.7,3,4.8,5.6,9c-1.6-3.1-2.8-5.7-3.6-7.9l-0.5-1.3l2.7-0.8c-0.2,0-0.5-0.1-0.7-0.1L329,231.8z"/>
	</g>
</g>
</svg>
