<?xml version="1.0" encoding="utf-8"?>
<!-- Generator: Adobe Illustrator 26.5.0, SVG Export Plug-In . SVG Version: 6.00 Build 0)  -->
<svg version="1.1" id="Layer_1" xmlns="http://www.w3.org/2000/svg" xmlns:xlink="http://www.w3.org/1999/xlink" x="0px" y="0px"
	 viewBox="0 0 720 720" style="enable-background:new 0 0 720 720;" xml:space="preserve">
<style type="text/css">
	.st0{clip-path:url(#SVGID_00000087390225293250419940000018102912465970487976_);}
	.st1{clip-path:url(#SVGID_00000121993599219824089440000007789301109228161193_);}
	.st2{clip-path:url(#SVGID_00000088836516176601018540000011513107942463651968_);}
	.st3{clip-path:url(#SVGID_00000137830992464140119040000007655293683782663865_);}
	.st4{clip-path:url(#SVGID_00000011716277229008241250000014753954714423507082_);}
	.st5{clip-path:url(#SVGID_00000151535340411370688040000001563814211910804662_);}
	.st6{clip-path:url(#SVGID_00000147898938584253277220000000896022586769047732_);}
	.st7{clip-path:url(#SVGID_00000139285278407057683410000017895834247621077905_);}
	.st8{clip-path:url(#SVGID_00000176010888482450239290000004394175910114394038_);}
	.st9{clip-path:url(#SVGID_00000033363732758192425640000002812069239443969455_);}
	.st10{clip-path:url(#SVGID_00000090252593401041697940000004592227876197041832_);}
	.st11{clip-path:url(#SVGID_00000021819699614087659160000011261792038355313299_);}
	.st12{clip-path:url(#SVGID_00000009585280864940833830000009679600409942399373_);}
	.st13{clip-path:url(#SVGID_00000079466827418055004090000000477311069916086925_);}
	.st14{clip-path:url(#SVGID_00000008847487730674122310000010223695471054529182_);}
	.st15{clip-path:url(#SVGID_00000164504233298426325220000009143639035454876044_);}
	.st16{fill:#BC1823;}
	.st17{opacity:0.36;fill:#BC1823;}
	.st18{fill:#030E19;}
	.st19{fill:#F79D27;}
	.st20{fill:#003556;}
	.st21{fill:#43ADD9;}
	.st22{fill:#83C8E4;}
	.st23{fill:#8E1E1E;}
	.st24{fill:#282828;}
	.st25{fill:#FFA800;}
	.st26{fill:#010F2C;}
	.st27{enable-background:new    ;}
	.st28{fill:#00618C;}
	.st29{fill:#FFFFFF;}
	.st30{fill:#5B0A0A;}
</style>
<g>
	<path class="st18" d="M201.5,403.1c0.1,0.1,0.2,0.2,0.2,0.3c0.7,0.7,1.8,1.7,3.4,2.5c0.6,0.3,1.2,0.6,1.9,0.8
		c0.7,0.2,1.4,0.4,2.1,0.4c0.4,0,0.7,0.1,1.1,0.1c0.2,0,0.4,0,0.6,0c0.1,0,0.3,0,0.4,0c0.1,0,0.3,0,0.4,0c0.2,0,0.3,0,0.4-0.1
		c0.1,0,0.1,0,0.2,0c0.8-1.4,1.6-2.8,2.3-4.2c3.7-6.6,7.4-13.3,11.1-19.9c7.1-12.6,14.2-25.2,21.4-37.8c0.7-1.2,1.8-2.2,2.6-3.3
		c1.3,0.6,2.3,1,3.3,1.6c0.5,0.3,0.9,0.6,1.4,0.9c0.2,0.1,0.4,0.2,0.5,0.3c2.8,1.8,5.7,3.5,8.5,5.3c-0.9-3.7-1.2-7.3-0.5-11.2
		c0.4-2.2,1-4.6,1.9-7v-0.3c0,0,0,0,0,0l0,0l0.2-0.4c2.6-5.3,6.5-13.2,11.1-23c3-6.5,6.2-12.8,9.2-19.3c6.8-14.8,8.8-20.2,14.9-25.4
		c3.4-2.9,6.8-4.6,9.3-5.6c0.6-0.4,1.3-0.7,2.1-0.8c2.3-0.9,4.5-1.7,6.6-2.4c-2.2-1.4-5.9-3.3-5.9-3.5c-9.2-3.8-17.3-5.7-23.5-6.8
		c-2,6.4-4,12.9-6.1,19.3c-2.6,8.4-5.2,16.9-7.8,25.3c-0.1,0.1-0.2,0.2-0.3,0.3c-0.2,0.1-0.3,0.2-0.4,0.2c-0.6-0.1-1-1.5-1.3-4.2
		c-0.7-17.3-2.1-24.1-3.6-26.3c-0.3-0.4-0.5-0.6-0.8-0.8c0,0,0,0,0,0c-0.1,0-0.1,0-0.2-0.1c-0.1,0-0.1,0-0.2,0c-0.1,0-0.2,0-0.2,0
		c-0.1,0-0.2,0-0.4,0.1c-0.3,0.1-0.5,0.2-0.8,0.3c-0.3,0.1-0.6,0.3-0.9,0.5c-1.5,2.2-3,9-3.6,26.3c-0.2,2.3-0.5,3.6-1,4.1
		c-0.1,0.1-0.2,0.1-0.3,0.2c-0.2,0-0.4-0.1-0.7-0.4c-2.6-8.4-5.2-16.9-7.8-25.3c-2-6.2-3.9-12.4-5.8-18.6
		c-6.2,1.2-21.9,6.5-21.9,6.5l-0.5,0.1c0,0-6.2,2.7-9.9,5.9c-6.1,5.2-8.1,10.6-14.9,25.4c-3,6.5-6.2,12.9-9.2,19.3
		c-4.6,9.8-8.5,17.7-11.1,23l-0.2,0.4l0,0c0,0,0,0,0,0c0,0.5,0,1,0,1.6c0,0.2,0,0.4,0,0.6c0,0,0,0,0,0c0,0.6,0.1,1.3,0.1,1.9
		c0,0.5,0.1,1,0.1,1.6c0.1,1.6,0.2,3.4,0.5,5.3c1,8.8,2.9,17,7.8,31.3c3.2,9.3,7.7,21.2,13.8,35C201.4,403,201.5,403,201.5,403.1z
		 M220.7,308.3c0.5-0.7,0.7-1.1,1.1-1.5c-0.9,26.2-1.9,52.5-2.9,78.7c-1.8-5.8-3.5-11.9-5.1-18.4c-3-12.4-5.1-24-6.4-34.5
		C211.9,321.9,216.7,314,220.7,308.3z"/>
	<path class="st18" d="M440.9,355.9c0.1-0.1,0.3-0.1,0.4-0.2c2.7-1.7,5.4-3.5,8.1-5.2c0-0.4,0.1-0.9,0.2-1.4
		c0.4-3.3,0.6-6.2,0.7-8.6c0-0.3,0-0.5,0-0.8c0-0.3,0-0.6,0-0.9c0-0.3,0-0.6,0-0.8c0-0.1,0-0.3,0-0.4c-2.6-5.3-6.6-13.4-11.3-23.4
		c-3.1-6.4-6.2-12.8-9.2-19.3c-6.8-14.8-8.8-20.2-14.9-25.4c-3.4-2.9-6.9-4.6-9.3-5.6c0-0.1-17.4-6.1-23.5-7.1
		c-2,6.4-4,12.9-6.1,19.3c-2.6,8.4-5.2,16.9-7.8,25.3c-0.1,0.1-0.2,0.2-0.3,0.2c-0.2,0.1-0.3,0.2-0.4,0.2c-0.6-0.1-1-1.5-1.3-4.2
		c-0.7-17.3-2.1-24.1-3.6-26.3c-0.5-0.3-1-0.6-1.4-0.7c-0.4,0.1-0.9,0.4-1.4,0.7c-1.5,2.2-2.9,9-3.6,26.3c-0.2,2.7-0.7,4.1-1.3,4.2
		c-0.1,0-0.3,0-0.4-0.2c-0.1,0.1-0.2,0.1-0.3,0.2c-0.2,0-0.4-0.1-0.7-0.4c-2.6-8.4-5.2-16.9-7.8-25.3c-2-6.2-3.9-12.4-5.8-18.6
		c-6.2,1.2-21.9,6.5-21.9,6.5l-0.5,0.1c0,0-6.2,2.7-9.9,5.9c-6.1,5.2-8.1,10.6-14.9,25.4c-3,6.5-6.2,12.9-9.2,19.3
		c-4.6,9.8-8.5,17.7-11.1,23l-0.2,0.4c0,2.7,0.2,6.6,0.7,11.1c0.3,2.4,0.6,4.7,1,7.1c0.7,0.4,1.4,0.9,2.2,1.3
		c0.3,0.2,0.6,0.4,0.8,0.7c1.9,0.9,3.4,2.3,3.6,4.7c0.2,2.5-1.4,5-2.5,7.2c-0.1,0.3-0.3,0.5-0.4,0.8c0.3,1,0.6,2,1,3.1
		c3.5,2.2,7.2,3.8,11.1,5c0.3,0.1,0.6,0.3,1,0.4c2.7,0.7,5.4,1.5,8.1,2.1c0.2,0,0.4,0.1,0.6,0.1c2.1,0.4,4.2,0.8,6.4,1.1
		c0.6,0,1.1,0.1,1.7,0.3c0,0,0,0,0.1,0c0,0,0,0,0.1,0c0.1,0,0.2,0,0.4,0.1c-0.3-1.2-0.6-2.3-0.9-3.5c-3-12.4-5.1-24-6.4-34.5
		c4.6-10.6,9.4-18.5,13.3-24.2c0.5-0.7,0.7-1.1,1.1-1.5c-0.9,23.6-1.7,47.1-2.6,70.7c3.2-4.6,6.4-9.1,9.7-13.7
		c1.8-2.5,4.4-3.8,7.2-4.5c0,0,0,0,0,0c1.2-0.4,2.4-0.7,3.6-0.9c8.1-1.4,16.2-2.6,24.3-3.5c5.2-0.6,10.5-0.6,15.8-0.8
		c11.8-0.4,23.4,1.3,34.9,3.9c0.6,0.1,1.1,0.3,1.7,0.4c-0.6-17.2-1.3-34.3-1.9-51.5c0.3,0.5,0.6,0.8,1.1,1.5
		c4,5.7,8.7,13.6,13.3,24.2c-1.1,8.5-2.7,17.7-4.8,27.5c4.2,0.8,8.4,1.4,12.8,1.2c3.7-0.2,7.4-1,11.1-1.7c1.5-0.3,2.3,0.1,3.1,1.4
		c0-0.1,0.1-0.2,0.1-0.3c-2-2.9-3.6-6-4.8-9.4C438.3,360.8,438,357.8,440.9,355.9z"/>
	<path class="st18" d="M246,213C246,213,246,213,246,213c2.6,8.9,5.8,12.8,7.4,14.5c2.3,2.5,7.4,8,14.6,8h0.3c7.2,0,12.3-5.5,14.6-8
		c1.6-1.7,4.8-5.6,7.4-14.4c0,0,0,0,0-0.1c1.1-3.5,2.5-8,3.2-12.7c0.9-6.6,0.5-13.9-4-20.4c-4.1-5.9-11.7-11.5-21.3-11.6h-0.1
		c-9.6-0.1-17.8,5.3-22.1,11.8c-4.2,6.3-4.4,13.2-3.2,20.2C243.5,204.5,244.7,208.7,246,213z"/>
	<path class="st18" d="M429.7,213C429.7,213,429.7,213,429.7,213c2.6,8.9,5.8,12.8,7.4,14.5c2.3,2.5,7.4,8,14.6,8h0.3
		c7.2,0,12.3-5.5,14.6-8c1.6-1.7,4.8-5.6,7.4-14.4c0,0,0,0,0-0.1c1.2-4.2,2.5-8.5,3.2-12.7c0.9-6.6,0.5-13.9-4-20.4
		c-4.1-5.9-11.7-11.5-21.3-11.6h-0.1c-9.6-0.1-17.8,5.3-22.1,11.8c-4.1,6.3-4.4,13.2-3.2,20.2C427.2,204.5,428.4,208.7,429.7,213z"
		/>
	<path class="st18" d="M534.4,311.5c-1.4-3-3-6.3-4.7-9.8c-3-6.5-6.2-12.8-9.2-19.3c-6.8-14.8-8.8-20.2-14.9-25.4
		c-3.4-2.9-6.9-4.6-9.3-5.7c0-0.1,0-0.2,0-0.4c-9.2-3.8-17.3-5.7-23.5-6.8c-2,6.4-4,12.9-6.1,19.3c-2.6,8.4-5.2,16.9-7.8,25.3
		c-0.1,0.1-0.2,0.2-0.3,0.3c-0.1,0.1-0.3,0.2-0.4,0.2c-0.6-0.1-1-1.5-1.3-4.2c-0.7-17.3-2.1-24.1-3.6-26.3c-0.5-0.3-1-0.6-1.4-0.7
		c-0.4,0.1-0.9,0.4-1.4,0.7c-1.5,2.2-2.9,9-3.6,26.3c-0.2,2.7-0.7,4.1-1.3,4.2c-0.1,0-0.3,0-0.4-0.2c-0.1,0.1-0.2,0.1-0.3,0.2
		c-0.2,0-0.4-0.1-0.7-0.4c-2.6-8.4-5.2-16.9-7.8-25.3c-2-6.2-3.9-12.4-5.8-18.6c-6.2,1.2-22.4,6.7-22.4,6.7s-3,1.3-4.9,2.4
		c2.2,0.7,4.5,1.6,6.9,2.6c0,0.1,5.9,3.1,9.3,6c6.2,5.2,8.1,10.6,14.9,25.4c3,6.5,6.2,12.9,9.2,19.3c4.7,10,8.7,18.1,11.3,23.4
		c0,0.1,0,0.2,0,0.3c0.5,0.8,0.8,1.7,0.8,2.9c0,0.9,0,1.8,0,2.6c1.1,2.5,1.9,5,2,8.4c0,0.2,0,0.3,0,0.5c1.7-0.9,3.4-1.9,5.1-2.8
		c0.4-0.2,0.7-0.3,1-0.4c1.1-0.6,2.2-1.2,3.3-1.9c1.2-0.7,2-0.5,2.7,0.7c4.9,8.2,10,16.3,14.7,24.5c7.9,13.7,15.6,27.5,23.3,41.3
		c0.1,0,0.1,0,0.2,0c0.2,0,0.3,0.1,0.4,0.1c0.1,0,0.3,0,0.4,0c0.1,0,0.3,0,0.4,0c0.2,0,0.4,0,0.6,0c0.3,0,0.7,0,1.1-0.1
		c0.8-0.1,1.5-0.2,2.2-0.4c0.5-0.1,0.9-0.3,1.3-0.5c1.8-0.8,3.1-2,3.9-2.7c0.2-0.2,0.3-0.3,0.4-0.5c6.1-13.7,10.6-25.7,13.8-35
		c4.9-14.3,6.8-22.5,7.8-31.3c0.4-3.3,0.6-6.2,0.7-8.6c0-0.3,0-0.5,0-0.8c0-0.3,0-0.6,0-0.9c0-0.3,0-0.5,0-0.8c0-0.1,0-0.3,0-0.4
		C539.3,321.7,537,317,534.4,311.5z M506.2,367c-1.6,6.5-3.3,12.6-5.1,18.4c-1-26.2-1.9-52.5-2.9-78.7c0.3,0.5,0.6,0.8,1.1,1.5
		c4,5.7,8.7,13.6,13.3,24.2C511.3,343,509.3,354.6,506.2,367z"/>
	<path class="st18" d="M266,258.7c0.6-0.4,1.2-0.7,1.8-0.8c-0.2,0-0.4-0.1-0.6,0C266.8,257.9,266.4,258.1,266,258.7z"/>
	<path class="st18" d="M414.4,352.6C414.4,352.6,414.4,352.6,414.4,352.6C414.4,352.6,414.4,352.6,414.4,352.6L414.4,352.6z"/>
	<path class="st18" d="M414.2,352.3l0.2,0.3c0-0.1,0-0.3,0-0.4C414.3,352.3,414.3,352.3,414.2,352.3z"/>
	<path class="st18" d="M451.3,467.9c-11.6-8.8-23.2-17.8-35.1-26.2c-10.3-7.2-21-13.9-31.8-20.4c-8.8-5.3-18.1-9.8-27.1-14.9
		c-1.9-1.1-3.6-1.1-5.5-0.5c-2.3,0.8-4.6,1.5-7,2.1c-1.7,0.4-2.8,1.4-3.8,2.7c-3.8,5.1-8.1,9.9-13.3,13.8
		c-8.2,6.2-17.2,10.2-27.7,9.9c-1,0-2-0.2-2.8-0.4c-0.3-0.1-0.6-0.2-0.9-0.3c-0.3-0.1-0.5-0.2-0.8-0.3c-0.3-0.1-0.5-0.2-0.8-0.4
		c-0.4-0.2-0.8-0.5-1.2-0.8c-0.3-0.2-0.5-0.4-0.7-0.6c-1.2-1.1-2-2.4-2.5-3.9c-0.4-1.1-0.6-2.4-0.5-3.6c0-0.3,0-0.7,0.1-1
		c0.1-1,0.2-1.9,0.4-2.9c0.7-3.7,2.3-7.1,4.4-10.4c4.1-6.4,8.5-12.7,12.8-19.1c0.6-0.9,1.1-2,1.9-3.5c-12-1.9-23.8-3.2-33.5-11
		c-14.2,25.1-28,49.7-41.8,74.2c3.9,4.8,7.7,9.3,11.3,13.9c2.1,2.7,2.1,2.3,4.3,0.5c7.9-6.3,17.9-4,23.6,2.6c1.8,2.1,3.3,4.6,5,7.1
		c0.5-0.6,1.1-1.3,1.6-2c1.9-2.6,3.8-5.3,6.9-6.9c9.5-4.9,22.5,1.3,25,12.2c0.7,2.8,0.7,5.8,1.1,8.8c0.2,0.1,0.4,0.1,0.5,0.1
		c9.5-0.3,19.9,10.3,18.4,20.9c-0.1,0.4,0.6,1.1,1.1,1.3c0.6,0.2,1.1,0.3,1.7,0.5c0.3,0.1,0.6,0.1,0.9,0.2c0.6,0.1,1.2,0.3,1.7,0.4
		c0.8,0.2,1.7,0.5,2.5,0.8c9.4,4.1,14.3,13.9,10.8,23.3c-0.7,1.9-1.9,3.5-2.9,5.3c-0.7,1.2-0.5,2.1,0.9,2.6c1.3,0.4,2.5,1,3.7,1.4
		c7,2.3,14.1,3.7,21.4,4.4c8.3,0.8,14.8-2.1,19.9-8.5c1-1.3,1-2.2-0.7-3.1c-5.3-2.6-10.4-5.3-15.7-7.9c-4.7-2.4-9.3-4.7-13.9-7.2
		c-2-1.1-2.1-3.7-0.2-4.7c0.8-0.4,2.2-0.4,3.1,0c5.8,2.6,11.6,5.5,17.4,8.1c5.8,2.6,11.6,5.7,17.7,7.4c7.7,2.2,14.4-0.3,16.5-9.1
		c0.6-2.4,0.1-4-1.9-5.2c-7.5-4.6-15-9-22.5-13.6c-5.4-3.3-10.8-6.6-16.2-10c-1.1-0.7-2.2-1.6-1.2-3.3c1-1.6,2.5-2.1,4.2-1.2
		c1.1,0.5,2.1,1.1,3.1,1.7c11.3,6.4,22.5,12.8,33.8,19.2c3.2,1.8,6.5,3.2,10.5,3c8.7-0.6,13.7-7.1,11.6-15.5
		c-0.2-0.7-0.9-1.5-1.6-1.9c-6.2-3.8-12.4-7.4-18.6-11.2c-9.3-5.7-18.5-11.6-27.8-17.4c-1.4-0.9-1.9-2-1.1-3.5
		c0.8-1.5,2.1-1.3,3.3-0.8c3,1.4,5.9,2.8,8.7,4.5c14.1,8.3,28.1,16.8,42.2,25.1c1,0.6,2.2,1,3.3,1.1c1.9,0.1,3.9,0,5.8-0.4
		c1.5-0.3,3.2-0.7,4.5-1.5c5.6-3.7,6.4-12.2,1.7-17C456.9,472.6,454.2,470.1,451.3,467.9z"/>
	<path class="st18" d="M443.6,378.2c-0.8-1.4-1.6-1.8-3.1-1.5c-3.7,0.7-7.4,1.5-11.1,1.7c-7.6,0.5-14.9-1.6-22.2-3.3
		c-11.5-2.7-23.1-4.3-34.9-3.9c-5.3,0.2-10.6,0.2-15.8,0.8c-8.1,0.9-16.2,2.1-24.3,3.5c-3.5,0.6-7,1.8-9.2,5
		c-7.6,10.7-15.2,21.4-22.6,32.3c-2.1,3.1-4.3,6.3-3.7,9.9c0,4.3,0.7,5.3,3.6,5.5c5.2,0.3,10.2-0.7,14.8-3
		c9-4.4,16.1-11.1,21.7-19.3c0.6-0.9,1.4-1.8,2.3-2.2c3.9-1.4,7.9-2.6,11.9-4c3-1,5.6-0.6,8.4,0.8c18.6,9.5,36.7,19.6,53.9,31.5
		c15.6,10.8,31,21.8,45.5,33.9c1.8,1.5,3.1,1.4,4.9,0.3c7.4-4.4,13.3-10.6,19.1-16.7c0.4-0.4,0.3-1.6,0-2.1
		C469.8,424.3,456.7,401.3,443.6,378.2z"/>
	<path class="st18" d="M260.8,395.1c5.4-9.7,10.6-19.4,16-29.1c0.9-1.7,0.6-2.6-0.9-3.6c-7-4.3-13.9-8.7-20.9-13.1
		c-0.6-0.4-1.3-0.7-2.1-1c-0.6,0.1-1.2,0.1-1.9,0.2c-0.7,0.8-1.4,1.6-2,2.5c-7.2,12.6-14.3,25.2-21.4,37.8
		c-3.7,6.6-7.4,13.2-11.1,19.9c-3.7,6.6-7.4,13.3-11.1,19.9c-2.3,4.1-4.5,8.2-6.7,12.3c-0.6,1.1-1.1,2.4,0.4,3.3
		c7.4,4.6,14.8,9.1,22.2,13.7c2,1.2,3.1,0.5,4.2-1.3c4.5-7.6,9.1-15.2,13.4-22.9C246.4,420.9,253.6,408,260.8,395.1z"/>
	<path class="st18" d="M511.8,421.2c-9.2-16.5-18.5-33-27.9-49.5c-4.7-8.3-9.8-16.4-14.7-24.5c-0.7-1.2-1.5-1.4-2.7-0.7
		c-2.8,1.6-5.6,3-8.3,4.7c-4.5,2.8-8.9,5.7-13.4,8.5c-1.8,1.1-2.4,2.4-1.2,4.5c2.6,4.5,4.9,9.2,7.5,13.8
		c10,17.9,20.1,35.8,30.2,53.7c4.4,7.8,8.9,15.4,13.3,23.1c0.9,1.6,1.9,1.9,3.5,1c1.6-0.9,3.4-1.7,5-2.7c5.8-3.5,11.5-7.1,17.2-10.7
		c0.6-0.4,1.1-1.1,1.6-1.7c-0.4-0.9-0.6-1.6-0.9-2.2C518,432.7,515,426.9,511.8,421.2z"/>
	<path class="st18" d="M305.9,485.2c1.3-4.6-1.5-10.5-6.2-13.3c-5-3-9.3-2.3-12.8,2.4c-6.7,8.9-13.4,17.9-20,26.9
		c-1.1,1.5-2.2,3.3-2.7,5.1c-1.6,6.1,4.5,14.7,12.3,14.7c1.6-0.7,3.3-1.3,4.7-2.2c1.3-0.9,2.4-2.1,3.3-3.4
		c6.2-8.4,12.4-16.7,18.6-25.2C304.2,488.7,305.3,487,305.9,485.2z"/>
	<path class="st18" d="M325.6,505.9c-0.5-5.9-4.4-11-10.1-12.3c-2.7-0.6-5.7-0.9-7.7,1.7c-6,7.8-11.9,15.6-17.8,23.4
		c-3.1,4.1-2.6,8.4-0.1,12.5c3.5,6,12.4,9.2,17.5,2.2c5.4-7.3,10.7-14.6,15.9-22C324.6,509.8,324.9,507.7,325.6,505.9z"/>
	<path class="st18" d="M336.9,516.7c-3.7-1.6-7.4-1.5-10.1,2.1c-4,5.4-8,10.8-11.8,16.4c-0.8,1.1-0.9,2.7-1.3,4.1
		c0.3,5.3,4.6,10.9,9.6,12.1c3.1,0.8,6.3,0.5,8.3-2c4.4-5.5,8.7-11.2,12.7-17.1c1-1.5,1.2-3.9,0.9-5.8
		C344.3,521.8,341.2,518.5,336.9,516.7z"/>
	<path class="st18" d="M272.3,480.2c-0.2-0.1-0.4-0.2-0.6-0.2c0.8-6.3-5.4-11.6-10.3-12.3c-2.9-0.4-5.6-0.1-7.6,2.3
		c-2.5,3.2-5,6.5-7.3,9.8c-1,1.4-1.9,3.2-2,4.9c-0.4,5.8,2.7,9.7,7.6,12.3c3.9,2.1,7.5,1.5,10.4-1.7c2.6-2.9,5.1-6.1,7.3-9.4
		C271,484.3,271.5,482.2,272.3,480.2z"/>
	<path class="st18" d="M338.7,225.5C338.7,225.5,338.7,225.5,338.7,225.5c2.6,8.9,5.8,12.8,7.4,14.5c2.3,2.5,7.4,8,14.6,8h0.2h0.1
		h0.2c7.2,0,12.3-5.5,14.6-8c1.6-1.7,4.8-5.6,7.4-14.4c0,0,0,0,0-0.1c1.2-4.2,2.5-8.5,3.2-12.7c0.3-2,0.4-4.1,0.4-6.2
		c0-1.4,0-2.8-0.2-4.2c-0.1-0.1-0.2-0.3-0.3-0.6c-0.6-3.2-1.8-6.4-3.9-9.4c-4.1-5.9-11.7-11.5-21.3-11.7H361c0,0,0,0,0,0
		c0,0,0,0,0,0h-0.1c-9.6,0.2-17.2,5.7-21.3,11.7c-2.1,3-3.3,6.2-3.9,9.4c-0.1,0.3-0.2,0.5-0.3,0.6c-0.2,1.4-0.2,2.8-0.2,4.2
		c0,2.1,0.1,4.2,0.4,6.2C336.2,217,337.4,221.2,338.7,225.5z"/>
</g>
</svg>
