<?xml version="1.0" encoding="utf-8"?>
<!-- Generator: Adobe Illustrator 26.5.0, SVG Export Plug-In . SVG Version: 6.00 Build 0)  -->
<svg version="1.1" id="Layer_1" xmlns="http://www.w3.org/2000/svg" xmlns:xlink="http://www.w3.org/1999/xlink" x="0px" y="0px"
	 viewBox="0 0 720 720" style="enable-background:new 0 0 720 720;" xml:space="preserve">
<style type="text/css">
	.st0{clip-path:url(#SVGID_00000174599775668559724930000000614406556828466597_);}
	.st1{clip-path:url(#SVGID_00000164499353606006523750000013113400946394833799_);}
	.st2{clip-path:url(#SVGID_00000181051087952341439900000010288938214556519559_);}
	.st3{clip-path:url(#SVGID_00000164487044679947389370000017038316273589076371_);}
	.st4{clip-path:url(#SVGID_00000144339316633019087360000010610311985715333814_);}
	.st5{clip-path:url(#SVGID_00000175284863571044592510000009818414214564468907_);}
	.st6{clip-path:url(#SVGID_00000098929942685225067300000004214612095358566557_);}
	.st7{clip-path:url(#SVGID_00000062150401062757847760000012937016539973570712_);}
	.st8{clip-path:url(#SVGID_00000049196600870170414670000004601444443651692202_);}
	.st9{clip-path:url(#SVGID_00000117665836708983942160000008725536212348897705_);}
	.st10{clip-path:url(#SVGID_00000173858636858589344570000017169205350166450860_);}
	.st11{clip-path:url(#SVGID_00000181775343506935269150000014322224917818163350_);}
	.st12{clip-path:url(#SVGID_00000067941554682360007740000014088128190037638289_);}
	.st13{clip-path:url(#SVGID_00000164483440306446850790000014005043017216069038_);}
	.st14{clip-path:url(#SVGID_00000061471831560123864320000016051201779293055882_);}
	.st15{clip-path:url(#SVGID_00000025427442962656942670000009555654202658451585_);}
	.st16{fill:#BC1823;}
	.st17{opacity:0.36;fill:#BC1823;}
	.st18{fill:#030E19;}
	.st19{fill:#F79D27;}
	.st20{fill:#003556;}
	.st21{fill:#43ADD9;}
	.st22{fill:#83C8E4;}
	.st23{fill:#8E1E1E;}
	.st24{fill:#282828;}
	.st25{fill:#FFA800;}
	.st26{fill:#010F2C;}
	.st27{enable-background:new    ;}
	.st28{fill:#00618C;}
	.st29{fill:#FFFFFF;}
	.st30{fill:#5B0A0A;}
</style>
<g>
	<g>
		<path class="st19" d="M507.7,138v178.2l-27.2-26.3c-1.9-1.8-4.9-1.8-6.8,0l-51.4,51.4L315.1,234c-1.8-1.8-5-1.8-6.8,0L213,329.5
			V138c0-3.5,2.9-6.4,6.4-6.4h281.9C504.8,131.6,507.7,134.5,507.7,138z"/>
		<path class="st20" d="M395.7,328.5h-56.2c0,0-5.2-0.1-9.6,5c-0.2,0.2-0.4,0.5-0.5,0.7c0,0,0,0,0,0l-77.4,92h-32.6
			c-3.5,0-6.4-2.9-6.4-6.4v-76.6l98.7-99L395.7,328.5z"/>
		<path class="st20" d="M507.7,329.7v90.2c0,3.5-2.9,6.4-6.4,6.4h-84.5l-15.5-18.4v-47.1h0.6c1.4,0,2.6-1.1,2.6-2.6v-0.8
			c0-1.4-1.1-2.6-2.6-2.6h-26.4c-1.4,0-2.6,1.1-2.6,2.6v0.8c0,1.4,1.1,2.6,2.6,2.6h1.3v18.2l-31.3-37c0,0-0.2-0.2-0.4-0.5
			c-0.2-0.3-0.4-0.8-0.4-1.4c0-1.2,1.1-2.6,2-2.6h58l14,14c0.9,0.9,2.1,1.4,3.4,1.4h0c1.3,0,2.5-0.5,3.4-1.4l51.5-51.5L507.7,329.7z
			"/>
		<g>
			<g>
				<path class="st19" d="M396,426.3h-4.2L334,356.7l-57.3,69.6h-4.2l60.3-73.2c0.3-0.4,0.8-0.6,1.2-0.6c0.5,0,0.9,0.2,1.2,0.6
					L396,426.3z"/>
			</g>
		</g>
		<rect x="321.2" y="399.8" class="st20" width="12.2" height="12.2"/>
		<rect x="334.6" y="399.8" class="st20" width="12.2" height="12.2"/>
		<rect x="321.2" y="413.3" class="st20" width="12.2" height="12.2"/>
		<rect x="334.6" y="413.3" class="st20" width="12.2" height="12.2"/>
	</g>
	<g>
		<g>
			<path class="st19" d="M212.7,497.5v-43.2h6.6l18.9,31.5h-3.5l18.6-31.5h6.6l0.1,43.2h-7.6l-0.1-31.3h1.6l-15.8,26.4h-3.6
				l-16.1-26.4h1.9v31.3H212.7z"/>
			<path class="st19" d="M285.7,497.9c-3.4,0-6.4-0.7-9-2.2c-2.6-1.5-4.7-3.5-6.2-6c-1.5-2.6-2.3-5.5-2.3-8.7c0-3.3,0.8-6.2,2.3-8.7
				c1.5-2.5,3.6-4.5,6.2-6c2.6-1.4,5.6-2.2,9-2.2c3.4,0,6.5,0.7,9.1,2.2c2.7,1.4,4.7,3.4,6.2,5.9c1.5,2.5,2.3,5.4,2.3,8.8
				c0,3.3-0.8,6.2-2.3,8.7c-1.5,2.6-3.6,4.6-6.2,6C292.2,497.2,289.1,497.9,285.7,497.9z M285.7,491.3c1.9,0,3.6-0.4,5.1-1.2
				c1.5-0.8,2.6-2,3.5-3.6c0.8-1.6,1.3-3.4,1.3-5.5c0-2.1-0.4-4-1.3-5.5c-0.8-1.5-2-2.7-3.5-3.5c-1.5-0.8-3.1-1.2-5-1.2
				c-1.9,0-3.6,0.4-5,1.2c-1.5,0.8-2.6,2-3.5,3.5c-0.9,1.5-1.3,3.4-1.3,5.5c0,2.1,0.4,3.9,1.3,5.5c0.9,1.6,2,2.8,3.5,3.6
				C282.2,490.9,283.8,491.3,285.7,491.3z"/>
			<path class="st19" d="M324.7,497.9c-2.8,0-5.3-0.5-7.4-1.6c-2.1-1-3.8-2.7-5-4.8c-1.2-2.2-1.8-4.9-1.8-8.2v-18.8h7.7v17.8
				c0,3,0.7,5.2,2,6.6c1.3,1.5,3.2,2.2,5.7,2.2c1.8,0,3.4-0.4,4.7-1.1c1.3-0.7,2.4-1.9,3.1-3.3c0.8-1.5,1.1-3.3,1.1-5.5v-16.7h7.7
				v33h-7.3v-8.9l1.3,2.7c-1.1,2.1-2.7,3.8-4.9,4.9C329.6,497.3,327.2,497.9,324.7,497.9z"/>
			<path class="st19" d="M371.5,464.1c2.6,0,5,0.5,7.1,1.5c2.1,1,3.7,2.6,4.9,4.7c1.2,2.1,1.8,4.8,1.8,8.2v18.9h-7.7v-17.9
				c0-2.9-0.7-5.1-2.1-6.5c-1.4-1.4-3.3-2.2-5.8-2.2c-1.8,0-3.4,0.4-4.8,1.1c-1.4,0.7-2.5,1.8-3.2,3.3c-0.8,1.5-1.1,3.3-1.1,5.5
				v16.7h-7.7v-33h7.3v8.9l-1.3-2.7c1.2-2.1,2.8-3.7,5-4.8C366,464.7,368.6,464.1,371.5,464.1z"/>
			<path class="st19" d="M390.7,470.9v-6.2h22v6.2H390.7z M407.4,497.9c-3.6,0-6.4-0.9-8.4-2.8c-2-1.9-3-4.6-3-8.3v-29.6h7.7v29.4
				c0,1.6,0.4,2.8,1.2,3.6c0.8,0.9,1.9,1.3,3.4,1.3c1.7,0,3.2-0.5,4.3-1.4l2.2,5.5c-0.9,0.7-2,1.3-3.3,1.7
				C410.2,497.7,408.8,497.9,407.4,497.9z"/>
			<path class="st19" d="M431.2,497.9c-2.5,0-4.6-0.4-6.5-1.3c-1.9-0.8-3.3-2-4.3-3.5c-1-1.5-1.5-3.2-1.5-5.1c0-1.9,0.4-3.5,1.3-5
				c0.9-1.5,2.3-2.7,4.4-3.5c2-0.9,4.7-1.3,8-1.3h9.6v5.1h-9c-2.6,0-4.4,0.4-5.3,1.3c-0.9,0.8-1.4,1.9-1.4,3.1
				c0,1.4,0.6,2.5,1.7,3.3c1.1,0.8,2.7,1.2,4.6,1.2c1.9,0,3.6-0.4,5.1-1.3c1.5-0.9,2.6-2.1,3.2-3.8l1.3,4.6c-0.7,1.9-2.1,3.4-4,4.5
				C436.5,497.4,434.1,497.9,431.2,497.9z M441.5,497.5v-6.7l-0.4-1.4v-11.7c0-2.3-0.7-4-2-5.3c-1.4-1.3-3.4-1.9-6.2-1.9
				c-1.9,0-3.7,0.3-5.5,0.9c-1.8,0.6-3.3,1.4-4.5,2.4l-3-5.6c1.8-1.4,3.9-2.4,6.3-3.1c2.4-0.7,5-1,7.6-1c4.8,0,8.5,1.1,11.1,3.4
				c2.6,2.3,3.9,5.8,3.9,10.6v19.3H441.5z"/>
			<path class="st19" d="M462.6,459.1c-1.4,0-2.6-0.5-3.6-1.4c-0.9-0.9-1.4-2-1.4-3.3c0-1.3,0.5-2.4,1.4-3.3
				c0.9-0.9,2.1-1.3,3.6-1.3c1.4,0,2.6,0.4,3.5,1.3c0.9,0.8,1.4,1.9,1.4,3.2c0,1.4-0.5,2.5-1.4,3.4
				C465.2,458.6,464.1,459.1,462.6,459.1z M458.7,497.5v-33h7.7v33H458.7z"/>
			<path class="st19" d="M495.2,464.1c2.6,0,5,0.5,7.1,1.5c2.1,1,3.7,2.6,4.9,4.7c1.2,2.1,1.8,4.8,1.8,8.2v18.9h-7.7v-17.9
				c0-2.9-0.7-5.1-2.1-6.5c-1.4-1.4-3.3-2.2-5.8-2.2c-1.8,0-3.4,0.4-4.8,1.1c-1.4,0.7-2.5,1.8-3.2,3.3c-0.8,1.5-1.1,3.3-1.1,5.5
				v16.7h-7.7v-33h7.3v8.9l-1.3-2.7c1.2-2.1,2.8-3.7,5-4.8C489.8,464.7,492.4,464.1,495.2,464.1z"/>
			<path class="st19" d="M273.1,550.8h-8v-43.2h8V550.8z M296.1,532.3h-23.6v-6.9h23.6V532.3z M295.5,507.6h8v43.2h-8V507.6z"/>
			<path class="st19" d="M329.2,551.2c-3.4,0-6.4-0.7-9-2.2c-2.6-1.5-4.7-3.5-6.2-6c-1.5-2.6-2.3-5.5-2.3-8.7c0-3.3,0.8-6.2,2.3-8.7
				c1.5-2.5,3.6-4.5,6.2-6c2.6-1.4,5.6-2.2,9-2.2c3.4,0,6.5,0.7,9.1,2.2c2.7,1.4,4.7,3.4,6.2,5.9c1.5,2.5,2.3,5.4,2.3,8.8
				c0,3.3-0.8,6.2-2.3,8.7c-1.5,2.6-3.6,4.6-6.2,6C335.6,550.5,332.6,551.2,329.2,551.2z M329.2,544.6c1.9,0,3.6-0.4,5.1-1.2
				c1.5-0.8,2.6-2,3.5-3.6c0.8-1.6,1.3-3.4,1.3-5.5c0-2.1-0.4-4-1.3-5.5c-0.8-1.5-2-2.7-3.5-3.5c-1.5-0.8-3.1-1.2-5-1.2
				c-1.9,0-3.6,0.4-5,1.2c-1.5,0.8-2.6,2-3.5,3.5c-0.9,1.5-1.3,3.4-1.3,5.5c0,2.1,0.4,3.9,1.3,5.5c0.9,1.6,2,2.8,3.5,3.6
				C325.7,544.2,327.3,544.6,329.2,544.6z"/>
			<path class="st19" d="M368.1,551.2c-2.8,0-5.3-0.5-7.4-1.6c-2.1-1-3.8-2.7-5-4.8c-1.2-2.2-1.8-4.9-1.8-8.2v-18.8h7.7v17.8
				c0,3,0.7,5.2,2,6.6c1.3,1.5,3.2,2.2,5.7,2.2c1.8,0,3.4-0.4,4.7-1.1c1.3-0.7,2.4-1.9,3.1-3.3c0.8-1.5,1.1-3.3,1.1-5.5v-16.7h7.7
				v33h-7.3v-8.9l1.3,2.7c-1.1,2.1-2.7,3.8-4.9,4.9C373,550.6,370.7,551.2,368.1,551.2z"/>
			<path class="st19" d="M406.4,551.2c-2.8,0-5.4-0.4-7.9-1.1c-2.5-0.7-4.5-1.6-6-2.6l3-5.9c1.5,0.9,3.3,1.7,5.3,2.3
				c2.1,0.6,4.1,0.9,6.2,0.9c2.4,0,4.2-0.3,5.3-1c1.1-0.7,1.6-1.5,1.6-2.7c0-0.9-0.4-1.6-1.1-2.1c-0.7-0.5-1.7-0.8-2.9-1.1
				c-1.2-0.2-2.5-0.5-4-0.7c-1.5-0.2-2.9-0.5-4.4-0.8c-1.5-0.3-2.8-0.9-4-1.5c-1.2-0.7-2.2-1.6-2.9-2.7c-0.7-1.2-1.1-2.7-1.1-4.6
				c0-2.1,0.6-3.9,1.8-5.5c1.2-1.5,2.9-2.7,5-3.6c2.2-0.8,4.7-1.3,7.7-1.3c2.2,0,4.5,0.2,6.7,0.7c2.3,0.5,4.1,1.2,5.6,2.1l-3,5.9
				c-1.6-0.9-3.1-1.6-4.7-1.9c-1.6-0.3-3.2-0.5-4.7-0.5c-2.3,0-4.1,0.4-5.2,1c-1.1,0.7-1.7,1.6-1.7,2.7c0,1,0.4,1.7,1.1,2.2
				c0.7,0.5,1.7,0.9,2.9,1.2c1.2,0.3,2.5,0.5,4,0.7c1.5,0.2,2.9,0.5,4.4,0.8c1.4,0.4,2.8,0.9,4,1.5c1.2,0.6,2.2,1.5,2.9,2.7
				c0.7,1.2,1.1,2.7,1.1,4.5c0,2.1-0.6,3.8-1.8,5.4c-1.2,1.5-2.9,2.7-5.2,3.5C412.1,550.8,409.5,551.2,406.4,551.2z"/>
			<path class="st19" d="M443.5,551.2c-3.7,0-6.9-0.7-9.6-2.2c-2.7-1.5-4.9-3.5-6.4-6c-1.5-2.6-2.3-5.5-2.3-8.7
				c0-3.3,0.7-6.2,2.2-8.7c1.5-2.5,3.5-4.5,6.1-6c2.6-1.4,5.5-2.2,8.8-2.2c3.2,0,6.1,0.7,8.6,2.1c2.5,1.4,4.5,3.4,5.9,5.9
				c1.4,2.6,2.2,5.6,2.2,9c0,0.3,0,0.7,0,1.1c0,0.4-0.1,0.8-0.1,1.2h-27.5v-5.1h23.4l-3,1.6c0-1.9-0.4-3.6-1.2-5
				c-0.8-1.4-1.9-2.6-3.4-3.4c-1.4-0.8-3.1-1.2-4.9-1.2c-1.9,0-3.5,0.4-5,1.2c-1.4,0.8-2.5,2-3.3,3.4c-0.8,1.5-1.2,3.2-1.2,5.2v1.2
				c0,2,0.5,3.7,1.4,5.2c0.9,1.5,2.2,2.7,3.8,3.5c1.6,0.8,3.5,1.2,5.7,1.2c1.9,0,3.5-0.3,5-0.9c1.5-0.6,2.8-1.5,4-2.7l4.1,4.8
				c-1.5,1.7-3.3,3.1-5.6,4C448.9,550.7,446.4,551.2,443.5,551.2z"/>
		</g>
	</g>
	<g>
		<g>
			<polygon class="st20" points="328.8,574.7 335.6,574.7 335.6,573.5 328.8,573.5 328.8,568.9 336.4,568.9 336.4,567.7 
				327.5,567.7 327.5,580.8 336.7,580.8 336.7,579.6 328.8,579.6 			"/>
			<path class="st20" d="M346.9,574.6c-0.5-0.3-1-0.5-1.6-0.6c-0.6-0.2-1.1-0.3-1.7-0.4c-0.6-0.1-1.1-0.3-1.6-0.5
				c-0.5-0.2-0.9-0.4-1.2-0.7c-0.3-0.3-0.4-0.7-0.4-1.2c0-0.4,0.1-0.9,0.4-1.2c0.2-0.4,0.6-0.6,1.1-0.9c0.5-0.2,1.2-0.3,1.9-0.3
				c0.6,0,1.2,0.1,1.8,0.3c0.6,0.2,1.2,0.4,1.8,0.8l0.5-1.1c-0.5-0.4-1.1-0.6-1.9-0.9c-0.7-0.2-1.5-0.3-2.2-0.3
				c-1.1,0-2,0.2-2.7,0.5c-0.7,0.3-1.2,0.8-1.6,1.3c-0.3,0.5-0.5,1.1-0.5,1.8c0,0.7,0.1,1.3,0.4,1.7c0.3,0.4,0.7,0.8,1.2,1
				c0.5,0.3,1,0.5,1.6,0.6c0.6,0.2,1.1,0.3,1.7,0.4c0.6,0.1,1.1,0.3,1.6,0.5c0.5,0.2,0.9,0.4,1.2,0.7c0.3,0.3,0.4,0.7,0.4,1.2
				c0,0.4-0.1,0.8-0.4,1.2c-0.2,0.3-0.6,0.6-1.1,0.8c-0.5,0.2-1.2,0.3-2,0.3c-0.9,0-1.7-0.2-2.5-0.5c-0.8-0.3-1.4-0.7-1.9-1.1
				l-0.5,1.1c0.5,0.5,1.2,0.9,2.1,1.2c0.9,0.3,1.8,0.5,2.8,0.5c1.1,0,2-0.2,2.8-0.5c0.7-0.3,1.3-0.8,1.6-1.3
				c0.3-0.5,0.5-1.1,0.5-1.8c0-0.7-0.1-1.2-0.4-1.7C347.7,575.2,347.4,574.9,346.9,574.6z"/>
			<polygon class="st20" points="359.8,567.7 349.2,567.7 349.2,568.9 353.9,568.9 353.9,580.8 355.2,580.8 355.2,568.9 
				359.8,568.9 			"/>
			<path class="st20" d="M365.3,567.7l-6,13.1h1.4l1.6-3.5h7.3l1.6,3.5h1.5l-6-13.1H365.3z M362.8,576.1l3.2-7l3.2,7H362.8z"/>
			<polygon class="st20" points="372.1,568.9 376.7,568.9 376.7,580.8 378.1,580.8 378.1,568.9 382.7,568.9 382.7,567.7 
				372.1,567.7 			"/>
			<polygon class="st20" points="386.3,579.6 386.3,574.7 393.1,574.7 393.1,573.5 386.3,573.5 386.3,568.9 393.9,568.9 
				393.9,567.7 384.9,567.7 384.9,580.8 394.2,580.8 394.2,579.6 			"/>
		</g>
	</g>
</g>
</svg>
